<svg width="100" height="77" viewBox="0 0 100 77" fill="none" xmlns="http://www.w3.org/2000/svg">
<g clip-path="url(#clip0_878_48)">
<path d="M56.8558 29.9658C55.7388 28.0842 55.7388 28.0842 53.9836 29.4236C53.6804 29.6468 53.6804 29.7904 53.8719 30.0774C56.5845 34.1594 58.0845 38.64 58.4515 43.5193C58.4834 44.0455 58.4355 44.2049 57.8611 44.2049C54.4463 44.1731 51.0476 44.189 47.6328 44.2049C47.1541 44.2049 47.0584 44.0614 47.0584 43.615C47.0265 40.984 46.6914 38.3849 46.2925 35.7858C46.1967 35.2118 46.0052 34.9566 45.3829 35.1958C45 35.3393 44.5532 35.3553 44.1383 35.4191C43.7713 35.4828 43.5958 35.5785 43.6915 36.0569C44.1862 38.5125 44.3617 41.0159 44.5213 43.5034C44.5532 44.0614 44.4255 44.2049 43.8511 44.2049C40.0853 44.1731 36.3354 44.1731 32.5697 44.2049C32.0112 44.2049 31.8676 44.0933 31.8676 43.5193C31.8995 39.0387 31.8835 34.5421 31.8835 30.0614C31.8835 28.9771 31.8835 28.9771 32.9367 28.8974C33.192 28.8815 33.4313 28.7858 33.6866 28.8017C34.4685 28.8815 34.6121 28.6263 34.5004 27.845C34.2451 26.1548 34.293 26.107 32.5697 26.3462C31.9633 26.4259 31.8835 26.2345 31.8835 25.6924C31.9154 22.6628 31.8995 19.6332 31.8995 16.6036C31.8995 15.4236 31.4367 14.9612 30.2719 14.9612C25.9955 15.009 21.8786 15.902 18.0012 17.6878C4.4858 23.8906 -2.67877 38.2573 0.927448 52.64C4.02305 64.9339 12.1291 72.4442 24.4636 75.41C25.5647 75.6811 26.7135 75.6492 27.7986 76C29.5538 76 31.3091 76 33.0643 76C33.1122 75.8405 33.2398 75.8724 33.3675 75.8565C34.5802 75.8086 35.761 75.6013 36.9258 75.3462C50.2178 72.476 59.9833 61.3302 61.0046 47.7767C61.4992 41.4305 60.095 35.4669 56.8558 29.9658ZM29.2826 17.6559C29.2826 20.4623 29.2826 23.189 29.2826 25.9156C29.2826 26.2983 29.139 26.3621 28.7879 26.3302C26.2348 26.1229 23.7456 25.6765 21.2563 24.7835C23.219 21.5466 25.3572 18.6605 29.2826 17.6559ZM22.2616 18.8518C21.5276 19.8086 20.8415 20.6696 20.1713 21.5466C19.9638 21.8177 19.7724 22.1206 19.5968 22.4236C18.7192 23.8268 18.7192 23.8427 17.2193 23.0136C16.6608 22.7106 16.0704 22.4396 15.5438 21.9771C17.6501 20.6218 19.8362 19.6013 22.2616 18.8518ZM2.68269 43.4555C3.25713 36.9179 5.71447 31.2095 10.1983 26.394C11.0281 25.5011 11.9376 24.6719 12.879 23.8746C13.1503 23.6355 13.3577 23.6195 13.6609 23.8268C14.7939 24.6081 15.9906 25.2938 17.2193 25.8837C17.5544 26.0432 17.6501 26.1867 17.4905 26.5534C16.0225 30.173 15.0332 33.9202 14.4747 37.779C14.2035 39.6446 14.0598 41.5102 14.0279 43.3758C14.012 44.1093 13.7726 44.2209 13.1344 44.2049C11.5387 44.1571 9.92705 44.189 8.33137 44.189C6.67187 44.189 5.02833 44.1571 3.36883 44.2049C2.73056 44.2368 2.63482 44.0136 2.68269 43.4555ZM12.8631 67.0706C7.66119 62.7334 4.39006 57.2642 3.11352 50.599C2.92204 49.5945 2.8263 48.574 2.68269 47.5535C2.60291 47.0273 2.69865 46.7721 3.35287 46.7881C5.01237 46.8359 6.65592 46.804 8.31542 46.804C10.0228 46.804 11.7302 46.82 13.4216 46.7881C13.9003 46.7721 13.996 46.9316 13.996 47.3781C14.1396 53.2141 15.2406 58.8747 17.4267 64.2961C17.6182 64.7585 17.5384 64.9498 17.1076 65.1412C15.8949 65.6833 14.7619 66.353 13.6769 67.1184C13.3737 67.3416 13.1663 67.3257 12.8631 67.0706ZM15.5279 69.0159C16.4853 68.3462 17.4746 67.8519 18.4639 67.3416C18.7352 67.2141 18.8469 67.2938 18.9905 67.533C19.8681 69.1594 20.9691 70.6423 22.3733 72.1731C19.8202 71.3918 17.6342 70.3553 15.5279 69.0159ZM29.2826 73.2893C27.7188 73.0022 26.4423 72.2528 25.2774 71.2801C23.7296 69.9726 22.5488 68.3621 21.5276 66.6241C21.2882 66.2095 21.4159 66.0979 21.7989 65.9863C24.0647 65.2688 26.3784 64.7744 28.772 64.6788C29.0751 64.6628 29.2985 64.6469 29.2826 65.0615C29.2666 67.7881 29.2826 70.5148 29.2826 73.2893ZM28.6762 62.0797C25.8997 62.2551 23.1871 62.7813 20.5542 63.7061C20.1394 63.8496 20.0596 63.722 19.9319 63.3872C18.432 59.6719 17.4267 55.8291 16.948 51.8587C16.7725 50.3917 16.6608 48.9248 16.6289 47.4418C16.6129 46.9954 16.6608 46.7881 17.2033 46.7881C21.0329 46.82 24.8626 46.804 28.7081 46.7881C29.1709 46.7881 29.2985 46.8997 29.2985 47.3781C29.2666 49.738 29.2826 52.0819 29.2826 54.4419C29.2826 56.7699 29.2666 59.0979 29.2985 61.4259C29.2985 61.9043 29.1709 62.0478 28.6762 62.0797ZM28.6124 44.2209C24.8306 44.2049 21.0489 44.2049 17.2671 44.2209C16.7406 44.2209 16.6129 44.0774 16.6129 43.5512C16.7246 38.0819 17.8735 32.82 19.8521 27.7334C20.0277 27.271 20.2191 27.1594 20.6978 27.3348C23.2988 28.2755 25.9955 28.7539 28.74 28.9293C29.1868 28.9612 29.2666 29.1207 29.2507 29.5033C29.2347 31.8632 29.2507 34.2072 29.2507 36.5671C29.2507 38.8951 29.2347 41.2232 29.2666 43.5512C29.2985 44.0614 29.1549 44.2209 28.6124 44.2209ZM31.8516 54.394C31.8516 52.066 31.8676 49.738 31.8356 47.41C31.8356 46.9157 31.9633 46.7881 32.458 46.7881C36.2716 46.804 40.0693 46.804 43.883 46.7881C44.3457 46.7881 44.5372 46.8519 44.5213 47.3781C44.3298 52.9111 43.2288 58.2687 41.1703 63.4031C41.0586 63.6583 41.0108 63.8496 40.5959 63.7061C37.9471 62.7653 35.2025 62.2391 32.4101 62.0637C31.9314 62.0318 31.8516 61.8883 31.8516 61.4419C31.8676 59.1138 31.8516 56.7539 31.8516 54.394ZM33.1122 72.9385C32.7292 73.0979 32.3144 73.1936 31.8516 73.3371C31.8516 70.5148 31.8516 67.7722 31.8516 65.0136C31.8516 64.7107 31.9473 64.6628 32.2505 64.6788C34.7079 64.8063 37.1014 65.2687 39.4311 66.0501C39.7023 66.1457 39.8459 66.2095 39.6704 66.4965C38.0428 69.2072 36.1759 71.6788 33.1122 72.9385ZM38.8247 72.1412C39.447 71.3758 39.9417 70.8018 40.4044 70.1959C41.0267 69.3826 41.5852 68.5375 42.0799 67.6287C42.2554 67.2938 42.399 67.2141 42.766 67.3895C43.7234 67.8678 44.6649 68.3781 45.6382 69C43.4841 70.3394 41.3459 71.3758 38.8247 72.1412ZM58.4036 47.4259C57.7653 55.3507 54.3825 61.8564 48.3509 67.0068C47.9839 67.3257 47.7445 67.3576 47.3296 67.0706C46.2446 66.3052 45.0957 65.6514 43.883 65.1093C43.4841 64.9339 43.4681 64.7266 43.6117 64.3758C45.351 60.1503 46.3882 55.7494 46.8509 51.205C46.9786 49.9612 47.1222 48.7175 47.0424 47.4578C47.0105 46.9475 47.1382 46.7721 47.6966 46.7881C49.3721 46.82 51.0635 46.804 52.739 46.804C54.4144 46.804 56.1058 46.82 57.7813 46.7881C58.26 46.7881 58.4515 46.82 58.4036 47.4259Z" fill="white"/>
<path d="M61.228 11.5649C60.5738 4.9795 55.1804 -0.425968 48.5424 -0.952164C39.6864 -1.65376 33.1761 5.47381 33.3516 13.0957C33.3197 13.9248 33.3995 14.9294 33.575 15.918C34.7239 22.2802 37.5163 27.9567 40.8832 33.3941C41.314 34.0957 41.9523 34.2552 42.7023 33.8725C43.3246 33.5536 43.9309 33.2187 44.5373 32.8679C49.3243 30.0615 53.872 26.9362 57.5101 22.6629C60.2068 19.4579 61.6589 15.8542 61.228 11.5649ZM55.5155 21.0205C52.6114 24.4328 49.0211 27.0319 45.2713 29.4078C44.4894 29.9021 43.6756 30.3485 42.8937 30.8269C42.5906 31.0183 42.431 31.0501 42.2236 30.6675C39.6545 26.2028 37.4206 21.5946 36.3036 16.5239C35.3941 12.41 35.8568 8.58315 38.8567 5.41003C42.0799 2.01367 46.0691 0.865605 50.553 2.22096C54.957 3.56037 57.6059 6.65376 58.5154 11.1982C58.643 11.8519 58.643 12.4898 58.659 13.1435C58.7547 16.2369 57.4463 18.7563 55.5155 21.0205Z" fill="white"/>
<path d="M47.8407 6.82903C44.8568 6.76525 42.5749 8.90192 42.5111 11.8199C42.4473 14.6263 44.6653 16.9224 47.5215 17.0341C50.2661 17.1297 52.6277 14.8495 52.7075 11.9953C52.7873 9.28461 50.5374 6.89281 47.8407 6.82903ZM47.6013 14.4031C46.1812 14.4031 45.0961 13.3188 45.0801 11.9156C45.0801 10.4965 46.1652 9.39623 47.5694 9.38028C48.9736 9.38028 50.0746 10.4805 50.0746 11.8837C50.1065 13.3188 49.0215 14.4031 47.6013 14.4031Z" fill="white"/>
</g>
<defs>
<clipPath id="clip0_878_48">
<rect width="100" height="77" fill="white"/>
</clipPath>
</defs>
</svg>
