<svg width="100" height="77" viewBox="0 0 100 77" fill="none" xmlns="http://www.w3.org/2000/svg">
<g clip-path="url(#clip0_878_44)">
<path d="M69.7368 37.6986C69.7368 36.6445 69.3616 36.2514 68.2717 36.2514C66.6637 36.2514 65.0378 36.2514 63.4297 36.2514C62.322 36.2514 62.0361 36.5015 61.7681 37.5914C61.5715 38.3597 61.375 39.128 61.1427 40.0214C59.4096 35.09 57.7301 30.3374 56.0506 25.5847C55.0857 22.8331 53.1025 21.4216 50.208 21.4216C39.6664 21.4216 29.1069 21.4216 18.5652 21.4216C15.7065 21.4216 13.6875 22.8331 12.7405 25.5311C11.8293 28.104 10.9181 30.6947 10.0069 33.2854C9.23858 35.4831 8.45242 37.6808 7.61267 40.0392C7.34466 39.0029 7.11238 38.1453 6.89798 37.2698C6.73717 36.6087 6.32623 36.2871 5.68301 36.2871C3.87843 36.2693 2.07384 36.2693 0.269257 36.2871C-0.588368 36.305 -0.963578 36.7338 -0.981445 37.5914C-0.981445 38.8779 -0.981445 40.1643 -0.981445 41.4329C-0.981445 42.7372 -0.659836 43.0766 0.644468 43.0766C2.37758 43.0766 4.09283 43.0766 5.82595 43.0766C5.82595 43.3804 5.64728 43.5055 5.52221 43.6663C4.50378 45.0956 3.48535 46.525 2.46692 47.9544C1.6629 49.0622 1.26982 50.295 1.28769 51.6708C1.30555 56.0661 1.30555 60.4614 1.28769 64.8567C1.28769 66.1432 1.57356 67.4117 2.50265 68.2515C3.55682 69.2163 3.68189 70.3062 3.57468 71.5391C3.55682 71.7356 3.59255 71.9143 3.57468 72.1108C3.41388 73.4509 3.93203 74.4335 5.147 75.041C7.86281 75.041 10.5608 75.041 13.2766 75.041C14.4915 74.7194 15.0097 74.0941 15.0633 72.8255C15.0811 72.5396 15.0633 72.2538 15.0633 71.9679C15.0633 70.6993 15.0633 70.6993 16.314 70.6993C16.3318 70.6993 16.3318 70.6993 16.3497 70.6993C16.3497 70.6993 16.3497 70.6993 16.3854 70.6993C28.3743 70.6993 40.3811 70.6993 52.3699 70.6993C52.6022 70.6993 52.8523 70.6993 53.0846 70.6993C53.4956 70.6993 53.6742 70.9137 53.6921 71.3247C53.6921 71.8071 53.6921 72.2716 53.71 72.754C53.7457 74.0762 54.246 74.7194 55.4967 75.041C58.2125 75.041 60.9104 75.041 63.6263 75.041C64.8412 74.4335 65.3236 73.4509 65.1986 72.1108C65.1271 71.3604 65.1986 70.5921 65.1807 69.8238C65.1807 69.5201 65.2522 69.3057 65.5023 69.0913C66.8781 67.8942 67.4856 66.3933 67.4856 64.5709C67.4677 60.4435 67.432 56.2984 67.5034 52.171C67.5213 50.4022 67.0389 48.8835 65.9847 47.4898C64.9127 46.0783 63.93 44.6132 62.8401 43.0945C63.0366 43.0767 63.126 43.0766 63.2153 43.0766C64.9306 43.0766 66.6279 43.0766 68.3432 43.0766C69.3438 43.0766 69.7547 42.6836 69.7547 41.7187C69.7368 40.3608 69.7368 39.0208 69.7368 37.6986ZM1.57356 40.8254C1.23408 40.8254 1.14475 40.736 1.12688 40.3966C1.03755 38.4669 1.03755 38.4669 2.9136 38.4669C5.12913 38.4669 5.12913 38.4669 5.4686 40.8254C4.12857 40.8254 2.86 40.8075 1.57356 40.8254ZM12.5797 72.7362C12.2581 73.1292 11.4184 72.8434 10.8109 72.8612C10.257 72.8791 9.72099 72.8612 9.16711 72.8612C8.18442 72.8612 7.21959 72.8434 6.25476 72.8791C5.80808 72.897 5.66514 72.7362 5.70088 72.3074C5.75448 71.6999 5.45074 70.9137 5.84382 70.5385C6.14756 70.2526 6.91585 70.4492 7.4876 70.4492C9.05991 70.4492 10.6144 70.467 12.1867 70.4313C12.5976 70.4313 12.7227 70.5564 12.6869 70.9494C12.6512 71.5569 12.8835 72.361 12.5797 72.7362ZM61.2142 72.8612C60.6424 72.8612 60.0707 72.8612 59.4989 72.8612C58.4984 72.8612 57.4978 72.8434 56.5151 72.8612C56.1399 72.8612 55.997 72.7719 56.0327 72.3967C56.0863 71.7713 55.7826 70.9494 56.1578 70.5564C56.4973 70.1812 57.3191 70.467 57.9266 70.4492C59.4275 70.4313 60.9104 70.467 62.4113 70.4313C62.9294 70.4134 63.0188 70.5921 63.0188 71.0745C63.0009 72.8612 63.0188 72.8612 61.2142 72.8612ZM61.7859 68.2872C61.5894 68.3051 61.4107 68.2872 61.2142 68.2872C43.2755 68.2872 25.3369 68.2872 7.41613 68.2872C5.91528 68.2872 4.68245 67.8048 3.87843 66.4648C3.66402 66.0896 3.53895 65.8573 4.18217 65.8573C24.3721 65.8752 44.562 65.8752 64.7519 65.8752C64.8234 65.8752 64.8948 65.893 65.0199 65.893C64.5732 67.3403 63.394 68.1979 61.7859 68.2872ZM26.8735 56.745C32.2158 56.745 37.5581 56.745 42.9003 56.7272C43.4185 56.7272 43.5793 56.8344 43.5614 57.3883C43.5257 59.1392 43.5614 59.1392 41.7747 59.1392C39.2912 59.1392 36.7898 59.1392 34.3062 59.1392C31.4832 59.1392 28.6602 59.1214 25.8372 59.1571C25.2833 59.1571 25.1225 58.9963 25.1761 58.4782C25.2476 57.9243 24.9438 57.1739 25.3012 56.8522C25.6049 56.5664 26.3375 56.745 26.8735 56.745ZM25.4441 54.5295C25.7836 53.2252 27.0343 52.1889 28.3922 52.1889C32.3766 52.171 36.361 52.1353 40.3453 52.2068C41.7926 52.2246 42.7753 53.1001 43.3649 54.5295C37.3258 54.5295 31.3939 54.5295 25.4441 54.5295ZM25.3012 61.4084C25.6228 61.1225 26.3911 61.3012 26.9449 61.3012C32.2158 61.3012 37.4866 61.319 42.7574 61.2833C43.4364 61.2833 43.5614 61.4977 43.5436 62.1052C43.5078 63.7132 43.5257 63.7132 41.8998 63.7132C39.3626 63.7132 36.8076 63.7132 34.2705 63.7132C31.4475 63.7132 28.6245 63.6954 25.7836 63.7311C25.3012 63.7311 25.0868 63.6239 25.1404 63.1058C25.2476 62.5161 24.926 61.7479 25.3012 61.4084ZM64.4303 49.08C65.0199 49.9019 65.3058 50.7953 65.3058 51.7958C65.3058 55.5479 65.2879 59.3001 65.3236 63.0522C65.3236 63.5703 65.2164 63.7311 64.6626 63.7311C58.5698 63.7132 52.495 63.7132 46.4023 63.7311C45.8484 63.7311 45.7412 63.5882 45.7412 63.0522C45.777 60.6758 45.7591 58.2995 45.7591 55.9231C45.7412 53.0108 44.1153 50.8667 41.3459 50.1521C40.8099 50.0091 40.2203 49.9734 39.6485 49.9734C36.1287 49.9555 32.6088 49.9555 29.089 49.9734C26.0695 49.9912 23.979 51.51 23.1928 54.2436C23.032 54.8333 22.9606 55.4586 22.9606 56.0661C22.9606 58.4246 22.9427 60.7652 22.9784 63.1236C22.9784 63.5703 22.8891 63.7311 22.4067 63.7311C16.2782 63.7132 10.1498 63.7132 4.0035 63.7311C3.53895 63.7311 3.41388 63.606 3.41388 63.1415C3.43175 59.3179 3.43175 55.4943 3.43175 51.6708C3.43175 50.7953 3.66402 49.9912 4.18217 49.2766C5.57581 47.329 6.98731 45.3994 8.34522 43.4161C8.61323 43.0409 8.91697 43.0588 9.25645 43.0588C15.6529 43.0588 22.0493 43.0588 28.4279 43.0588C34.7708 43.0588 41.1136 43.0588 47.4565 43.0588C48.5821 43.0588 49.136 42.7014 49.1538 41.9689C49.1717 41.2185 48.5821 40.8433 47.4207 40.8433C35.0924 40.8433 22.7462 40.8433 10.4178 40.8433C9.57805 40.8433 9.59592 40.8433 9.86393 40.075C11.4898 35.4652 13.1158 30.8555 14.7595 26.2636C15.4206 24.4055 16.5284 23.6372 18.5116 23.6193C21.7456 23.6014 24.9796 23.6193 28.2135 23.6193C35.4319 23.6193 42.6681 23.6193 49.8864 23.6193C52.2806 23.6193 53.2276 24.3161 54.0495 26.6031C55.6396 31.1235 57.2477 35.6439 58.8736 40.1464C59.088 40.7539 58.9987 40.8969 58.3554 40.879C56.5687 40.8433 54.782 40.8611 53.0132 40.8611C52.1198 40.8611 51.6731 41.2006 51.6016 41.8438C51.5302 42.6121 52.0126 43.0588 52.9774 43.0766C55.1394 43.0945 57.3013 43.0945 59.4632 43.0766C59.9456 43.0766 60.2315 43.2196 60.4995 43.6127C61.7859 45.4173 63.1081 47.2576 64.4303 49.08ZM67.4677 40.7003C67.164 41.0934 66.3599 40.7718 65.7882 40.8254C65.6631 40.8433 65.5559 40.8254 65.4308 40.8254C65.0914 40.8254 64.7698 40.8254 64.4303 40.8254C63.1796 40.8254 63.1796 40.8254 63.4833 39.6462C63.7871 38.4848 63.7871 38.4848 64.9663 38.4848C65.681 38.4848 66.3778 38.5027 67.0925 38.4669C67.5213 38.4491 67.6106 38.6099 67.5928 38.9851C67.557 39.5747 67.7714 40.3251 67.4677 40.7003Z" fill="white"/>
<path d="M9.27419 22.4399C9.25632 21.7966 8.82751 21.4393 8.00562 21.3857C7.04079 21.3142 6.23677 20.9033 5.59355 20.1886C4.98607 19.5275 4.82526 18.6878 4.70019 17.8301C4.59299 17.0976 3.96764 16.6688 3.34229 16.8832C2.80627 17.0618 2.60973 17.4728 2.55613 18.0267C2.35959 20.0278 1.18036 21.1892 -0.838634 21.3678C-1.35678 21.4214 -1.69626 21.7073 -2 22.0825C-2 22.3684 -2 22.6543 -2 22.9401C-1.64266 23.3332 -1.21384 23.5476 -0.677829 23.6191C1.28756 23.8871 2.34172 24.9949 2.55613 26.9603C2.64547 27.7107 3.02068 28.1395 3.64603 28.1038C4.30711 28.068 4.62872 27.6928 4.71806 27.0139C5.03967 24.7983 5.86156 23.9764 8.09495 23.5655C8.95258 23.4404 9.29205 23.1188 9.27419 22.4399ZM4.23564 23.1188C3.69963 23.637 3.46736 23.6548 3.07428 23.0831C2.91347 22.8508 2.66333 22.69 2.41319 22.4577C2.94921 22.1004 3.27082 21.6894 3.66389 21.2606C3.84257 21.475 3.9855 21.7252 4.18204 21.8681C4.84313 22.2969 4.80739 22.5649 4.23564 23.1188Z" fill="white"/>
<path d="M40.1488 7.69963C37.7367 7.43162 36.2716 6.21665 35.7177 4.05473C35.6105 3.64378 35.6105 3.21497 35.5212 2.80402C35.3961 2.26801 35.0388 2 34.5027 2C33.9667 2 33.6094 2.28587 33.4843 2.80402C33.4307 3.01843 33.395 3.21497 33.3771 3.42937C33.2699 4.69794 32.716 5.71637 31.7691 6.55613C30.9472 7.27082 29.9824 7.57456 28.9103 7.68176C28.142 7.75323 27.7311 8.12844 27.6954 8.71806C27.6596 9.30767 28.1063 9.71862 28.8925 9.84369C29.0533 9.86156 29.2141 9.89729 29.3749 9.93303C31.2688 10.201 32.4838 11.2731 33.1627 13.0419C33.3771 13.5779 33.3056 14.1675 33.4665 14.7036C33.6094 15.2217 33.931 15.5255 34.467 15.5255C35.0388 15.5433 35.3961 15.2574 35.539 14.6857C35.5748 14.507 35.6284 14.3105 35.6284 14.1318C35.7177 12.8632 36.2716 11.8448 37.2007 10.9872C38.0762 10.201 39.1303 9.93303 40.256 9.82582C40.9171 9.77222 41.1851 9.36128 41.3101 8.77166C41.328 8.19991 40.8635 7.7711 40.1488 7.69963ZM34.7172 10.5226C34.5742 10.737 34.467 10.7728 34.3062 10.5405C33.8417 9.84369 33.2163 9.30767 32.5016 8.78953C33.1806 8.28925 33.8059 7.75323 34.2705 7.07428C34.5027 6.7348 34.6099 6.89561 34.7708 7.12788C35.2353 7.7711 35.8071 8.30711 36.5217 8.78953C35.8249 9.28981 35.1996 9.82582 34.7172 10.5226Z" fill="white"/>
<path d="M70.0399 21.4215C69.754 21.3679 69.4681 21.3858 69.2001 21.3143C67.6099 20.9213 66.663 19.7778 66.4664 18.0089C66.3592 17.0977 65.6981 16.6153 64.9835 16.9369C64.5546 17.1334 64.376 17.4729 64.3045 17.9374C63.965 20.2066 63.0717 21.0642 60.7847 21.4037C60.2129 21.493 59.802 21.761 59.7484 22.3864C59.6948 23.0832 60.0521 23.4405 60.9276 23.6013C63.1253 23.9944 63.965 24.8342 64.3045 26.9782C64.4296 27.7644 64.7691 28.1396 65.3944 28.1396C66.0376 28.1396 66.395 27.7286 66.4843 26.9068C66.6094 25.799 67.0739 24.8878 67.9851 24.2088C68.6284 23.7443 69.3788 23.6549 70.1113 23.5299C70.6831 23.4405 70.9511 23.0653 71.0226 22.6544C71.0226 21.9576 70.6474 21.5287 70.0399 21.4215ZM65.3408 23.6192C65.0013 23.244 64.6261 22.833 64.2509 22.4042C64.6082 22.1184 65.0192 21.7253 65.3587 21.2607C65.7339 21.7253 66.0912 22.1184 66.5558 22.44C66.127 22.8688 65.7339 23.244 65.3408 23.6192Z" fill="white"/>
<path d="M13.7769 51.0275C12.7406 51.0275 11.6865 51.0275 10.6502 51.0275C9.79256 51.0275 9.27441 50.5987 9.27441 49.9197C9.27441 49.2944 9.7747 48.8298 10.5787 48.8298C12.7049 48.8119 14.849 48.8119 16.9752 48.8298C17.8328 48.8298 18.2616 49.2408 18.2616 49.9197C18.2616 50.6165 17.7792 51.0096 16.9037 51.0275C15.8674 51.0453 14.8311 51.0275 13.7769 51.0275Z" fill="white"/>
<path d="M54.9065 51.0275C53.8702 51.0275 52.816 51.0275 51.7797 51.0275C50.9578 51.0096 50.4754 50.6165 50.4575 49.9554C50.4397 49.2765 50.8864 48.8477 51.7261 48.8298C53.888 48.8119 56.05 48.8119 58.194 48.8298C58.9802 48.8298 59.4983 49.3301 59.4626 49.9554C59.4269 50.5987 58.9266 51.0096 58.1047 51.0096C57.0327 51.0453 55.9606 51.0275 54.9065 51.0275Z" fill="white"/>
<path d="M56.7654 37.9842C55.4253 34.1428 54.0853 30.3192 52.7274 26.4956C52.3343 25.37 51.5303 24.834 50.3332 24.834C39.6843 24.834 29.0355 24.834 18.3867 24.834C17.2432 24.834 16.4213 25.3521 16.0282 26.4242C14.6524 30.2835 13.2945 34.1606 11.9366 38.0378C11.6686 38.8061 12.026 39.3957 12.83 39.5565C13.0801 39.6101 13.3481 39.5923 13.6161 39.5923C20.5307 39.5923 27.4453 39.5923 34.3599 39.5923C41.2745 39.5923 48.1891 39.5923 55.1037 39.5923C55.3181 39.5923 55.5325 39.6101 55.7469 39.5744C56.6582 39.4851 57.0691 38.8597 56.7654 37.9842ZM54.1389 37.3946C53.9066 37.3946 53.6565 37.3946 53.4063 37.3946C40.7206 37.3946 28.0171 37.3946 15.3314 37.3946C14.4738 37.3946 14.4738 37.3946 14.7596 36.5906C15.8138 33.6068 16.8858 30.6229 17.9043 27.6391C18.0651 27.1925 18.2437 27.0138 18.744 27.0138C29.1606 27.0316 39.5593 27.0316 49.9758 27.0138C50.4047 27.0138 50.6369 27.1031 50.7977 27.5677C51.8698 30.6944 52.9775 33.8033 54.0853 36.9301C54.1389 37.0551 54.2282 37.1802 54.1389 37.3946Z" fill="white"/>
<path d="M18.8324 53.7435C16.3131 51.796 11.2389 51.8138 8.7196 53.7614C6.2718 55.6731 6.46834 58.514 9.14841 60.1042C10.5778 60.944 12.1322 61.2656 13.7581 61.3013C15.3841 61.2656 16.9564 60.944 18.3857 60.1221C21.1016 58.5498 21.2981 55.6553 18.8324 53.7435ZM17.5817 58.0495C16.7956 58.6391 15.8129 58.9428 13.9368 59.1036C12.7576 59.1215 11.3103 58.9607 10.0418 58.0673C8.91614 57.2812 8.89827 56.3164 9.98817 55.4945C11.8821 54.0651 15.7593 54.1008 17.6175 55.5481C18.6716 56.37 18.6359 57.2633 17.5817 58.0495Z" fill="white"/>
<path d="M59.9629 53.7613C58.48 52.6535 56.7469 52.314 55.3532 52.2961C53.3164 52.2961 51.7619 52.6178 50.3325 53.4575C47.6525 55.0298 47.4381 57.8886 49.8501 59.7825C52.3873 61.7657 57.4079 61.8015 59.9629 59.854C62.3214 58.0494 62.3393 55.548 59.9629 53.7613ZM58.5336 58.1744C56.6397 59.4251 53.1913 59.4073 51.2974 58.1566C50.0109 57.2989 49.9931 56.2805 51.2795 55.4229C52.4051 54.6903 53.6558 54.4402 55.1388 54.4402C56.2644 54.4581 57.4794 54.6903 58.5514 55.405C59.8736 56.2805 59.8557 57.3168 58.5336 58.1744Z" fill="white"/>
</g>
<defs>
<clipPath id="clip0_878_44">
<rect width="100" height="77" fill="white"/>
</clipPath>
</defs>
</svg>
