<svg width="100" height="77" viewBox="0 0 100 77" fill="none" xmlns="http://www.w3.org/2000/svg">
<path d="M68.2774 22.448C66.7718 17.4963 62.0878 14 56.902 14C41.8629 14 26.8239 14 11.7849 14C8.57296 14 5.81274 15.171 3.53764 17.3959C2.11571 18.7677 1.06181 20.3234 0.509764 22.1301C0.208649 23.1004 0.141734 24.0204 0.0915482 24.4721C0.0246337 25.0743 -0.075738 26.1952 0.0915482 27.5502C0.392663 29.9758 1.37965 31.7156 1.73095 32.2677C2.9856 34.2584 4.65846 35.7807 6.81646 36.7342C6.71608 36.7007 6.61571 36.7509 6.51534 36.8011C5.44471 37.3699 4.42426 38.0056 3.5711 38.8587C2.09898 40.3309 1.01162 42.0037 0.442849 43.9275C0.392663 44.1115 0.175191 44.9145 0.0580909 45.9851C0.0580909 45.9851 -0.226296 48.9963 0.861065 51.7732C2.31645 55.4535 6.76627 59.1338 11.2663 59.2007C14.428 59.2509 17.5897 59.2509 20.7681 59.2175C21.4038 59.2175 21.5376 59.3848 21.5209 59.987C21.4707 62.0112 21.4875 64.0353 21.4875 66.0595C21.4875 66.6115 21.7049 67.013 22.257 67.1803C22.7086 67.3141 23.0767 67.1301 23.3611 66.7454C23.5451 66.4944 23.5116 66.1933 23.5116 65.9089C23.5618 59.8532 23.612 53.8141 23.6622 47.7584C23.6956 44.8476 22.809 42.2714 20.9689 40.013C20.2997 39.1933 19.4968 38.4907 18.5265 37.7379C18.9112 37.7379 19.1287 37.7379 19.3462 37.7379C31.6752 37.7379 44.0042 37.7379 56.3332 37.7379C57.3202 37.7379 58.2904 37.7881 59.244 38.0558C63.677 39.2602 66.5711 43.0576 66.5711 47.6914C66.5711 56.5409 66.5711 65.4071 66.5878 74.2565C66.5878 74.842 66.454 74.9758 65.8685 74.9758C55.296 74.9591 44.7402 74.9591 34.1678 74.9591C30.822 74.9591 27.4763 74.9424 24.1306 74.9758C23.5451 74.9758 23.4447 74.8085 23.4614 74.2732C23.5116 72.9851 23.4949 71.697 23.4949 70.4089C23.4949 69.5558 23.1603 69.1208 22.5079 69.1041C21.8388 69.0874 21.4875 69.5056 21.4707 70.3587C21.4373 72.0985 21.4205 73.8216 21.4038 75.5613C21.3871 76.632 21.7551 76.9833 22.8425 76.9833C37.6306 76.9833 52.402 76.9833 67.1901 77C67.809 77 68.2774 76.8494 68.5953 76.3309C68.5953 66.2268 68.5953 56.1227 68.5953 46.0186C68.4614 45.4833 68.5116 44.9145 68.3611 44.3959C67.4243 41.1004 65.467 38.6413 62.4559 36.9851C62.2551 36.8848 62.0711 36.7007 61.8034 36.8178C63.6101 36.0149 65.099 34.8104 66.2867 33.2546C67.5581 31.5818 68.3945 29.7249 68.5785 27.6004C68.5785 27.4665 68.5785 27.3327 68.5785 27.1989C68.3611 26.9312 68.3778 26.6636 68.5785 26.3959C68.5785 26.1283 68.5785 25.8606 68.5785 25.5929C68.3945 25.3253 68.3611 25.0576 68.5785 24.79C68.5785 24.7398 68.5785 24.7063 68.5785 24.6561C68.4614 23.9033 68.4949 23.1506 68.2774 22.448ZM21.2031 57.1933C20.3666 57.1766 19.5302 57.1933 18.5265 57.1933C19.7142 56.3067 20.6678 55.3866 21.5544 54.1989C21.5544 55.1859 21.5544 55.9888 21.5544 56.8085C21.5711 57.0762 21.5209 57.21 21.2031 57.1933ZM21.638 47.474C21.638 52.8271 17.2384 57.1933 11.8685 57.1933C6.51534 57.1933 2.0488 52.777 2.11571 47.4405C2.18263 41.9535 6.44843 37.8383 11.5507 37.7379C17.2217 37.6208 21.6547 41.9703 21.638 47.474ZM12.0525 35.697C6.5488 35.697 2.13244 31.3978 2.11571 25.9944C2.08225 20.6747 6.51534 16.2416 11.8685 16.2082C17.2049 16.1747 21.638 20.6078 21.6547 25.9442C21.6547 31.2472 17.2718 35.697 12.0525 35.697ZM58.1231 35.5967C57.5376 35.6636 56.9689 35.697 56.3834 35.697C43.9875 35.697 31.5915 35.697 19.1956 35.697C19.0283 35.697 18.8611 35.697 18.6101 35.697C25.8871 30.3271 24.7663 20.5074 18.4763 16.1914C18.8443 16.1914 19.0284 16.1914 19.2291 16.1914C31.6417 16.1914 44.0711 16.1914 56.4837 16.1914C60.9001 16.1914 64.5135 18.6506 65.9856 22.6487C68.1101 28.4535 64.2458 34.8104 58.1231 35.5967Z" fill="white"/>
<path d="M23.4946 64.9221H21.5039V71.3794H23.4946V64.9221Z" fill="white"/>
</svg>
