<svg width="100" height="77" viewBox="0 0 100 77" fill="none" xmlns="http://www.w3.org/2000/svg">
<path d="M97.4129 49.1318C96.926 48.719 96.3903 48.2334 96.1956 47.6749C94.8808 43.9112 93.6391 40.1232 92.3487 36.311C92.5435 36.141 92.8113 36.0196 92.86 35.8496C93.0061 35.3397 93.2496 34.7326 93.1278 34.2713C92.9087 33.47 92.1539 33.3486 91.3992 33.3486C87.2115 33.3486 83.0481 33.3486 78.8604 33.3486C78.5195 33.3486 78.1787 33.3486 77.7404 33.3486C77.7404 31.4303 77.7404 29.6334 77.7404 27.8123C77.7404 25.117 76.6448 24.0243 73.8936 24.0243C50.6664 24.0243 27.3905 24.0486 4.13901 24C2.28863 24 0.876497 24.4614 0 26.1368C0 38.1078 0 50.0545 0 62.0256C0.827803 64.1624 2.5808 64.5266 4.67465 64.3081C4.67465 65.3765 4.67465 66.2992 4.67465 67.2219C4.699 69.2859 5.91636 70.5242 8.01021 70.5485C9.00844 70.5728 10.0067 70.5485 11.0293 70.5485C11.8571 73.7052 13.7561 75.7934 16.9213 76.5219C20.1351 77.2746 22.7402 76.1091 24.8584 73.608C25.0289 73.8023 25.1506 73.948 25.2967 74.0937C29.4113 78.6101 36.6181 77.0804 38.4441 71.2527C38.6876 70.5 39.1015 70.5242 39.6615 70.5242C51.1046 70.5242 62.5235 70.5485 73.9666 70.5C74.7701 70.5 75.0622 70.7428 75.2814 71.4712C76.8396 76.4005 83.0724 78.2945 87.1628 75.1378C89.1592 73.5838 90.1088 71.5198 90.2792 68.9702C92.3244 68.9702 94.3208 68.9945 96.3173 68.9702C98.3381 68.9459 99.5798 67.7075 99.5798 65.6921C99.5798 61.9041 99.4824 58.1404 99.6042 54.3525C99.6529 52.2156 99.0198 50.5402 97.4129 49.1318ZM10.9075 67.5133C9.90929 67.5133 8.78932 67.5133 7.62066 67.5133C7.62066 66.4206 7.62066 65.4493 7.62066 64.4295C9.20322 64.4295 10.7371 64.4295 12.2953 64.4295C11.8571 65.4007 11.4188 66.4206 10.9075 67.5133ZM18.6012 73.778C15.9961 73.778 13.8292 71.6169 13.8535 69.0188C13.8779 66.4206 16.0204 64.3081 18.6499 64.3323C21.2794 64.3566 23.3733 66.4934 23.3246 69.1159C23.3246 71.6655 21.182 73.778 18.6012 73.778ZM31.067 73.778C28.4375 73.778 26.3193 71.6169 26.3436 69.0188C26.368 66.372 28.4618 64.3081 31.1156 64.3323C33.7451 64.3566 35.8146 66.4692 35.7903 69.1159C35.766 71.6898 33.6477 73.778 31.067 73.778ZM74.9892 67.2219C74.8918 67.4404 74.4049 67.5376 74.0883 67.5376C71.2154 67.5618 68.3181 67.5618 65.4451 67.5618C56.8506 67.5618 48.2804 67.5618 39.6858 67.5861C38.9067 67.5861 38.5415 67.4161 38.3467 66.6148C38.152 65.8621 37.7137 65.1579 37.3242 64.3323C37.7624 64.3323 38.1276 64.3323 38.4928 64.3323C47.0874 64.3323 55.6576 64.3323 64.2521 64.3323C64.3738 64.3323 64.5199 64.3323 64.6417 64.3323C66.0781 64.3323 66.8329 63.7981 66.8329 62.8269C66.8329 61.8556 66.0781 61.3457 64.6417 61.3457C44.5553 61.3457 24.4689 61.3457 4.38249 61.3457C3.94424 61.3457 3.48164 61.3457 2.946 61.3457C2.946 49.836 2.946 38.4963 2.946 27.0595C3.33556 27.0352 3.72511 27.011 4.09032 27.011C27.2931 27.011 50.4716 27.011 73.6745 26.9867C74.4292 26.9867 74.8188 27.0595 74.8188 28.0065C74.7944 38.7877 74.7944 49.5932 74.7944 60.3744C74.7944 60.6658 74.7701 60.9329 74.7457 61.3457C73.7475 61.3457 72.8223 61.3214 71.8971 61.3457C71.118 61.3699 70.4119 61.5885 70.1928 62.4869C69.9493 63.4825 70.6067 64.2838 71.7754 64.3323C72.944 64.3809 74.1127 64.3323 75.2814 64.3566C75.5979 64.3566 75.9144 64.3566 76.2066 64.3566C75.7927 65.3522 75.4518 66.3235 74.9892 67.2219ZM91.4235 42.9642C92.1052 44.8582 92.7383 46.7765 93.3956 48.7919C90.2305 48.7919 87.1871 48.7919 84.0707 48.7919C84.0707 46.7765 84.0707 44.7368 84.0707 42.5514C86.3593 42.5514 88.6236 42.5514 90.8879 42.5757C91.0583 42.5757 91.3505 42.7942 91.4235 42.9642ZM82.5368 73.778C79.9317 73.8023 77.7648 71.6655 77.7648 69.043C77.7648 66.4206 79.9073 64.3323 82.5368 64.3323C85.142 64.3323 87.3332 66.542 87.2602 69.0916C87.2115 71.6655 85.0933 73.7537 82.5368 73.778ZM96.6338 66.0078C95.6356 66.0078 94.7104 66.0078 93.7852 66.0078C92.9817 66.0078 92.1539 65.9592 91.3505 66.0321C90.2062 66.1292 89.4757 65.8378 88.794 64.7451C87.2845 62.2927 84.8498 61.3457 82.0012 61.3457C80.6134 61.3457 79.2256 61.3457 77.7891 61.3457C77.7891 52.9927 77.7891 44.7368 77.7891 36.4324C78.0569 36.4081 78.3248 36.3595 78.5682 36.3595C81.8307 36.3595 85.1176 36.3595 88.3801 36.3352C88.9888 36.3352 89.3297 36.5052 89.4757 37.1365C89.6705 37.9136 89.9627 38.6663 90.2792 39.589C89.1349 39.589 88.1366 39.589 87.1141 39.589C85.7263 39.589 84.3385 39.5647 82.9264 39.589C81.5629 39.6133 81.0273 40.1232 81.0273 41.4587C81.0029 43.8141 81.0029 46.1694 81.0273 48.5248C81.0516 50.7344 82.2446 51.9 84.4846 51.9C88.0149 51.9243 91.5453 51.9485 95.0756 51.8757C96.0495 51.8514 96.4877 52.3128 96.5608 53.1384C96.6582 54.2796 96.5851 55.4451 96.5851 56.5864C95.3434 56.8292 93.6878 56.2222 93.5174 58.189C93.42 59.2574 94.053 59.5245 96.6095 59.7188C96.6095 60.7143 96.6095 61.7585 96.6095 62.7783C96.6338 63.7981 96.6338 64.8423 96.6338 66.0078Z" fill="white"/>
<path d="M5.42969 61.3213V57.2905" stroke="white" stroke-width="3" stroke-miterlimit="10"/>
<path d="M10.2256 61.3213V57.2905" stroke="white" stroke-width="3" stroke-miterlimit="10"/>
<path d="M15.1191 61.3213V57.2905" stroke="white" stroke-width="3" stroke-miterlimit="10"/>
<path d="M19.5996 61.3213V57.2905" stroke="white" stroke-width="3" stroke-miterlimit="10"/>
<path d="M24.1035 61.3213V57.2905" stroke="white" stroke-width="3" stroke-miterlimit="10"/>
<path d="M28.9004 61.3213V57.2905" stroke="white" stroke-width="3" stroke-miterlimit="10"/>
<path d="M33.8184 61.3213V57.2905" stroke="white" stroke-width="3" stroke-miterlimit="10"/>
<path d="M38.2734 61.3213V57.2905" stroke="white" stroke-width="3" stroke-miterlimit="10"/>
<path d="M43.2402 61.3213V57.2905" stroke="white" stroke-width="3" stroke-miterlimit="10"/>
<path d="M48.0371 61.3213V57.2905" stroke="white" stroke-width="3" stroke-miterlimit="10"/>
<path d="M52.9307 61.3213V57.2905" stroke="white" stroke-width="3" stroke-miterlimit="10"/>
<path d="M57.4102 61.3213V57.2905" stroke="white" stroke-width="3" stroke-miterlimit="10"/>
<path d="M61.915 61.3213V57.2905" stroke="white" stroke-width="3" stroke-miterlimit="10"/>
<path d="M66.7109 61.3213V57.2905" stroke="white" stroke-width="3" stroke-miterlimit="10"/>
<path d="M71.6045 61.3213V57.2905" stroke="white" stroke-width="3" stroke-miterlimit="10"/>
<path d="M74.4292 61.3457H62.1582V64.3567H74.4292V61.3457Z" fill="white"/>
</svg>
