<svg width="100" height="77" viewBox="0 0 100 77" fill="none" xmlns="http://www.w3.org/2000/svg">
<path d="M73.3919 1C49.4973 1.01837 25.6027 1.01837 1.70807 1.01837C0.257129 1.01837 0.0183664 1.25713 0.0183664 2.70807C0.0183664 26.6027 0.0183664 50.5157 0 74.4103C0 75.0715 0.110198 75.6408 0.60609 76.1C3.25084 76.1 5.87723 76.1 8.52199 76.1C9.03624 75.6408 9.16481 75.0715 9.12808 74.4103C9.09134 73.7307 9.12808 73.0512 9.12808 72.3165C28.0821 72.3165 46.9995 72.3165 66.0087 72.3165C66.0087 73.0145 66.0454 73.7124 65.9903 74.4103C65.9536 75.0715 66.0821 75.6408 66.5964 76.1C69.4248 76.1 72.2716 76.1 75.1 76.1C75.1 51.2687 75.1 26.419 75.1 1.58772C74.6225 1.1102 74.0531 1 73.3919 1ZM6.75882 73.7675C5.27114 73.7675 3.85693 73.7675 2.36926 73.7675C2.36926 50.2953 2.36926 26.8782 2.36926 3.38763C3.8202 3.38763 5.25278 3.38763 6.75882 3.38763C6.75882 26.8231 6.75882 50.2586 6.75882 73.7675ZM9.16481 3.36926C28.0821 3.36926 46.9811 3.36926 65.9352 3.36926C65.9352 10.5872 65.9352 17.7868 65.9352 25.0416C63.5292 25.0416 61.1416 25.0416 58.7172 25.0416V25.0599H34.6757C33.9043 25.0599 33.2247 25.0599 32.435 25.0599H10.2301C9.8811 25.0599 9.53214 25.0599 9.16481 25.0599C9.16481 17.8419 9.16481 10.624 9.16481 3.36926ZM9.14644 27.4475C28.1005 27.4475 46.9995 27.4475 65.9536 27.4475C65.9536 27.9434 65.9536 28.4577 65.9536 28.9536C65.9536 35.143 65.9536 41.2958 65.9536 47.4852V47.6138H18.7888C17.9439 47.6138 17.0991 47.6138 16.2542 47.6138C13.885 47.6138 11.5341 47.6138 9.16481 47.6138C9.14644 40.8917 9.14644 34.2064 9.14644 27.4475ZM65.9536 69.8922V70.0391H54.7868C49.1484 70.0391 43.5466 70.0391 37.8714 70.0391H30.8922C25.2537 70.0391 19.6336 70.0391 13.9584 70.0391H9.14644V69.9289C9.14644 63.7395 9.14644 57.5867 9.14644 51.3789C9.14644 50.883 9.14644 50.4055 9.14644 49.9096C28.0638 49.9096 46.9811 49.9096 65.9536 49.9096C65.9536 56.5582 65.9536 63.1885 65.9536 69.8922ZM72.7307 73.7675C71.2614 73.7675 69.8289 73.7675 68.3596 73.7675C68.3596 50.3137 68.3596 26.8782 68.3596 3.38763C69.7921 3.38763 71.2431 3.38763 72.7307 3.38763C72.7307 26.8231 72.7307 50.2402 72.7307 73.7675Z" fill="white"/>
<path d="M36.8616 23.7375C36.8432 23.7375 36.8249 23.7375 36.7881 23.7375C30.7823 23.7375 24.7765 23.7375 18.7707 23.7375C18.6973 23.7375 18.6054 23.7375 18.4952 23.7375C22.0216 21.1295 21.489 16.3726 18.4218 14.2972C18.6054 14.2972 18.6973 14.2972 18.7891 14.2972C23.95 14.2972 29.0926 14.2972 34.2536 14.2972V14.2237H40.4981C39.69 13.636 38.5697 13.2319 37.0636 13.2319C29.7722 13.2319 22.4807 13.2319 15.1893 13.2319C13.6282 13.2319 12.2874 13.8013 11.1854 14.8665C10.5059 15.5277 9.99162 16.2991 9.71613 17.1623C9.56919 17.6399 9.53246 18.0806 9.51409 18.301C9.47736 18.5949 9.44063 19.1275 9.51409 19.7887C9.66103 20.9642 10.1386 21.809 10.3038 22.0661C10.3589 22.1396 10.9099 23.0396 11.8283 23.7008C12.2139 23.9762 12.618 24.1783 12.6731 24.215C12.7833 24.2701 13.0221 24.3803 13.3527 24.5089C13.922 24.7109 14.2159 24.7293 14.3077 24.7293C14.4179 24.7293 14.5097 24.7293 14.5832 24.7293C15.8689 24.7293 17.1729 24.7293 18.4585 24.7293C18.6422 24.7293 18.7524 24.7293 18.8626 24.7293C24.8316 24.7293 30.8191 24.7293 36.7881 24.7293C36.9167 24.7293 37.0453 24.7293 37.1738 24.7293C38.2391 24.7293 39.0105 24.4538 39.4512 24.2701C39.8186 24.1048 40.0941 23.9395 40.241 23.8477C40.2777 23.811 40.3328 23.7926 40.3696 23.7559H36.8616V23.7375ZM15.3179 23.7375C12.6547 23.7375 10.5059 21.6621 10.5059 19.0357C10.4875 16.4644 12.6364 14.3155 15.226 14.2972C17.8157 14.2788 19.9645 16.4277 19.9645 18.999C19.9645 21.5886 17.8524 23.7375 15.3179 23.7375Z" fill="white"/>
<path d="M33.5003 22.1027C33.5554 22.1762 34.1064 23.0761 35.0247 23.7373C35.4104 24.0128 35.8145 24.2148 35.8696 24.2516C35.9798 24.3067 36.2185 24.4169 36.5491 24.5454C37.1185 24.7475 37.4124 24.7658 37.5042 24.7658C37.6144 24.7658 37.7062 24.7658 37.7797 24.7658C39.0653 24.7658 40.3693 24.7658 41.655 24.7658C41.8387 24.7658 41.9488 24.7658 42.059 24.7658C48.0281 24.7658 54.0155 24.7658 59.9846 24.7658C60.1132 24.7658 60.2417 24.7658 60.3703 24.7658C61.4355 24.7658 62.2069 24.4903 62.6477 24.3067C63.0151 24.1414 63.2905 23.9761 63.4375 23.8842C63.9701 23.5353 64.4293 23.0945 64.815 22.5802C64.9986 22.3415 65.7149 21.3497 65.9353 19.8437C66.1006 18.7049 65.8986 17.7683 65.7884 17.3826C65.3843 15.9867 64.1721 13.2869 60.2785 13.2869C52.987 13.2869 45.6956 13.2869 38.4041 13.2869C36.843 13.2869 35.5023 13.8562 34.4003 14.9215C33.7207 15.5827 33.2065 16.354 32.931 17.2173C32.784 17.6948 32.7473 18.1356 32.7289 18.356C32.6922 18.6498 32.6555 19.1825 32.7289 19.8437C32.8391 21.0007 33.3167 21.8456 33.5003 22.1027ZM41.9672 14.3337C47.9914 14.3337 53.9972 14.3337 60.0213 14.3337C62.1702 14.3337 63.915 15.5276 64.6313 17.456C65.6598 20.2661 63.7864 23.3516 60.8295 23.719C60.554 23.7557 60.2785 23.7741 59.9846 23.7741C53.9788 23.7741 47.973 23.7741 41.9672 23.7741C41.8937 23.7741 41.8019 23.7741 41.6917 23.7741C45.2181 21.166 44.6854 16.4091 41.6183 14.3337C41.7836 14.3337 41.8754 14.3337 41.9672 14.3337ZM38.3858 14.3337C40.9754 14.3154 43.1243 16.4642 43.1243 19.0539C43.1243 21.6252 41.0122 23.7741 38.4776 23.7741C35.8145 23.7741 33.6656 21.6987 33.6656 19.0723C33.6473 16.501 35.7961 14.3337 38.3858 14.3337Z" fill="white"/>
<path d="M45.4386 23.7375C40.4246 23.7375 35.4105 23.7375 30.3782 23.7375C30.3047 23.7375 30.2129 23.7375 30.1027 23.7375C33.629 21.1295 33.0964 16.3726 30.0292 14.2972C30.2129 14.2972 30.3047 14.2972 30.3965 14.2972C36.4207 14.2972 42.4265 14.2972 48.4506 14.2972C48.671 14.2972 48.8731 14.3155 49.0751 14.3339H52.2525C51.426 13.6911 50.2689 13.2319 48.671 13.2319C41.3796 13.2319 34.0882 13.2319 26.7967 13.2319C25.2356 13.2319 23.8948 13.8013 22.7929 14.8665C22.1133 15.5277 21.599 16.2991 21.3235 17.1623C21.1766 17.6399 21.1399 18.0806 21.1215 18.301C21.0848 18.5949 21.0481 19.1275 21.1215 19.7887C21.2684 20.9642 21.746 21.809 21.9113 22.0661C21.9664 22.1396 22.5174 23.0396 23.4357 23.7008C23.8214 23.9762 24.2254 24.1783 24.2805 24.215C24.3907 24.2701 24.6295 24.3803 24.9601 24.5089C25.5294 24.7109 25.8233 24.7293 25.9151 24.7293C26.0253 24.7293 26.1172 24.7293 26.1906 24.7293C27.4763 24.7293 28.7803 24.7293 30.0659 24.7293C30.2496 24.7293 30.3598 24.7293 30.47 24.7293C36.4391 24.7293 42.4265 24.7293 48.3955 24.7293C48.5241 24.7293 48.6527 24.7293 48.7812 24.7293C49.8465 24.7293 50.6179 24.4538 51.0587 24.2701C51.426 24.1048 51.7015 23.9395 51.8484 23.8477C51.8852 23.811 51.9219 23.7926 51.977 23.7559H45.4386V23.7375ZM26.9253 23.7375C24.2622 23.7375 22.1133 21.6621 22.1133 19.0357C22.0949 16.4644 24.2438 14.3155 26.8335 14.2972C29.4231 14.2788 31.572 16.4277 31.572 19.0173C31.572 21.5886 29.4598 23.7375 26.9253 23.7375Z" fill="white"/>
<path d="M28.2844 11.3402C28.3212 11.4137 28.7987 12.1667 29.5701 12.7177C29.9007 12.9564 30.2313 13.1217 30.2864 13.1585C30.3782 13.1952 30.5802 13.3054 30.8741 13.3972C31.3516 13.5625 31.6088 13.5809 31.6822 13.5809C31.774 13.5809 31.8475 13.5809 31.9026 13.5809C33.0046 13.5809 34.0882 13.5809 35.1902 13.5809C35.3555 13.5809 35.429 13.5809 35.5208 13.5809C40.5899 13.5809 45.659 13.5809 50.7098 13.5809C50.82 13.5809 50.9302 13.5809 51.0403 13.5809C51.9403 13.5809 52.6015 13.3421 52.9688 13.1768C53.281 13.0483 53.5198 12.9013 53.6484 12.8095C54.0892 12.5157 54.4932 12.1483 54.8238 11.7075C54.9707 11.5055 55.5952 10.6607 55.7605 9.39337C55.9074 8.41996 55.7238 7.6302 55.6319 7.29961C55.283 6.1058 54.2545 3.82837 50.9669 3.82837C44.7958 3.82837 38.6063 3.82837 32.4352 3.82837C31.1129 3.82837 29.9741 4.30589 29.0375 5.22421C28.4497 5.79357 28.0273 6.43639 27.8069 7.17104C27.6784 7.5751 27.66 7.94243 27.6416 8.1261C27.6233 8.36486 27.5682 8.84238 27.6416 9.39337C27.7151 10.3852 28.1375 11.1014 28.2844 11.3402ZM35.4473 4.72832C40.5532 4.72832 45.659 4.72832 50.7465 4.72832C52.5648 4.72832 54.0524 5.73847 54.6402 7.37307C55.5217 9.7607 53.9239 12.3687 51.4077 12.6993C51.1689 12.736 50.9302 12.736 50.6914 12.736C45.6039 12.736 40.4981 12.736 35.4106 12.736C35.3371 12.736 35.2637 12.736 35.1718 12.736C38.1655 10.5321 37.7064 6.49149 35.1167 4.72832C35.3004 4.72832 35.3739 4.72832 35.4473 4.72832ZM32.4352 4.72832C34.6208 4.70995 36.4575 6.52822 36.4575 8.73218C36.4575 10.9178 34.6576 12.736 32.5087 12.736C30.2496 12.736 28.4314 10.9729 28.4314 8.75055C28.413 6.56496 30.2313 4.74669 32.4352 4.72832Z" fill="white"/>
<path d="M41.251 12.7179C41.049 12.7362 40.847 12.7546 40.6449 12.7546C35.5574 12.7546 30.4516 12.7546 25.3641 12.7546C25.2907 12.7546 25.2172 12.7546 25.1254 12.7546C28.1191 10.5506 27.6599 6.51004 25.0703 4.74687C25.2172 4.74687 25.309 4.74687 25.3825 4.74687C30.4883 4.74687 35.5942 4.74687 40.6817 4.74687H40.7H43.859C43.1611 4.21425 42.2061 3.84692 40.8653 3.84692C34.6942 3.84692 28.5048 3.84692 22.3337 3.84692C21.0113 3.84692 19.8726 4.32445 18.9359 5.24277C18.3482 5.81212 17.9258 6.45495 17.7054 7.1896C17.5768 7.59366 17.5584 7.96099 17.5401 8.14465C17.5217 8.38341 17.4666 8.86094 17.5401 9.41193C17.6686 10.4037 18.0727 11.12 18.2196 11.3588C18.2563 11.4322 18.7339 12.1852 19.5053 12.7362C19.8359 12.975 20.1664 13.1403 20.2215 13.177C20.3134 13.2138 20.5154 13.324 20.8093 13.4158C21.2868 13.5811 21.5439 13.5995 21.6174 13.5995C21.7092 13.5995 21.7827 13.5995 21.8378 13.5995C22.9398 13.5995 24.0234 13.5995 25.1254 13.5995C25.2907 13.5995 25.3641 13.5995 25.456 13.5995C30.5251 13.5995 35.5942 13.5995 40.6449 13.5995C40.7551 13.5995 40.8653 13.5995 40.9755 13.5995C41.8755 13.5995 42.5367 13.3607 42.904 13.1954C43.2162 13.0668 43.455 12.9199 43.5835 12.8281C43.6386 12.7913 43.6754 12.7546 43.7305 12.7179H41.251V12.7179ZM22.4439 12.7362C20.1848 12.7362 18.3665 10.9731 18.3665 8.75074C18.3482 6.56514 20.1664 4.74687 22.3704 4.72851C24.556 4.71014 26.3926 6.52841 26.3926 8.73237C26.3743 10.918 24.5927 12.7362 22.4439 12.7362Z" fill="white"/>
<path d="M36.8977 46.5854C36.8794 46.5854 36.861 46.5854 36.8243 46.5854C30.8185 46.5854 24.8127 46.5854 18.8069 46.5854C18.7334 46.5854 18.6416 46.5854 18.5314 46.5854C22.0577 43.9774 21.5251 39.2205 18.4579 37.1451C18.6416 37.1451 18.7334 37.1451 18.8252 37.1451C23.9862 37.1451 29.1288 37.1451 34.2897 37.1451V37.0716H40.5343C39.7261 36.4839 38.6058 36.0798 37.0998 36.0798C29.8083 36.0798 22.5169 36.0798 15.2254 36.0798C13.6643 36.0798 12.3235 36.6492 11.2216 37.7144C10.542 38.3756 10.0278 39.147 9.75226 40.0102C9.60533 40.4878 9.56859 40.9286 9.55023 41.1489C9.5135 41.4428 9.47676 41.9754 9.55023 42.6366C9.69716 43.8121 10.1747 44.6569 10.34 44.914C10.3951 44.9875 10.9461 45.8875 11.8644 46.5487C12.2501 46.8241 12.6541 47.0262 12.7092 47.0629C12.8194 47.118 13.0582 47.2282 13.3888 47.3568C13.9582 47.5588 14.252 47.5772 14.3438 47.5772C14.454 47.5772 14.5459 47.5772 14.6193 47.5772C15.905 47.5772 17.209 47.5772 18.4946 47.5772C18.6783 47.5772 18.7885 47.5772 18.8987 47.5772C24.8678 47.5772 30.8552 47.5772 36.8243 47.5772C36.9528 47.5772 37.0814 47.5772 37.21 47.5772C38.2752 47.5772 39.0466 47.3017 39.4874 47.118C39.8547 46.9527 40.1302 46.7874 40.2771 46.6956C40.3139 46.6589 40.369 46.6405 40.4057 46.6038H36.8977V46.5854ZM15.3356 46.5854C12.6725 46.5854 10.5236 44.51 10.5236 41.8836C10.5053 39.3123 12.6541 37.1634 15.2438 37.1451C17.8335 37.1267 19.9823 39.2756 19.9823 41.8652C20.0007 44.4182 17.8702 46.5854 15.3356 46.5854Z" fill="white"/>
<path d="M33.5189 44.9506C33.574 45.0241 34.125 45.924 35.0433 46.5852C35.429 46.8607 35.833 47.0627 35.8881 47.0995C35.9983 47.1546 36.2371 47.2648 36.5677 47.3933C37.1371 47.5954 37.4309 47.6137 37.5227 47.6137C37.6329 47.6137 37.7248 47.6137 37.7982 47.6137C39.0839 47.6137 40.3879 47.6137 41.6735 47.6137C41.8572 47.6137 41.9674 47.6137 42.0776 47.6137C48.0467 47.6137 54.0341 47.6137 60.0032 47.6137C60.1317 47.6137 60.2603 47.6137 60.3889 47.6137C61.4541 47.6137 62.2255 47.3382 62.6663 47.1546C63.0336 46.9893 63.3091 46.824 63.456 46.7321C63.9887 46.3832 64.4478 45.9424 64.8335 45.4281C65.0172 45.1894 65.7335 44.1976 65.9539 42.6916C66.1192 41.5528 65.9171 40.6162 65.8069 40.2305C65.4029 38.8346 64.1907 36.1348 60.297 36.1348C53.0056 36.1348 45.7141 36.1348 38.4227 36.1348C36.8616 36.1348 35.5208 36.7041 34.4188 37.7694C33.7393 38.4306 33.225 39.2019 32.9495 40.0652C32.8026 40.5427 32.7659 40.9835 32.7475 41.2039C32.7108 41.4977 32.674 42.0304 32.7475 42.6916C32.8577 43.8486 33.3536 44.6935 33.5189 44.9506ZM41.9858 37.1633C48.0099 37.1633 54.0157 37.1633 60.0399 37.1633C62.1888 37.1633 63.9336 38.3571 64.6498 40.2856C65.6784 43.0956 63.805 46.1812 60.848 46.5485C60.5725 46.5852 60.297 46.6036 60.0032 46.6036C53.9974 46.6036 47.9916 46.6036 41.9858 46.6036C41.9123 46.6036 41.8205 46.6036 41.7103 46.6036C45.2366 43.9956 44.704 39.2387 41.6368 37.1633C41.8021 37.1633 41.8939 37.1633 41.9858 37.1633ZM38.4227 37.1633C41.0124 37.1449 43.1612 39.2938 43.1612 41.8834C43.1612 44.4547 41.0491 46.6036 38.5145 46.6036C35.8514 46.6036 33.7025 44.5282 33.7025 41.9018C33.6842 39.3305 35.833 37.1816 38.4227 37.1633Z" fill="white"/>
<path d="M45.4747 46.5854C40.4607 46.5854 35.4467 46.5854 30.4143 46.5854C30.3408 46.5854 30.249 46.5854 30.1388 46.5854C33.6651 43.9774 33.1325 39.2205 30.0653 37.1451C30.249 37.1451 30.3408 37.1451 30.4327 37.1451C36.4568 37.1451 42.4626 37.1451 48.4868 37.1451C48.7072 37.1451 48.9092 37.1634 49.1112 37.1818H52.2886C51.4621 36.539 50.3051 36.0798 48.7072 36.0798C41.4157 36.0798 34.1243 36.0798 26.8329 36.0798C25.2717 36.0798 23.931 36.6492 22.829 37.7144C22.1494 38.3756 21.6352 39.147 21.3597 40.0102C21.2127 40.4878 21.176 40.9286 21.1576 41.1489C21.1209 41.4428 21.0842 41.9754 21.1576 42.6366C21.3046 43.8121 21.7821 44.6569 21.9474 44.914C22.0025 44.9875 22.5535 45.8875 23.4718 46.5487C23.8575 46.8241 24.2616 47.0262 24.3167 47.0629C24.4269 47.118 24.6656 47.2282 24.9962 47.3568C25.5656 47.5588 25.8594 47.5772 25.9513 47.5772C26.0615 47.5772 26.1533 47.5772 26.2268 47.5772C27.5124 47.5772 28.8164 47.5772 30.1021 47.5772C30.2857 47.5772 30.3959 47.5772 30.5061 47.5772C36.4752 47.5772 42.4626 47.5772 48.4317 47.5772C48.5602 47.5772 48.6888 47.5772 48.8174 47.5772C49.8826 47.5772 50.654 47.3017 51.0948 47.118C51.4621 46.9527 51.7376 46.7874 51.8846 46.6956C51.9213 46.6589 51.958 46.6405 52.0131 46.6038H45.4747V46.5854ZM26.9614 46.5854C24.2983 46.5854 22.1494 44.51 22.1494 41.8836C22.1311 39.3123 24.2799 37.1634 26.8696 37.1451C29.4592 37.1267 31.6081 39.2756 31.6081 41.8652C31.6081 44.4182 29.4776 46.5854 26.9614 46.5854Z" fill="white"/>
<path d="M27.7696 34.5921C27.8063 34.6472 28.2655 35.3818 29.0001 35.9145C29.3124 36.1349 29.6246 36.3001 29.6797 36.3185C29.7715 36.3552 29.9736 36.4654 30.2307 36.5573C30.6899 36.7226 30.9286 36.7409 31.0021 36.7409C31.0939 36.7409 31.1674 36.7409 31.2225 36.7409C32.2694 36.7409 33.3162 36.7409 34.3448 36.7409C34.4917 36.7409 34.5835 36.7409 34.657 36.7409C39.4873 36.7409 44.3177 36.7409 49.148 36.7409C49.2582 36.7409 49.3501 36.7409 49.4603 36.7409C50.3235 36.7409 50.9479 36.5205 51.2969 36.3552C51.5908 36.2267 51.8112 36.0798 51.9397 36.0063C52.3621 35.7308 52.7295 35.3635 53.0601 34.9594C53.207 34.7757 53.7947 33.9676 53.96 32.7371C54.0886 31.8188 53.9233 31.0474 53.8315 30.7351C53.5009 29.5964 52.5274 27.4292 49.3684 27.4292C43.4728 27.4292 37.5772 27.4292 31.6816 27.4292C30.4327 27.4292 29.3491 27.8884 28.4492 28.7516C27.8982 29.2842 27.4941 29.9087 27.2737 30.6066C27.1635 30.9923 27.1268 31.3412 27.1084 31.5249C27.0901 31.7637 27.035 32.2045 27.1084 32.7371C27.237 33.6921 27.641 34.39 27.7696 34.5921ZM34.6203 28.3108C39.4873 28.3108 44.3544 28.3108 49.2215 28.3108C50.9479 28.3108 52.3621 29.2658 52.9499 30.8453C53.7947 33.1228 52.2703 35.6022 49.8643 35.9145C49.6439 35.9512 49.4052 35.9512 49.1848 35.9512C44.336 35.9512 39.469 35.9512 34.6203 35.9512C34.5468 35.9512 34.4917 35.9512 34.3999 35.9512C37.2466 33.8574 36.8058 30.0005 34.3448 28.3108C34.4733 28.3108 34.5468 28.3108 34.6203 28.3108ZM31.7367 28.3108C33.8305 28.2924 35.5753 30.0372 35.5753 32.131C35.5753 34.2064 33.8672 35.9512 31.8102 35.9512C29.643 35.9512 27.9349 34.2615 27.9165 32.1494C27.8982 30.0556 29.643 28.3108 31.7367 28.3108Z" fill="white"/>
<path d="M40.149 35.9144C39.9654 35.9328 39.7633 35.9511 39.5797 35.9511C34.731 35.9511 29.8639 35.9511 25.0152 35.9511C24.9417 35.9511 24.8866 35.9511 24.7948 35.9511C27.6416 33.8574 27.2008 30.0004 24.7397 28.3107C24.8866 28.3107 24.9601 28.3107 25.0335 28.3107C29.9006 28.3107 34.7677 28.3107 39.6348 28.3107H39.6531H42.6652C42.004 27.8148 41.0857 27.4475 39.8001 27.4475C33.9045 27.4475 28.0089 27.4475 22.1133 27.4475C20.8644 27.4475 19.7808 27.9067 18.8808 28.7699C18.3298 29.3025 17.9258 29.927 17.7054 30.6249C17.5952 31.0106 17.5584 31.3595 17.5401 31.5432C17.5217 31.782 17.4666 32.2228 17.5401 32.7554C17.6503 33.7104 18.0543 34.39 18.1829 34.6104C18.2196 34.6655 18.6788 35.4001 19.4134 35.9328C19.7257 36.1532 20.0379 36.3185 20.093 36.3368C20.1848 36.3736 20.3868 36.4838 20.644 36.5756C21.1031 36.7409 21.3419 36.7592 21.4154 36.7592C21.5072 36.7592 21.5807 36.7592 21.6358 36.7592C22.6826 36.7592 23.7295 36.7592 24.758 36.7592C24.905 36.7592 24.9968 36.7592 25.0703 36.7592C29.9006 36.7592 34.731 36.7592 39.5613 36.7592C39.6715 36.7592 39.7633 36.7592 39.8735 36.7592C40.7368 36.7592 41.3612 36.5389 41.7102 36.3736C42.004 36.245 42.2244 36.0981 42.353 36.0246C42.4081 35.9879 42.4448 35.9511 42.4999 35.9144H40.149V35.9144ZM22.2051 35.9511C20.0379 35.9511 18.3298 34.2614 18.3114 32.1493C18.2931 30.0739 20.0379 28.3291 22.1316 28.3107C24.2254 28.2924 25.9702 30.0372 25.9702 32.1309C25.9702 34.2063 24.2621 35.9511 22.2051 35.9511Z" fill="white"/>
<path d="M36.8977 69.029C36.8794 69.029 36.861 69.029 36.8243 69.029C30.8185 69.029 24.8127 69.029 18.8069 69.029C18.7334 69.029 18.6416 69.029 18.5314 69.029C22.0577 66.421 21.5251 61.6641 18.4579 59.5887C18.6416 59.5887 18.7334 59.5887 18.8252 59.5887C23.9862 59.5887 29.1288 59.5887 34.2897 59.5887V59.5152H40.5343C39.7261 58.9275 38.6058 58.5234 37.0998 58.5234C29.8083 58.5234 22.5169 58.5234 15.2254 58.5234C13.6643 58.5234 12.3235 59.0928 11.2216 60.158C10.542 60.8192 10.0278 61.5906 9.75226 62.4538C9.60533 62.9314 9.56859 63.3721 9.55023 63.5925C9.5135 63.8864 9.47676 64.419 9.55023 65.0802C9.69716 66.2557 10.1747 67.1005 10.34 67.3576C10.3951 67.4311 10.9461 68.3311 11.8644 68.9923C12.2501 69.2678 12.6541 69.4698 12.7092 69.5065C12.8194 69.5616 13.0582 69.6718 13.3888 69.8004C13.9582 70.0024 14.252 70.0208 14.3438 70.0208C14.454 70.0208 14.5459 70.0208 14.6193 70.0208C15.905 70.0208 17.209 70.0208 18.4946 70.0208C18.6783 70.0208 18.7885 70.0208 18.8987 70.0208C24.8678 70.0208 30.8552 70.0208 36.8243 70.0208C36.9528 70.0208 37.0814 70.0208 37.21 70.0208C38.2752 70.0208 39.0466 69.7453 39.4874 69.5616C39.8547 69.3963 40.1302 69.231 40.2771 69.1392C40.3139 69.1025 40.369 69.0841 40.4057 69.0474H36.8977V69.029ZM15.3356 69.029C12.6725 69.029 10.5236 66.9536 10.5236 64.3272C10.5053 61.7375 12.6541 59.5887 15.2438 59.5887C17.8335 59.5703 19.9823 61.7192 19.9823 64.3088C20.0007 66.8618 17.8702 69.029 15.3356 69.029Z" fill="white"/>
<path d="M33.5189 67.3942C33.574 67.4677 34.125 68.3676 35.0433 69.0288C35.429 69.3043 35.833 69.5063 35.8881 69.5431C35.9983 69.5982 36.2371 69.7084 36.5677 69.8369C37.1371 70.039 37.4309 70.0573 37.5227 70.0573C37.6329 70.0573 37.7248 70.0573 37.7982 70.0573C39.0839 70.0573 40.3879 70.0573 41.6735 70.0573C41.8572 70.0573 41.9674 70.0573 42.0776 70.0573C48.0467 70.0573 54.0341 70.0573 60.0032 70.0573C60.1317 70.0573 60.2603 70.0573 60.3889 70.0573C61.4541 70.0573 62.2255 69.7818 62.6663 69.5982C63.0336 69.4329 63.3091 69.2676 63.456 69.1758C63.9887 68.8268 64.4478 68.386 64.8335 67.8717C65.0172 67.633 65.7335 66.6412 65.9539 65.1352C66.1192 63.9964 65.9171 63.0598 65.8069 62.6741C65.4029 61.2782 64.1907 58.5784 60.297 58.5784C53.0056 58.5784 45.7141 58.5784 38.4227 58.5784C36.8616 58.5784 35.5208 59.1477 34.4188 60.213C33.7393 60.8742 33.225 61.6455 32.9495 62.5088C32.8026 62.9863 32.7659 63.4271 32.7475 63.6475C32.7108 63.9413 32.674 64.474 32.7475 65.1352C32.8577 66.2922 33.3536 67.1371 33.5189 67.3942ZM41.9858 59.6253C48.0099 59.6253 54.0157 59.6253 60.0399 59.6253C62.1888 59.6253 63.9336 60.8191 64.6498 62.7475C65.6784 65.5576 63.805 68.6431 60.848 69.0105C60.5725 69.0472 60.297 69.0656 60.0032 69.0656C53.9974 69.0656 47.9916 69.0656 41.9858 69.0656C41.9123 69.0656 41.8205 69.0656 41.7103 69.0656C45.2366 66.4575 44.704 61.7007 41.6368 59.6253C41.8021 59.6253 41.8939 59.6253 41.9858 59.6253ZM38.4227 59.6253C41.0124 59.6069 43.1612 61.7557 43.1612 64.3454C43.1612 66.9167 41.0491 69.0656 38.5145 69.0656C35.8514 69.0656 33.7025 66.9902 33.7025 64.3638C33.6842 61.7925 35.833 59.6253 38.4227 59.6253Z" fill="white"/>
<path d="M45.4747 69.029C40.4607 69.029 35.4467 69.029 30.4143 69.029C30.3408 69.029 30.249 69.029 30.1388 69.029C33.6651 66.421 33.1325 61.6641 30.0653 59.5887C30.249 59.5887 30.3408 59.5887 30.4327 59.5887C36.4568 59.5887 42.4626 59.5887 48.4868 59.5887C48.7072 59.5887 48.9092 59.6071 49.1112 59.6254H52.2886C51.4621 58.9826 50.3051 58.5234 48.7072 58.5234C41.4157 58.5234 34.1243 58.5234 26.8329 58.5234C25.2717 58.5234 23.931 59.0928 22.829 60.158C22.1494 60.8192 21.6352 61.5906 21.3597 62.4538C21.2127 62.9314 21.176 63.3721 21.1576 63.5925C21.1209 63.8864 21.0842 64.419 21.1576 65.0802C21.3046 66.2557 21.7821 67.1005 21.9474 67.3576C22.0025 67.4311 22.5535 68.3311 23.4718 68.9923C23.8575 69.2678 24.2616 69.4698 24.3167 69.5065C24.4269 69.5616 24.6656 69.6718 24.9962 69.8004C25.5656 70.0024 25.8594 70.0208 25.9513 70.0208C26.0615 70.0208 26.1533 70.0208 26.2268 70.0208C27.5124 70.0208 28.8164 70.0208 30.1021 70.0208C30.2857 70.0208 30.3959 70.0208 30.5061 70.0208C36.4752 70.0208 42.4626 70.0208 48.4317 70.0208C48.5602 70.0208 48.6888 70.0208 48.8174 70.0208C49.8826 70.0208 50.654 69.7453 51.0948 69.5616C51.4621 69.3963 51.7376 69.231 51.8846 69.1392C51.9213 69.1025 51.958 69.0841 52.0131 69.0474H45.4747V69.029ZM26.9614 69.029C24.2983 69.029 22.1494 66.9536 22.1494 64.3272C22.1311 61.7559 24.2799 59.607 26.8696 59.5887C29.4592 59.5703 31.6081 61.7192 31.6081 64.3088C31.6081 66.8618 29.4776 69.029 26.9614 69.029Z" fill="white"/>
<path d="M27.7696 57.054C27.8063 57.1091 28.2655 57.8437 29.0001 58.3764C29.3124 58.5968 29.6246 58.7621 29.6797 58.7804C29.7715 58.8172 29.9736 58.9274 30.2307 59.0192C30.6899 59.1845 30.9286 59.2028 31.0021 59.2028C31.0939 59.2028 31.1674 59.2028 31.2225 59.2028C32.2694 59.2028 33.3162 59.2028 34.3448 59.2028C34.4917 59.2028 34.5835 59.2028 34.657 59.2028C39.4873 59.2028 44.3177 59.2028 49.148 59.2028C49.2582 59.2028 49.3501 59.2028 49.4603 59.2028C50.3235 59.2028 50.9479 58.9825 51.2969 58.8172C51.5908 58.6886 51.8112 58.5417 51.9397 58.4682C52.3621 58.1927 52.7295 57.8254 53.0601 57.4213C53.207 57.2377 53.7947 56.4295 53.96 55.199C54.0886 54.2807 53.9233 53.5093 53.8315 53.1971C53.5009 52.0583 52.5274 49.8911 49.3684 49.8911C43.4728 49.8911 37.5772 49.8911 31.6816 49.8911C30.4327 49.8911 29.3491 50.3503 28.4492 51.2135C27.8982 51.7461 27.4941 52.3706 27.2737 53.0685C27.1635 53.4542 27.1268 53.8031 27.1084 53.9868C27.0901 54.2256 27.035 54.6664 27.1084 55.199C27.237 56.154 27.641 56.8336 27.7696 57.054ZM34.6203 50.7543C39.4873 50.7543 44.3544 50.7543 49.2215 50.7543C50.9479 50.7543 52.3621 51.7094 52.9499 53.2889C53.7947 55.5663 52.2703 58.0458 49.8643 58.358C49.6439 58.3947 49.4052 58.3947 49.1848 58.3947C44.336 58.3947 39.469 58.3947 34.6203 58.3947C34.5468 58.3947 34.4917 58.3947 34.3999 58.3947C37.2466 56.301 36.8058 52.444 34.3448 50.7543C34.4733 50.7543 34.5468 50.7543 34.6203 50.7543ZM31.7367 50.7543C33.8305 50.736 35.5753 52.4808 35.5753 54.5745C35.5753 56.6499 33.8672 58.3947 31.8102 58.3947C29.643 58.3947 27.9349 56.705 27.9165 54.5929C27.8982 52.4991 29.643 50.7727 31.7367 50.7543Z" fill="white"/>
<path d="M40.149 58.358C39.9654 58.3764 39.7633 58.3947 39.5797 58.3947C34.731 58.3947 29.8639 58.3947 25.0152 58.3947C24.9417 58.3947 24.8866 58.3947 24.7948 58.3947C27.6416 56.301 27.2008 52.444 24.7397 50.7543C24.8866 50.7543 24.9601 50.7543 25.0335 50.7543C29.9006 50.7543 34.7677 50.7543 39.6348 50.7543H39.6531H42.6652C42.004 50.2584 41.0857 49.8911 39.8001 49.8911C33.9045 49.8911 28.0089 49.8911 22.1133 49.8911C20.8644 49.8911 19.7808 50.3503 18.8808 51.2135C18.3298 51.7461 17.9258 52.3706 17.7054 53.0685C17.5952 53.4542 17.5584 53.8031 17.5401 53.9868C17.5217 54.2256 17.4666 54.6664 17.5401 55.199C17.6503 56.154 18.0543 56.8336 18.1829 57.054C18.2196 57.1091 18.6788 57.8437 19.4134 58.3764C19.7257 58.5968 20.0379 58.7621 20.093 58.7804C20.1848 58.8172 20.3868 58.9274 20.644 59.0192C21.1031 59.1845 21.3419 59.2028 21.4154 59.2028C21.5072 59.2028 21.5807 59.2028 21.6358 59.2028C22.6826 59.2028 23.7295 59.2028 24.758 59.2028C24.905 59.2028 24.9968 59.2028 25.0703 59.2028C29.9006 59.2028 34.731 59.2028 39.5613 59.2028C39.6715 59.2028 39.7633 59.2028 39.8735 59.2028C40.7368 59.2028 41.3612 58.9825 41.7102 58.8172C42.004 58.6886 42.2244 58.5417 42.353 58.4682C42.4081 58.4315 42.4448 58.3947 42.4999 58.358H40.149ZM22.2051 58.3947C20.0379 58.3947 18.3298 56.705 18.3114 54.5929C18.2931 52.5175 20.0379 50.7727 22.1316 50.7543C24.2254 50.736 25.9702 52.4808 25.9702 54.5745C25.9702 56.6499 24.2621 58.3947 22.2051 58.3947Z" fill="white"/>
</svg>
