<svg width="1477" height="330" viewBox="0 0 1477 330" fill="none" xmlns="http://www.w3.org/2000/svg">
<path d="M1475 2H1476.5V0.5H1475V2ZM1475 163.748V165.248H1476.5V163.748H1475ZM2 163.748V162.248H0.5V163.748H2ZM2 318.485H0.5V319.985H2V318.485ZM47.3231 318.485L48.3974 319.532C48.9655 318.949 48.9649 318.019 48.396 317.437L47.3231 318.485ZM38.6103 307.422C38.0314 306.829 37.0817 306.818 36.4891 307.397C35.8966 307.976 35.8856 308.926 36.4645 309.518L38.6103 307.422ZM36.9781 326.953C36.4 327.547 36.4123 328.496 37.0057 329.074C37.599 329.652 38.5487 329.64 39.1268 329.047L36.9781 326.953ZM1431.22 3.5H1475V0.5H1431.22V3.5ZM1473.5 2V163.748H1476.5V2H1473.5ZM1475 162.248H2V165.248H1475V162.248ZM0.5 163.748V318.485H3.5V163.748H0.5ZM2 319.985H47.3231V316.985H2V319.985ZM47.3231 318.485C47.3231 318.485 48.396 317.437 48.396 317.437C48.396 317.437 48.396 317.437 48.396 317.437C48.396 317.437 48.396 317.437 48.396 317.437C48.396 317.437 48.396 317.437 48.396 317.437C48.396 317.437 48.396 317.437 48.396 317.437C48.3959 317.437 48.396 317.437 48.3959 317.437C48.3959 317.437 48.3959 317.437 48.3959 317.437C48.3959 317.437 48.3959 317.437 48.3959 317.437C48.3959 317.437 48.3959 317.437 48.3959 317.437C48.3959 317.437 48.3959 317.437 48.3958 317.437C48.3958 317.437 48.3958 317.437 48.3958 317.437C48.3957 317.437 48.3958 317.437 48.3957 317.437C48.3953 317.436 48.3959 317.437 48.3955 317.437C48.3955 317.437 48.3954 317.437 48.3954 317.437C48.3954 317.437 48.3953 317.436 48.3953 317.436C48.3953 317.436 48.3952 317.436 48.3952 317.436C48.3952 317.436 48.3951 317.436 48.3951 317.436C48.395 317.436 48.395 317.436 48.395 317.436C48.3947 317.436 48.3949 317.436 48.3947 317.436C48.3942 317.435 48.3949 317.436 48.3944 317.435C48.3934 317.435 48.395 317.436 48.394 317.435C48.3939 317.435 48.3939 317.435 48.3938 317.435C48.3937 317.435 48.3937 317.435 48.3936 317.435C48.3935 317.435 48.3934 317.435 48.3933 317.434C48.3933 317.434 48.3932 317.434 48.3931 317.434C48.3924 317.433 48.3933 317.434 48.3926 317.434C48.392 317.433 48.3925 317.434 48.392 317.433C48.3919 317.433 48.3918 317.433 48.3916 317.433C48.3915 317.433 48.3914 317.432 48.3913 317.432C48.3909 317.432 48.391 317.432 48.3906 317.432C48.3904 317.431 48.3903 317.431 48.3902 317.431C48.39 317.431 48.3899 317.431 48.3898 317.431C48.3896 317.431 48.3895 317.43 48.3893 317.43C48.3892 317.43 48.389 317.43 48.3889 317.43C48.3865 317.427 48.3903 317.431 48.3879 317.429C48.3877 317.429 48.3876 317.429 48.3874 317.428C48.3872 317.428 48.387 317.428 48.3869 317.428C48.3867 317.428 48.3865 317.427 48.3863 317.427C48.3861 317.427 48.3859 317.427 48.3857 317.427C48.3855 317.426 48.3853 317.426 48.3851 317.426C48.3849 317.426 48.3847 317.426 48.3845 317.425C48.3843 317.425 48.3841 317.425 48.3838 317.425C48.3836 317.424 48.3834 317.424 48.3832 317.424C48.3813 317.422 48.3836 317.424 48.3817 317.423C48.3784 317.419 48.3836 317.424 48.3802 317.421C48.38 317.421 48.3797 317.42 48.3794 317.42C48.3791 317.42 48.3789 317.42 48.3786 317.419C48.3783 317.419 48.378 317.419 48.3777 317.418C48.3774 317.418 48.3772 317.418 48.3769 317.418C48.3766 317.417 48.3763 317.417 48.3759 317.417C48.3756 317.416 48.3753 317.416 48.375 317.416C48.3692 317.41 48.3789 317.42 48.373 317.414C48.3727 317.413 48.3724 317.413 48.372 317.413C48.3717 317.412 48.3713 317.412 48.371 317.412C48.3708 317.411 48.3689 317.409 48.3688 317.409C48.3651 317.406 48.3701 317.411 48.3664 317.407C48.366 317.406 48.3656 317.406 48.3652 317.406C48.3648 317.405 48.3644 317.405 48.364 317.404C48.3634 317.404 48.362 317.402 48.3614 317.402C48.3582 317.398 48.3619 317.402 48.3586 317.399C48.3533 317.393 48.3612 317.402 48.3558 317.396C48.3553 317.395 48.3548 317.395 48.3543 317.394C48.3538 317.394 48.3533 317.393 48.3528 317.393C48.3522 317.392 48.3517 317.392 48.3512 317.391C48.3507 317.391 48.3501 317.39 48.3496 317.39C48.3491 317.389 48.3485 317.389 48.348 317.388C48.3474 317.387 48.3468 317.387 48.3463 317.386C48.3423 317.382 48.3469 317.387 48.3428 317.383C48.3389 317.379 48.3432 317.383 48.3392 317.379C48.3325 317.372 48.3422 317.382 48.3354 317.375C48.3348 317.374 48.3341 317.374 48.3335 317.373C48.3328 317.372 48.3321 317.372 48.3315 317.371C48.3303 317.37 48.3286 317.368 48.3273 317.367C48.3179 317.357 48.3326 317.372 48.3231 317.363C48.3223 317.362 48.3216 317.361 48.3209 317.36C48.3201 317.359 48.3194 317.359 48.3186 317.358C48.316 317.355 48.3166 317.356 48.314 317.353C48.3114 317.351 48.3117 317.351 48.3091 317.348C48.3083 317.347 48.3075 317.347 48.3067 317.346C48.3058 317.345 48.305 317.344 48.3041 317.343C48.3018 317.341 48.3013 317.34 48.2989 317.338C48.2918 317.331 48.3007 317.34 48.2935 317.332C48.2926 317.331 48.2917 317.33 48.2908 317.329C48.2898 317.329 48.2889 317.328 48.288 317.327C48.287 317.326 48.286 317.325 48.2851 317.324C48.2841 317.323 48.2831 317.322 48.2822 317.321C48.2815 317.32 48.2769 317.315 48.2762 317.315C48.2761 317.314 48.2701 317.308 48.27 317.308C48.2616 317.3 48.272 317.31 48.2636 317.302C48.2602 317.298 48.2604 317.298 48.257 317.295C48.2558 317.294 48.2547 317.293 48.2536 317.291C48.2524 317.29 48.2513 317.289 48.2501 317.288C48.248 317.286 48.2453 317.283 48.2431 317.281C48.2419 317.279 48.2407 317.278 48.2395 317.277C48.2382 317.276 48.237 317.274 48.2358 317.273C48.2186 317.256 48.2456 317.283 48.2283 317.266C48.227 317.264 48.2257 317.263 48.2244 317.262C48.2232 317.26 48.2219 317.259 48.2205 317.258C48.2192 317.256 48.2179 317.255 48.2166 317.254C48.2153 317.252 48.2139 317.251 48.2126 317.249C48.2062 317.243 48.2108 317.248 48.2044 317.241C48.203 317.24 48.2016 317.238 48.2002 317.237C48.1988 317.235 48.1973 317.234 48.1959 317.232C48.1927 317.229 48.1905 317.227 48.1872 317.223C48.1688 317.205 48.1968 317.233 48.1783 317.214C48.165 317.201 48.1824 317.219 48.1691 317.205C48.1675 317.203 48.1659 317.202 48.1644 317.2C48.1628 317.198 48.1612 317.197 48.1596 317.195C48.158 317.194 48.1564 317.192 48.1548 317.19C48.1532 317.189 48.1515 317.187 48.1499 317.185C48.141 317.176 48.1489 317.184 48.1399 317.175C48.13 317.165 48.1397 317.175 48.1297 317.165C48.1142 317.149 48.1347 317.17 48.1192 317.154C48.0962 317.13 48.1314 317.166 48.1084 317.143C48.1066 317.141 48.1047 317.139 48.1029 317.137C48.1011 317.135 48.0992 317.133 48.0973 317.131C48.0955 317.13 48.0936 317.128 48.0917 317.126C48.0898 317.124 48.0879 317.122 48.086 317.12C48.0636 317.097 48.0969 317.131 48.0744 317.108C48.0729 317.106 48.064 317.097 48.0625 317.096C48.0527 317.086 48.0602 317.093 48.0503 317.083C48.0366 317.069 48.0515 317.085 48.0378 317.071C48.0357 317.068 48.0335 317.066 48.0314 317.064C48.0293 317.062 48.0271 317.06 48.025 317.057C48.0228 317.055 48.0207 317.053 48.0185 317.051C48.0163 317.049 48.0141 317.046 48.0119 317.044C47.9953 317.027 48.0152 317.047 47.9985 317.03C47.9962 317.028 47.994 317.026 47.9917 317.023C47.9894 317.021 47.9871 317.019 47.9848 317.016C47.9843 317.016 47.9713 317.003 47.9708 317.002C47.9684 317 47.966 316.997 47.9636 316.995C47.9613 316.992 47.9588 316.99 47.9564 316.987C47.954 316.985 47.9516 316.982 47.9491 316.98C47.9467 316.977 47.9443 316.975 47.9418 316.972C47.9115 316.941 47.9572 316.988 47.9268 316.957C47.9101 316.94 47.9283 316.958 47.9115 316.941C47.9089 316.939 47.9063 316.936 47.9037 316.933C47.9011 316.931 47.8985 316.928 47.8959 316.925C47.8933 316.923 47.8906 316.92 47.8879 316.917C47.8853 316.914 47.8826 316.912 47.8799 316.909C47.8772 316.906 47.8745 316.903 47.8718 316.901C47.8691 316.898 47.8664 316.895 47.8636 316.892C47.809 316.836 47.9017 316.931 47.847 316.875C47.8442 316.872 47.8414 316.87 47.8386 316.867C47.8357 316.864 47.8329 316.861 47.83 316.858C47.8258 316.854 47.817 316.845 47.8127 316.84C47.7922 316.819 47.8156 316.843 47.795 316.822C47.792 316.819 47.7891 316.816 47.7861 316.813C47.7831 316.81 47.78 316.807 47.777 316.804C47.774 316.801 47.7709 316.797 47.7679 316.794C47.7648 316.791 47.7617 316.788 47.7586 316.785C47.7298 316.755 47.7688 316.795 47.7399 316.766C47.7207 316.746 47.7401 316.766 47.7208 316.746C47.7175 316.743 47.7143 316.739 47.7111 316.736C47.7078 316.733 47.7046 316.729 47.7013 316.726C47.698 316.723 47.6947 316.719 47.6914 316.716C47.6881 316.713 47.6848 316.709 47.6814 316.706C47.6781 316.702 47.6747 316.699 47.6714 316.696C47.668 316.692 47.6646 316.689 47.6612 316.685C47.6578 316.682 47.6544 316.678 47.651 316.675C47.6475 316.671 47.6441 316.668 47.6406 316.664C47.6147 316.638 47.6457 316.669 47.6196 316.643C47.582 316.604 47.636 316.659 47.5983 316.621C47.5947 316.617 47.5911 316.613 47.5874 316.61C47.5838 316.606 47.5802 316.602 47.5765 316.598C47.5729 316.595 47.5692 316.591 47.5655 316.587C47.5618 316.583 47.5581 316.58 47.5544 316.576C47.5114 316.532 47.5749 316.597 47.5318 316.553C47.528 316.549 47.5242 316.545 47.5204 316.541C47.5166 316.537 47.5127 316.533 47.5089 316.529C47.4738 316.493 47.5207 316.541 47.4855 316.505C47.4816 316.501 47.4777 316.497 47.4737 316.493C47.4698 316.489 47.4658 316.485 47.4618 316.481C47.4578 316.477 47.4538 316.473 47.4498 316.469C47.4457 316.465 47.4417 316.46 47.4376 316.456C47.4336 316.452 47.4295 316.448 47.4254 316.444C47.4213 316.44 47.4172 316.435 47.4131 316.431C47.3814 316.399 47.4199 316.438 47.3881 316.406C47.3839 316.401 47.3797 316.397 47.3754 316.393C47.3712 316.388 47.3669 316.384 47.3627 316.38C47.3584 316.375 47.3541 316.371 47.3498 316.366C47.3455 316.362 47.3412 316.358 47.3368 316.353C47.3325 316.349 47.3281 316.344 47.3238 316.34C47.3194 316.335 47.315 316.331 47.3106 316.326C47.2796 316.295 47.3151 316.331 47.2839 316.299C47.2794 316.294 47.2749 316.29 47.2704 316.285C47.2659 316.28 47.2613 316.276 47.2568 316.271C47.2201 316.234 47.266 316.281 47.2292 316.243C47.2246 316.238 47.2199 316.233 47.2153 316.229C47.2106 316.224 47.2059 316.219 47.2012 316.214C47.1965 316.21 47.1918 316.205 47.187 316.2C47.1823 316.195 47.1775 316.19 47.1728 316.185C47.168 316.18 47.1632 316.175 47.1584 316.17C47.1536 316.166 47.1487 316.161 47.1439 316.156C47.1003 316.111 47.1582 316.17 47.1145 316.126C47.1096 316.121 47.1046 316.115 47.0997 316.11C47.0947 316.105 47.0897 316.1 47.0847 316.095C47.0797 316.09 47.0747 316.085 47.0697 316.08C47.0646 316.075 47.0595 316.069 47.0545 316.064C47.0208 316.03 47.0576 316.067 47.0237 316.033C47.0186 316.027 47.0134 316.022 47.0082 316.017C47.003 316.011 46.9978 316.006 46.9926 316.001C46.9873 315.995 46.9821 315.99 46.9768 315.985C46.9715 315.979 46.9662 315.974 46.9609 315.968C46.877 315.883 47.0128 316.022 46.9288 315.935C46.9058 315.912 46.9193 315.926 46.8962 315.902C46.8755 315.881 46.884 315.89 46.8631 315.868C46.8575 315.863 46.852 315.857 46.8464 315.851C46.8408 315.845 46.8352 315.84 46.8295 315.834C46.8239 315.828 46.8182 315.822 46.8126 315.817C46.8069 315.811 46.8012 315.805 46.7955 315.799C46.7893 315.793 46.7672 315.77 46.7609 315.764C46.7299 315.732 46.7571 315.76 46.7259 315.728C46.6368 315.637 46.7797 315.783 46.6904 315.691C46.6844 315.685 46.6784 315.679 46.6724 315.673C46.6664 315.667 46.6604 315.661 46.6543 315.655C46.6483 315.648 46.6422 315.642 46.6361 315.636C46.63 315.63 46.6239 315.623 46.6178 315.617C46.5514 315.549 46.6473 315.647 46.5808 315.579C46.5784 315.577 46.5457 315.543 46.5432 315.541C46.5369 315.534 46.5306 315.528 46.5242 315.521C46.5179 315.515 46.5115 315.508 46.5051 315.502C46.4697 315.466 46.5021 315.499 46.4665 315.462C46.4605 315.456 46.4337 315.429 46.4274 315.422C46.4209 315.416 46.4143 315.409 46.4077 315.402C46.4011 315.395 46.3944 315.389 46.3878 315.382C46.3216 315.314 46.414 315.409 46.3476 315.341C46.3409 315.334 46.3341 315.327 46.3274 315.32C46.3206 315.313 46.3138 315.306 46.3069 315.299C46.2792 315.271 46.2937 315.285 46.2657 315.257C46.2588 315.25 46.2519 315.243 46.2449 315.236C46.2379 315.228 46.2309 315.221 46.2239 315.214C46.218 315.208 46.1878 315.177 46.1816 315.171C46.1648 315.154 46.1558 315.144 46.1388 315.127C46.0983 315.086 46.1361 315.124 46.0954 315.083C46.0881 315.075 46.0808 315.068 46.0735 315.06C46.0661 315.053 46.0588 315.045 46.0514 315.038C46.044 315.03 46.0366 315.022 46.0292 315.015C46.0218 315.007 46.0144 315 46.0069 314.992C45.9994 314.984 45.9919 314.977 45.9844 314.969C45.9769 314.961 45.9694 314.954 45.9618 314.946C45.8896 314.872 45.9885 314.973 45.9162 314.899C45.9085 314.891 45.9008 314.883 45.8931 314.876C45.8854 314.868 45.8777 314.86 45.87 314.852C45.8622 314.844 45.8544 314.836 45.8467 314.828C45.8389 314.82 45.831 314.812 45.8232 314.804C45.7572 314.736 45.842 314.823 45.7758 314.756C45.7679 314.747 45.7599 314.739 45.752 314.731C45.744 314.723 45.736 314.715 45.7279 314.706C45.7199 314.698 45.7118 314.69 45.7037 314.682C45.6956 314.673 45.6875 314.665 45.6794 314.657C45.6713 314.649 45.6386 314.615 45.6303 314.607C45.6221 314.598 45.6138 314.59 45.6055 314.581C45.5973 314.573 45.589 314.564 45.5806 314.556C45.5195 314.493 45.5917 314.567 45.5304 314.504C45.5219 314.496 45.5135 314.487 45.505 314.478C45.4965 314.47 45.488 314.461 45.4795 314.452C45.4443 314.416 45.4634 314.436 45.428 314.4C45.4194 314.391 45.4107 314.382 45.4021 314.373C45.3934 314.364 45.3847 314.355 45.376 314.346C45.2982 314.267 45.4012 314.372 45.3233 314.292C45.2343 314.201 45.3592 314.329 45.27 314.238C45.2611 314.229 45.2521 314.219 45.2431 314.21C45.2341 314.201 45.2251 314.192 45.2161 314.183C45.2071 314.173 45.198 314.164 45.1889 314.155C45.1798 314.146 45.1707 314.136 45.1616 314.127C45.1525 314.117 45.1433 314.108 45.1341 314.099C45.1249 314.089 45.1157 314.08 45.1065 314.07C45.0206 313.983 45.1368 314.101 45.0507 314.013C45.0401 314.002 45.0052 313.967 44.9943 313.956C44.9822 313.943 44.9497 313.91 44.9373 313.897C44.9278 313.888 44.9182 313.878 44.9086 313.868C44.899 313.858 44.8893 313.848 44.8797 313.838C44.87 313.828 44.8603 313.819 44.8506 313.809C44.8409 313.799 44.8312 313.789 44.8214 313.779C44.7276 313.683 44.8565 313.815 44.7625 313.718C44.7526 313.708 44.7427 313.698 44.7328 313.688C44.7229 313.678 44.7129 313.668 44.7029 313.657C44.6929 313.647 44.6829 313.637 44.6729 313.627C44.6629 313.616 44.6528 313.606 44.6427 313.596C44.6326 313.585 44.6225 313.575 44.6124 313.565C44.6022 313.554 44.592 313.544 44.5818 313.533C44.5716 313.523 44.5614 313.513 44.5512 313.502C44.5409 313.492 44.5306 313.481 44.5203 313.471C44.4515 313.4 44.5272 313.478 44.4581 313.407C44.4439 313.392 44.4098 313.357 44.3953 313.343C44.3848 313.332 44.3742 313.321 44.3636 313.31C44.3531 313.299 44.3425 313.288 44.3318 313.278C44.3212 313.267 44.3105 313.256 44.2998 313.245C44.2891 313.234 44.2784 313.223 44.2676 313.212C44.2569 313.201 44.2461 313.19 44.2353 313.179C44.2245 313.168 44.2137 313.157 44.2028 313.146C44.1284 313.069 44.2119 313.155 44.1373 313.078C44.1135 313.054 44.0951 313.035 44.0711 313.011C44.06 312.999 44.0489 312.988 44.0377 312.977C44.0266 312.965 44.0154 312.954 44.0042 312.942C43.9222 312.858 44.0189 312.957 43.9366 312.873C43.9284 312.865 43.8769 312.812 43.8684 312.803C43.857 312.792 43.8455 312.78 43.834 312.768C43.8225 312.756 43.811 312.745 43.7994 312.733C43.7756 312.708 43.7539 312.686 43.7298 312.661C43.7181 312.649 43.7064 312.638 43.6947 312.626C43.683 312.614 43.6712 312.601 43.6595 312.589C43.5788 312.507 43.6693 312.6 43.5884 312.517C43.5765 312.505 43.5646 312.492 43.5526 312.48C43.5407 312.468 43.5287 312.456 43.5167 312.443C43.5046 312.431 43.4926 312.419 43.4805 312.406C43.4684 312.394 43.4563 312.382 43.4442 312.369C43.4303 312.355 43.3851 312.309 43.371 312.294C43.2871 312.208 43.3813 312.305 43.2971 312.219C43.2847 312.206 43.2723 312.193 43.2599 312.181C43.2475 312.168 43.235 312.155 43.2225 312.142C43.21 312.129 43.1975 312.117 43.1849 312.104C43.1724 312.091 43.1598 312.078 43.1472 312.065C43.1345 312.052 43.1219 312.039 43.1092 312.026C43.0965 312.013 43.0838 312 43.0711 311.987C43.0584 311.974 43.0456 311.961 43.0328 311.948C43.02 311.935 43.0072 311.922 42.9943 311.909C42.9276 311.84 42.9837 311.898 42.9168 311.829C42.8595 311.771 42.896 311.808 42.8385 311.749C42.8254 311.736 42.8122 311.722 42.7991 311.709C42.7859 311.695 42.7727 311.682 42.7595 311.668C42.7462 311.655 42.733 311.641 42.7197 311.628C42.7064 311.614 42.6931 311.6 42.6797 311.587C42.6738 311.581 42.6054 311.511 42.5992 311.504C42.5857 311.491 42.5722 311.477 42.5587 311.463C42.5451 311.449 42.5315 311.435 42.5179 311.421C42.5043 311.407 42.4907 311.393 42.477 311.379C42.4634 311.365 42.4497 311.351 42.4359 311.337C42.4222 311.323 42.4084 311.309 42.3946 311.295C42.3808 311.281 42.367 311.267 42.3531 311.252C42.3393 311.238 42.3254 311.224 42.3115 311.21C42.2975 311.196 42.2836 311.181 42.2696 311.167C42.2387 311.135 42.2164 311.113 42.1853 311.081C42.1489 311.043 42.1369 311.031 42.1002 310.994C42.0229 310.915 42.0919 310.985 42.0144 310.906C42 310.891 41.9856 310.876 41.9712 310.862C41.9567 310.847 41.9422 310.832 41.9277 310.817C41.9132 310.802 41.8987 310.787 41.8841 310.772C41.8696 310.758 41.855 310.743 41.8403 310.728C41.8257 310.713 41.811 310.698 41.7963 310.683C41.7816 310.668 41.7669 310.652 41.7521 310.637C41.7374 310.622 41.7226 310.607 41.7078 310.592C41.6929 310.577 41.6781 310.562 41.6632 310.546C41.6483 310.531 41.6333 310.516 41.6184 310.5C41.6034 310.485 41.5884 310.47 41.5734 310.454C41.5285 310.408 41.528 310.408 41.4828 310.362C41.4677 310.346 41.4525 310.331 41.4373 310.315C41.422 310.299 41.4068 310.284 41.3915 310.268C41.3762 310.253 41.3609 310.237 41.3455 310.221C41.3301 310.205 41.3147 310.19 41.2993 310.174C41.2581 310.132 41.2478 310.121 41.2063 310.079C41.1476 310.019 41.1716 310.043 41.1126 309.983C41.0969 309.967 41.0811 309.951 41.0654 309.934C41.0496 309.918 41.0338 309.902 41.018 309.886C41.0021 309.87 40.9863 309.854 40.9704 309.837C40.9545 309.821 40.9385 309.805 40.9226 309.788C40.9066 309.772 40.8906 309.756 40.8746 309.739C40.8585 309.723 40.8425 309.706 40.8264 309.69C40.8263 309.69 40.7297 309.591 40.7293 309.591C40.6513 309.511 40.7097 309.57 40.6314 309.49C40.5915 309.449 40.573 309.431 40.5327 309.389C40.5162 309.372 40.4997 309.355 40.4831 309.338C40.4665 309.322 40.4499 309.305 40.4332 309.287C40.4165 309.27 40.3998 309.253 40.3831 309.236C40.3664 309.219 40.3496 309.202 40.3328 309.185C40.316 309.168 40.2992 309.15 40.2823 309.133C40.2655 309.116 40.2486 309.098 40.2316 309.081C40.2147 309.064 40.1977 309.046 40.1807 309.029C40.1637 309.012 40.1466 308.994 40.1296 308.977C40.1125 308.959 40.0954 308.942 40.0782 308.924C40.0611 308.907 40.0439 308.889 40.0267 308.871C40.0094 308.854 39.9922 308.836 39.9749 308.818C39.9576 308.801 39.9403 308.783 39.9229 308.765C39.8807 308.722 39.8609 308.702 39.8183 308.658C39.8008 308.64 39.7833 308.622 39.7657 308.604C39.7481 308.586 39.7305 308.568 39.7129 308.55C39.5987 308.433 39.7209 308.558 39.6065 308.441C39.6064 308.441 39.4997 308.332 39.4993 308.332C39.4415 308.273 39.4494 308.281 39.3913 308.221C39.3732 308.203 39.3551 308.184 39.3369 308.165C39.3188 308.147 39.3006 308.128 39.2824 308.11C39.2641 308.091 39.2459 308.072 39.2276 308.054C39.2093 308.035 39.1909 308.016 39.1726 307.997C39.1542 307.978 39.1358 307.96 39.1173 307.941C39.0989 307.922 39.0804 307.903 39.0619 307.884C39.0434 307.865 39.0248 307.846 39.0062 307.827C38.9876 307.808 38.969 307.789 38.9503 307.77C38.9316 307.751 38.9129 307.732 38.8942 307.712C38.8755 307.693 38.8567 307.674 38.8379 307.655C38.8191 307.635 38.8002 307.616 38.7813 307.597C38.7624 307.577 38.7435 307.558 38.7245 307.539C38.7056 307.519 38.6866 307.5 38.6675 307.48C38.6485 307.461 38.6294 307.441 38.6103 307.422L36.4645 309.518C36.4961 309.551 36.5475 309.603 36.5787 309.635C36.5977 309.655 36.6166 309.674 36.6355 309.693C36.6544 309.713 36.6733 309.732 36.6921 309.751C36.7109 309.771 36.7297 309.79 36.7484 309.809C36.7672 309.828 36.7859 309.847 36.8045 309.866C36.8232 309.885 36.8418 309.905 36.8604 309.924C36.879 309.943 36.8976 309.962 36.9161 309.981C36.9346 309.999 36.9531 310.018 36.9715 310.037C36.99 310.056 37.0084 310.075 37.0268 310.094C37.0451 310.113 37.0635 310.131 37.0818 310.15C37.1001 310.169 37.1183 310.188 37.1366 310.206C37.1548 310.225 37.173 310.243 37.1911 310.262C37.2093 310.281 37.2274 310.299 37.2455 310.318C37.2597 310.332 37.3396 310.414 37.3536 310.428C37.3715 310.447 37.3894 310.465 37.4073 310.483C37.4251 310.501 37.443 310.52 37.4607 310.538C37.4785 310.556 37.4963 310.574 37.514 310.592C37.5317 310.611 37.5494 310.629 37.5671 310.647C37.6003 310.681 37.6396 310.721 37.6725 310.755C37.7 310.783 37.7499 310.834 37.7771 310.862C37.8597 310.946 37.7986 310.884 37.8809 310.968C37.9364 311.025 37.9286 311.017 37.9838 311.073C38.0009 311.091 38.0179 311.108 38.0349 311.126C38.0519 311.143 38.0689 311.16 38.0858 311.178C38.1028 311.195 38.1197 311.212 38.1365 311.23C38.1534 311.247 38.1702 311.264 38.187 311.281C38.2038 311.298 38.2206 311.316 38.2373 311.333C38.2541 311.35 38.2708 311.367 38.2874 311.384C38.3041 311.401 38.3207 311.418 38.3373 311.435C38.3539 311.452 38.3704 311.469 38.387 311.486C38.4035 311.503 38.42 311.52 38.4364 311.537C38.4529 311.553 38.4693 311.57 38.4857 311.587C38.502 311.604 38.5184 311.62 38.5347 311.637C38.551 311.654 38.5673 311.67 38.5835 311.687C38.6481 311.753 38.6162 311.721 38.6806 311.786C38.6967 311.803 38.7127 311.819 38.7288 311.836C38.7448 311.852 38.7608 311.869 38.7768 311.885C38.844 311.954 38.8053 311.914 38.8722 311.983C38.9443 312.056 38.8949 312.006 38.9668 312.079C38.9706 312.083 39.057 312.172 39.0606 312.175C39.0761 312.191 39.0916 312.207 39.1071 312.223C39.1226 312.239 39.1381 312.255 39.1535 312.27C39.169 312.286 39.1843 312.302 39.1997 312.318C39.2151 312.333 39.2304 312.349 39.2457 312.365C39.3273 312.448 39.2557 312.375 39.3371 312.458C39.3525 312.474 39.4124 312.535 39.4276 312.551C39.5209 312.646 39.4244 312.548 39.5174 312.643C39.5323 312.658 39.5471 312.673 39.562 312.688C39.5768 312.704 39.5916 312.719 39.6064 312.734C39.6211 312.749 39.6359 312.764 39.6506 312.779C39.6653 312.794 39.6799 312.809 39.6946 312.824C39.7092 312.839 39.7238 312.854 39.7384 312.869C39.7529 312.884 39.7675 312.899 39.782 312.914C39.7965 312.928 39.8109 312.943 39.8254 312.958C39.8398 312.973 39.8542 312.988 39.8686 313.002C39.883 313.017 39.8973 313.032 39.9116 313.046C39.9259 313.061 39.9402 313.076 39.9544 313.09C39.9747 313.111 40.0195 313.157 40.0395 313.177C40.0648 313.203 40.0988 313.238 40.1238 313.264C40.1378 313.278 40.1518 313.292 40.1657 313.306C40.1796 313.321 40.1935 313.335 40.2074 313.349C40.2247 313.367 40.2731 313.416 40.2901 313.434C40.383 313.529 40.2796 313.423 40.3722 313.518C40.4282 313.575 40.3976 313.544 40.4534 313.601C40.4669 313.615 40.4803 313.628 40.4938 313.642C40.5072 313.656 40.5206 313.67 40.5339 313.683C40.5473 313.697 40.5606 313.711 40.5739 313.724C40.5872 313.738 40.6005 313.751 40.6137 313.765C40.7135 313.867 40.5932 313.744 40.6927 313.846C40.7058 313.859 40.7189 313.873 40.7319 313.886C40.745 313.899 40.758 313.913 40.771 313.926C40.784 313.939 40.7969 313.952 40.8098 313.966C40.8228 313.979 40.8357 313.992 40.8485 314.005C40.8614 314.018 40.8742 314.032 40.887 314.045C40.8998 314.058 40.9126 314.071 40.9253 314.084C40.9381 314.097 40.9508 314.11 40.9634 314.123C40.9761 314.136 40.9888 314.149 41.0014 314.162C41.014 314.175 41.0266 314.187 41.0391 314.2C41.0517 314.213 41.0642 314.226 41.0767 314.239C41.0892 314.252 41.1017 314.264 41.1141 314.277C41.1266 314.29 41.139 314.303 41.1513 314.315C41.2339 314.4 41.1429 314.307 41.2252 314.391C41.2601 314.427 41.2638 314.43 41.2984 314.466C41.3105 314.478 41.3227 314.491 41.3347 314.503C41.3468 314.515 41.3589 314.528 41.3709 314.54C41.3829 314.552 41.3949 314.564 41.4068 314.577C41.4188 314.589 41.4307 314.601 41.4426 314.613C41.4545 314.625 41.4664 314.638 41.4782 314.65C41.4901 314.662 41.5019 314.674 41.5137 314.686C41.5472 314.72 41.5507 314.724 41.584 314.758C41.6066 314.781 41.6313 314.806 41.6537 314.829C41.7418 314.919 41.6347 314.81 41.7226 314.9C41.734 314.912 41.7454 314.923 41.7568 314.935C41.7682 314.947 41.7795 314.958 41.7909 314.97C41.8022 314.981 41.8135 314.993 41.8247 315.004C41.836 315.016 41.8472 315.027 41.8584 315.039C41.8696 315.05 41.8808 315.062 41.892 315.073C41.9031 315.085 41.9142 315.096 41.9253 315.107C41.9364 315.119 41.9475 315.13 41.9585 315.141C41.9695 315.153 41.9805 315.164 41.9915 315.175C42.0025 315.186 42.0134 315.197 42.0243 315.209C42.0353 315.22 42.0462 315.231 42.057 315.242C42.0679 315.253 42.0787 315.264 42.0895 315.275C42.1003 315.286 42.1111 315.297 42.1219 315.308C42.1326 315.319 42.1433 315.33 42.154 315.341C42.1647 315.352 42.1754 315.363 42.186 315.374C42.1967 315.385 42.2073 315.396 42.2179 315.407C42.2284 315.418 42.239 315.428 42.2495 315.439C42.2601 315.45 42.2706 315.461 42.281 315.471C42.2915 315.482 42.3019 315.493 42.3124 315.503C42.3228 315.514 42.3332 315.525 42.3435 315.535C42.3539 315.546 42.3642 315.557 42.3745 315.567C42.4184 315.612 42.3924 315.585 42.4361 315.63C42.4463 315.64 42.4564 315.651 42.4666 315.661C42.4767 315.672 42.4868 315.682 42.4969 315.692C42.55 315.747 42.5043 315.7 42.5571 315.754C42.653 315.852 42.5211 315.717 42.6167 315.815C42.6817 315.881 42.6109 315.809 42.6756 315.875C42.6814 315.881 42.7284 315.929 42.7339 315.935C42.7436 315.945 42.7532 315.955 42.7628 315.964C42.7724 315.974 42.782 315.984 42.7915 315.994C42.8174 316.02 42.8229 316.026 42.8485 316.052C42.8755 316.08 42.8782 316.083 42.9049 316.11C42.9456 316.152 42.9202 316.126 42.9607 316.167C42.9699 316.176 42.9791 316.186 42.9883 316.195C42.9975 316.205 43.0067 316.214 43.0158 316.223C43.0249 316.233 43.0341 316.242 43.0431 316.251C43.0522 316.261 43.0613 316.27 43.0703 316.279C43.0794 316.288 43.0884 316.298 43.0973 316.307C43.1063 316.316 43.1153 316.325 43.1242 316.334C43.1331 316.344 43.1421 316.353 43.1509 316.362C43.1598 316.371 43.1687 316.38 43.1775 316.389C43.2184 316.431 43.1895 316.401 43.2302 316.443C43.273 316.487 43.2396 316.452 43.2822 316.496C43.2909 316.505 43.2995 316.514 43.308 316.523C43.3166 316.531 43.3252 316.54 43.3337 316.549C43.3422 316.557 43.3507 316.566 43.3592 316.575C43.3677 316.584 43.3761 316.592 43.3846 316.601C43.393 316.609 43.4014 316.618 43.4098 316.627C43.4182 316.635 43.4265 316.644 43.4348 316.652C43.4627 316.681 43.4569 316.675 43.4845 316.703C43.5092 316.728 43.5092 316.728 43.5336 316.753C43.587 316.808 43.529 316.749 43.5821 316.803C43.5894 316.81 43.623 316.845 43.6301 316.852C43.638 316.86 43.6459 316.868 43.6538 316.876C43.6617 316.884 43.6696 316.893 43.6774 316.901C43.7251 316.949 43.6767 316.9 43.7242 316.948C43.7508 316.976 43.744 316.969 43.7704 316.996C43.778 317.004 43.7857 317.011 43.7933 317.019C43.8009 317.027 43.8085 317.035 43.816 317.042C43.8236 317.05 43.8311 317.058 43.8386 317.066C43.8462 317.073 43.8536 317.081 43.8611 317.089C43.8686 317.096 43.876 317.104 43.8834 317.111C43.8909 317.119 43.8983 317.127 43.9056 317.134C43.9818 317.212 43.8736 317.101 43.9496 317.179C43.9569 317.187 43.9641 317.194 43.9714 317.201C43.9786 317.209 43.9858 317.216 43.993 317.224C44.016 317.247 44.013 317.244 44.0358 317.267C44.0471 317.279 44.0671 317.299 44.0782 317.311C44.0852 317.318 44.0921 317.325 44.0991 317.332C44.1061 317.339 44.113 317.346 44.1199 317.353C44.1268 317.361 44.1337 317.368 44.1406 317.375C44.1475 317.382 44.1543 317.389 44.1612 317.396C44.2451 317.482 44.1181 317.352 44.2018 317.437C44.2438 317.48 44.2003 317.436 44.242 317.478C44.2639 317.501 44.26 317.497 44.2816 317.519C44.2882 317.526 44.2947 317.532 44.3013 317.539C44.3078 317.546 44.3143 317.552 44.3208 317.559C44.3272 317.566 44.3337 317.572 44.3401 317.579C44.3465 317.585 44.353 317.592 44.3593 317.598C44.4237 317.664 44.3332 317.572 44.3974 317.637C44.4706 317.712 44.362 317.601 44.435 317.676C44.5269 317.77 44.3802 317.62 44.472 317.714C44.4781 317.72 44.4843 317.726 44.4903 317.733C44.4964 317.739 44.5025 317.745 44.5085 317.751C44.5105 317.753 44.5428 317.786 44.5446 317.788C44.6091 317.854 44.5157 317.759 44.5801 317.824C44.6189 317.864 44.5766 317.821 44.6151 317.86C44.6411 317.887 44.6239 317.869 44.6497 317.896C44.6648 317.911 44.6688 317.915 44.6837 317.93C44.6894 317.936 44.695 317.942 44.7006 317.948C44.7062 317.953 44.7118 317.959 44.7173 317.965C44.7229 317.971 44.7284 317.976 44.7339 317.982C44.7394 317.987 44.7449 317.993 44.7504 317.999C44.8161 318.066 44.7174 317.965 44.783 318.032C44.7884 318.038 44.7938 318.043 44.7991 318.049C44.8045 318.054 44.8098 318.06 44.8151 318.065C44.8227 318.073 44.8393 318.09 44.8468 318.097C44.852 318.103 44.8572 318.108 44.8624 318.113C44.8676 318.119 44.8728 318.124 44.878 318.129C44.8831 318.135 44.8883 318.14 44.8934 318.145C44.8985 318.15 44.9036 318.156 44.9087 318.161C44.9385 318.191 44.9093 318.161 44.9389 318.192C44.9532 318.206 44.9546 318.208 44.9687 318.222C44.9737 318.227 44.9786 318.232 44.9835 318.237C44.9884 318.242 44.9932 318.247 44.9981 318.252C45.0029 318.257 45.0078 318.262 45.0126 318.267C45.0174 318.272 45.0222 318.277 45.027 318.282C45.0318 318.287 45.0365 318.292 45.0413 318.296C45.046 318.301 45.0507 318.306 45.0554 318.311C45.119 318.376 45.02 318.275 45.0834 318.34C45.0881 318.344 45.0927 318.349 45.0973 318.354C45.1019 318.358 45.1064 318.363 45.111 318.368C45.1366 318.394 45.1127 318.37 45.1381 318.396C45.1426 318.4 45.1471 318.405 45.1515 318.409C45.156 318.414 45.1604 318.418 45.1648 318.423C45.1699 318.428 45.1861 318.445 45.1911 318.45C45.202 318.461 45.2061 318.465 45.2169 318.476C45.2469 318.507 45.2124 318.472 45.2423 318.502C45.2778 318.538 45.2319 318.492 45.2673 318.528C45.2779 318.539 45.2814 318.542 45.2919 318.553C45.2959 318.557 45.3 318.561 45.304 318.565C45.308 318.569 45.312 318.574 45.316 318.578C45.3373 318.599 45.3186 318.58 45.3398 318.602C45.3437 318.606 45.3476 318.61 45.3515 318.614C45.3554 318.618 45.3592 318.622 45.3631 318.626C45.4166 318.681 45.3327 318.595 45.386 318.649C45.4393 318.704 45.3554 318.618 45.4086 318.672C45.4123 318.676 45.416 318.68 45.4197 318.684C45.4234 318.688 45.4271 318.691 45.4307 318.695C45.4344 318.699 45.438 318.702 45.4417 318.706C45.4453 318.71 45.4489 318.714 45.4525 318.717C45.5074 318.774 45.419 318.683 45.4739 318.739C45.4897 318.755 45.4791 318.745 45.4948 318.761C45.5177 318.784 45.4927 318.758 45.5154 318.782C45.5456 318.813 45.5056 318.772 45.5357 318.802C45.539 318.806 45.5423 318.809 45.5456 318.813C45.5489 318.816 45.5522 318.819 45.5555 318.823C45.5732 318.841 45.5574 318.825 45.575 318.843C45.6079 318.876 45.5613 318.829 45.5941 318.862C45.5972 318.865 45.6004 318.869 45.6035 318.872C45.6066 318.875 45.6097 318.878 45.6128 318.881C45.6258 318.895 45.6183 318.887 45.6312 318.9C45.6342 318.903 45.6373 318.906 45.6403 318.909C45.6433 318.913 45.6463 318.916 45.6492 318.919C45.6522 318.922 45.6552 318.925 45.6581 318.928C45.6611 318.931 45.664 318.934 45.6669 318.937C45.6787 318.949 45.6726 318.943 45.6842 318.954C45.7021 318.973 45.6834 318.954 45.7012 318.972C45.704 318.975 45.7068 318.978 45.7096 318.98C45.7123 318.983 45.7151 318.986 45.7179 318.989C45.7206 318.992 45.7233 318.994 45.726 318.997C45.7288 319 45.7315 319.003 45.7341 319.006C45.7375 319.009 45.7468 319.019 45.7501 319.022C45.7802 319.053 45.7357 319.007 45.7657 319.038C45.7683 319.041 45.7709 319.043 45.7734 319.046C45.776 319.048 45.7785 319.051 45.781 319.054C45.7835 319.056 45.7861 319.059 45.7886 319.061C45.791 319.064 45.7935 319.066 45.796 319.069C45.8146 319.088 45.7922 319.065 45.8106 319.084C45.8131 319.086 45.8155 319.089 45.8179 319.091C45.8202 319.094 45.8226 319.096 45.825 319.099C45.8273 319.101 45.8297 319.103 45.832 319.106C45.8344 319.108 45.8367 319.11 45.839 319.113C45.8534 319.128 45.8384 319.112 45.8527 319.127C45.8721 319.147 45.8469 319.121 45.8661 319.141C45.8697 319.144 45.8757 319.15 45.8792 319.154C45.8813 319.156 45.8835 319.158 45.8856 319.161C45.8878 319.163 45.8899 319.165 45.892 319.167C45.8941 319.169 45.8962 319.171 45.8983 319.174C45.9004 319.176 45.9024 319.178 45.9045 319.18C45.906 319.181 45.9153 319.191 45.9167 319.192C45.9392 319.215 45.9061 319.182 45.9286 319.205C45.9556 319.232 45.9133 319.189 45.9402 319.216C45.9421 319.218 45.944 319.22 45.9459 319.222C45.9478 319.224 45.9497 319.226 45.9516 319.228C45.9523 319.229 45.962 319.239 45.9626 319.239C45.9865 319.264 45.9496 319.226 45.9734 319.25C45.9788 319.256 45.9786 319.256 45.9839 319.261C45.9856 319.263 45.9874 319.265 45.9891 319.266C45.9908 319.268 45.9925 319.27 45.9941 319.272C45.9958 319.273 45.9975 319.275 45.9992 319.277C46.0008 319.278 46.0025 319.28 46.0041 319.282C46.0058 319.284 46.0074 319.285 46.009 319.287C46.0106 319.289 46.0122 319.29 46.0138 319.292C46.0159 319.294 46.0213 319.299 46.0233 319.301C46.0352 319.314 46.0207 319.299 46.0325 319.311C46.034 319.312 46.0355 319.314 46.037 319.315C46.0385 319.317 46.04 319.319 46.0414 319.32C46.0429 319.322 46.0444 319.323 46.0458 319.325C46.0473 319.326 46.0487 319.327 46.0501 319.329C46.0516 319.33 46.053 319.332 46.0544 319.333C46.0558 319.335 46.0572 319.336 46.0586 319.338C46.06 319.339 46.0613 319.34 46.0627 319.342C46.0641 319.343 46.0654 319.345 46.0668 319.346C46.0806 319.36 46.061 319.34 46.0748 319.354C46.0817 319.361 46.0756 319.355 46.0825 319.362C46.0838 319.363 46.085 319.365 46.0863 319.366C46.0875 319.367 46.0888 319.369 46.09 319.37C46.0912 319.371 46.0925 319.372 46.0937 319.374C46.0949 319.375 46.0961 319.376 46.0973 319.377C46.0985 319.378 46.0997 319.38 46.1008 319.381C46.102 319.382 46.1032 319.383 46.1043 319.384C46.1229 319.403 46.0927 319.373 46.1112 319.391C46.1123 319.393 46.1134 319.394 46.1145 319.395C46.1156 319.396 46.1167 319.397 46.1178 319.398C46.1189 319.399 46.12 319.4 46.121 319.402C46.1221 319.403 46.1231 319.404 46.1242 319.405C46.1267 319.407 46.128 319.409 46.1304 319.411C46.1314 319.412 46.1324 319.413 46.1334 319.414C46.1344 319.415 46.1354 319.416 46.1364 319.417C46.1438 319.425 46.1349 319.416 46.1422 319.423C46.1492 319.43 46.1407 319.422 46.1478 319.429C46.1551 319.436 46.1459 319.427 46.1531 319.434C46.154 319.435 46.1549 319.436 46.1558 319.437C46.1566 319.438 46.1575 319.439 46.1583 319.44C46.1592 319.441 46.16 319.441 46.1609 319.442C46.1617 319.443 46.1625 319.444 46.1634 319.445C46.1642 319.446 46.165 319.446 46.1658 319.447C46.1666 319.448 46.1674 319.449 46.1682 319.45C46.1698 319.451 46.1712 319.453 46.1728 319.455C46.1823 319.464 46.1679 319.449 46.1773 319.459C46.1859 319.468 46.173 319.455 46.1816 319.463C46.1823 319.464 46.183 319.465 46.1836 319.466C46.1843 319.466 46.185 319.467 46.1857 319.468C46.1864 319.468 46.187 319.469 46.1877 319.47C46.1883 319.47 46.189 319.471 46.1896 319.472C46.1995 319.482 46.1836 319.466 46.1934 319.476C46.1966 319.479 46.1939 319.476 46.197 319.479C46.1976 319.48 46.1982 319.481 46.1988 319.481C46.1994 319.482 46.1999 319.482 46.2005 319.483C46.2028 319.485 46.2015 319.484 46.2038 319.486C46.2044 319.487 46.2049 319.487 46.2054 319.488C46.2059 319.488 46.2065 319.489 46.207 319.489C46.2077 319.49 46.2093 319.492 46.21 319.493C46.2125 319.495 46.2104 319.493 46.2129 319.495C46.2133 319.496 46.2138 319.496 46.2142 319.497C46.2147 319.497 46.2151 319.498 46.2156 319.498C46.216 319.499 46.2165 319.499 46.2169 319.5C46.2173 319.5 46.2178 319.501 46.2182 319.501C46.2186 319.501 46.219 319.502 46.2194 319.502C46.2198 319.503 46.2202 319.503 46.2206 319.503C46.221 319.504 46.2214 319.504 46.2218 319.505C46.2222 319.505 46.2226 319.505 46.223 319.506C46.2249 319.508 46.2233 319.506 46.2252 319.508C46.2285 319.512 46.2239 319.507 46.2273 319.51C46.2276 319.511 46.2279 319.511 46.2283 319.511C46.2286 319.512 46.2289 319.512 46.2292 319.512C46.2295 319.513 46.2299 319.513 46.2302 319.513C46.2305 319.514 46.2308 319.514 46.2311 319.514C46.2314 319.514 46.2317 319.515 46.232 319.515C46.2322 319.515 46.2325 319.516 46.2328 319.516C46.2383 319.522 46.229 319.512 46.2344 319.518C46.2347 319.518 46.235 319.518 46.2352 319.518C46.2355 319.519 46.2357 319.519 46.236 319.519C46.2362 319.519 46.2364 319.52 46.2367 319.52C46.2369 319.52 46.2372 319.52 46.2374 319.521C46.2395 319.523 46.2366 319.52 46.2387 319.522C46.2389 319.522 46.2391 319.522 46.2393 319.523C46.2395 319.523 46.2397 319.523 46.2399 319.523C46.2406 319.524 46.2404 319.524 46.2411 319.524C46.2431 319.526 46.2401 319.523 46.2421 319.525C46.2423 319.526 46.2429 319.526 46.2431 319.526C46.2434 319.527 46.2437 319.527 46.244 319.527C46.2441 319.527 46.2443 319.528 46.2444 319.528C46.2445 319.528 46.2447 319.528 46.2448 319.528C46.2449 319.528 46.245 319.528 46.2452 319.529C46.2453 319.529 46.2454 319.529 46.2455 319.529C46.2465 319.53 46.2452 319.529 46.2462 319.53C46.2469 319.53 46.2461 319.53 46.2468 319.53C46.2482 319.532 46.2459 319.529 46.2473 319.531C46.2474 319.531 46.2475 319.531 46.2476 319.531C46.2476 319.531 46.2477 319.531 46.2478 319.531C46.2478 319.531 46.2482 319.532 46.2482 319.532C46.2489 319.532 46.2479 319.531 46.2486 319.532C46.2487 319.532 46.2488 319.532 46.2489 319.532C46.249 319.532 46.249 319.532 46.249 319.533C46.2491 319.533 46.2491 319.533 46.2492 319.533C46.2495 319.533 46.2491 319.533 46.2494 319.533C46.2494 319.533 46.2495 319.533 46.2495 319.533C46.2495 319.533 46.2496 319.533 46.2496 319.533C46.2496 319.533 46.2497 319.533 46.2497 319.533C46.2497 319.533 46.2497 319.533 46.2498 319.533C46.2498 319.533 46.2499 319.533 46.2499 319.533C46.2499 319.533 46.2499 319.533 46.2499 319.533C46.25 319.533 46.25 319.533 46.25 319.533C46.25 319.534 46.25 319.534 46.25 319.534C46.25 319.534 46.25 319.534 46.2501 319.534C46.2501 319.534 46.2501 319.534 46.2501 319.534C46.2501 319.534 46.2501 319.534 46.2501 319.534C46.2501 319.534 46.2501 319.534 46.2501 319.534C46.2502 319.534 46.2502 319.534 46.2502 319.534C46.2502 319.534 46.2502 319.534 46.2502 319.534C46.2502 319.534 46.2502 319.534 46.2502 319.534C46.2502 319.534 46.2502 319.534 46.2502 319.534C46.2502 319.534 46.2502 319.534 46.2502 319.534C46.2502 319.534 46.2502 319.534 46.2502 319.534C46.2502 319.534 47.3231 318.485 47.3231 318.485ZM47.3231 318.485C47.3231 318.485 46.2487 317.439 46.2487 317.439C46.2487 317.439 46.2487 317.439 46.2487 317.439C46.2487 317.439 46.2487 317.439 46.2487 317.439C46.2487 317.439 46.2487 317.439 46.2487 317.439C46.2486 317.439 46.2488 317.439 46.2487 317.439C46.2487 317.439 46.2487 317.439 46.2487 317.439C46.2487 317.439 46.2487 317.439 46.2487 317.439C46.2486 317.439 46.2487 317.439 46.2486 317.439C46.2486 317.439 46.2486 317.439 46.2485 317.439C46.2485 317.439 46.2485 317.439 46.2485 317.439C46.2485 317.439 46.2485 317.439 46.2485 317.439C46.2481 317.439 46.2487 317.439 46.2483 317.439C46.2483 317.439 46.2483 317.439 46.2483 317.439C46.2482 317.439 46.2482 317.439 46.2482 317.439C46.2482 317.439 46.248 317.439 46.248 317.439C46.248 317.439 46.2479 317.439 46.2479 317.439C46.2479 317.44 46.2478 317.44 46.2478 317.44C46.2477 317.44 46.2477 317.44 46.2477 317.44C46.2476 317.44 46.2476 317.44 46.2475 317.44C46.2475 317.44 46.2473 317.44 46.2472 317.44C46.2472 317.44 46.247 317.44 46.2469 317.441C46.2453 317.442 46.248 317.439 46.2465 317.441C46.2464 317.441 46.2463 317.441 46.2463 317.441C46.2462 317.441 46.2461 317.441 46.246 317.441C46.2459 317.442 46.2456 317.442 46.2455 317.442C46.2454 317.442 46.2453 317.442 46.2452 317.442C46.2451 317.442 46.245 317.442 46.2449 317.443C46.2424 317.445 46.2469 317.44 46.2443 317.443C46.2442 317.443 46.2441 317.443 46.244 317.444C46.2439 317.444 46.2437 317.444 46.2436 317.444C46.2435 317.444 46.2434 317.444 46.2432 317.444C46.2431 317.444 46.243 317.445 46.2428 317.445C46.2427 317.445 46.2426 317.445 46.2424 317.445C46.2423 317.445 46.2422 317.445 46.242 317.446C46.2419 317.446 46.2417 317.446 46.2416 317.446C46.2414 317.446 46.2413 317.446 46.2411 317.446C46.2409 317.447 46.2408 317.447 46.2406 317.447C46.2404 317.447 46.2403 317.447 46.2401 317.447C46.2399 317.448 46.2398 317.448 46.2396 317.448C46.2394 317.448 46.2392 317.448 46.239 317.449C46.2369 317.451 46.24 317.448 46.2379 317.45C46.2315 317.456 46.243 317.445 46.2366 317.451C46.2307 317.457 46.2412 317.446 46.2353 317.452C46.2346 317.453 46.2345 317.453 46.2338 317.454C46.2318 317.456 46.2343 317.453 46.2323 317.456C46.2315 317.456 46.2314 317.456 46.2306 317.457C46.2257 317.462 46.2338 317.454 46.2289 317.459C46.2266 317.461 46.2293 317.459 46.227 317.461C46.2253 317.463 46.2268 317.461 46.225 317.463C46.2158 317.472 46.2323 317.456 46.223 317.465C46.2187 317.469 46.225 317.463 46.2207 317.467C46.2197 317.468 46.2195 317.469 46.2184 317.47C46.2134 317.475 46.221 317.467 46.216 317.472C46.2155 317.473 46.2151 317.473 46.2147 317.474C46.2142 317.474 46.2138 317.474 46.2134 317.475C46.1987 317.49 46.2254 317.463 46.2106 317.478C46.2078 317.481 46.2107 317.478 46.2078 317.481C46.2047 317.484 46.208 317.48 46.2048 317.484C46.2042 317.484 46.2023 317.486 46.2017 317.487C46.1866 317.502 46.2135 317.475 46.1984 317.49C46.1978 317.491 46.1973 317.491 46.1967 317.492C46.1961 317.493 46.1955 317.493 46.1949 317.494C46.1932 317.496 46.1931 317.496 46.1914 317.497C46.1806 317.508 46.1984 317.49 46.1876 317.501C46.187 317.502 46.1863 317.503 46.1857 317.503C46.185 317.504 46.1844 317.505 46.1837 317.505C46.1807 317.508 46.1827 317.506 46.1797 317.51C46.1751 317.514 46.1801 317.509 46.1754 317.514C46.1747 317.515 46.174 317.515 46.1733 317.516C46.1725 317.517 46.1718 317.518 46.171 317.518C46.1484 317.542 46.1892 317.5 46.1665 317.523C46.1657 317.524 46.1649 317.525 46.1641 317.525C46.1633 317.526 46.1625 317.527 46.1617 317.528C46.1546 317.535 46.1639 317.526 46.1568 317.533C46.1411 317.549 46.1675 317.522 46.1517 317.538C46.1508 317.539 46.15 317.54 46.1491 317.541C46.1482 317.542 46.1473 317.543 46.1464 317.544C46.1455 317.545 46.1446 317.545 46.1437 317.546C46.1428 317.547 46.1418 317.548 46.1409 317.549C46.14 317.55 46.1391 317.551 46.1381 317.552C46.1372 317.553 46.1362 317.554 46.1352 317.555C46.0912 317.6 46.1735 317.516 46.1294 317.561C46.1286 317.562 46.1241 317.567 46.1233 317.567C46.1153 317.576 46.1251 317.565 46.117 317.574C46.1135 317.577 46.1142 317.577 46.1106 317.58C46.0723 317.62 46.1422 317.548 46.1039 317.587C46.1027 317.588 46.1016 317.59 46.1005 317.591C46.0993 317.592 46.0982 317.593 46.097 317.594C46.0922 317.599 46.0948 317.597 46.0899 317.602C46.0876 317.604 46.0849 317.607 46.0825 317.609C46.0458 317.647 46.1118 317.579 46.075 317.617C46.0255 317.668 46.1168 317.574 46.0672 317.625C46.0515 317.641 46.075 317.617 46.0592 317.633C46.0422 317.651 46.0681 317.624 46.051 317.642C46.0496 317.643 46.0482 317.644 46.0468 317.646C46.0453 317.647 46.0439 317.649 46.0425 317.65C46.0411 317.652 46.0396 317.653 46.0382 317.655C46.0367 317.656 46.0352 317.658 46.0338 317.659C46.0323 317.661 46.0308 317.662 46.0293 317.664C46.0278 317.665 46.0263 317.667 46.0248 317.668C46.0231 317.67 46.0174 317.676 46.0156 317.678C46.0107 317.683 46.0112 317.682 46.0062 317.688C46.0046 317.689 46.003 317.691 46.0013 317.693C45.9997 317.694 45.9981 317.696 45.9965 317.698C45.993 317.701 45.9901 317.704 45.9865 317.708C45.982 317.712 45.9809 317.714 45.9763 317.718C45.9672 317.728 45.975 317.72 45.9658 317.729C45.964 317.731 45.9623 317.733 45.9605 317.734C45.9587 317.736 45.9569 317.738 45.9551 317.74C45.9468 317.748 45.9524 317.743 45.9441 317.751C45.9422 317.753 45.9403 317.755 45.9385 317.757C45.9366 317.759 45.9347 317.761 45.9328 317.763C45.9035 317.793 45.9506 317.745 45.9212 317.775C45.9193 317.777 45.9173 317.779 45.9153 317.781C45.9134 317.783 45.9114 317.785 45.9094 317.787C45.9053 317.791 45.9015 317.795 45.8973 317.799C45.8857 317.811 45.8966 317.8 45.8849 317.812C45.8828 317.814 45.8807 317.816 45.8786 317.819C45.8764 317.821 45.8743 317.823 45.8722 317.825C45.87 317.827 45.8679 317.829 45.8657 317.832C45.8636 317.834 45.8614 317.836 45.8592 317.838C45.857 317.841 45.8548 317.843 45.8526 317.845C45.8504 317.847 45.8481 317.85 45.8459 317.852C45.8247 317.874 45.8537 317.844 45.8323 317.866C45.8268 317.872 45.8241 317.874 45.8185 317.88C45.7721 317.928 45.8508 317.847 45.8043 317.895C45.7923 317.907 45.8019 317.897 45.7898 317.91C45.7745 317.925 45.7903 317.909 45.775 317.925C45.7128 317.989 45.8221 317.876 45.7599 317.94C45.7573 317.943 45.7547 317.946 45.7522 317.948C45.7496 317.951 45.747 317.954 45.7444 317.956C45.7189 317.982 45.7543 317.946 45.7287 317.972C45.7175 317.984 45.7238 317.977 45.7126 317.989C45.7099 317.992 45.7071 317.994 45.7044 317.997C45.7017 318 45.6989 318.003 45.6962 318.006C45.6934 318.009 45.6906 318.011 45.6878 318.014C45.685 318.017 45.6822 318.02 45.6794 318.023C45.6699 318.033 45.672 318.031 45.6623 318.04C45.6496 318.053 45.6577 318.045 45.6449 318.058C45.642 318.061 45.639 318.064 45.6361 318.067C45.6331 318.07 45.6302 318.073 45.6272 318.077C45.5793 318.126 45.657 318.046 45.6091 318.095C45.5952 318.109 45.6046 318.1 45.5906 318.114C45.5806 318.124 45.5819 318.123 45.5718 318.133C45.5686 318.137 45.5655 318.14 45.5623 318.143C45.5591 318.146 45.5559 318.15 45.5527 318.153C45.4845 318.223 45.6014 318.103 45.5331 318.173C45.5139 318.193 45.5326 318.174 45.5133 318.193C45.5099 318.197 45.5066 318.2 45.5032 318.204C45.4998 318.207 45.4964 318.211 45.493 318.214C45.4566 318.252 45.5089 318.198 45.4724 318.235C45.4689 318.239 45.4655 318.243 45.462 318.246C45.4585 318.25 45.455 318.253 45.4514 318.257C45.4449 318.264 45.4367 318.272 45.4301 318.279C45.4265 318.283 45.4229 318.286 45.4193 318.29C45.4156 318.294 45.412 318.297 45.4083 318.301C45.328 318.384 45.4667 318.241 45.3862 318.324C45.313 318.399 45.437 318.272 45.3637 318.347C45.3619 318.349 45.3428 318.368 45.3408 318.37C45.337 318.374 45.3331 318.378 45.3292 318.382C45.3254 318.386 45.3215 318.39 45.3176 318.394C45.3136 318.398 45.3097 318.402 45.3058 318.406C45.3018 318.41 45.2979 318.415 45.2939 318.419C45.2899 318.423 45.2859 318.427 45.2819 318.431C45.2779 318.435 45.2739 318.439 45.2698 318.443C45.2658 318.447 45.2617 318.452 45.2576 318.456C45.2536 318.46 45.2495 318.464 45.2453 318.468C45.2412 318.473 45.2371 318.477 45.233 318.481C45.2288 318.485 45.2246 318.49 45.2205 318.494C45.2163 318.498 45.2121 318.503 45.2079 318.507C45.2037 318.511 45.1994 318.516 45.1952 318.52C45.1909 318.524 45.1867 318.529 45.1824 318.533C45.1781 318.537 45.1738 318.542 45.1695 318.546C45.1652 318.551 45.1608 318.555 45.1565 318.56C45.1521 318.564 45.1478 318.569 45.1434 318.573C45.1355 318.581 45.1249 318.592 45.1169 318.6C45.0961 318.622 45.1108 318.607 45.0899 318.628C45.0854 318.633 45.0808 318.637 45.0763 318.642C45.0717 318.647 45.0671 318.651 45.0625 318.656C45.0453 318.674 45.0522 318.667 45.0347 318.685C45.0305 318.689 45.0109 318.709 45.0065 318.714C45.0018 318.718 44.997 318.723 44.9922 318.728C44.9874 318.733 44.9826 318.738 44.9778 318.743C44.973 318.748 44.9682 318.753 44.9633 318.758C44.9585 318.763 44.9536 318.768 44.9487 318.773C44.9047 318.818 44.9634 318.758 44.9192 318.803C44.8746 318.849 44.9339 318.788 44.8892 318.834C44.8534 318.871 44.8947 318.828 44.8588 318.865C44.7715 318.955 44.9153 318.807 44.8279 318.897C44.8227 318.902 44.8175 318.908 44.8123 318.913C44.807 318.918 44.8018 318.924 44.7965 318.929C44.7784 318.948 44.783 318.943 44.7647 318.962C44.7594 318.967 44.754 318.973 44.7487 318.978C44.7433 318.984 44.7379 318.989 44.7325 318.995C44.7271 319 44.7216 319.006 44.7162 319.012C44.7107 319.017 44.7052 319.023 44.6998 319.028C44.6762 319.053 44.6902 319.038 44.6666 319.062C44.661 319.068 44.6554 319.074 44.6498 319.08C44.6442 319.085 44.6385 319.091 44.6329 319.097C44.5789 319.152 44.6529 319.076 44.5988 319.132C44.593 319.138 44.5873 319.144 44.5815 319.15C44.5757 319.156 44.57 319.162 44.5641 319.168C44.5422 319.19 44.5511 319.181 44.5291 319.204C44.5232 319.21 44.5173 319.216 44.5113 319.222C44.5054 319.228 44.4994 319.234 44.4935 319.24C44.4452 319.29 44.5058 319.227 44.4574 319.277C44.4514 319.283 44.4453 319.29 44.4392 319.296C44.4331 319.302 44.427 319.308 44.4209 319.315C44.409 319.327 44.3958 319.34 44.3838 319.353C44.3776 319.359 44.3713 319.365 44.3651 319.372C44.3588 319.378 44.3526 319.385 44.3463 319.391C44.34 319.398 44.3336 319.404 44.3273 319.411C44.321 319.417 44.3146 319.424 44.3082 319.43C44.3018 319.437 44.2954 319.443 44.289 319.45C44.2826 319.457 44.2761 319.463 44.2697 319.47C44.2577 319.482 44.2427 319.497 44.2306 319.51C44.2253 319.515 44.1965 319.545 44.191 319.55C44.1467 319.596 44.1955 319.546 44.1509 319.592C44.1042 319.64 44.1573 319.585 44.1103 319.633C44.0675 319.677 44.1122 319.631 44.0692 319.675C44.0623 319.683 44.0554 319.69 44.0485 319.697C44.0415 319.704 44.0346 319.711 44.0276 319.718C44.0206 319.725 44.0136 319.733 44.0065 319.74C43.9995 319.747 43.9925 319.754 43.9854 319.762C43.9783 319.769 43.9712 319.776 43.9641 319.783C43.957 319.791 43.9499 319.798 43.9427 319.805C43.8705 319.879 43.9718 319.775 43.8995 319.85C43.8922 319.857 43.8849 319.865 43.8776 319.872C43.8703 319.88 43.863 319.887 43.8557 319.895C43.8483 319.902 43.841 319.91 43.8336 319.917C43.8262 319.925 43.8188 319.933 43.8114 319.94C43.7497 320.003 43.8284 319.923 43.7665 319.986C43.708 320.046 43.7798 319.973 43.7211 320.033C43.688 320.067 43.7084 320.046 43.6751 320.08C43.6674 320.088 43.6597 320.096 43.652 320.104C43.6442 320.112 43.6364 320.12 43.6286 320.128C43.6208 320.136 43.613 320.144 43.6052 320.152C43.5973 320.16 43.5895 320.168 43.5816 320.176C43.5737 320.184 43.5658 320.192 43.5578 320.2C43.5499 320.208 43.5419 320.217 43.5339 320.225C43.446 320.315 43.5739 320.184 43.4858 320.274C43.4777 320.283 43.4696 320.291 43.4614 320.299C43.4533 320.308 43.4452 320.316 43.437 320.324C43.4288 320.333 43.4206 320.341 43.4124 320.35C43.4042 320.358 43.3959 320.366 43.3877 320.375C43.3794 320.383 43.3711 320.392 43.3628 320.401C43.3545 320.409 43.3461 320.418 43.3378 320.426C43.3074 320.457 43.3178 320.447 43.2873 320.478C43.2788 320.487 43.2703 320.495 43.2618 320.504C43.2533 320.513 43.2448 320.522 43.2362 320.53C43.2277 320.539 43.2191 320.548 43.2105 320.557C43.2019 320.566 43.1932 320.575 43.1846 320.583C43.1759 320.592 43.1673 320.601 43.1585 320.61C43.1498 320.619 43.1411 320.628 43.1324 320.637C43.0539 320.717 43.1582 320.611 43.0795 320.691C42.9993 320.774 43.1066 320.663 43.0261 320.746C43.0172 320.755 43.0082 320.764 42.9992 320.774C42.9902 320.783 42.9812 320.792 42.9721 320.801C42.9607 320.813 42.9291 320.846 42.9175 320.858C42.8608 320.916 42.9193 320.856 42.8623 320.914C42.853 320.924 42.8438 320.933 42.8345 320.943C42.8252 320.952 42.8158 320.962 42.8065 320.971C42.7402 321.04 42.8166 320.961 42.7501 321.029C42.7406 321.039 42.7311 321.049 42.7216 321.059C42.7121 321.068 42.7026 321.078 42.693 321.088C42.659 321.123 42.6696 321.112 42.6353 321.147C42.6257 321.157 42.616 321.167 42.6063 321.177C42.5966 321.187 42.5868 321.197 42.5771 321.207C42.5673 321.217 42.5575 321.227 42.5477 321.237C42.5379 321.247 42.528 321.257 42.5182 321.267C42.4656 321.321 42.5114 321.274 42.4586 321.328C42.3821 321.407 42.4753 321.311 42.3985 321.39C42.3629 321.427 42.3734 321.416 42.3377 321.453C42.3275 321.463 42.3173 321.474 42.3071 321.484C42.2968 321.495 42.2865 321.505 42.2763 321.516C42.2668 321.525 42.2239 321.569 42.2142 321.579C42.2038 321.59 42.1934 321.601 42.1829 321.611C42.1725 321.622 42.162 321.633 42.1515 321.644C42.141 321.654 42.1304 321.665 42.1199 321.676C42.1093 321.687 42.0987 321.698 42.0881 321.709C42.0775 321.72 42.0669 321.731 42.0562 321.741C42.0455 321.752 42.0348 321.763 42.0241 321.774C42.0134 321.785 42.0026 321.796 41.9919 321.808C41.9811 321.819 41.9703 321.83 41.9594 321.841C41.8947 321.907 41.9591 321.841 41.8941 321.908C41.7988 322.006 41.9237 321.877 41.8282 321.976C41.8171 321.987 41.806 321.998 41.7949 322.01C41.7838 322.021 41.7727 322.032 41.7615 322.044C41.7503 322.055 41.7392 322.067 41.7279 322.078C41.7167 322.09 41.7055 322.101 41.6942 322.113C41.6417 322.167 41.6789 322.129 41.6262 322.183C41.6148 322.194 41.6034 322.206 41.592 322.218C41.5805 322.23 41.5691 322.241 41.5576 322.253C41.5144 322.298 41.5316 322.28 41.4883 322.324C41.434 322.38 41.4727 322.34 41.4182 322.396C41.4065 322.408 41.3948 322.42 41.383 322.432C41.3712 322.445 41.3594 322.457 41.3476 322.469C41.3357 322.481 41.3239 322.493 41.312 322.505C41.3001 322.518 41.2881 322.53 41.2762 322.542C41.2642 322.554 41.2522 322.567 41.2402 322.579C41.2282 322.591 41.2162 322.604 41.2041 322.616C41.192 322.628 41.18 322.641 41.1678 322.653C41.1557 322.666 41.1435 322.678 41.1314 322.691C41.0652 322.759 41.1243 322.698 41.0579 322.766C41.0456 322.779 41.0333 322.791 41.0209 322.804C41.0086 322.817 40.9962 322.829 40.9838 322.842C40.9713 322.855 40.9589 322.868 40.9464 322.88C40.9339 322.893 40.9214 322.906 40.9089 322.919C40.8599 322.969 40.8825 322.946 40.8333 322.997C40.7869 323.044 40.8037 323.027 40.7571 323.075C40.7443 323.088 40.7315 323.101 40.7187 323.114C40.7058 323.127 40.693 323.141 40.6801 323.154C40.6672 323.167 40.6543 323.18 40.6413 323.194C40.6284 323.207 40.6154 323.22 40.6024 323.234C40.5894 323.247 40.5763 323.26 40.5633 323.274C40.5502 323.287 40.5371 323.301 40.524 323.314C40.4484 323.392 40.5206 323.318 40.4448 323.395C40.4316 323.409 40.4183 323.423 40.405 323.436C40.3917 323.45 40.3783 323.464 40.3649 323.477C40.3516 323.491 40.3382 323.505 40.3247 323.519C40.3113 323.532 40.2978 323.546 40.2843 323.56C40.2242 323.622 40.2634 323.581 40.203 323.643C40.1105 323.738 40.2137 323.633 40.1209 323.728C40.1072 323.742 40.0934 323.756 40.0796 323.77C40.0658 323.784 40.052 323.798 40.0381 323.813C40.0243 323.827 40.0104 323.841 39.9965 323.855C39.9825 323.87 39.9686 323.884 39.9546 323.898C39.8845 323.97 39.9406 323.913 39.8703 323.985C39.851 324.005 39.8047 324.052 39.7852 324.072C39.7041 324.156 39.7809 324.077 39.6994 324.16C39.6851 324.175 39.6707 324.19 39.6563 324.205C39.6418 324.219 39.6274 324.234 39.6129 324.249C39.5984 324.264 39.5839 324.279 39.5693 324.294C39.5548 324.309 39.5402 324.324 39.5256 324.339C39.511 324.354 39.4963 324.369 39.4816 324.384C39.467 324.399 39.4523 324.414 39.4375 324.429C39.3897 324.478 39.3967 324.471 39.3487 324.52C39.3338 324.536 39.3189 324.551 39.304 324.566C39.289 324.581 39.2741 324.597 39.2591 324.612C39.2476 324.624 39.1804 324.693 39.1687 324.705C39.138 324.736 39.1084 324.767 39.0775 324.799C39.0623 324.814 39.047 324.83 39.0316 324.846C39.0163 324.861 39.001 324.877 38.9856 324.893C38.9702 324.909 38.9548 324.925 38.9393 324.94C38.9239 324.956 38.9084 324.972 38.8929 324.988C38.8773 325.004 38.8618 325.02 38.8462 325.036C38.8306 325.052 38.815 325.068 38.7994 325.084C38.7617 325.123 38.7429 325.142 38.7051 325.181C38.6893 325.197 38.6735 325.213 38.6576 325.23C38.6418 325.246 38.6259 325.262 38.61 325.278C38.5941 325.295 38.5781 325.311 38.5621 325.328C38.5461 325.344 38.5301 325.36 38.5141 325.377C38.432 325.461 38.4998 325.391 38.4174 325.476C38.4012 325.493 38.385 325.509 38.3688 325.526C38.3525 325.543 38.3362 325.559 38.3199 325.576C38.3036 325.593 38.2873 325.61 38.2709 325.626C38.2545 325.643 38.2381 325.66 38.2216 325.677C38.2053 325.694 38.1391 325.762 38.1225 325.779C38.0852 325.817 38.0602 325.843 38.0226 325.881C37.9742 325.931 37.9706 325.935 37.9219 325.985C37.905 326.002 37.8881 326.019 37.8712 326.037C37.8543 326.054 37.8373 326.071 37.8203 326.089C37.8034 326.106 37.7863 326.124 37.7693 326.141C37.7522 326.159 37.7351 326.176 37.718 326.194C37.6935 326.219 37.6396 326.274 37.6148 326.3C37.5975 326.317 37.5802 326.335 37.5629 326.353C37.5455 326.371 37.5282 326.389 37.5108 326.407C37.4934 326.424 37.4759 326.442 37.4584 326.46C37.441 326.478 37.4235 326.496 37.4059 326.514C37.3884 326.532 37.3708 326.55 37.3532 326.568C37.3356 326.586 37.3179 326.604 37.3002 326.623C37.2825 326.641 37.2648 326.659 37.2471 326.677C37.2293 326.695 37.2115 326.714 37.1937 326.732C37.1759 326.75 37.158 326.769 37.1401 326.787C37.1222 326.805 37.1043 326.824 37.0863 326.842C37.0684 326.861 37.0504 326.879 37.0323 326.898C37.0143 326.916 36.9962 326.935 36.9781 326.953L39.1268 329.047C39.1449 329.028 39.163 329.01 39.181 328.991C39.199 328.973 39.217 328.954 39.235 328.936C39.253 328.917 39.2709 328.899 39.2888 328.881C39.3067 328.862 39.3246 328.844 39.3424 328.826C39.3602 328.807 39.378 328.789 39.3957 328.771C39.4135 328.753 39.4312 328.734 39.4489 328.716C39.4666 328.698 39.4842 328.68 39.5019 328.662C39.5195 328.644 39.5371 328.626 39.5546 328.608C39.5721 328.59 39.5897 328.572 39.6071 328.554C39.6246 328.536 39.642 328.518 39.6595 328.5C39.7629 328.394 39.6603 328.499 39.7635 328.393C39.8492 328.305 39.7812 328.375 39.8667 328.287C39.8838 328.27 39.9009 328.252 39.918 328.235C39.935 328.217 39.952 328.2 39.969 328.182C39.986 328.165 40.003 328.148 40.0199 328.13C40.0368 328.113 40.0537 328.095 40.0706 328.078C40.0874 328.061 40.1043 328.044 40.121 328.026C40.1378 328.009 40.1546 327.992 40.1713 327.975C40.2052 327.94 40.2376 327.907 40.2712 327.872C40.2878 327.855 40.3044 327.838 40.3209 327.821C40.3374 327.804 40.3539 327.787 40.3703 327.771C40.3868 327.754 40.4032 327.737 40.4196 327.72C40.4359 327.703 40.4523 327.686 40.4686 327.67C40.5285 327.608 40.5065 327.631 40.5661 327.57C40.5823 327.553 40.5984 327.536 40.6145 327.52C40.6306 327.503 40.6467 327.487 40.6628 327.47C40.6788 327.454 40.6948 327.437 40.7108 327.421C40.7268 327.405 40.7427 327.388 40.7587 327.372C40.7746 327.356 40.7905 327.339 40.8063 327.323C40.8221 327.307 40.838 327.291 40.8537 327.274C40.8695 327.258 40.8853 327.242 40.901 327.226C40.9167 327.21 40.9324 327.194 40.948 327.178C40.983 327.142 41.0068 327.117 41.0415 327.082C41.0571 327.066 41.0726 327.05 41.088 327.034C41.1035 327.018 41.1189 327.002 41.1343 326.987C41.1497 326.971 41.165 326.955 41.1803 326.939C41.1957 326.924 41.2109 326.908 41.2262 326.892C41.2605 326.857 41.2833 326.834 41.3174 326.799C41.3325 326.783 41.3476 326.768 41.3627 326.752C41.3777 326.737 41.3927 326.721 41.4077 326.706C41.4227 326.69 41.4377 326.675 41.4526 326.66C41.4676 326.644 41.4825 326.629 41.4974 326.614C41.5122 326.599 41.5271 326.583 41.5419 326.568C41.5567 326.553 41.5715 326.538 41.5862 326.523C41.6009 326.508 41.6157 326.492 41.6303 326.477C41.645 326.462 41.6597 326.447 41.6743 326.432C41.6959 326.41 41.7402 326.365 41.7616 326.343C41.7761 326.328 41.7905 326.313 41.805 326.298C41.8194 326.283 41.8338 326.269 41.8481 326.254C41.8625 326.239 41.8768 326.224 41.8911 326.21C41.9054 326.195 41.9197 326.18 41.9339 326.166C42.0356 326.061 41.9176 326.183 42.019 326.079C42.0992 325.996 42.0233 326.074 42.1033 325.992C42.1173 325.978 42.1312 325.963 42.1451 325.949C42.1591 325.935 42.173 325.92 42.1868 325.906C42.25 325.841 42.2067 325.886 42.2696 325.821C42.3229 325.767 42.2987 325.791 42.3517 325.737C42.4075 325.68 42.3775 325.711 42.433 325.654C42.4465 325.64 42.46 325.626 42.4734 325.612C42.4869 325.598 42.5003 325.585 42.5136 325.571C42.527 325.557 42.5403 325.543 42.5537 325.53C42.567 325.516 42.5802 325.502 42.5935 325.489C42.6866 325.393 42.5798 325.503 42.6726 325.408C42.7623 325.316 42.6616 325.419 42.7511 325.327C42.7933 325.284 42.7868 325.291 42.8288 325.247C42.8417 325.234 42.8545 325.221 42.8673 325.208C42.8802 325.195 42.893 325.182 42.9057 325.168C42.9407 325.133 42.9473 325.126 42.982 325.09C42.9947 325.077 43.0073 325.064 43.0199 325.051C43.0325 325.038 43.045 325.025 43.0576 325.013C43.0701 325 43.0826 324.987 43.0951 324.974C43.1076 324.961 43.12 324.948 43.1324 324.936C43.1449 324.923 43.1572 324.91 43.1696 324.898C43.182 324.885 43.1943 324.872 43.2066 324.86C43.2189 324.847 43.2312 324.834 43.2434 324.822C43.2556 324.809 43.2679 324.797 43.28 324.784C43.3121 324.751 43.321 324.742 43.3528 324.71C43.3649 324.697 43.3769 324.685 43.3889 324.673C43.4009 324.66 43.4129 324.648 43.4249 324.636C43.4368 324.623 43.4487 324.611 43.4606 324.599C43.4725 324.587 43.4844 324.575 43.4962 324.562C43.5215 324.536 43.5419 324.516 43.5669 324.49C43.6125 324.443 43.5916 324.465 43.6369 324.418C43.6486 324.406 43.6601 324.394 43.6717 324.382C43.6832 324.37 43.6948 324.359 43.7063 324.347C43.7682 324.283 43.7132 324.34 43.7749 324.276C43.7863 324.265 43.7977 324.253 43.809 324.241C43.8203 324.23 43.8316 324.218 43.8429 324.207C43.8793 324.169 43.874 324.175 43.9102 324.138C43.9214 324.126 43.9325 324.115 43.9436 324.103C43.9547 324.092 43.9658 324.08 43.9768 324.069C43.9879 324.058 43.9989 324.046 44.0099 324.035C44.0209 324.024 44.0319 324.013 44.0428 324.001C44.0478 323.996 44.1034 323.939 44.1081 323.934C44.119 323.923 44.1298 323.912 44.1405 323.901C44.1513 323.89 44.1621 323.879 44.1728 323.868C44.1835 323.857 44.1942 323.846 44.2049 323.835C44.2156 323.824 44.2262 323.813 44.2368 323.802C44.2474 323.791 44.258 323.781 44.2686 323.77C44.2791 323.759 44.2897 323.748 44.3002 323.737C44.3107 323.727 44.3212 323.716 44.3316 323.705C44.3421 323.694 44.3525 323.684 44.3629 323.673C44.464 323.569 44.324 323.713 44.4249 323.609C44.4331 323.601 44.4785 323.554 44.4864 323.546C44.4966 323.536 44.5067 323.525 44.5169 323.515C44.527 323.505 44.5371 323.494 44.5472 323.484C44.5774 323.453 44.5773 323.453 44.6073 323.422C44.6397 323.389 44.6347 323.394 44.6669 323.361C44.6767 323.351 44.6866 323.341 44.6964 323.331C44.7062 323.321 44.716 323.311 44.7258 323.301C44.7355 323.29 44.7453 323.28 44.755 323.271C44.7647 323.261 44.7744 323.251 44.784 323.241C44.7911 323.233 44.8348 323.189 44.8417 323.182C44.8513 323.172 44.8608 323.162 44.8703 323.152C44.8798 323.142 44.8893 323.133 44.8987 323.123C44.9082 323.113 44.9176 323.104 44.927 323.094C44.9364 323.084 44.9458 323.075 44.9552 323.065C44.9645 323.055 44.9739 323.046 44.9832 323.036C44.9925 323.027 45.0017 323.017 45.011 323.008C45.0202 322.998 45.0295 322.989 45.0387 322.979C45.0479 322.97 45.057 322.96 45.0662 322.951C45.0937 322.923 45.0935 322.923 45.1208 322.895C45.1299 322.886 45.1389 322.876 45.1479 322.867C45.1569 322.858 45.1659 322.849 45.1748 322.84C45.1838 322.83 45.1927 322.821 45.2016 322.812C45.2105 322.803 45.2194 322.794 45.2282 322.785C45.2371 322.776 45.2459 322.767 45.2547 322.758C45.2635 322.749 45.2723 322.74 45.281 322.731C45.3309 322.679 45.2836 322.728 45.3333 322.677C45.3419 322.668 45.3506 322.659 45.3592 322.65C45.3678 322.642 45.3764 322.633 45.3849 322.624C45.3935 322.615 45.402 322.606 45.4105 322.598C45.419 322.589 45.4275 322.58 45.436 322.572C45.4444 322.563 45.4529 322.554 45.4613 322.546C45.4697 322.537 45.4781 322.528 45.4865 322.52C45.5 322.506 45.523 322.482 45.5364 322.469C45.5527 322.452 45.5695 322.435 45.5857 322.418C45.5939 322.41 45.602 322.401 45.6101 322.393C45.6183 322.385 45.6264 322.376 45.6344 322.368C45.6491 322.353 45.6682 322.333 45.6826 322.318C45.7547 322.244 45.6584 322.343 45.7303 322.27C45.7382 322.261 45.746 322.253 45.7539 322.245C45.7617 322.237 45.7695 322.229 45.7773 322.221C45.7851 322.213 45.7929 322.205 45.8007 322.197C45.8084 322.189 45.8161 322.181 45.8238 322.174C45.8481 322.149 45.8457 322.151 45.8698 322.126C45.9084 322.087 45.8767 322.119 45.9152 322.08C45.9739 322.02 45.9015 322.094 45.9601 322.034C45.9675 322.026 45.9749 322.018 45.9823 322.011C45.9897 322.003 45.997 321.996 46.0044 321.988C46.0746 321.916 45.9781 322.015 46.0481 321.943C46.0531 321.938 46.0866 321.904 46.0914 321.899C46.0985 321.892 46.1057 321.884 46.1128 321.877C46.1199 321.87 46.127 321.862 46.1341 321.855C46.1412 321.848 46.1482 321.841 46.1552 321.833C46.1623 321.826 46.1693 321.819 46.1763 321.812C46.2523 321.734 46.142 321.847 46.2179 321.769C46.2262 321.761 46.2509 321.735 46.259 321.727C46.2658 321.72 46.2726 321.713 46.2794 321.706C46.2862 321.699 46.2929 321.692 46.2996 321.685C46.3619 321.621 46.2776 321.708 46.3397 321.644C46.4186 321.563 46.3006 321.684 46.3793 321.603C46.3858 321.597 46.3924 321.59 46.3989 321.583C46.4054 321.577 46.4119 321.57 46.4183 321.563C46.4784 321.502 46.397 321.585 46.4569 321.524C46.5151 321.464 46.4369 321.544 46.4949 321.485C46.529 321.45 46.4986 321.481 46.5325 321.446C46.5471 321.431 46.5551 321.423 46.5695 321.408C46.654 321.321 46.5218 321.457 46.6061 321.371C46.6121 321.364 46.6182 321.358 46.6242 321.352C46.6302 321.346 46.6362 321.34 46.6422 321.334C46.6565 321.319 46.6636 321.312 46.6777 321.297C46.6836 321.291 46.6895 321.285 46.6953 321.279C46.7012 321.273 46.707 321.267 46.7128 321.261C46.7525 321.22 46.708 321.266 46.7474 321.226C46.7532 321.22 46.7589 321.214 46.7646 321.208C46.7703 321.202 46.7759 321.196 46.7816 321.191C46.799 321.173 46.798 321.174 46.8152 321.156C46.8208 321.15 46.8264 321.145 46.8319 321.139C46.8374 321.133 46.8429 321.128 46.8484 321.122C46.8539 321.116 46.8594 321.111 46.8649 321.105C46.8703 321.1 46.8757 321.094 46.8812 321.088C46.8866 321.083 46.892 321.077 46.8974 321.072C46.9027 321.066 46.9081 321.061 46.9134 321.055C46.9179 321.051 46.9409 321.027 46.9452 321.023C46.983 320.984 46.9389 321.029 46.9766 320.99C46.9817 320.985 46.9869 320.98 46.9921 320.975C46.9972 320.969 47.0023 320.964 47.0075 320.959C47.0126 320.954 47.0177 320.948 47.0227 320.943C47.0278 320.938 47.0329 320.933 47.0379 320.928C47.0429 320.922 47.0479 320.917 47.0529 320.912C47.0579 320.907 47.0629 320.902 47.0679 320.897C47.0728 320.892 47.0778 320.887 47.0827 320.882C47.0876 320.876 47.0925 320.871 47.0974 320.866C47.1023 320.861 47.1072 320.856 47.112 320.851C47.1169 320.846 47.1217 320.841 47.1265 320.837C47.1313 320.832 47.1361 320.827 47.1409 320.822C47.1457 320.817 47.1504 320.812 47.1552 320.807C47.1859 320.776 47.1529 320.81 47.1834 320.778C47.1881 320.773 47.1927 320.769 47.1974 320.764C47.202 320.759 47.2066 320.754 47.2112 320.75C47.2158 320.745 47.2204 320.74 47.225 320.736C47.2295 320.731 47.2341 320.726 47.2386 320.722C47.3126 320.646 47.1917 320.77 47.2655 320.694C47.2672 320.692 47.2906 320.668 47.2921 320.667C47.3282 320.63 47.2822 320.677 47.3182 320.64C47.3225 320.635 47.3268 320.631 47.3311 320.627C47.3354 320.622 47.3396 320.618 47.3439 320.613C47.3481 320.609 47.3524 320.605 47.3566 320.6C47.3608 320.596 47.365 320.592 47.3692 320.588C47.4084 320.547 47.355 320.602 47.394 320.562C47.4568 320.498 47.3558 320.601 47.4185 320.537C47.4226 320.533 47.4266 320.529 47.4306 320.524C47.4346 320.52 47.4386 320.516 47.4426 320.512C47.4466 320.508 47.4505 320.504 47.4545 320.5C47.4584 320.496 47.4623 320.492 47.4662 320.488C47.4702 320.484 47.4741 320.48 47.4779 320.476C47.4818 320.472 47.4857 320.468 47.4895 320.464C47.504 320.449 47.4981 320.455 47.5124 320.441C47.5162 320.437 47.52 320.433 47.5237 320.429C47.5275 320.425 47.5312 320.421 47.5349 320.417C47.5386 320.414 47.5423 320.41 47.546 320.406C47.5497 320.402 47.5534 320.398 47.557 320.395C47.5726 320.379 47.5633 320.388 47.5788 320.372C47.5798 320.371 47.5992 320.351 47.6001 320.351C47.6088 320.342 47.6125 320.338 47.6211 320.329C47.6246 320.325 47.628 320.322 47.6314 320.318C47.6349 320.315 47.6383 320.311 47.6417 320.308C47.6542 320.295 47.6495 320.3 47.6619 320.287C47.6653 320.284 47.6686 320.28 47.6719 320.277C47.6752 320.273 47.6785 320.27 47.6818 320.267C47.7542 320.192 47.6291 320.321 47.7013 320.247C47.7046 320.243 47.7078 320.24 47.711 320.237C47.7142 320.233 47.7173 320.23 47.7205 320.227C47.7239 320.223 47.736 320.211 47.7393 320.208C47.7424 320.204 47.7455 320.201 47.7486 320.198C47.7516 320.195 47.7547 320.192 47.7578 320.189C47.7608 320.186 47.7638 320.182 47.7668 320.179C47.7699 320.176 47.7729 320.173 47.7759 320.17C47.79 320.156 47.7796 320.166 47.7936 320.152C47.7965 320.149 47.7995 320.146 47.8024 320.143C47.8053 320.14 47.8082 320.137 47.811 320.134C47.8381 320.106 47.8011 320.144 47.8281 320.117C47.9154 320.027 47.7577 320.189 47.8448 320.099C47.852 320.092 47.8542 320.09 47.8613 320.082C47.87 320.074 47.8687 320.075 47.8773 320.066C47.8799 320.063 47.8906 320.052 47.8931 320.05C47.8957 320.047 47.8983 320.044 47.9009 320.042C47.9034 320.039 47.906 320.037 47.9085 320.034C47.9111 320.031 47.9136 320.029 47.9161 320.026C47.9187 320.024 47.9212 320.021 47.9237 320.018C47.9346 320.007 47.9276 320.014 47.9385 320.003C47.9445 319.997 47.947 319.994 47.953 319.988C48.0088 319.931 47.9114 320.031 47.9671 319.974C47.9984 319.942 47.9498 319.992 47.981 319.96C47.9886 319.952 47.9871 319.953 47.9946 319.946C48.0118 319.928 47.9907 319.95 48.0079 319.932C48.0283 319.911 48.0005 319.94 48.0209 319.919C48.0675 319.871 47.987 319.953 48.0336 319.906C48.0374 319.902 48.0422 319.897 48.046 319.893C48.0678 319.87 48.0363 319.903 48.0581 319.88C48.0746 319.863 48.0534 319.885 48.0699 319.868C48.1223 319.815 48.0292 319.91 48.0815 319.856C48.0856 319.852 48.0888 319.849 48.0928 319.845C48.0946 319.843 48.0965 319.841 48.0983 319.839C48.1001 319.837 48.1019 319.835 48.1038 319.834C48.1222 319.815 48.0961 319.841 48.1145 319.823C48.1163 319.821 48.118 319.819 48.1198 319.817C48.1215 319.815 48.1233 319.814 48.125 319.812C48.1267 319.81 48.1284 319.808 48.1301 319.807C48.1318 319.805 48.1335 319.803 48.1352 319.801C48.1441 319.792 48.1363 319.8 48.1452 319.791C48.1698 319.766 48.1303 319.806 48.1549 319.781C48.1749 319.761 48.1443 319.792 48.1643 319.771C48.1692 319.766 48.1687 319.767 48.1735 319.762C48.1803 319.755 48.1757 319.76 48.1825 319.753C48.2108 319.724 48.1629 319.773 48.1912 319.744C48.1932 319.742 48.1977 319.737 48.1997 319.735C48.201 319.734 48.2024 319.732 48.2038 319.731C48.2052 319.73 48.2065 319.728 48.2079 319.727C48.2092 319.725 48.2106 319.724 48.2119 319.723C48.2133 319.721 48.2146 319.72 48.2159 319.719C48.2435 319.69 48.1961 319.739 48.2237 319.711C48.2401 319.694 48.2148 319.72 48.2312 319.703C48.238 319.696 48.2318 319.702 48.2386 319.695C48.2465 319.687 48.2379 319.696 48.2457 319.688C48.3043 319.628 48.1941 319.741 48.2526 319.681C48.2537 319.68 48.2548 319.679 48.2559 319.677C48.2571 319.676 48.2582 319.675 48.2593 319.674C48.2671 319.666 48.2579 319.675 48.2657 319.667C48.2668 319.666 48.2678 319.665 48.2689 319.664C48.2699 319.663 48.271 319.662 48.272 319.661C48.3152 319.617 48.2349 319.699 48.2781 319.655C48.2906 319.642 48.2715 319.661 48.2839 319.649C48.2915 319.641 48.2822 319.651 48.2896 319.643C48.3025 319.63 48.2823 319.65 48.2951 319.637C48.3134 319.618 48.2821 319.651 48.3004 319.632C48.3012 319.631 48.3021 319.63 48.303 319.629C48.3038 319.628 48.3047 319.627 48.3055 319.627C48.3063 319.626 48.3072 319.625 48.308 319.624C48.3088 319.623 48.3096 319.622 48.3104 319.622C48.3143 319.618 48.3114 319.621 48.3152 319.617C48.3159 319.616 48.3167 319.615 48.3175 319.614C48.3182 319.613 48.319 319.613 48.3197 319.612C48.3249 319.607 48.319 319.613 48.3241 319.607C48.3248 319.607 48.3278 319.604 48.3284 319.603C48.329 319.602 48.3297 319.602 48.3304 319.601C48.3311 319.6 48.3317 319.6 48.3324 319.599C48.3331 319.598 48.3337 319.598 48.3344 319.597C48.335 319.596 48.3357 319.596 48.3363 319.595C48.3369 319.594 48.3376 319.594 48.3382 319.593C48.3388 319.592 48.3394 319.592 48.3401 319.591C48.3407 319.59 48.3413 319.59 48.3419 319.589C48.3425 319.589 48.3431 319.588 48.3436 319.587C48.3441 319.587 48.3466 319.584 48.3471 319.584C48.356 319.575 48.3415 319.59 48.3504 319.581C48.3509 319.58 48.3514 319.579 48.3519 319.579C48.3525 319.578 48.353 319.578 48.3535 319.577C48.3567 319.574 48.3533 319.577 48.3565 319.574C48.3572 319.574 48.3587 319.572 48.3593 319.571C48.3598 319.571 48.3603 319.57 48.3607 319.57C48.3612 319.569 48.3616 319.569 48.3621 319.569C48.3641 319.566 48.3626 319.568 48.3646 319.566C48.3651 319.565 48.3655 319.565 48.3659 319.565C48.3663 319.564 48.3667 319.564 48.3671 319.563C48.3711 319.559 48.3654 319.565 48.3694 319.561C48.3712 319.559 48.3699 319.56 48.3716 319.559C48.3769 319.553 48.3685 319.562 48.3737 319.557C48.3745 319.556 48.375 319.555 48.3757 319.555C48.3768 319.553 48.3765 319.554 48.3776 319.553C48.379 319.551 48.3779 319.552 48.3793 319.551C48.3796 319.551 48.3799 319.55 48.3802 319.55C48.3804 319.55 48.3807 319.549 48.381 319.549C48.3817 319.548 48.3818 319.548 48.3825 319.548C48.3836 319.546 48.3829 319.547 48.3839 319.546C48.388 319.542 48.3813 319.549 48.3853 319.545C48.3855 319.544 48.3857 319.544 48.3859 319.544C48.3861 319.544 48.3863 319.544 48.3865 319.543C48.3868 319.543 48.3874 319.542 48.3877 319.542C48.3879 319.542 48.3881 319.542 48.3883 319.542C48.3884 319.541 48.3886 319.541 48.3888 319.541C48.3918 319.538 48.3868 319.543 48.3898 319.54C48.3906 319.539 48.3899 319.54 48.3907 319.539C48.3916 319.538 48.3907 319.539 48.3915 319.538C48.3922 319.538 48.3917 319.538 48.3923 319.537C48.3924 319.537 48.3925 319.537 48.3927 319.537C48.3928 319.537 48.3929 319.537 48.393 319.537C48.3947 319.535 48.392 319.538 48.3936 319.536C48.3942 319.536 48.3937 319.536 48.3942 319.536C48.3943 319.535 48.3947 319.535 48.3947 319.535C48.3948 319.535 48.3949 319.535 48.3949 319.535C48.395 319.535 48.3951 319.535 48.3952 319.535C48.3952 319.534 48.3953 319.534 48.3954 319.534C48.3954 319.534 48.3955 319.534 48.3956 319.534C48.3956 319.534 48.3959 319.534 48.3959 319.534C48.396 319.534 48.396 319.534 48.3961 319.534C48.3961 319.534 48.3962 319.534 48.3962 319.533C48.3968 319.533 48.3959 319.534 48.3965 319.533C48.3974 319.532 48.3958 319.534 48.3967 319.533C48.3968 319.533 48.3968 319.533 48.3969 319.533C48.3971 319.533 48.3968 319.533 48.397 319.533C48.3976 319.532 48.3966 319.533 48.3971 319.533C48.3972 319.532 48.3972 319.532 48.3972 319.532C48.3972 319.532 48.3972 319.532 48.3972 319.532C48.3973 319.532 48.3973 319.532 48.3973 319.532C48.3973 319.532 48.3973 319.532 48.3973 319.532C48.3973 319.532 48.3973 319.532 48.3974 319.532C48.3976 319.532 48.3971 319.533 48.3974 319.532C48.3974 319.532 48.3974 319.532 48.3974 319.532C48.3974 319.532 48.3974 319.532 48.3974 319.532C48.3974 319.532 48.3974 319.532 48.3974 319.532C48.3974 319.532 48.3974 319.532 48.3974 319.532C48.3974 319.532 48.3974 319.532 48.3974 319.532C48.3974 319.532 48.3974 319.532 48.3974 319.532C48.3974 319.532 47.3231 318.485 47.3231 318.485Z" fill="#404040"/>
</svg>
