<svg width="1433" height="329" viewBox="0 0 1433 329" fill="none" xmlns="http://www.w3.org/2000/svg">
<path d="M1431.5 2H1433V0.5H1431.5V2ZM1431.5 163.5V165H1433V163.5H1431.5ZM1.5 163.5V162H0V163.5H1.5ZM1.5 318H0V319.5H1.5V318ZM45.5 318L46.5889 319.032C47.1376 318.452 47.1369 317.545 46.5875 316.967L45.5 318ZM37.0875 306.967C36.5169 306.366 35.5675 306.342 34.9669 306.913C34.3663 307.483 34.3419 308.433 34.9125 309.033L37.0875 306.967ZM35.4111 326.468C34.8413 327.07 34.867 328.019 35.4684 328.589C36.0698 329.159 37.0192 329.133 37.5889 328.532L35.4111 326.468ZM1389 3.5H1431.5V0.5H1389V3.5ZM1430 2V163.5H1433V2H1430ZM1431.5 162H1.5V165H1431.5V162ZM0 163.5V318H3V163.5H0ZM1.5 319.5H45.5V316.5H1.5V319.5ZM45.5 318L46.5875 316.967C46.5875 316.967 46.5875 316.967 46.5875 316.967C46.5875 316.967 46.5875 316.967 46.5875 316.967C46.5875 316.967 46.5875 316.967 46.5875 316.967C46.5875 316.967 46.5875 316.967 46.5875 316.967C46.5875 316.967 46.5875 316.967 46.5875 316.967C46.5875 316.967 46.5875 316.967 46.5874 316.967C46.5874 316.967 46.5874 316.967 46.5874 316.967C46.5874 316.967 46.5874 316.967 46.5874 316.967C46.5874 316.967 46.5874 316.967 46.5874 316.967C46.5874 316.967 46.5874 316.967 46.5873 316.967C46.5873 316.967 46.5873 316.967 46.5873 316.967C46.5873 316.967 46.5873 316.967 46.5873 316.967C46.5872 316.967 46.5872 316.967 46.5872 316.967C46.5872 316.967 46.5872 316.967 46.5872 316.967C46.5871 316.966 46.5871 316.966 46.5871 316.966C46.5871 316.966 46.587 316.966 46.587 316.966C46.587 316.966 46.587 316.966 46.5869 316.966C46.5869 316.966 46.5869 316.966 46.5868 316.966C46.5868 316.966 46.5868 316.966 46.5867 316.966C46.5867 316.966 46.5867 316.966 46.5866 316.966C46.5866 316.966 46.5866 316.966 46.5865 316.966C46.5865 316.966 46.5864 316.966 46.5864 316.966C46.5863 316.966 46.5863 316.966 46.5863 316.966C46.5862 316.966 46.5862 316.965 46.5861 316.965C46.5861 316.965 46.586 316.965 46.5859 316.965C46.5859 316.965 46.5858 316.965 46.5858 316.965C46.5857 316.965 46.5857 316.965 46.5856 316.965C46.5855 316.965 46.5855 316.965 46.5854 316.965C46.5853 316.965 46.5853 316.965 46.5852 316.964C46.5851 316.964 46.585 316.964 46.585 316.964C46.5849 316.964 46.5848 316.964 46.5847 316.964C46.5846 316.964 46.5846 316.964 46.5845 316.964C46.5844 316.964 46.5843 316.964 46.5842 316.963C46.5841 316.963 46.584 316.963 46.5839 316.963C46.5838 316.963 46.5837 316.963 46.5836 316.963C46.5835 316.963 46.5834 316.963 46.5833 316.962C46.5832 316.962 46.5831 316.962 46.583 316.962C46.5829 316.962 46.5827 316.962 46.5826 316.962C46.5825 316.962 46.5824 316.961 46.5823 316.961C46.5821 316.961 46.582 316.961 46.5819 316.961C46.5817 316.961 46.5816 316.961 46.5815 316.961C46.5813 316.96 46.5812 316.96 46.5811 316.96C46.5809 316.96 46.5808 316.96 46.5806 316.96C46.5805 316.959 46.5803 316.959 46.5802 316.959C46.58 316.959 46.5798 316.959 46.5797 316.959C46.5795 316.958 46.5793 316.958 46.5792 316.958C46.579 316.958 46.5788 316.958 46.5787 316.958C46.5785 316.957 46.5783 316.957 46.5781 316.957C46.5779 316.957 46.5777 316.957 46.5775 316.956C46.5774 316.956 46.5772 316.956 46.577 316.956C46.5768 316.956 46.5766 316.955 46.5764 316.955C46.5761 316.955 46.5759 316.955 46.5757 316.954C46.5755 316.954 46.5753 316.954 46.5751 316.954C46.5748 316.954 46.5746 316.953 46.5744 316.953C46.5742 316.953 46.5739 316.953 46.5737 316.952C46.5735 316.952 46.5732 316.952 46.573 316.952C46.5727 316.951 46.5725 316.951 46.5722 316.951C46.572 316.951 46.5717 316.95 46.5714 316.95C46.5712 316.95 46.5709 316.949 46.5706 316.949C46.5704 316.949 46.5701 316.949 46.5698 316.948C46.5695 316.948 46.5692 316.948 46.5689 316.947C46.5687 316.947 46.5684 316.947 46.5681 316.946C46.5678 316.946 46.5675 316.946 46.5672 316.945C46.5668 316.945 46.5665 316.945 46.5662 316.944C46.5659 316.944 46.5656 316.944 46.5652 316.943C46.5649 316.943 46.5646 316.943 46.5642 316.942C46.5639 316.942 46.5636 316.942 46.5632 316.941C46.5629 316.941 46.5625 316.941 46.5622 316.94C46.5618 316.94 46.5614 316.939 46.5611 316.939C46.5607 316.939 46.5603 316.938 46.56 316.938C46.5596 316.938 46.5592 316.937 46.5588 316.937C46.5584 316.936 46.558 316.936 46.5576 316.935C46.5572 316.935 46.5568 316.935 46.5564 316.934C46.556 316.934 46.5556 316.933 46.5552 316.933C46.5548 316.932 46.5543 316.932 46.5539 316.932C46.5535 316.931 46.553 316.931 46.5526 316.93C46.5522 316.93 46.5517 316.929 46.5513 316.929C46.5508 316.928 46.5503 316.928 46.5499 316.927C46.5494 316.927 46.549 316.926 46.5485 316.926C46.548 316.925 46.5475 316.925 46.547 316.924C46.5465 316.924 46.546 316.923 46.5455 316.923C46.545 316.922 46.5445 316.922 46.544 316.921C46.5435 316.921 46.543 316.92 46.5425 316.919C46.542 316.919 46.5414 316.918 46.5409 316.918C46.5404 316.917 46.5398 316.917 46.5393 316.916C46.5387 316.916 46.5382 316.915 46.5376 316.914C46.537 316.914 46.5365 316.913 46.5359 316.913C46.5353 316.912 46.5347 316.911 46.5342 316.911C46.5336 316.91 46.533 316.909 46.5324 316.909C46.5318 316.908 46.5312 316.908 46.5306 316.907C46.53 316.906 46.5293 316.906 46.5287 316.905C46.5281 316.904 46.5275 316.904 46.5268 316.903C46.5262 316.902 46.5255 316.902 46.5249 316.901C46.5242 316.9 46.5236 316.9 46.5229 316.899C46.5222 316.898 46.5216 316.897 46.5209 316.897C46.5202 316.896 46.5195 316.895 46.5188 316.895C46.5181 316.894 46.5174 316.893 46.5167 316.892C46.516 316.892 46.5153 316.891 46.5146 316.89C46.5139 316.889 46.5131 316.889 46.5124 316.888C46.5117 316.887 46.5109 316.886 46.5102 316.885C46.5094 316.885 46.5086 316.884 46.5079 316.883C46.5071 316.882 46.5063 316.881 46.5056 316.881C46.5048 316.88 46.504 316.879 46.5032 316.878C46.5024 316.877 46.5016 316.876 46.5008 316.876C46.5 316.875 46.4992 316.874 46.4983 316.873C46.4975 316.872 46.4967 316.871 46.4958 316.87C46.495 316.87 46.4941 316.869 46.4933 316.868C46.4924 316.867 46.4916 316.866 46.4907 316.865C46.4898 316.864 46.4889 316.863 46.4881 316.862C46.4872 316.861 46.4863 316.86 46.4854 316.859C46.4845 316.858 46.4836 316.857 46.4826 316.857C46.4817 316.856 46.4808 316.855 46.4799 316.854C46.4789 316.853 46.478 316.852 46.477 316.851C46.4761 316.85 46.4751 316.849 46.4741 316.848C46.4732 316.847 46.4722 316.845 46.4712 316.844C46.4702 316.843 46.4692 316.842 46.4682 316.841C46.4672 316.84 46.4662 316.839 46.4652 316.838C46.4642 316.837 46.4631 316.836 46.4621 316.835C46.4611 316.834 46.46 316.833 46.459 316.832C46.4579 316.83 46.4569 316.829 46.4558 316.828C46.4547 316.827 46.4536 316.826 46.4525 316.825C46.4515 316.824 46.4504 316.823 46.4493 316.821C46.4482 316.82 46.447 316.819 46.4459 316.818C46.4448 316.817 46.4437 316.815 46.4425 316.814C46.4414 316.813 46.4402 316.812 46.4391 316.811C46.4379 316.809 46.4367 316.808 46.4356 316.807C46.4344 316.806 46.4332 316.804 46.432 316.803C46.4308 316.802 46.4296 316.801 46.4284 316.799C46.4272 316.798 46.4259 316.797 46.4247 316.796C46.4235 316.794 46.4222 316.793 46.421 316.792C46.4197 316.79 46.4185 316.789 46.4172 316.788C46.4159 316.786 46.4146 316.785 46.4134 316.784C46.4121 316.782 46.4108 316.781 46.4095 316.779C46.4081 316.778 46.4068 316.777 46.4055 316.775C46.4042 316.774 46.4028 316.772 46.4015 316.771C46.4001 316.77 46.3988 316.768 46.3974 316.767C46.396 316.765 46.3947 316.764 46.3933 316.762C46.3919 316.761 46.3905 316.759 46.3891 316.758C46.3877 316.757 46.3863 316.755 46.3848 316.754C46.3834 316.752 46.382 316.751 46.3805 316.749C46.3791 316.747 46.3776 316.746 46.3761 316.744C46.3747 316.743 46.3732 316.741 46.3717 316.74C46.3702 316.738 46.3687 316.737 46.3672 316.735C46.3657 316.733 46.3642 316.732 46.3627 316.73C46.3611 316.729 46.3596 316.727 46.358 316.725C46.3565 316.724 46.3549 316.722 46.3534 316.72C46.3518 316.719 46.3502 316.717 46.3486 316.715C46.347 316.714 46.3454 316.712 46.3438 316.71C46.3422 316.709 46.3406 316.707 46.3389 316.705C46.3373 316.703 46.3357 316.702 46.334 316.7C46.3323 316.698 46.3307 316.697 46.329 316.695C46.3273 316.693 46.3256 316.691 46.3239 316.689C46.3222 316.688 46.3205 316.686 46.3188 316.684C46.3171 316.682 46.3153 316.68 46.3136 316.679C46.3118 316.677 46.3101 316.675 46.3083 316.673C46.3066 316.671 46.3048 316.669 46.303 316.667C46.3012 316.665 46.2994 316.664 46.2976 316.662C46.2958 316.66 46.2939 316.658 46.2921 316.656C46.2903 316.654 46.2884 316.652 46.2866 316.65C46.2847 316.648 46.2828 316.646 46.281 316.644C46.2791 316.642 46.2772 316.64 46.2753 316.638C46.2734 316.636 46.2715 316.634 46.2695 316.632C46.2676 316.63 46.2657 316.628 46.2637 316.626C46.2618 316.624 46.2598 316.622 46.2578 316.62C46.2559 316.618 46.2539 316.616 46.2519 316.614C46.2499 316.611 46.2479 316.609 46.2459 316.607C46.2438 316.605 46.2418 316.603 46.2398 316.601C46.2377 316.599 46.2357 316.596 46.2336 316.594C46.2315 316.592 46.2294 316.59 46.2273 316.588C46.2252 316.586 46.2231 316.583 46.221 316.581C46.2189 316.579 46.2168 316.577 46.2146 316.574C46.2125 316.572 46.2103 316.57 46.2082 316.568C46.206 316.565 46.2038 316.563 46.2016 316.561C46.1994 316.558 46.1972 316.556 46.195 316.554C46.1928 316.551 46.1906 316.549 46.1883 316.547C46.1861 316.544 46.1838 316.542 46.1815 316.54C46.1793 316.537 46.177 316.535 46.1747 316.532C46.1724 316.53 46.1701 316.528 46.1678 316.525C46.1655 316.523 46.1631 316.52 46.1608 316.518C46.1585 316.515 46.1561 316.513 46.1537 316.51C46.1514 316.508 46.149 316.505 46.1466 316.503C46.1442 316.5 46.1418 316.498 46.1393 316.495C46.1369 316.493 46.1345 316.49 46.132 316.487C46.1296 316.485 46.1271 316.482 46.1247 316.48C46.1222 316.477 46.1197 316.474 46.1172 316.472C46.1147 316.469 46.1122 316.467 46.1096 316.464C46.1071 316.461 46.1046 316.459 46.102 316.456C46.0995 316.453 46.0969 316.45 46.0943 316.448C46.0917 316.445 46.0891 316.442 46.0865 316.44C46.0839 316.437 46.0813 316.434 46.0787 316.431C46.076 316.428 46.0734 316.426 46.0707 316.423C46.068 316.42 46.0654 316.417 46.0627 316.414C46.06 316.412 46.0573 316.409 46.0546 316.406C46.0518 316.403 46.0491 316.4 46.0464 316.397C46.0436 316.394 46.0408 316.391 46.0381 316.389C46.0353 316.386 46.0325 316.383 46.0297 316.38C46.0269 316.377 46.0241 316.374 46.0213 316.371C46.0184 316.368 46.0156 316.365 46.0127 316.362C46.0099 316.359 46.007 316.356 46.0041 316.353C46.0012 316.35 45.9983 316.347 45.9954 316.344C45.9925 316.341 45.9895 316.337 45.9866 316.334C45.9837 316.331 45.9807 316.328 45.9777 316.325C45.9747 316.322 45.9718 316.319 45.9688 316.316C45.9657 316.312 45.9627 316.309 45.9597 316.306C45.9567 316.303 45.9536 316.3 45.9506 316.296C45.9475 316.293 45.9444 316.29 45.9413 316.287C45.9382 316.283 45.9351 316.28 45.932 316.277C45.9289 316.274 45.9257 316.27 45.9226 316.267C45.9194 316.264 45.9163 316.26 45.9131 316.257C45.9099 316.254 45.9067 316.25 45.9035 316.247C45.9003 316.243 45.8971 316.24 45.8938 316.237C45.8906 316.233 45.8873 316.23 45.8841 316.226C45.8808 316.223 45.8775 316.22 45.8742 316.216C45.8709 316.213 45.8676 316.209 45.8642 316.206C45.8609 316.202 45.8576 316.199 45.8542 316.195C45.8508 316.191 45.8475 316.188 45.8441 316.184C45.8407 316.181 45.8373 316.177 45.8338 316.174C45.8304 316.17 45.827 316.166 45.8235 316.163C45.82 316.159 45.8166 316.155 45.8131 316.152C45.8096 316.148 45.8061 316.144 45.8026 316.141C45.7991 316.137 45.7955 316.133 45.792 316.129C45.7884 316.126 45.7848 316.122 45.7813 316.118C45.7777 316.114 45.7741 316.111 45.7705 316.107C45.7669 316.103 45.7632 316.099 45.7596 316.095C45.7559 316.092 45.7523 316.088 45.7486 316.084C45.7449 316.08 45.7412 316.076 45.7375 316.072C45.7338 316.068 45.7301 316.064 45.7263 316.06C45.7226 316.056 45.7188 316.052 45.715 316.048C45.7113 316.045 45.7075 316.041 45.7037 316.036C45.6998 316.033 45.696 316.028 45.6922 316.024C45.6883 316.02 45.6845 316.016 45.6806 316.012C45.6767 316.008 45.6728 316.004 45.6689 316C45.665 315.996 45.6611 315.992 45.6571 315.988C45.6532 315.983 45.6492 315.979 45.6453 315.975C45.6413 315.971 45.6373 315.967 45.6333 315.962C45.6293 315.958 45.6253 315.954 45.6212 315.95C45.6172 315.945 45.6131 315.941 45.609 315.937C45.605 315.933 45.6009 315.928 45.5967 315.924C45.5926 315.92 45.5885 315.915 45.5844 315.911C45.5802 315.907 45.5761 315.902 45.5719 315.898C45.5677 315.893 45.5635 315.889 45.5593 315.885C45.5551 315.88 45.5508 315.876 45.5466 315.871C45.5423 315.867 45.5381 315.862 45.5338 315.858C45.5295 315.853 45.5252 315.849 45.5209 315.844C45.5166 315.84 45.5122 315.835 45.5079 315.83C45.5035 315.826 45.4992 315.821 45.4948 315.817C45.4904 315.812 45.486 315.807 45.4816 315.803C45.4771 315.798 45.4727 315.793 45.4682 315.789C45.4638 315.784 45.4593 315.779 45.4548 315.775C45.4503 315.77 45.4458 315.765 45.4413 315.76C45.4367 315.756 45.4322 315.751 45.4276 315.746C45.423 315.741 45.4185 315.736 45.4139 315.731C45.4093 315.727 45.4046 315.722 45.4 315.717C45.3954 315.712 45.3907 315.707 45.386 315.702C45.3814 315.697 45.3767 315.692 45.3719 315.687C45.3672 315.682 45.3625 315.677 45.3578 315.672C45.353 315.667 45.3482 315.662 45.3435 315.657C45.3387 315.652 45.3339 315.647 45.3291 315.642C45.3242 315.637 45.3194 315.632 45.3145 315.627C45.3097 315.622 45.3048 315.617 45.2999 315.612C45.295 315.606 45.2901 315.601 45.2852 315.596C45.2802 315.591 45.2753 315.586 45.2703 315.58C45.2653 315.575 45.2603 315.57 45.2553 315.565C45.2503 315.559 45.2453 315.554 45.2402 315.549C45.2352 315.543 45.2301 315.538 45.2251 315.533C45.22 315.527 45.2149 315.522 45.2097 315.517C45.2046 315.511 45.1995 315.506 45.1943 315.5C45.1892 315.495 45.184 315.49 45.1788 315.484C45.1736 315.479 45.1684 315.473 45.1631 315.468C45.1579 315.462 45.1526 315.457 45.1474 315.451C45.1421 315.445 45.1368 315.44 45.1315 315.434C45.1262 315.429 45.1208 315.423 45.1155 315.417C45.1101 315.412 45.1048 315.406 45.0994 315.4C45.094 315.395 45.0886 315.389 45.0831 315.383C45.0777 315.378 45.0723 315.372 45.0668 315.366C45.0613 315.36 45.0558 315.355 45.0503 315.349C45.0448 315.343 45.0393 315.337 45.0337 315.331C45.0282 315.325 45.0226 315.32 45.017 315.314C45.0114 315.308 45.0058 315.302 45.0002 315.296C44.9946 315.29 44.9889 315.284 44.9832 315.278C44.9776 315.272 44.9719 315.266 44.9662 315.26C44.9605 315.254 44.9547 315.248 44.949 315.242C44.9432 315.236 44.9375 315.23 44.9317 315.224C44.9259 315.218 44.9201 315.212 44.9143 315.206C44.9084 315.199 44.9026 315.193 44.8967 315.187C44.8908 315.181 44.8849 315.175 44.879 315.168C44.8731 315.162 44.8672 315.156 44.8612 315.15C44.8553 315.143 44.8493 315.137 44.8433 315.131C44.8373 315.125 44.8313 315.118 44.8253 315.112C44.8192 315.106 44.8132 315.099 44.8071 315.093C44.801 315.086 44.7949 315.08 44.7888 315.074C44.7827 315.067 44.7766 315.061 44.7704 315.054C44.7642 315.048 44.7581 315.041 44.7519 315.035C44.7457 315.028 44.7394 315.022 44.7332 315.015C44.7269 315.008 44.7207 315.002 44.7144 314.995C44.7081 314.989 44.7018 314.982 44.6955 314.975C44.6891 314.969 44.6828 314.962 44.6764 314.955C44.6701 314.949 44.6637 314.942 44.6572 314.935C44.6508 314.928 44.6444 314.922 44.6379 314.915C44.6315 314.908 44.625 314.901 44.6185 314.894C44.612 314.887 44.6055 314.881 44.599 314.874C44.5924 314.867 44.5859 314.86 44.5793 314.853C44.5727 314.846 44.5661 314.839 44.5595 314.832C44.5528 314.825 44.5462 314.818 44.5395 314.811C44.5328 314.804 44.5261 314.797 44.5194 314.79C44.5127 314.783 44.506 314.776 44.4992 314.769C44.4925 314.762 44.4857 314.754 44.4789 314.747C44.4721 314.74 44.4653 314.733 44.4584 314.726C44.4516 314.719 44.4447 314.711 44.4378 314.704C44.4309 314.697 44.424 314.69 44.4171 314.682C44.4101 314.675 44.4032 314.668 44.3962 314.66C44.3892 314.653 44.3822 314.646 44.3752 314.638C44.3682 314.631 44.3611 314.623 44.3541 314.616C44.347 314.608 44.3399 314.601 44.3328 314.594C44.3257 314.586 44.3185 314.578 44.3114 314.571C44.3042 314.563 44.297 314.556 44.2898 314.548C44.2826 314.541 44.2754 314.533 44.2682 314.525C44.2609 314.518 44.2536 314.51 44.2464 314.503C44.2391 314.495 44.2317 314.487 44.2244 314.479C44.2171 314.472 44.2097 314.464 44.2023 314.456C44.1949 314.448 44.1875 314.441 44.1801 314.433C44.1727 314.425 44.1652 314.417 44.1577 314.409C44.1503 314.401 44.1428 314.393 44.1352 314.386C44.1277 314.378 44.1202 314.37 44.1126 314.362C44.105 314.354 44.0974 314.346 44.0898 314.338C44.0822 314.33 44.0746 314.322 44.0669 314.314C44.0593 314.306 44.0516 314.297 44.0439 314.289C44.0362 314.281 44.0284 314.273 44.0207 314.265C44.0129 314.257 44.0051 314.249 43.9973 314.24C43.9895 314.232 43.9817 314.224 43.9739 314.216C43.966 314.207 43.9581 314.199 43.9502 314.191C43.9423 314.182 43.9344 314.174 43.9265 314.166C43.9185 314.157 43.9106 314.149 43.9026 314.141C43.8946 314.132 43.8866 314.124 43.8785 314.115C43.8705 314.107 43.8624 314.098 43.8543 314.09C43.8463 314.081 43.8382 314.073 43.83 314.064C43.8219 314.056 43.8137 314.047 43.8055 314.039C43.7974 314.03 43.7892 314.021 43.7809 314.013C43.7727 314.004 43.7644 313.995 43.7562 313.987C43.7479 313.978 43.7396 313.969 43.7313 313.96C43.7229 313.952 43.7146 313.943 43.7062 313.934C43.6978 313.925 43.6894 313.916 43.681 313.907C43.6726 313.899 43.6641 313.89 43.6556 313.881C43.6472 313.872 43.6387 313.863 43.6302 313.854C43.6216 313.845 43.6131 313.836 43.6045 313.827C43.5959 313.818 43.5873 313.809 43.5787 313.8C43.5701 313.791 43.5615 313.782 43.5528 313.772C43.5441 313.763 43.5354 313.754 43.5267 313.745C43.518 313.736 43.5092 313.727 43.5005 313.717C43.4917 313.708 43.4829 313.699 43.4741 313.69C43.4653 313.68 43.4564 313.671 43.4475 313.662C43.4387 313.652 43.4298 313.643 43.4209 313.634C43.4119 313.624 43.403 313.615 43.394 313.605C43.3851 313.596 43.3761 313.586 43.367 313.577C43.358 313.567 43.349 313.558 43.3399 313.548C43.3308 313.539 43.3217 313.529 43.3126 313.52C43.3035 313.51 43.2943 313.5 43.2852 313.491C43.276 313.481 43.2668 313.471 43.2576 313.462C43.2483 313.452 43.2391 313.442 43.2298 313.432C43.2205 313.423 43.2112 313.413 43.2019 313.403C43.1926 313.393 43.1832 313.383 43.1739 313.374C43.1645 313.364 43.1551 313.354 43.1456 313.344C43.1362 313.334 43.1268 313.324 43.1173 313.314C43.1078 313.304 43.0983 313.294 43.0888 313.284C43.0792 313.274 43.0697 313.264 43.0601 313.254C43.0505 313.244 43.0409 313.234 43.0312 313.223C43.0216 313.213 43.0119 313.203 43.0023 313.193C42.9926 313.183 42.9828 313.173 42.9731 313.162C42.9634 313.152 42.9536 313.142 42.9438 313.131C42.934 313.121 42.9242 313.111 42.9143 313.1C42.9045 313.09 42.8946 313.08 42.8847 313.069C42.8748 313.059 42.8649 313.048 42.8549 313.038C42.845 313.027 42.835 313.017 42.825 313.006C42.815 312.996 42.805 312.985 42.7949 312.975C42.7848 312.964 42.7747 312.953 42.7646 312.943C42.7545 312.932 42.7444 312.921 42.7342 312.911C42.724 312.9 42.7139 312.889 42.7036 312.879C42.6934 312.868 42.6832 312.857 42.6729 312.846C42.6626 312.835 42.6523 312.825 42.642 312.814C42.6317 312.803 42.6213 312.792 42.6109 312.781C42.6005 312.77 42.5901 312.759 42.5797 312.748C42.5692 312.737 42.5588 312.726 42.5483 312.715C42.5378 312.704 42.5273 312.693 42.5167 312.682C42.5062 312.671 42.4956 312.66 42.485 312.648C42.4744 312.637 42.4638 312.626 42.4531 312.615C42.4425 312.604 42.4318 312.592 42.4211 312.581C42.4104 312.57 42.3996 312.559 42.3889 312.547C42.3781 312.536 42.3673 312.525 42.3565 312.513C42.3457 312.502 42.3348 312.49 42.3239 312.479C42.3131 312.467 42.3022 312.456 42.2912 312.444C42.2803 312.433 42.2693 312.421 42.2584 312.41C42.2474 312.398 42.2363 312.387 42.2253 312.375C42.2143 312.363 42.2032 312.352 42.1921 312.34C42.181 312.328 42.1699 312.317 42.1587 312.305C42.1476 312.293 42.1364 312.281 42.1252 312.27C42.1139 312.258 42.1027 312.246 42.0914 312.234C42.0802 312.222 42.0689 312.21 42.0575 312.199C42.0462 312.187 42.0349 312.175 42.0235 312.163C42.0121 312.151 42.0007 312.139 41.9893 312.127C41.9778 312.115 41.9664 312.103 41.9549 312.09C41.9434 312.078 41.9318 312.066 41.9203 312.054C41.9087 312.042 41.8972 312.03 41.8855 312.017C41.8739 312.005 41.8623 311.993 41.8506 311.981C41.839 311.968 41.8273 311.956 41.8155 311.944C41.8038 311.931 41.7921 311.919 41.7803 311.907C41.7685 311.894 41.7567 311.882 41.7448 311.869C41.733 311.857 41.7211 311.844 41.7092 311.832C41.6973 311.819 41.6854 311.807 41.6735 311.794C41.6615 311.782 41.6495 311.769 41.6375 311.756C41.6255 311.744 41.6134 311.731 41.6014 311.718C41.5893 311.706 41.5772 311.693 41.5651 311.68C41.5529 311.667 41.5408 311.655 41.5286 311.642C41.5164 311.629 41.5042 311.616 41.4919 311.603C41.4797 311.59 41.4674 311.577 41.4551 311.564C41.4428 311.551 41.4304 311.538 41.4181 311.525C41.4057 311.512 41.3933 311.499 41.3809 311.486C41.3685 311.473 41.356 311.46 41.3435 311.447C41.331 311.434 41.3185 311.421 41.306 311.407C41.2934 311.394 41.2808 311.381 41.2682 311.368C41.2556 311.354 41.243 311.341 41.2303 311.328C41.2177 311.314 41.205 311.301 41.1923 311.288C41.1795 311.274 41.1668 311.261 41.154 311.247C41.1412 311.234 41.1284 311.22 41.1155 311.207C41.1027 311.193 41.0898 311.18 41.0769 311.166C41.064 311.153 41.0511 311.139 41.0381 311.125C41.0251 311.112 41.0121 311.098 40.9991 311.084C40.9861 311.071 40.973 311.057 40.96 311.043C40.9469 311.029 40.9337 311.016 40.9206 311.002C40.9075 310.988 40.8943 310.974 40.8811 310.96C40.8679 310.946 40.8546 310.932 40.8413 310.918C40.8281 310.904 40.8148 310.89 40.8014 310.876C40.7881 310.862 40.7747 310.848 40.7614 310.834C40.748 310.82 40.7345 310.806 40.7211 310.792C40.7076 310.778 40.6941 310.763 40.6806 310.749C40.6671 310.735 40.6536 310.721 40.64 310.706C40.6264 310.692 40.6128 310.678 40.5991 310.663C40.5855 310.649 40.5718 310.635 40.5581 310.62C40.5444 310.606 40.5307 310.591 40.5169 310.577C40.5032 310.562 40.4894 310.548 40.4755 310.533C40.4617 310.519 40.4479 310.504 40.434 310.489C40.4201 310.475 40.4061 310.46 40.3922 310.445C40.3782 310.431 40.3643 310.416 40.3502 310.401C40.3362 310.387 40.3222 310.372 40.3081 310.357C40.294 310.342 40.2799 310.327 40.2658 310.312C40.2516 310.298 40.2374 310.283 40.2232 310.268C40.209 310.253 40.1948 310.238 40.1805 310.223C40.1663 310.208 40.152 310.193 40.1376 310.178C40.1233 310.162 40.1089 310.147 40.0945 310.132C40.0801 310.117 40.0657 310.102 40.0512 310.087C40.0368 310.071 40.0223 310.056 40.0078 310.041C39.9932 310.026 39.9787 310.01 39.9641 309.995C39.9495 309.98 39.9349 309.964 39.9202 309.949C39.9056 309.933 39.8909 309.918 39.8762 309.902C39.8615 309.887 39.8467 309.871 39.8319 309.856C39.8171 309.84 39.8023 309.825 39.7875 309.809C39.7726 309.793 39.7578 309.778 39.7428 309.762C39.7279 309.746 39.713 309.731 39.698 309.715C39.683 309.699 39.668 309.683 39.653 309.667C39.6379 309.652 39.6229 309.636 39.6078 309.62C39.5926 309.604 39.5775 309.588 39.5623 309.572C39.5472 309.556 39.532 309.54 39.5167 309.524C39.5015 309.508 39.4862 309.492 39.4709 309.476C39.4556 309.46 39.4403 309.443 39.4249 309.427C39.4095 309.411 39.3941 309.395 39.3787 309.379C39.3632 309.362 39.3478 309.346 39.3323 309.33C39.3168 309.313 39.3012 309.297 39.2857 309.281C39.2701 309.264 39.2545 309.248 39.2389 309.231C39.2232 309.215 39.2076 309.199 39.1918 309.182C39.1761 309.165 39.1604 309.149 39.1446 309.132C39.1289 309.116 39.1131 309.099 39.0972 309.082C39.0814 309.066 39.0655 309.049 39.0496 309.032C39.0337 309.016 39.0178 308.999 39.0018 308.982C38.9858 308.965 38.9698 308.948 38.9538 308.931C38.9378 308.915 38.9217 308.898 38.9056 308.881C38.8895 308.864 38.8734 308.847 38.8572 308.83C38.841 308.813 38.8248 308.796 38.8086 308.779C38.7923 308.761 38.776 308.744 38.7597 308.727C38.7434 308.71 38.7271 308.693 38.7107 308.676C38.6943 308.658 38.6779 308.641 38.6615 308.624C38.645 308.606 38.6286 308.589 38.612 308.572C38.5955 308.554 38.579 308.537 38.5624 308.519C38.5458 308.502 38.5292 308.484 38.5126 308.467C38.4959 308.449 38.4792 308.432 38.4625 308.414C38.4458 308.397 38.429 308.379 38.4123 308.361C38.3955 308.344 38.3787 308.326 38.3618 308.308C38.3449 308.29 38.328 308.273 38.3111 308.255C38.2942 308.237 38.2772 308.219 38.2602 308.201C38.2432 308.183 38.2262 308.166 38.2092 308.148C38.1921 308.13 38.175 308.112 38.1579 308.094C38.1407 308.076 38.1236 308.057 38.1064 308.039C38.0891 308.021 38.0719 308.003 38.0546 307.985C38.0374 307.967 38.0201 307.949 38.0027 307.93C37.9854 307.912 37.968 307.894 37.9506 307.875C37.9332 307.857 37.9157 307.839 37.8982 307.82C37.8808 307.802 37.8632 307.783 37.8457 307.765C37.8281 307.746 37.8105 307.728 37.7929 307.709C37.7753 307.691 37.7576 307.672 37.7399 307.654C37.7222 307.635 37.7045 307.616 37.6867 307.598C37.669 307.579 37.6512 307.56 37.6333 307.541C37.6155 307.523 37.5976 307.504 37.5797 307.485C37.5618 307.466 37.5439 307.447 37.5259 307.428C37.5079 307.409 37.4899 307.39 37.4718 307.371C37.4538 307.352 37.4357 307.333 37.4176 307.314C37.3995 307.295 37.3813 307.276 37.3631 307.257C37.3449 307.238 37.3267 307.219 37.3084 307.199C37.2902 307.18 37.2719 307.161 37.2535 307.142C37.2352 307.122 37.2168 307.103 37.1984 307.084C37.18 307.064 37.1615 307.045 37.1431 307.025C37.1246 307.006 37.1061 306.986 37.0875 306.967L34.9125 309.033C34.9311 309.053 34.9496 309.072 34.9681 309.092C34.9865 309.111 35.005 309.13 35.0234 309.15C35.0418 309.169 35.0602 309.189 35.0785 309.208C35.0969 309.227 35.1152 309.246 35.1334 309.266C35.1517 309.285 35.1699 309.304 35.1881 309.323C35.2063 309.342 35.2245 309.362 35.2426 309.381C35.2607 309.4 35.2788 309.419 35.2968 309.438C35.3149 309.457 35.3329 309.476 35.3509 309.495C35.3689 309.514 35.3868 309.532 35.4047 309.551C35.4226 309.57 35.4405 309.589 35.4583 309.608C35.4762 309.626 35.494 309.645 35.5117 309.664C35.5295 309.683 35.5472 309.701 35.5649 309.72C35.5826 309.739 35.6003 309.757 35.6179 309.776C35.6355 309.794 35.6531 309.813 35.6707 309.831C35.6882 309.85 35.7058 309.868 35.7232 309.887C35.7407 309.905 35.7582 309.923 35.7756 309.942C35.793 309.96 35.8104 309.978 35.8277 309.997C35.8451 310.015 35.8624 310.033 35.8796 310.051C35.8969 310.069 35.9142 310.087 35.9314 310.106C35.9486 310.124 35.9657 310.142 35.9829 310.16C36 310.178 36.0171 310.196 36.0342 310.214C36.0512 310.232 36.0682 310.25 36.0852 310.268C36.1022 310.285 36.1192 310.303 36.1361 310.321C36.153 310.339 36.1699 310.357 36.1868 310.374C36.2037 310.392 36.2205 310.41 36.2373 310.428C36.254 310.445 36.2708 310.463 36.2875 310.48C36.3042 310.498 36.3209 310.516 36.3376 310.533C36.3542 310.551 36.3708 310.568 36.3874 310.586C36.404 310.603 36.4205 310.621 36.4371 310.638C36.4536 310.655 36.47 310.673 36.4865 310.69C36.5029 310.707 36.5193 310.725 36.5357 310.742C36.5521 310.759 36.5684 310.776 36.5847 310.793C36.6011 310.811 36.6173 310.828 36.6336 310.845C36.6498 310.862 36.666 310.879 36.6822 310.896C36.6984 310.913 36.7145 310.93 36.7306 310.947C36.7467 310.964 36.7628 310.981 36.7788 310.998C36.7948 311.015 36.8109 311.031 36.8268 311.048C36.8428 311.065 36.8587 311.082 36.8746 311.099C36.8905 311.115 36.9064 311.132 36.9222 311.149C36.9381 311.165 36.9539 311.182 36.9696 311.199C36.9854 311.215 37.0011 311.232 37.0168 311.248C37.0326 311.265 37.0482 311.281 37.0639 311.298C37.0795 311.314 37.0951 311.331 37.1107 311.347C37.1262 311.363 37.1418 311.38 37.1573 311.396C37.1728 311.412 37.1882 311.429 37.2037 311.445C37.2191 311.461 37.2345 311.477 37.2499 311.494C37.2653 311.51 37.2806 311.526 37.2959 311.542C37.3112 311.558 37.3265 311.574 37.3417 311.59C37.357 311.606 37.3722 311.622 37.3873 311.638C37.4025 311.654 37.4176 311.67 37.4328 311.686C37.4479 311.702 37.4629 311.718 37.478 311.734C37.493 311.749 37.508 311.765 37.523 311.781C37.538 311.797 37.5529 311.813 37.5678 311.828C37.5828 311.844 37.5976 311.86 37.6125 311.875C37.6273 311.891 37.6421 311.906 37.6569 311.922C37.6717 311.938 37.6865 311.953 37.7012 311.969C37.7159 311.984 37.7306 312 37.7452 312.015C37.7599 312.03 37.7745 312.046 37.7891 312.061C37.8037 312.076 37.8182 312.092 37.8328 312.107C37.8473 312.122 37.8618 312.138 37.8762 312.153C37.8907 312.168 37.9051 312.183 37.9195 312.198C37.9339 312.214 37.9483 312.229 37.9626 312.244C37.977 312.259 37.9913 312.274 38.0055 312.289C38.0198 312.304 38.034 312.319 38.0482 312.334C38.0625 312.349 38.0766 312.364 38.0908 312.379C38.1049 312.394 38.119 312.408 38.1331 312.423C38.1472 312.438 38.1612 312.453 38.1752 312.468C38.1893 312.482 38.2032 312.497 38.2172 312.512C38.2312 312.526 38.2451 312.541 38.259 312.556C38.2729 312.57 38.2867 312.585 38.3005 312.599C38.3144 312.614 38.3282 312.629 38.3419 312.643C38.3557 312.658 38.3694 312.672 38.3831 312.686C38.3968 312.701 38.4105 312.715 38.4241 312.73C38.4378 312.744 38.4514 312.758 38.465 312.773C38.4786 312.787 38.4921 312.801 38.5056 312.815C38.5191 312.83 38.5326 312.844 38.5461 312.858C38.5595 312.872 38.573 312.886 38.5864 312.9C38.5997 312.914 38.6131 312.928 38.6264 312.943C38.6398 312.957 38.6531 312.971 38.6663 312.985C38.6796 312.999 38.6929 313.012 38.7061 313.026C38.7193 313.04 38.7325 313.054 38.7456 313.068C38.7588 313.082 38.7719 313.096 38.785 313.109C38.798 313.123 38.8111 313.137 38.8241 313.151C38.8372 313.164 38.8501 313.178 38.8631 313.192C38.8761 313.205 38.889 313.219 38.9019 313.233C38.9148 313.246 38.9277 313.26 38.9405 313.273C38.9534 313.287 38.9662 313.3 38.979 313.314C38.9918 313.327 39.0045 313.341 39.0173 313.354C39.03 313.367 39.0427 313.381 39.0553 313.394C39.068 313.407 39.0806 313.421 39.0932 313.434C39.1058 313.447 39.1184 313.46 39.131 313.474C39.1435 313.487 39.156 313.5 39.1685 313.513C39.181 313.526 39.1935 313.539 39.2059 313.552C39.2183 313.566 39.2307 313.579 39.2431 313.592C39.2554 313.605 39.2678 313.618 39.2801 313.631C39.2924 313.644 39.3047 313.656 39.3169 313.669C39.3292 313.682 39.3414 313.695 39.3536 313.708C39.3658 313.721 39.3779 313.734 39.3901 313.746C39.4022 313.759 39.4143 313.772 39.4264 313.785C39.4384 313.797 39.4505 313.81 39.4625 313.823C39.4745 313.835 39.4865 313.848 39.4985 313.86C39.5104 313.873 39.5223 313.886 39.5342 313.898C39.5461 313.911 39.558 313.923 39.5698 313.936C39.5817 313.948 39.5935 313.96 39.6053 313.973C39.6171 313.985 39.6288 313.998 39.6405 314.01C39.6523 314.022 39.664 314.035 39.6756 314.047C39.6873 314.059 39.6989 314.071 39.7105 314.084C39.7222 314.096 39.7337 314.108 39.7453 314.12C39.7568 314.132 39.7684 314.145 39.7799 314.157C39.7914 314.169 39.8028 314.181 39.8143 314.193C39.8257 314.205 39.8371 314.217 39.8485 314.229C39.8599 314.241 39.8712 314.253 39.8825 314.265C39.8939 314.277 39.9052 314.289 39.9164 314.3C39.9277 314.312 39.9389 314.324 39.9502 314.336C39.9614 314.348 39.9726 314.359 39.9837 314.371C39.9949 314.383 40.006 314.395 40.0171 314.406C40.0282 314.418 40.0393 314.43 40.0503 314.441C40.0614 314.453 40.0724 314.465 40.0834 314.476C40.0943 314.488 40.1053 314.499 40.1162 314.511C40.1272 314.522 40.1381 314.534 40.1489 314.545C40.1598 314.557 40.1707 314.568 40.1815 314.579C40.1923 314.591 40.2031 314.602 40.2139 314.614C40.2246 314.625 40.2354 314.636 40.2461 314.647C40.2568 314.659 40.2675 314.67 40.2781 314.681C40.2888 314.692 40.2994 314.704 40.31 314.715C40.3206 314.726 40.3312 314.737 40.3417 314.748C40.3523 314.759 40.3628 314.77 40.3733 314.781C40.3838 314.792 40.3943 314.803 40.4047 314.814C40.4151 314.825 40.4255 314.836 40.4359 314.847C40.4463 314.858 40.4567 314.869 40.467 314.88C40.4773 314.891 40.4876 314.902 40.4979 314.912C40.5082 314.923 40.5184 314.934 40.5286 314.945C40.5389 314.956 40.549 314.966 40.5592 314.977C40.5694 314.988 40.5795 314.998 40.5896 315.009C40.5997 315.02 40.6098 315.03 40.6199 315.041C40.63 315.051 40.64 315.062 40.65 315.073C40.66 315.083 40.67 315.094 40.6799 315.104C40.6899 315.115 40.6998 315.125 40.7097 315.135C40.7196 315.146 40.7295 315.156 40.7393 315.167C40.7492 315.177 40.759 315.187 40.7688 315.198C40.7786 315.208 40.7884 315.218 40.7981 315.228C40.8078 315.239 40.8176 315.249 40.8273 315.259C40.8369 315.269 40.8466 315.28 40.8562 315.29C40.8659 315.3 40.8755 315.31 40.8851 315.32C40.8947 315.33 40.9042 315.34 40.9138 315.35C40.9233 315.36 40.9328 315.37 40.9423 315.38C40.9518 315.39 40.9612 315.4 40.9706 315.41C40.9801 315.42 40.9895 315.43 40.9989 315.44C41.0082 315.45 41.0176 315.46 41.0269 315.469C41.0362 315.479 41.0455 315.489 41.0548 315.499C41.0641 315.508 41.0733 315.518 41.0826 315.528C41.0918 315.538 41.101 315.547 41.1102 315.557C41.1193 315.567 41.1285 315.576 41.1376 315.586C41.1467 315.595 41.1558 315.605 41.1649 315.615C41.174 315.624 41.183 315.634 41.192 315.643C41.2011 315.653 41.2101 315.662 41.219 315.672C41.228 315.681 41.2369 315.69 41.2459 315.7C41.2548 315.709 41.2637 315.719 41.2725 315.728C41.2814 315.737 41.2903 315.747 41.2991 315.756C41.3079 315.765 41.3167 315.774 41.3255 315.784C41.3342 315.793 41.343 315.802 41.3517 315.811C41.3604 315.82 41.3691 315.83 41.3778 315.839C41.3865 315.848 41.3951 315.857 41.4037 315.866C41.4123 315.875 41.4209 315.884 41.4295 315.893C41.4381 315.902 41.4466 315.911 41.4552 315.92C41.4637 315.929 41.4722 315.938 41.4806 315.947C41.4891 315.956 41.4976 315.965 41.506 315.974C41.5144 315.983 41.5228 315.991 41.5312 316C41.5396 316.009 41.5479 316.018 41.5563 316.027C41.5646 316.035 41.5729 316.044 41.5812 316.053C41.5894 316.061 41.5977 316.07 41.6059 316.079C41.6142 316.087 41.6224 316.096 41.6305 316.105C41.6387 316.113 41.6469 316.122 41.655 316.131C41.6632 316.139 41.6713 316.148 41.6793 316.156C41.6874 316.165 41.6955 316.173 41.7035 316.182C41.7116 316.19 41.7196 316.198 41.7276 316.207C41.7356 316.215 41.7435 316.224 41.7515 316.232C41.7594 316.24 41.7673 316.249 41.7752 316.257C41.7831 316.265 41.791 316.274 41.7989 316.282C41.8067 316.29 41.8145 316.298 41.8223 316.307C41.8301 316.315 41.8379 316.323 41.8457 316.331C41.8534 316.339 41.8612 316.348 41.8689 316.356C41.8766 316.364 41.8843 316.372 41.8919 316.38C41.8996 316.388 41.9072 316.396 41.9148 316.404C41.9224 316.412 41.93 316.42 41.9376 316.428C41.9452 316.436 41.9527 316.444 41.9602 316.452C41.9678 316.46 41.9753 316.468 41.9827 316.475C41.9902 316.483 41.9977 316.491 42.0051 316.499C42.0125 316.507 42.0199 316.515 42.0273 316.522C42.0347 316.53 42.0421 316.538 42.0494 316.546C42.0567 316.553 42.0641 316.561 42.0714 316.569C42.0786 316.576 42.0859 316.584 42.0932 316.592C42.1004 316.599 42.1076 316.607 42.1148 316.615C42.122 316.622 42.1292 316.63 42.1364 316.637C42.1435 316.645 42.1507 316.652 42.1578 316.66C42.1649 316.667 42.172 316.675 42.1791 316.682C42.1861 316.69 42.1932 316.697 42.2002 316.704C42.2072 316.712 42.2142 316.719 42.2212 316.727C42.2282 316.734 42.2351 316.741 42.2421 316.748C42.249 316.756 42.2559 316.763 42.2628 316.77C42.2697 316.778 42.2766 316.785 42.2834 316.792C42.2903 316.799 42.2971 316.806 42.3039 316.814C42.3107 316.821 42.3175 316.828 42.3242 316.835C42.331 316.842 42.3377 316.849 42.3444 316.856C42.3511 316.863 42.3578 316.87 42.3645 316.877C42.3712 316.884 42.3778 316.891 42.3845 316.898C42.3911 316.905 42.3977 316.912 42.4043 316.919C42.4109 316.926 42.4174 316.933 42.424 316.94C42.4305 316.947 42.437 316.954 42.4435 316.961C42.45 316.967 42.4565 316.974 42.463 316.981C42.4694 316.988 42.4758 316.995 42.4823 317.001C42.4887 317.008 42.4951 317.015 42.5014 317.021C42.5078 317.028 42.5141 317.035 42.5205 317.042C42.5268 317.048 42.5331 317.055 42.5394 317.061C42.5457 317.068 42.5519 317.075 42.5582 317.081C42.5644 317.088 42.5707 317.094 42.5769 317.101C42.5831 317.107 42.5892 317.114 42.5954 317.12C42.6016 317.127 42.6077 317.133 42.6138 317.14C42.6199 317.146 42.626 317.153 42.6321 317.159C42.6382 317.165 42.6442 317.172 42.6503 317.178C42.6563 317.185 42.6623 317.191 42.6683 317.197C42.6743 317.203 42.6803 317.21 42.6862 317.216C42.6922 317.222 42.6981 317.229 42.704 317.235C42.7099 317.241 42.7158 317.247 42.7217 317.253C42.7276 317.26 42.7334 317.266 42.7393 317.272C42.7451 317.278 42.7509 317.284 42.7567 317.29C42.7625 317.296 42.7682 317.302 42.774 317.308C42.7797 317.314 42.7855 317.32 42.7912 317.326C42.7969 317.332 42.8026 317.338 42.8082 317.344C42.8139 317.35 42.8196 317.356 42.8252 317.362C42.8308 317.368 42.8364 317.374 42.842 317.38C42.8476 317.386 42.8532 317.392 42.8587 317.398C42.8643 317.403 42.8698 317.409 42.8753 317.415C42.8808 317.421 42.8863 317.427 42.8918 317.432C42.8973 317.438 42.9027 317.444 42.9081 317.45C42.9136 317.455 42.919 317.461 42.9244 317.467C42.9298 317.472 42.9351 317.478 42.9405 317.484C42.9458 317.489 42.9512 317.495 42.9565 317.5C42.9618 317.506 42.9671 317.512 42.9724 317.517C42.9776 317.523 42.9829 317.528 42.9881 317.534C42.9934 317.539 42.9986 317.545 43.0038 317.55C43.009 317.556 43.0142 317.561 43.0193 317.567C43.0245 317.572 43.0296 317.577 43.0348 317.583C43.0399 317.588 43.045 317.594 43.0501 317.599C43.0551 317.604 43.0602 317.61 43.0653 317.615C43.0703 317.62 43.0753 317.626 43.0803 317.631C43.0853 317.636 43.0903 317.641 43.0953 317.647C43.1003 317.652 43.1052 317.657 43.1102 317.662C43.1151 317.667 43.12 317.673 43.1249 317.678C43.1298 317.683 43.1347 317.688 43.1395 317.693C43.1444 317.698 43.1492 317.703 43.1541 317.708C43.1589 317.714 43.1637 317.719 43.1685 317.724C43.1732 317.729 43.178 317.734 43.1828 317.739C43.1875 317.744 43.1922 317.749 43.1969 317.754C43.2017 317.759 43.2064 317.763 43.211 317.768C43.2157 317.773 43.2204 317.778 43.225 317.783C43.2296 317.788 43.2343 317.793 43.2389 317.798C43.2435 317.803 43.2481 317.807 43.2526 317.812C43.2572 317.817 43.2617 317.822 43.2663 317.827C43.2708 317.831 43.2753 317.836 43.2798 317.841C43.2843 317.846 43.2888 317.85 43.2932 317.855C43.2977 317.86 43.3021 317.864 43.3066 317.869C43.311 317.874 43.3154 317.878 43.3198 317.883C43.3242 317.888 43.3285 317.892 43.3329 317.897C43.3372 317.901 43.3416 317.906 43.3459 317.91C43.3502 317.915 43.3545 317.919 43.3588 317.924C43.3631 317.928 43.3673 317.933 43.3716 317.937C43.3758 317.942 43.3801 317.946 43.3843 317.951C43.3885 317.955 43.3927 317.96 43.3969 317.964C43.4011 317.968 43.4052 317.973 43.4094 317.977C43.4135 317.982 43.4176 317.986 43.4217 317.99C43.4259 317.995 43.43 317.999 43.434 318.003C43.4381 318.007 43.4422 318.012 43.4462 318.016C43.4503 318.02 43.4543 318.024 43.4583 318.029C43.4623 318.033 43.4663 318.037 43.4703 318.041C43.4742 318.045 43.4782 318.05 43.4821 318.054C43.4861 318.058 43.49 318.062 43.4939 318.066C43.4978 318.07 43.5017 318.074 43.5056 318.078C43.5095 318.083 43.5133 318.087 43.5172 318.091C43.521 318.095 43.5248 318.099 43.5287 318.103C43.5325 318.107 43.5363 318.111 43.54 318.115C43.5438 318.119 43.5476 318.123 43.5513 318.127C43.5551 318.131 43.5588 318.134 43.5625 318.138C43.5662 318.142 43.5699 318.146 43.5736 318.15C43.5773 318.154 43.5809 318.158 43.5846 318.162C43.5882 318.165 43.5919 318.169 43.5955 318.173C43.5991 318.177 43.6027 318.181 43.6063 318.184C43.6098 318.188 43.6134 318.192 43.617 318.196C43.6205 318.199 43.6241 318.203 43.6276 318.207C43.6311 318.211 43.6346 318.214 43.6381 318.218C43.6416 318.222 43.6451 318.225 43.6485 318.229C43.652 318.233 43.6554 318.236 43.6588 318.24C43.6623 318.243 43.6657 318.247 43.6691 318.251C43.6725 318.254 43.6758 318.258 43.6792 318.261C43.6826 318.265 43.6859 318.268 43.6892 318.272C43.6926 318.275 43.6959 318.279 43.6992 318.282C43.7025 318.286 43.7058 318.289 43.7091 318.293C43.7123 318.296 43.7156 318.3 43.7188 318.303C43.7221 318.306 43.7253 318.31 43.7285 318.313C43.7317 318.316 43.7349 318.32 43.7381 318.323C43.7413 318.327 43.7444 318.33 43.7476 318.333C43.7507 318.337 43.7539 318.34 43.757 318.343C43.7601 318.346 43.7632 318.35 43.7663 318.353C43.7694 318.356 43.7725 318.359 43.7756 318.363C43.7786 318.366 43.7817 318.369 43.7847 318.372C43.7877 318.375 43.7907 318.379 43.7938 318.382C43.7968 318.385 43.7997 318.388 43.8027 318.391C43.8057 318.394 43.8087 318.397 43.8116 318.401C43.8145 318.404 43.8175 318.407 43.8204 318.41C43.8233 318.413 43.8262 318.416 43.8291 318.419C43.832 318.422 43.8349 318.425 43.8377 318.428C43.8406 318.431 43.8434 318.434 43.8463 318.437C43.8491 318.44 43.8519 318.443 43.8547 318.446C43.8575 318.449 43.8603 318.452 43.8631 318.455C43.8658 318.458 43.8686 318.461 43.8714 318.464C43.8741 318.466 43.8768 318.469 43.8796 318.472C43.8823 318.475 43.885 318.478 43.8877 318.481C43.8904 318.484 43.893 318.486 43.8957 318.489C43.8984 318.492 43.901 318.495 43.9037 318.497C43.9063 318.5 43.9089 318.503 43.9115 318.506C43.9141 318.509 43.9167 318.511 43.9193 318.514C43.9219 318.517 43.9245 318.519 43.927 318.522C43.9296 318.525 43.9321 318.527 43.9346 318.53C43.9372 318.533 43.9397 318.535 43.9422 318.538C43.9447 318.541 43.9472 318.543 43.9497 318.546C43.9521 318.549 43.9546 318.551 43.957 318.554C43.9595 318.556 43.9619 318.559 43.9643 318.561C43.9668 318.564 43.9692 318.566 43.9716 318.569C43.974 318.572 43.9764 318.574 43.9787 318.577C43.9811 318.579 43.9835 318.581 43.9858 318.584C43.9881 318.586 43.9905 318.589 43.9928 318.591C43.9951 318.594 43.9974 318.596 43.9997 318.599C44.002 318.601 44.0043 318.603 44.0065 318.606C44.0088 318.608 44.0111 318.611 44.0133 318.613C44.0156 318.615 44.0178 318.618 44.02 318.62C44.0222 318.622 44.0244 318.625 44.0266 318.627C44.0288 318.629 44.031 318.632 44.0332 318.634C44.0353 318.636 44.0375 318.638 44.0396 318.641C44.0418 318.643 44.0439 318.645 44.046 318.647C44.0481 318.65 44.0502 318.652 44.0523 318.654C44.0544 318.656 44.0565 318.658 44.0586 318.661C44.0607 318.663 44.0627 318.665 44.0648 318.667C44.0668 318.669 44.0688 318.671 44.0709 318.673C44.0729 318.676 44.0749 318.678 44.0769 318.68C44.0789 318.682 44.0809 318.684 44.0828 318.686C44.0848 318.688 44.0868 318.69 44.0887 318.692C44.0907 318.694 44.0926 318.696 44.0945 318.698C44.0965 318.7 44.0984 318.702 44.1003 318.704C44.1022 318.706 44.1041 318.708 44.106 318.71C44.1078 318.712 44.1097 318.714 44.1116 318.716C44.1134 318.718 44.1153 318.72 44.1171 318.722C44.1189 318.724 44.1208 318.726 44.1226 318.728C44.1244 318.73 44.1262 318.732 44.128 318.734C44.1298 318.736 44.1316 318.737 44.1333 318.739C44.1351 318.741 44.1368 318.743 44.1386 318.745C44.1403 318.747 44.1421 318.748 44.1438 318.75C44.1455 318.752 44.1472 318.754 44.1489 318.756C44.1506 318.757 44.1523 318.759 44.154 318.761C44.1557 318.763 44.1573 318.765 44.159 318.766C44.1607 318.768 44.1623 318.77 44.1639 318.771C44.1656 318.773 44.1672 318.775 44.1688 318.777C44.1704 318.778 44.172 318.78 44.1736 318.782C44.1752 318.783 44.1768 318.785 44.1784 318.787C44.1799 318.788 44.1815 318.79 44.183 318.792C44.1846 318.793 44.1861 318.795 44.1877 318.796C44.1892 318.798 44.1907 318.8 44.1922 318.801C44.1937 318.803 44.1952 318.804 44.1967 318.806C44.1982 318.808 44.1997 318.809 44.2012 318.811C44.2026 318.812 44.2041 318.814 44.2055 318.815C44.207 318.817 44.2084 318.818 44.2098 318.82C44.2113 318.821 44.2127 318.823 44.2141 318.824C44.2155 318.826 44.2169 318.827 44.2183 318.829C44.2197 318.83 44.221 318.832 44.2224 318.833C44.2238 318.834 44.2251 318.836 44.2265 318.837C44.2278 318.839 44.2292 318.84 44.2305 318.842C44.2318 318.843 44.2331 318.844 44.2345 318.846C44.2358 318.847 44.2371 318.848 44.2384 318.85C44.2396 318.851 44.2409 318.853 44.2422 318.854C44.2435 318.855 44.2447 318.857 44.246 318.858C44.2472 318.859 44.2485 318.86 44.2497 318.862C44.2509 318.863 44.2522 318.864 44.2534 318.866C44.2546 318.867 44.2558 318.868 44.257 318.869C44.2582 318.871 44.2594 318.872 44.2606 318.873C44.2617 318.874 44.2629 318.876 44.2641 318.877C44.2652 318.878 44.2664 318.879 44.2675 318.88C44.2687 318.882 44.2698 318.883 44.2709 318.884C44.272 318.885 44.2732 318.886 44.2743 318.888C44.2754 318.889 44.2765 318.89 44.2775 318.891C44.2786 318.892 44.2797 318.893 44.2808 318.894C44.2819 318.896 44.2829 318.897 44.284 318.898C44.285 318.899 44.2861 318.9 44.2871 318.901C44.2881 318.902 44.2892 318.903 44.2902 318.904C44.2912 318.905 44.2922 318.907 44.2932 318.908C44.2942 318.909 44.2952 318.91 44.2962 318.911C44.2972 318.912 44.2982 318.913 44.2991 318.914C44.3001 318.915 44.3011 318.916 44.302 318.917C44.303 318.918 44.3039 318.919 44.3049 318.92C44.3058 318.921 44.3067 318.922 44.3076 318.923C44.3086 318.924 44.3095 318.925 44.3104 318.926C44.3113 318.927 44.3122 318.928 44.3131 318.928C44.3139 318.929 44.3148 318.93 44.3157 318.931C44.3166 318.932 44.3174 318.933 44.3183 318.934C44.3191 318.935 44.32 318.936 44.3208 318.937C44.3217 318.938 44.3225 318.938 44.3233 318.939C44.3242 318.94 44.325 318.941 44.3258 318.942C44.3266 318.943 44.3274 318.944 44.3282 318.944C44.329 318.945 44.3298 318.946 44.3306 318.947C44.3313 318.948 44.3321 318.949 44.3329 318.949C44.3336 318.95 44.3344 318.951 44.3352 318.952C44.3359 318.953 44.3367 318.953 44.3374 318.954C44.3381 318.955 44.3389 318.956 44.3396 318.956C44.3403 318.957 44.341 318.958 44.3417 318.959C44.3424 318.959 44.3431 318.96 44.3438 318.961C44.3445 318.962 44.3452 318.962 44.3459 318.963C44.3466 318.964 44.3472 318.964 44.3479 318.965C44.3486 318.966 44.3492 318.967 44.3499 318.967C44.3505 318.968 44.3512 318.969 44.3518 318.969C44.3525 318.97 44.3531 318.971 44.3537 318.971C44.3543 318.972 44.355 318.973 44.3556 318.973C44.3562 318.974 44.3568 318.974 44.3574 318.975C44.358 318.976 44.3586 318.976 44.3592 318.977C44.3597 318.978 44.3603 318.978 44.3609 318.979C44.3615 318.979 44.362 318.98 44.3626 318.981C44.3632 318.981 44.3637 318.982 44.3643 318.982C44.3648 318.983 44.3654 318.983 44.3659 318.984C44.3664 318.985 44.367 318.985 44.3675 318.986C44.368 318.986 44.3685 318.987 44.369 318.987C44.3695 318.988 44.37 318.988 44.3705 318.989C44.371 318.99 44.3715 318.99 44.372 318.991C44.3725 318.991 44.373 318.992 44.3735 318.992C44.374 318.993 44.3744 318.993 44.3749 318.994C44.3754 318.994 44.3758 318.995 44.3763 318.995C44.3767 318.995 44.3772 318.996 44.3776 318.996C44.378 318.997 44.3785 318.997 44.3789 318.998C44.3793 318.998 44.3798 318.999 44.3802 318.999C44.3806 319 44.381 319 44.3814 319C44.3818 319.001 44.3822 319.001 44.3826 319.002C44.383 319.002 44.3834 319.003 44.3838 319.003C44.3842 319.003 44.3846 319.004 44.385 319.004C44.3853 319.005 44.3857 319.005 44.3861 319.005C44.3864 319.006 44.3868 319.006 44.3872 319.006C44.3875 319.007 44.3879 319.007 44.3882 319.008C44.3886 319.008 44.3889 319.008 44.3892 319.009C44.3896 319.009 44.3899 319.009 44.3902 319.01C44.3906 319.01 44.3909 319.01 44.3912 319.011C44.3915 319.011 44.3918 319.011 44.3922 319.012C44.3925 319.012 44.3928 319.012 44.3931 319.013C44.3934 319.013 44.3937 319.013 44.3939 319.014C44.3942 319.014 44.3945 319.014 44.3948 319.014C44.3951 319.015 44.3954 319.015 44.3956 319.015C44.3959 319.016 44.3962 319.016 44.3964 319.016C44.3967 319.016 44.397 319.017 44.3972 319.017C44.3975 319.017 44.3977 319.018 44.398 319.018C44.3982 319.018 44.3985 319.018 44.3987 319.019C44.3989 319.019 44.3992 319.019 44.3994 319.019C44.3996 319.02 44.3998 319.02 44.4001 319.02C44.4003 319.02 44.4005 319.021 44.4007 319.021C44.4009 319.021 44.4011 319.021 44.4014 319.021C44.4016 319.022 44.4018 319.022 44.402 319.022C44.4022 319.022 44.4024 319.022 44.4025 319.023C44.4027 319.023 44.4029 319.023 44.4031 319.023C44.4033 319.023 44.4035 319.024 44.4037 319.024C44.4038 319.024 44.404 319.024 44.4042 319.024C44.4043 319.025 44.4045 319.025 44.4047 319.025C44.4048 319.025 44.405 319.025 44.4052 319.025C44.4053 319.026 44.4055 319.026 44.4056 319.026C44.4058 319.026 44.4059 319.026 44.4061 319.026C44.4062 319.026 44.4063 319.027 44.4065 319.027C44.4066 319.027 44.4067 319.027 44.4069 319.027C44.407 319.027 44.4071 319.027 44.4073 319.028C44.4074 319.028 44.4075 319.028 44.4076 319.028C44.4077 319.028 44.4079 319.028 44.408 319.028C44.4081 319.028 44.4082 319.029 44.4083 319.029C44.4084 319.029 44.4085 319.029 44.4086 319.029C44.4087 319.029 44.4088 319.029 44.4089 319.029C44.409 319.029 44.4091 319.03 44.4092 319.03C44.4093 319.03 44.4094 319.03 44.4095 319.03C44.4096 319.03 44.4096 319.03 44.4097 319.03C44.4098 319.03 44.4099 319.03 44.41 319.03C44.41 319.031 44.4101 319.031 44.4102 319.031C44.4103 319.031 44.4103 319.031 44.4104 319.031C44.4105 319.031 44.4105 319.031 44.4106 319.031C44.4107 319.031 44.4107 319.031 44.4108 319.031C44.4108 319.031 44.4109 319.031 44.4109 319.031C44.411 319.032 44.4111 319.032 44.4111 319.032C44.4112 319.032 44.4112 319.032 44.4113 319.032C44.4113 319.032 44.4114 319.032 44.4114 319.032C44.4114 319.032 44.4115 319.032 44.4115 319.032C44.4116 319.032 44.4116 319.032 44.4116 319.032C44.4117 319.032 44.4117 319.032 44.4117 319.032C44.4118 319.032 44.4118 319.032 44.4118 319.032C44.4119 319.032 44.4119 319.033 44.4119 319.033C44.412 319.033 44.412 319.033 44.412 319.033C44.412 319.033 44.4121 319.033 44.4121 319.033C44.4121 319.033 44.4121 319.033 44.4122 319.033C44.4122 319.033 44.4122 319.033 44.4122 319.033C44.4122 319.033 44.4122 319.033 44.4123 319.033C44.4123 319.033 44.4123 319.033 44.4123 319.033C44.4123 319.033 44.4123 319.033 44.4123 319.033C44.4124 319.033 44.4124 319.033 44.4124 319.033C44.4124 319.033 44.4124 319.033 44.4124 319.033C44.4124 319.033 44.4124 319.033 44.4124 319.033C44.4124 319.033 44.4124 319.033 44.4124 319.033C44.4125 319.033 44.4125 319.033 44.4125 319.033C44.4125 319.033 44.4125 319.033 44.4125 319.033C44.4125 319.033 44.4125 319.033 44.4125 319.033H44.4125C44.4125 319.033 44.4125 319.033 44.4125 319.033C44.4125 319.033 44.4125 319.033 44.4125 319.033C44.4125 319.033 44.4125 319.033 44.4125 319.033L45.5 318ZM45.5 318L44.4111 316.968H44.4111C44.4111 316.968 44.4111 316.968 44.4111 316.968C44.4111 316.968 44.4111 316.968 44.4111 316.968C44.4111 316.968 44.4111 316.968 44.411 316.968C44.411 316.968 44.411 316.968 44.411 316.968C44.411 316.968 44.411 316.968 44.411 316.968C44.411 316.968 44.411 316.968 44.411 316.968C44.411 316.968 44.411 316.968 44.411 316.968C44.411 316.968 44.411 316.969 44.411 316.969C44.4109 316.969 44.4109 316.969 44.4109 316.969C44.4109 316.969 44.4109 316.969 44.4109 316.969C44.4109 316.969 44.4109 316.969 44.4108 316.969C44.4108 316.969 44.4108 316.969 44.4108 316.969C44.4108 316.969 44.4108 316.969 44.4107 316.969C44.4107 316.969 44.4107 316.969 44.4107 316.969C44.4107 316.969 44.4106 316.969 44.4106 316.969C44.4106 316.969 44.4106 316.969 44.4105 316.969C44.4105 316.969 44.4105 316.969 44.4104 316.969C44.4104 316.969 44.4104 316.969 44.4104 316.969C44.4103 316.969 44.4103 316.969 44.4103 316.969C44.4102 316.969 44.4102 316.969 44.4101 316.969C44.4101 316.969 44.4101 316.969 44.41 316.969C44.41 316.97 44.4099 316.97 44.4099 316.97C44.4098 316.97 44.4098 316.97 44.4098 316.97C44.4097 316.97 44.4097 316.97 44.4096 316.97C44.4095 316.97 44.4095 316.97 44.4094 316.97C44.4094 316.97 44.4093 316.97 44.4093 316.97C44.4092 316.97 44.4091 316.97 44.4091 316.97C44.409 316.971 44.4089 316.971 44.4089 316.971C44.4088 316.971 44.4087 316.971 44.4087 316.971C44.4086 316.971 44.4085 316.971 44.4084 316.971C44.4084 316.971 44.4083 316.971 44.4082 316.971C44.4081 316.971 44.408 316.972 44.4079 316.972C44.4079 316.972 44.4078 316.972 44.4077 316.972C44.4076 316.972 44.4075 316.972 44.4074 316.972C44.4073 316.972 44.4072 316.972 44.4071 316.973C44.407 316.973 44.4069 316.973 44.4068 316.973C44.4067 316.973 44.4066 316.973 44.4064 316.973C44.4063 316.973 44.4062 316.974 44.4061 316.974C44.406 316.974 44.4059 316.974 44.4057 316.974C44.4056 316.974 44.4055 316.974 44.4054 316.974C44.4052 316.975 44.4051 316.975 44.405 316.975C44.4048 316.975 44.4047 316.975 44.4045 316.975C44.4044 316.975 44.4043 316.976 44.4041 316.976C44.404 316.976 44.4038 316.976 44.4037 316.976C44.4035 316.976 44.4033 316.977 44.4032 316.977C44.403 316.977 44.4029 316.977 44.4027 316.977C44.4025 316.977 44.4024 316.978 44.4022 316.978C44.402 316.978 44.4018 316.978 44.4016 316.978C44.4015 316.979 44.4013 316.979 44.4011 316.979C44.4009 316.979 44.4007 316.979 44.4005 316.98C44.4003 316.98 44.4001 316.98 44.3999 316.98C44.3997 316.98 44.3995 316.981 44.3993 316.981C44.3991 316.981 44.3989 316.981 44.3987 316.981C44.3984 316.982 44.3982 316.982 44.398 316.982C44.3978 316.982 44.3975 316.983 44.3973 316.983C44.3971 316.983 44.3968 316.983 44.3966 316.984C44.3963 316.984 44.3961 316.984 44.3959 316.984C44.3956 316.985 44.3953 316.985 44.3951 316.985C44.3948 316.986 44.3946 316.986 44.3943 316.986C44.394 316.986 44.3938 316.987 44.3935 316.987C44.3932 316.987 44.3929 316.988 44.3927 316.988C44.3924 316.988 44.3921 316.988 44.3918 316.989C44.3915 316.989 44.3912 316.989 44.3909 316.99C44.3906 316.99 44.3903 316.99 44.39 316.991C44.3897 316.991 44.3894 316.991 44.389 316.992C44.3887 316.992 44.3884 316.992 44.3881 316.993C44.3877 316.993 44.3874 316.993 44.3871 316.994C44.3867 316.994 44.3864 316.994 44.386 316.995C44.3857 316.995 44.3853 316.996 44.385 316.996C44.3846 316.996 44.3843 316.997 44.3839 316.997C44.3835 316.997 44.3832 316.998 44.3828 316.998C44.3824 316.999 44.382 316.999 44.3816 316.999C44.3812 317 44.3809 317 44.3805 317.001C44.3801 317.001 44.3797 317.002 44.3792 317.002C44.3788 317.002 44.3784 317.003 44.378 317.003C44.3776 317.004 44.3772 317.004 44.3767 317.005C44.3763 317.005 44.3759 317.006 44.3754 317.006C44.375 317.006 44.3745 317.007 44.3741 317.007C44.3736 317.008 44.3732 317.008 44.3727 317.009C44.3723 317.009 44.3718 317.01 44.3713 317.01C44.3709 317.011 44.3704 317.011 44.3699 317.012C44.3694 317.012 44.3689 317.013 44.3684 317.013C44.3679 317.014 44.3674 317.014 44.3669 317.015C44.3664 317.016 44.3659 317.016 44.3654 317.017C44.3649 317.017 44.3643 317.018 44.3638 317.018C44.3633 317.019 44.3627 317.019 44.3622 317.02C44.3616 317.021 44.3611 317.021 44.3605 317.022C44.36 317.022 44.3594 317.023 44.3589 317.023C44.3583 317.024 44.3577 317.025 44.3571 317.025C44.3566 317.026 44.356 317.027 44.3554 317.027C44.3548 317.028 44.3542 317.028 44.3536 317.029C44.353 317.03 44.3524 317.03 44.3517 317.031C44.3511 317.032 44.3505 317.032 44.3499 317.033C44.3492 317.034 44.3486 317.034 44.348 317.035C44.3473 317.036 44.3467 317.036 44.346 317.037C44.3453 317.038 44.3447 317.038 44.344 317.039C44.3433 317.04 44.3427 317.041 44.342 317.041C44.3413 317.042 44.3406 317.043 44.3399 317.043C44.3392 317.044 44.3385 317.045 44.3378 317.046C44.3371 317.046 44.3364 317.047 44.3356 317.048C44.3349 317.049 44.3342 317.05 44.3334 317.05C44.3327 317.051 44.332 317.052 44.3312 317.053C44.3305 317.053 44.3297 317.054 44.3289 317.055C44.3282 317.056 44.3274 317.057 44.3266 317.058C44.3258 317.058 44.325 317.059 44.3242 317.06C44.3234 317.061 44.3226 317.062 44.3218 317.063C44.321 317.063 44.3202 317.064 44.3194 317.065C44.3185 317.066 44.3177 317.067 44.3169 317.068C44.316 317.069 44.3152 317.07 44.3143 317.071C44.3135 317.071 44.3126 317.072 44.3117 317.073C44.3109 317.074 44.31 317.075 44.3091 317.076C44.3082 317.077 44.3073 317.078 44.3064 317.079C44.3055 317.08 44.3046 317.081 44.3037 317.082C44.3028 317.083 44.3018 317.084 44.3009 317.085C44.3 317.086 44.299 317.087 44.2981 317.088C44.2971 317.089 44.2962 317.09 44.2952 317.091C44.2942 317.092 44.2933 317.093 44.2923 317.094C44.2913 317.095 44.2903 317.096 44.2893 317.097C44.2883 317.098 44.2873 317.099 44.2863 317.1C44.2853 317.101 44.2843 317.102 44.2832 317.103C44.2822 317.104 44.2812 317.106 44.2801 317.107C44.2791 317.108 44.278 317.109 44.2769 317.11C44.2759 317.111 44.2748 317.112 44.2737 317.113C44.2726 317.115 44.2715 317.116 44.2704 317.117C44.2693 317.118 44.2682 317.119 44.2671 317.12C44.266 317.121 44.2649 317.123 44.2638 317.124C44.2626 317.125 44.2615 317.126 44.2603 317.128C44.2592 317.129 44.258 317.13 44.2568 317.131C44.2557 317.132 44.2545 317.134 44.2533 317.135C44.2521 317.136 44.2509 317.137 44.2497 317.139C44.2485 317.14 44.2473 317.141 44.2461 317.143C44.2449 317.144 44.2436 317.145 44.2424 317.146C44.2412 317.148 44.2399 317.149 44.2386 317.15C44.2374 317.152 44.2361 317.153 44.2348 317.154C44.2336 317.156 44.2323 317.157 44.231 317.158C44.2297 317.16 44.2284 317.161 44.2271 317.163C44.2258 317.164 44.2244 317.165 44.2231 317.167C44.2218 317.168 44.2204 317.17 44.2191 317.171C44.2177 317.172 44.2164 317.174 44.215 317.175C44.2136 317.177 44.2122 317.178 44.2108 317.18C44.2095 317.181 44.2081 317.183 44.2066 317.184C44.2052 317.186 44.2038 317.187 44.2024 317.189C44.201 317.19 44.1995 317.192 44.1981 317.193C44.1966 317.195 44.1952 317.196 44.1937 317.198C44.1922 317.199 44.1907 317.201 44.1893 317.203C44.1878 317.204 44.1863 317.206 44.1848 317.207C44.1833 317.209 44.1817 317.21 44.1802 317.212C44.1787 317.214 44.1771 317.215 44.1756 317.217C44.174 317.219 44.1725 317.22 44.1709 317.222C44.1693 317.224 44.1678 317.225 44.1662 317.227C44.1646 317.229 44.163 317.23 44.1614 317.232C44.1598 317.234 44.1581 317.235 44.1565 317.237C44.1549 317.239 44.1532 317.241 44.1516 317.242C44.1499 317.244 44.1483 317.246 44.1466 317.248C44.1449 317.249 44.1432 317.251 44.1415 317.253C44.1398 317.255 44.1381 317.257 44.1364 317.258C44.1347 317.26 44.133 317.262 44.1312 317.264C44.1295 317.266 44.1277 317.267 44.126 317.269C44.1242 317.271 44.1225 317.273 44.1207 317.275C44.1189 317.277 44.1171 317.279 44.1153 317.281C44.1135 317.283 44.1117 317.284 44.1099 317.286C44.108 317.288 44.1062 317.29 44.1043 317.292C44.1025 317.294 44.1006 317.296 44.0988 317.298C44.0969 317.3 44.095 317.302 44.0931 317.304C44.0912 317.306 44.0893 317.308 44.0874 317.31C44.0855 317.312 44.0836 317.314 44.0816 317.316C44.0797 317.318 44.0777 317.32 44.0758 317.322C44.0738 317.324 44.0718 317.326 44.0699 317.329C44.0679 317.331 44.0659 317.333 44.0639 317.335C44.0619 317.337 44.0599 317.339 44.0578 317.341C44.0558 317.343 44.0537 317.346 44.0517 317.348C44.0496 317.35 44.0476 317.352 44.0455 317.354C44.0434 317.356 44.0413 317.359 44.0392 317.361C44.0371 317.363 44.035 317.365 44.0329 317.368C44.0308 317.37 44.0286 317.372 44.0265 317.374C44.0243 317.377 44.0222 317.379 44.02 317.381C44.0178 317.383 44.0156 317.386 44.0135 317.388C44.0113 317.39 44.009 317.393 44.0068 317.395C44.0046 317.397 44.0024 317.4 44.0001 317.402C43.9979 317.405 43.9956 317.407 43.9934 317.409C43.9911 317.412 43.9888 317.414 43.9865 317.417C43.9842 317.419 43.9819 317.421 43.9796 317.424C43.9773 317.426 43.9749 317.429 43.9726 317.431C43.9702 317.434 43.9679 317.436 43.9655 317.439C43.9631 317.441 43.9608 317.444 43.9584 317.446C43.956 317.449 43.9536 317.451 43.9511 317.454C43.9487 317.456 43.9463 317.459 43.9438 317.462C43.9414 317.464 43.9389 317.467 43.9365 317.469C43.934 317.472 43.9315 317.475 43.929 317.477C43.9265 317.48 43.924 317.483 43.9215 317.485C43.919 317.488 43.9164 317.491 43.9139 317.493C43.9113 317.496 43.9088 317.499 43.9062 317.501C43.9036 317.504 43.901 317.507 43.8984 317.51C43.8958 317.512 43.8932 317.515 43.8906 317.518C43.8879 317.521 43.8853 317.523 43.8826 317.526C43.88 317.529 43.8773 317.532 43.8746 317.535C43.8719 317.537 43.8693 317.54 43.8665 317.543C43.8638 317.546 43.8611 317.549 43.8584 317.552C43.8556 317.555 43.8529 317.558 43.8501 317.56C43.8474 317.563 43.8446 317.566 43.8418 317.569C43.839 317.572 43.8362 317.575 43.8334 317.578C43.8306 317.581 43.8277 317.584 43.8249 317.587C43.822 317.59 43.8192 317.593 43.8163 317.596C43.8134 317.599 43.8105 317.602 43.8076 317.605C43.8047 317.608 43.8018 317.611 43.7989 317.615C43.796 317.618 43.793 317.621 43.7901 317.624C43.7871 317.627 43.7841 317.63 43.7812 317.633C43.7782 317.636 43.7752 317.64 43.7722 317.643C43.7691 317.646 43.7661 317.649 43.7631 317.652C43.76 317.656 43.757 317.659 43.7539 317.662C43.7508 317.665 43.7477 317.669 43.7447 317.672C43.7416 317.675 43.7384 317.678 43.7353 317.682C43.7322 317.685 43.729 317.688 43.7259 317.692C43.7227 317.695 43.7196 317.698 43.7164 317.702C43.7132 317.705 43.71 317.708 43.7068 317.712C43.7035 317.715 43.7003 317.719 43.6971 317.722C43.6938 317.725 43.6906 317.729 43.6873 317.732C43.684 317.736 43.6807 317.739 43.6774 317.743C43.6741 317.746 43.6708 317.75 43.6675 317.753C43.6641 317.757 43.6608 317.76 43.6574 317.764C43.654 317.767 43.6507 317.771 43.6473 317.775C43.6439 317.778 43.6405 317.782 43.637 317.785C43.6336 317.789 43.6302 317.793 43.6267 317.796C43.6233 317.8 43.6198 317.804 43.6163 317.807C43.6128 317.811 43.6093 317.815 43.6058 317.818C43.6023 317.822 43.5988 317.826 43.5952 317.83C43.5917 317.833 43.5881 317.837 43.5845 317.841C43.5809 317.845 43.5774 317.848 43.5737 317.852C43.5701 317.856 43.5665 317.86 43.5629 317.864C43.5592 317.868 43.5556 317.871 43.5519 317.875C43.5482 317.879 43.5445 317.883 43.5408 317.887C43.5371 317.891 43.5334 317.895 43.5297 317.899C43.5259 317.903 43.5222 317.907 43.5184 317.911C43.5147 317.915 43.5109 317.919 43.5071 317.923C43.5033 317.927 43.4995 317.931 43.4956 317.935C43.4918 317.939 43.488 317.943 43.4841 317.947C43.4802 317.951 43.4764 317.955 43.4725 317.959C43.4686 317.963 43.4647 317.967 43.4607 317.972C43.4568 317.976 43.4529 317.98 43.4489 317.984C43.4449 317.988 43.441 317.992 43.437 317.997C43.433 318.001 43.429 318.005 43.4249 318.009C43.4209 318.014 43.4169 318.018 43.4128 318.022C43.4088 318.026 43.4047 318.031 43.4006 318.035C43.3965 318.039 43.3924 318.044 43.3883 318.048C43.3842 318.052 43.38 318.057 43.3759 318.061C43.3717 318.065 43.3675 318.07 43.3633 318.074C43.3591 318.079 43.3549 318.083 43.3507 318.088C43.3465 318.092 43.3422 318.097 43.338 318.101C43.3337 318.106 43.3295 318.11 43.3252 318.115C43.3209 318.119 43.3166 318.124 43.3122 318.128C43.3079 318.133 43.3036 318.137 43.2992 318.142C43.2948 318.147 43.2905 318.151 43.2861 318.156C43.2817 318.161 43.2773 318.165 43.2728 318.17C43.2684 318.175 43.264 318.179 43.2595 318.184C43.255 318.189 43.2506 318.193 43.2461 318.198C43.2416 318.203 43.237 318.208 43.2325 318.212C43.228 318.217 43.2234 318.222 43.2189 318.227C43.2143 318.232 43.2097 318.236 43.2051 318.241C43.2005 318.246 43.1959 318.251 43.1912 318.256C43.1866 318.261 43.1819 318.266 43.1773 318.271C43.1726 318.276 43.1679 318.281 43.1632 318.286C43.1585 318.291 43.1538 318.296 43.149 318.301C43.1443 318.306 43.1395 318.311 43.1347 318.316C43.13 318.321 43.1252 318.326 43.1203 318.331C43.1155 318.336 43.1107 318.341 43.1058 318.346C43.101 318.351 43.0961 318.356 43.0912 318.362C43.0863 318.367 43.0814 318.372 43.0765 318.377C43.0716 318.382 43.0666 318.388 43.0617 318.393C43.0567 318.398 43.0517 318.403 43.0467 318.409C43.0417 318.414 43.0367 318.419 43.0317 318.424C43.0267 318.43 43.0216 318.435 43.0165 318.44C43.0115 318.446 43.0064 318.451 43.0013 318.457C42.9962 318.462 42.991 318.467 42.9859 318.473C42.9807 318.478 42.9756 318.484 42.9704 318.489C42.9652 318.495 42.96 318.5 42.9548 318.506C42.9496 318.511 42.9443 318.517 42.9391 318.522C42.9338 318.528 42.9285 318.533 42.9232 318.539C42.918 318.544 42.9126 318.55 42.9073 318.556C42.902 318.561 42.8966 318.567 42.8913 318.573C42.8859 318.578 42.8805 318.584 42.8751 318.59C42.8697 318.595 42.8642 318.601 42.8588 318.607C42.8534 318.613 42.8479 318.618 42.8424 318.624C42.8369 318.63 42.8314 318.636 42.8259 318.642C42.8204 318.647 42.8148 318.653 42.8093 318.659C42.8037 318.665 42.7981 318.671 42.7925 318.677C42.7869 318.683 42.7813 318.689 42.7757 318.695C42.77 318.701 42.7644 318.707 42.7587 318.713C42.753 318.719 42.7473 318.725 42.7416 318.731C42.7359 318.737 42.7301 318.743 42.7244 318.749C42.7186 318.755 42.7128 318.761 42.7071 318.767C42.7013 318.773 42.6954 318.779 42.6896 318.785C42.6838 318.792 42.6779 318.798 42.672 318.804C42.6662 318.81 42.6603 318.816 42.6544 318.823C42.6484 318.829 42.6425 318.835 42.6365 318.841C42.6306 318.848 42.6246 318.854 42.6186 318.86C42.6126 318.867 42.6066 318.873 42.6006 318.879C42.5945 318.886 42.5885 318.892 42.5824 318.899C42.5763 318.905 42.5702 318.911 42.5641 318.918C42.558 318.924 42.5519 318.931 42.5457 318.937C42.5396 318.944 42.5334 318.95 42.5272 318.957C42.521 318.963 42.5148 318.97 42.5085 318.977C42.5023 318.983 42.496 318.99 42.4898 318.996C42.4835 319.003 42.4772 319.01 42.4709 319.016C42.4645 319.023 42.4582 319.03 42.4518 319.036C42.4455 319.043 42.4391 319.05 42.4327 319.057C42.4263 319.063 42.4199 319.07 42.4134 319.077C42.407 319.084 42.4005 319.091 42.394 319.097C42.3876 319.104 42.381 319.111 42.3745 319.118C42.368 319.125 42.3614 319.132 42.3549 319.139C42.3483 319.146 42.3417 319.153 42.3351 319.16C42.3285 319.167 42.3219 319.174 42.3152 319.181C42.3085 319.188 42.3019 319.195 42.2952 319.202C42.2885 319.209 42.2818 319.216 42.275 319.223C42.2683 319.23 42.2615 319.237 42.2547 319.245C42.248 319.252 42.2412 319.259 42.2343 319.266C42.2275 319.273 42.2207 319.28 42.2138 319.288C42.2069 319.295 42.2001 319.302 42.1931 319.31C42.1862 319.317 42.1793 319.324 42.1723 319.331C42.1654 319.339 42.1584 319.346 42.1514 319.354C42.1444 319.361 42.1374 319.368 42.1304 319.376C42.1233 319.383 42.1163 319.391 42.1092 319.398C42.1021 319.406 42.095 319.413 42.0879 319.421C42.0807 319.428 42.0736 319.436 42.0664 319.443C42.0593 319.451 42.0521 319.458 42.0449 319.466C42.0376 319.474 42.0304 319.481 42.0231 319.489C42.0159 319.497 42.0086 319.504 42.0013 319.512C41.994 319.52 41.9867 319.527 41.9793 319.535C41.972 319.543 41.9646 319.551 41.9572 319.559C41.9498 319.566 41.9424 319.574 41.935 319.582C41.9276 319.59 41.9201 319.598 41.9126 319.606C41.9051 319.614 41.8976 319.621 41.8901 319.629C41.8826 319.637 41.875 319.645 41.8675 319.653C41.8599 319.661 41.8523 319.669 41.8447 319.677C41.8371 319.685 41.8294 319.693 41.8218 319.702C41.8141 319.71 41.8064 319.718 41.7987 319.726C41.791 319.734 41.7833 319.742 41.7755 319.75C41.7678 319.759 41.76 319.767 41.7522 319.775C41.7444 319.783 41.7366 319.791 41.7287 319.8C41.7209 319.808 41.713 319.816 41.7052 319.825C41.6973 319.833 41.6894 319.841 41.6814 319.85C41.6735 319.858 41.6655 319.866 41.6575 319.875C41.6496 319.883 41.6416 319.892 41.6335 319.9C41.6255 319.909 41.6174 319.917 41.6094 319.926C41.6013 319.934 41.5932 319.943 41.5851 319.951C41.577 319.96 41.5688 319.969 41.5606 319.977C41.5525 319.986 41.5443 319.994 41.5361 320.003C41.5279 320.012 41.5196 320.02 41.5114 320.029C41.5031 320.038 41.4948 320.047 41.4865 320.055C41.4782 320.064 41.4699 320.073 41.4615 320.082C41.4532 320.091 41.4448 320.099 41.4364 320.108C41.428 320.117 41.4195 320.126 41.4111 320.135C41.4026 320.144 41.3942 320.153 41.3857 320.162C41.3772 320.171 41.3687 320.18 41.3601 320.189C41.3516 320.198 41.343 320.207 41.3344 320.216C41.3258 320.225 41.3172 320.234 41.3085 320.243C41.2999 320.252 41.2912 320.262 41.2825 320.271C41.2739 320.28 41.2651 320.289 41.2564 320.298C41.2477 320.308 41.2389 320.317 41.2301 320.326C41.2213 320.335 41.2125 320.345 41.2037 320.354C41.1948 320.363 41.186 320.373 41.1771 320.382C41.1682 320.391 41.1593 320.401 41.1504 320.41C41.1414 320.42 41.1325 320.429 41.1235 320.439C41.1145 320.448 41.1055 320.458 41.0965 320.467C41.0874 320.477 41.0784 320.486 41.0693 320.496C41.0602 320.505 41.0511 320.515 41.042 320.525C41.0329 320.534 41.0237 320.544 41.0145 320.554C41.0053 320.563 40.9961 320.573 40.9869 320.583C40.9777 320.593 40.9684 320.602 40.9591 320.612C40.9499 320.622 40.9406 320.632 40.9312 320.642C40.9219 320.651 40.9125 320.661 40.9032 320.671C40.8938 320.681 40.8844 320.691 40.875 320.701C40.8655 320.711 40.8561 320.721 40.8466 320.731C40.8371 320.741 40.8276 320.751 40.8181 320.761C40.8085 320.771 40.799 320.781 40.7894 320.791C40.7798 320.801 40.7702 320.811 40.7606 320.822C40.751 320.832 40.7413 320.842 40.7316 320.852C40.7219 320.862 40.7122 320.873 40.7025 320.883C40.6928 320.893 40.683 320.904 40.6732 320.914C40.6634 320.924 40.6536 320.935 40.6438 320.945C40.6339 320.955 40.6241 320.966 40.6142 320.976C40.6043 320.987 40.5944 320.997 40.5845 321.008C40.5745 321.018 40.5646 321.029 40.5546 321.039C40.5446 321.05 40.5346 321.06 40.5245 321.071C40.5145 321.081 40.5044 321.092 40.4943 321.103C40.4842 321.113 40.4741 321.124 40.4639 321.135C40.4538 321.146 40.4436 321.156 40.4334 321.167C40.4232 321.178 40.413 321.189 40.4027 321.199C40.3925 321.21 40.3822 321.221 40.3719 321.232C40.3616 321.243 40.3513 321.254 40.3409 321.265C40.3306 321.276 40.3202 321.287 40.3098 321.298C40.2994 321.309 40.2889 321.32 40.2785 321.331C40.268 321.342 40.2575 321.353 40.247 321.364C40.2365 321.375 40.2259 321.386 40.2154 321.397C40.2048 321.408 40.1942 321.42 40.1836 321.431C40.173 321.442 40.1623 321.453 40.1516 321.464C40.141 321.476 40.1303 321.487 40.1195 321.498C40.1088 321.51 40.0981 321.521 40.0873 321.532C40.0765 321.544 40.0657 321.555 40.0548 321.567C40.044 321.578 40.0331 321.59 40.0223 321.601C40.0114 321.613 40.0004 321.624 39.9895 321.636C39.9786 321.647 39.9676 321.659 39.9566 321.67C39.9456 321.682 39.9346 321.694 39.9235 321.705C39.9125 321.717 39.9014 321.729 39.8903 321.74C39.8792 321.752 39.868 321.764 39.8569 321.776C39.8457 321.787 39.8345 321.799 39.8233 321.811C39.8121 321.823 39.8008 321.835 39.7896 321.847C39.7783 321.859 39.767 321.87 39.7557 321.882C39.7443 321.894 39.733 321.906 39.7216 321.918C39.7102 321.93 39.6988 321.942 39.6874 321.955C39.6759 321.967 39.6645 321.979 39.653 321.991C39.6415 322.003 39.63 322.015 39.6184 322.027C39.6069 322.039 39.5953 322.052 39.5837 322.064C39.5721 322.076 39.5604 322.089 39.5488 322.101C39.5371 322.113 39.5254 322.125 39.5137 322.138C39.502 322.15 39.4903 322.163 39.4785 322.175C39.4667 322.187 39.4549 322.2 39.4431 322.212C39.4313 322.225 39.4194 322.237 39.4075 322.25C39.3956 322.262 39.3837 322.275 39.3718 322.288C39.3598 322.3 39.3479 322.313 39.3359 322.326C39.3239 322.338 39.3118 322.351 39.2998 322.364C39.2877 322.376 39.2756 322.389 39.2635 322.402C39.2514 322.415 39.2393 322.427 39.2271 322.44C39.2149 322.453 39.2027 322.466 39.1905 322.479C39.1783 322.492 39.166 322.505 39.1538 322.518C39.1415 322.531 39.1292 322.544 39.1168 322.557C39.1045 322.57 39.0921 322.583 39.0797 322.596C39.0673 322.609 39.0549 322.622 39.0424 322.635C39.03 322.648 39.0175 322.662 39.005 322.675C38.9925 322.688 38.9799 322.701 38.9673 322.715C38.9548 322.728 38.9422 322.741 38.9295 322.754C38.9169 322.768 38.9043 322.781 38.8916 322.795C38.8789 322.808 38.8662 322.821 38.8534 322.835C38.8407 322.848 38.8279 322.862 38.8151 322.875C38.8023 322.889 38.7894 322.902 38.7766 322.916C38.7637 322.929 38.7508 322.943 38.7379 322.957C38.725 322.97 38.712 322.984 38.699 322.998C38.6861 323.011 38.673 323.025 38.66 323.039C38.647 323.053 38.6339 323.067 38.6208 323.08C38.6077 323.094 38.5946 323.108 38.5814 323.122C38.5682 323.136 38.5551 323.15 38.5418 323.164C38.5286 323.178 38.5154 323.192 38.5021 323.206C38.4888 323.22 38.4755 323.234 38.4622 323.248C38.4488 323.262 38.4355 323.276 38.4221 323.29C38.4087 323.304 38.3952 323.318 38.3818 323.333C38.3683 323.347 38.3548 323.361 38.3413 323.375C38.3278 323.39 38.3142 323.404 38.3007 323.418C38.2871 323.433 38.2735 323.447 38.2598 323.461C38.2462 323.476 38.2325 323.49 38.2188 323.505C38.2051 323.519 38.1914 323.534 38.1776 323.548C38.1639 323.563 38.1501 323.577 38.1363 323.592C38.1224 323.606 38.1086 323.621 38.0947 323.636C38.0808 323.65 38.0669 323.665 38.053 323.68C38.039 323.694 38.0251 323.709 38.0111 323.724C37.997 323.739 37.983 323.754 37.9689 323.768C37.9549 323.783 37.9408 323.798 37.9267 323.813C37.9125 323.828 37.8984 323.843 37.8842 323.858C37.87 323.873 37.8558 323.888 37.8415 323.903C37.8273 323.918 37.813 323.933 37.7987 323.948C37.7844 323.963 37.77 323.978 37.7556 323.994C37.7413 324.009 37.7269 324.024 37.7124 324.039C37.698 324.054 37.6835 324.07 37.669 324.085C37.6545 324.1 37.64 324.116 37.6254 324.131C37.6109 324.146 37.5963 324.162 37.5817 324.177C37.567 324.193 37.5524 324.208 37.5377 324.224C37.523 324.239 37.5083 324.255 37.4935 324.27C37.4788 324.286 37.464 324.301 37.4492 324.317C37.4344 324.333 37.4195 324.348 37.4047 324.364C37.3898 324.38 37.3749 324.395 37.3599 324.411C37.345 324.427 37.33 324.443 37.315 324.459C37.3 324.474 37.285 324.49 37.2699 324.506C37.2549 324.522 37.2398 324.538 37.2246 324.554C37.2095 324.57 37.1943 324.586 37.1792 324.602C37.164 324.618 37.1487 324.634 37.1335 324.65C37.1182 324.666 37.1029 324.683 37.0876 324.699C37.0723 324.715 37.0569 324.731 37.0415 324.747C37.0262 324.764 37.0107 324.78 36.9953 324.796C36.9799 324.812 36.9644 324.829 36.9489 324.845C36.9333 324.862 36.9178 324.878 36.9022 324.894C36.8866 324.911 36.871 324.927 36.8554 324.944C36.8397 324.96 36.8241 324.977 36.8084 324.993C36.7926 325.01 36.7769 325.027 36.7611 325.043C36.7454 325.06 36.7296 325.077 36.7137 325.093C36.6979 325.11 36.682 325.127 36.6661 325.144C36.6502 325.16 36.6343 325.177 36.6183 325.194C36.6023 325.211 36.5863 325.228 36.5703 325.245C36.5543 325.262 36.5382 325.279 36.5221 325.296C36.506 325.313 36.4899 325.33 36.4737 325.347C36.4575 325.364 36.4413 325.381 36.4251 325.398C36.4089 325.415 36.3926 325.432 36.3763 325.45C36.36 325.467 36.3437 325.484 36.3273 325.501C36.3109 325.519 36.2945 325.536 36.2781 325.553C36.2617 325.57 36.2452 325.588 36.2287 325.605C36.2122 325.623 36.1957 325.64 36.1791 325.658C36.1626 325.675 36.146 325.693 36.1293 325.71C36.1127 325.728 36.0961 325.745 36.0794 325.763C36.0627 325.781 36.0459 325.798 36.0292 325.816C36.0124 325.834 35.9956 325.851 35.9788 325.869C35.9619 325.887 35.9451 325.905 35.9282 325.923C35.9113 325.94 35.8944 325.958 35.8774 325.976C35.8604 325.994 35.8434 326.012 35.8264 326.03C35.8094 326.048 35.7923 326.066 35.7752 326.084C35.7581 326.102 35.741 326.12 35.7238 326.138C35.7066 326.156 35.6894 326.175 35.6722 326.193C35.6549 326.211 35.6377 326.229 35.6204 326.247C35.6031 326.266 35.5857 326.284 35.5683 326.302C35.551 326.321 35.5336 326.339 35.5161 326.357C35.4987 326.376 35.4812 326.394 35.4637 326.413C35.4462 326.431 35.4286 326.45 35.4111 326.468L37.5889 328.532C37.6065 328.513 37.6241 328.495 37.6416 328.476C37.6591 328.458 37.6765 328.439 37.694 328.421C37.7114 328.402 37.7288 328.384 37.7462 328.366C37.7636 328.347 37.7809 328.329 37.7982 328.311C37.8155 328.292 37.8328 328.274 37.85 328.256C37.8673 328.238 37.8845 328.22 37.9016 328.202C37.9188 328.183 37.9359 328.165 37.953 328.147C37.9701 328.129 37.9872 328.111 38.0042 328.093C38.0213 328.075 38.0383 328.057 38.0552 328.039C38.0722 328.021 38.0891 328.004 38.106 327.986C38.1229 327.968 38.1398 327.95 38.1566 327.932C38.1735 327.915 38.1903 327.897 38.207 327.879C38.2238 327.861 38.2405 327.844 38.2572 327.826C38.2739 327.809 38.2906 327.791 38.3072 327.773C38.3238 327.756 38.3404 327.738 38.357 327.721C38.3736 327.703 38.3901 327.686 38.4066 327.669C38.4231 327.651 38.4395 327.634 38.456 327.616C38.4724 327.599 38.4888 327.582 38.5052 327.564C38.5215 327.547 38.5379 327.53 38.5542 327.513C38.5705 327.496 38.5867 327.478 38.603 327.461C38.6192 327.444 38.6354 327.427 38.6516 327.41C38.6677 327.393 38.6838 327.376 38.6999 327.359C38.716 327.342 38.7321 327.325 38.7481 327.308C38.7642 327.291 38.7802 327.274 38.7962 327.257C38.8121 327.24 38.8281 327.224 38.844 327.207C38.8599 327.19 38.8757 327.173 38.8916 327.157C38.9074 327.14 38.9232 327.123 38.939 327.107C38.9548 327.09 38.9705 327.073 38.9862 327.057C39.0019 327.04 39.0176 327.024 39.0332 327.007C39.0489 326.991 39.0645 326.974 39.0801 326.958C39.0957 326.941 39.1112 326.925 39.1267 326.908C39.1422 326.892 39.1577 326.876 39.1732 326.859C39.1886 326.843 39.204 326.827 39.2194 326.811C39.2348 326.794 39.2501 326.778 39.2655 326.762C39.2808 326.746 39.2961 326.73 39.3113 326.714C39.3266 326.697 39.3418 326.681 39.357 326.665C39.3722 326.649 39.3874 326.633 39.4025 326.617C39.4176 326.601 39.4327 326.585 39.4478 326.569C39.4629 326.554 39.4779 326.538 39.4929 326.522C39.5079 326.506 39.5229 326.49 39.5378 326.474C39.5527 326.459 39.5676 326.443 39.5825 326.427C39.5974 326.412 39.6122 326.396 39.6271 326.38C39.6419 326.365 39.6566 326.349 39.6714 326.333C39.6861 326.318 39.7009 326.302 39.7156 326.287C39.7302 326.271 39.7449 326.256 39.7595 326.24C39.7741 326.225 39.7887 326.21 39.8033 326.194C39.8179 326.179 39.8324 326.164 39.8469 326.148C39.8614 326.133 39.8759 326.118 39.8903 326.102C39.9047 326.087 39.9191 326.072 39.9335 326.057C39.9479 326.042 39.9622 326.026 39.9765 326.011C39.9908 325.996 40.0051 325.981 40.0194 325.966C40.0336 325.951 40.0479 325.936 40.062 325.921C40.0762 325.906 40.0904 325.891 40.1045 325.876C40.1186 325.861 40.1327 325.846 40.1468 325.832C40.1609 325.817 40.1749 325.802 40.1889 325.787C40.2029 325.772 40.2169 325.758 40.2308 325.743C40.2448 325.728 40.2587 325.714 40.2726 325.699C40.2865 325.684 40.3003 325.67 40.3141 325.655C40.3279 325.64 40.3417 325.626 40.3555 325.611C40.3693 325.597 40.383 325.582 40.3967 325.568C40.4104 325.553 40.4241 325.539 40.4377 325.525C40.4513 325.51 40.4649 325.496 40.4785 325.482C40.4921 325.467 40.5056 325.453 40.5192 325.439C40.5327 325.424 40.5462 325.41 40.5596 325.396C40.5731 325.382 40.5865 325.367 40.5999 325.353C40.6133 325.339 40.6267 325.325 40.64 325.311C40.6534 325.297 40.6667 325.283 40.6799 325.269C40.6932 325.255 40.7065 325.241 40.7197 325.227C40.7329 325.213 40.7461 325.199 40.7593 325.185C40.7724 325.171 40.7855 325.157 40.7987 325.144C40.8118 325.13 40.8248 325.116 40.8379 325.102C40.8509 325.088 40.8639 325.075 40.8769 325.061C40.8899 325.047 40.9028 325.034 40.9158 325.02C40.9287 325.006 40.9416 324.993 40.9544 324.979C40.9673 324.966 40.9801 324.952 40.9929 324.939C41.0057 324.925 41.0185 324.911 41.0313 324.898C41.044 324.885 41.0567 324.871 41.0694 324.858C41.0821 324.844 41.0948 324.831 41.1074 324.818C41.12 324.804 41.1326 324.791 41.1452 324.778C41.1578 324.764 41.1703 324.751 41.1828 324.738C41.1953 324.725 41.2078 324.712 41.2203 324.699C41.2327 324.685 41.2452 324.672 41.2576 324.659C41.27 324.646 41.2823 324.633 41.2947 324.62C41.307 324.607 41.3193 324.594 41.3316 324.581C41.3439 324.568 41.3562 324.555 41.3684 324.542C41.3806 324.529 41.3928 324.516 41.405 324.504C41.4171 324.491 41.4293 324.478 41.4414 324.465C41.4535 324.452 41.4656 324.44 41.4776 324.427C41.4897 324.414 41.5017 324.401 41.5137 324.389C41.5257 324.376 41.5377 324.363 41.5496 324.351C41.5616 324.338 41.5735 324.326 41.5854 324.313C41.5973 324.301 41.6091 324.288 41.6209 324.276C41.6328 324.263 41.6446 324.251 41.6563 324.238C41.6681 324.226 41.6799 324.213 41.6916 324.201C41.7033 324.189 41.715 324.176 41.7266 324.164C41.7383 324.152 41.7499 324.139 41.7615 324.127C41.7731 324.115 41.7847 324.103 41.7963 324.091C41.8078 324.078 41.8193 324.066 41.8308 324.054C41.8423 324.042 41.8538 324.03 41.8652 324.018C41.8767 324.006 41.8881 323.994 41.8995 323.982C41.9108 323.97 41.9222 323.958 41.9335 323.946C41.9448 323.934 41.9561 323.922 41.9674 323.91C41.9787 323.898 41.9899 323.886 42.0011 323.874C42.0124 323.862 42.0236 323.851 42.0347 323.839C42.0459 323.827 42.057 323.815 42.0681 323.804C42.0792 323.792 42.0903 323.78 42.1014 323.768C42.1124 323.757 42.1234 323.745 42.1344 323.734C42.1454 323.722 42.1564 323.71 42.1674 323.699C42.1783 323.687 42.1892 323.676 42.2001 323.664C42.211 323.653 42.2219 323.641 42.2327 323.63C42.2435 323.618 42.2543 323.607 42.2651 323.596C42.2759 323.584 42.2867 323.573 42.2974 323.562C42.3081 323.55 42.3188 323.539 42.3295 323.528C42.3402 323.516 42.3508 323.505 42.3614 323.494C42.3721 323.483 42.3827 323.472 42.3932 323.46C42.4038 323.449 42.4143 323.438 42.4249 323.427C42.4354 323.416 42.4459 323.405 42.4563 323.394C42.4668 323.383 42.4772 323.372 42.4876 323.361C42.498 323.35 42.5084 323.339 42.5188 323.328C42.5291 323.317 42.5395 323.306 42.5498 323.295C42.5601 323.284 42.5704 323.273 42.5806 323.263C42.5909 323.252 42.6011 323.241 42.6113 323.23C42.6215 323.219 42.6317 323.209 42.6418 323.198C42.6519 323.187 42.6621 323.177 42.6722 323.166C42.6823 323.155 42.6923 323.145 42.7024 323.134C42.7124 323.124 42.7224 323.113 42.7324 323.102C42.7424 323.092 42.7524 323.081 42.7623 323.071C42.7723 323.06 42.7822 323.05 42.7921 323.039C42.8019 323.029 42.8118 323.019 42.8216 323.008C42.8315 322.998 42.8413 322.987 42.8511 322.977C42.8609 322.967 42.8706 322.957 42.8803 322.946C42.8901 322.936 42.8998 322.926 42.9095 322.915C42.9192 322.905 42.9288 322.895 42.9384 322.885C42.9481 322.875 42.9577 322.865 42.9673 322.854C42.9768 322.844 42.9864 322.834 42.9959 322.824C43.0055 322.814 43.015 322.804 43.0244 322.794C43.0339 322.784 43.0434 322.774 43.0528 322.764C43.0622 322.754 43.0716 322.744 43.081 322.734C43.0904 322.724 43.0998 322.715 43.1091 322.705C43.1184 322.695 43.1277 322.685 43.137 322.675C43.1463 322.666 43.1555 322.656 43.1648 322.646C43.174 322.636 43.1832 322.627 43.1924 322.617C43.2016 322.607 43.2107 322.598 43.2198 322.588C43.229 322.578 43.2381 322.569 43.2472 322.559C43.2562 322.549 43.2653 322.54 43.2743 322.53C43.2834 322.521 43.2924 322.511 43.3014 322.502C43.3103 322.492 43.3193 322.483 43.3282 322.473C43.3372 322.464 43.3461 322.455 43.355 322.445C43.3638 322.436 43.3727 322.427 43.3815 322.417C43.3904 322.408 43.3992 322.399 43.408 322.389C43.4168 322.38 43.4255 322.371 43.4343 322.362C43.443 322.352 43.4517 322.343 43.4604 322.334C43.4691 322.325 43.4778 322.316 43.4864 322.307C43.495 322.297 43.5037 322.288 43.5123 322.279C43.5208 322.27 43.5294 322.261 43.538 322.252C43.5465 322.243 43.555 322.234 43.5635 322.225C43.572 322.216 43.5805 322.207 43.589 322.198C43.5974 322.189 43.6058 322.18 43.6142 322.172C43.6226 322.163 43.631 322.154 43.6394 322.145C43.6477 322.136 43.6561 322.127 43.6644 322.119C43.6727 322.11 43.681 322.101 43.6892 322.092C43.6975 322.084 43.7057 322.075 43.7139 322.066C43.7221 322.058 43.7303 322.049 43.7385 322.04C43.7467 322.032 43.7548 322.023 43.7629 322.015C43.7711 322.006 43.7792 321.997 43.7872 321.989C43.7953 321.98 43.8034 321.972 43.8114 321.963C43.8194 321.955 43.8274 321.947 43.8354 321.938C43.8434 321.93 43.8513 321.921 43.8593 321.913C43.8672 321.905 43.8751 321.896 43.883 321.888C43.8909 321.88 43.8988 321.871 43.9066 321.863C43.9145 321.855 43.9223 321.846 43.9301 321.838C43.9379 321.83 43.9456 321.822 43.9534 321.814C43.9611 321.805 43.9689 321.797 43.9766 321.789C43.9843 321.781 43.992 321.773 43.9996 321.765C44.0073 321.757 44.0149 321.749 44.0225 321.741C44.0302 321.733 44.0378 321.725 44.0453 321.717C44.0529 321.709 44.0604 321.701 44.068 321.693C44.0755 321.685 44.083 321.677 44.0905 321.669C44.0979 321.661 44.1054 321.653 44.1128 321.645C44.1203 321.637 44.1277 321.63 44.1351 321.622C44.1425 321.614 44.1498 321.606 44.1572 321.598C44.1645 321.591 44.1719 321.583 44.1792 321.575C44.1865 321.568 44.1937 321.56 44.201 321.552C44.2083 321.545 44.2155 321.537 44.2227 321.529C44.2299 321.522 44.2371 321.514 44.2443 321.507C44.2515 321.499 44.2586 321.491 44.2657 321.484C44.2729 321.476 44.28 321.469 44.287 321.461C44.2941 321.454 44.3012 321.446 44.3082 321.439C44.3153 321.432 44.3223 321.424 44.3293 321.417C44.3363 321.409 44.3433 321.402 44.3502 321.395C44.3572 321.387 44.3641 321.38 44.371 321.373C44.3779 321.365 44.3848 321.358 44.3917 321.351C44.3985 321.344 44.4054 321.336 44.4122 321.329C44.419 321.322 44.4258 321.315 44.4326 321.308C44.4394 321.301 44.4461 321.293 44.4529 321.286C44.4596 321.279 44.4663 321.272 44.473 321.265C44.4797 321.258 44.4864 321.251 44.4931 321.244C44.4997 321.237 44.5063 321.23 44.513 321.223C44.5196 321.216 44.5262 321.209 44.5327 321.202C44.5393 321.195 44.5458 321.188 44.5524 321.181C44.5589 321.174 44.5654 321.168 44.5719 321.161C44.5784 321.154 44.5848 321.147 44.5913 321.14C44.5977 321.133 44.6042 321.127 44.6106 321.12C44.617 321.113 44.6233 321.106 44.6297 321.1C44.6361 321.093 44.6424 321.086 44.6487 321.08C44.655 321.073 44.6613 321.066 44.6676 321.06C44.6739 321.053 44.6802 321.046 44.6864 321.04C44.6926 321.033 44.6989 321.027 44.705 321.02C44.7112 321.014 44.7174 321.007 44.7236 321.001C44.7297 320.994 44.7359 320.988 44.742 320.981C44.7481 320.975 44.7542 320.968 44.7603 320.962C44.7663 320.955 44.7724 320.949 44.7784 320.943C44.7845 320.936 44.7905 320.93 44.7965 320.924C44.8025 320.917 44.8085 320.911 44.8144 320.905C44.8204 320.898 44.8263 320.892 44.8322 320.886C44.8381 320.88 44.844 320.873 44.8499 320.867C44.8558 320.861 44.8616 320.855 44.8675 320.849C44.8733 320.843 44.8791 320.836 44.8849 320.83C44.8907 320.824 44.8965 320.818 44.9022 320.812C44.908 320.806 44.9137 320.8 44.9194 320.794C44.9252 320.788 44.9309 320.782 44.9365 320.776C44.9422 320.77 44.9479 320.764 44.9535 320.758C44.9592 320.752 44.9648 320.746 44.9704 320.74C44.976 320.734 44.9816 320.728 44.9871 320.722C44.9927 320.717 44.9982 320.711 45.0037 320.705C45.0093 320.699 45.0148 320.693 45.0203 320.687C45.0257 320.682 45.0312 320.676 45.0367 320.67C45.0421 320.664 45.0475 320.659 45.0529 320.653C45.0583 320.647 45.0637 320.642 45.0691 320.636C45.0745 320.63 45.0798 320.625 45.0852 320.619C45.0905 320.613 45.0958 320.608 45.1011 320.602C45.1064 320.596 45.1117 320.591 45.1169 320.585C45.1222 320.58 45.1274 320.574 45.1326 320.569C45.1379 320.563 45.1431 320.558 45.1483 320.552C45.1534 320.547 45.1586 320.541 45.1637 320.536C45.1689 320.531 45.174 320.525 45.1791 320.52C45.1842 320.514 45.1893 320.509 45.1944 320.504C45.1995 320.498 45.2045 320.493 45.2095 320.488C45.2146 320.482 45.2196 320.477 45.2246 320.472C45.2296 320.466 45.2346 320.461 45.2395 320.456C45.2445 320.451 45.2494 320.446 45.2544 320.44C45.2593 320.435 45.2642 320.43 45.2691 320.425C45.274 320.42 45.2788 320.414 45.2837 320.409C45.2885 320.404 45.2934 320.399 45.2982 320.394C45.303 320.389 45.3078 320.384 45.3126 320.379C45.3174 320.374 45.3221 320.369 45.3269 320.364C45.3316 320.359 45.3363 320.354 45.3411 320.349C45.3458 320.344 45.3505 320.339 45.3551 320.334C45.3598 320.329 45.3645 320.324 45.3691 320.319C45.3737 320.314 45.3784 320.309 45.383 320.305C45.3876 320.3 45.3921 320.295 45.3967 320.29C45.4013 320.285 45.4058 320.28 45.4104 320.276C45.4149 320.271 45.4194 320.266 45.4239 320.261C45.4284 320.257 45.4329 320.252 45.4374 320.247C45.4418 320.242 45.4463 320.238 45.4507 320.233C45.4551 320.228 45.4595 320.224 45.4639 320.219C45.4683 320.214 45.4727 320.21 45.4771 320.205C45.4814 320.201 45.4858 320.196 45.4901 320.191C45.4944 320.187 45.4987 320.182 45.503 320.178C45.5073 320.173 45.5116 320.169 45.5158 320.164C45.5201 320.16 45.5243 320.155 45.5286 320.151C45.5328 320.146 45.537 320.142 45.5412 320.138C45.5454 320.133 45.5496 320.129 45.5537 320.124C45.5579 320.12 45.562 320.116 45.5661 320.111C45.5703 320.107 45.5744 320.103 45.5785 320.098C45.5826 320.094 45.5866 320.09 45.5907 320.085C45.5947 320.081 45.5988 320.077 45.6028 320.073C45.6068 320.068 45.6108 320.064 45.6148 320.06C45.6188 320.056 45.6228 320.051 45.6268 320.047C45.6307 320.043 45.6347 320.039 45.6386 320.035C45.6425 320.031 45.6464 320.026 45.6503 320.022C45.6542 320.018 45.6581 320.014 45.662 320.01C45.6658 320.006 45.6697 320.002 45.6735 319.998C45.6773 319.994 45.6811 319.99 45.6849 319.986C45.6887 319.982 45.6925 319.978 45.6963 319.974C45.7001 319.97 45.7038 319.966 45.7075 319.962C45.7113 319.958 45.715 319.954 45.7187 319.95C45.7224 319.946 45.7261 319.942 45.7298 319.939C45.7334 319.935 45.7371 319.931 45.7407 319.927C45.7444 319.923 45.748 319.919 45.7516 319.915C45.7552 319.912 45.7588 319.908 45.7624 319.904C45.766 319.9 45.7695 319.897 45.7731 319.893C45.7766 319.889 45.7801 319.885 45.7837 319.882C45.7872 319.878 45.7907 319.874 45.7942 319.871C45.7977 319.867 45.8011 319.863 45.8046 319.86C45.808 319.856 45.8115 319.852 45.8149 319.849C45.8183 319.845 45.8217 319.841 45.8251 319.838C45.8285 319.834 45.8319 319.831 45.8353 319.827C45.8386 319.824 45.842 319.82 45.8453 319.817C45.8487 319.813 45.852 319.81 45.8553 319.806C45.8586 319.803 45.8619 319.799 45.8651 319.796C45.8684 319.792 45.8717 319.789 45.8749 319.785C45.8782 319.782 45.8814 319.778 45.8846 319.775C45.8878 319.772 45.891 319.768 45.8942 319.765C45.8974 319.762 45.9006 319.758 45.9037 319.755C45.9069 319.752 45.91 319.748 45.9132 319.745C45.9163 319.742 45.9194 319.738 45.9225 319.735C45.9256 319.732 45.9287 319.729 45.9318 319.725C45.9348 319.722 45.9379 319.719 45.9409 319.716C45.944 319.712 45.947 319.709 45.95 319.706C45.953 319.703 45.956 319.7 45.959 319.697C45.962 319.693 45.965 319.69 45.9679 319.687C45.9709 319.684 45.9738 319.681 45.9768 319.678C45.9797 319.675 45.9826 319.672 45.9855 319.669C45.9884 319.665 45.9913 319.662 45.9942 319.659C45.997 319.656 45.9999 319.653 46.0027 319.65C46.0056 319.647 46.0084 319.644 46.0112 319.641C46.0141 319.638 46.0169 319.635 46.0197 319.633C46.0224 319.63 46.0252 319.627 46.028 319.624C46.0307 319.621 46.0335 319.618 46.0362 319.615C46.039 319.612 46.0417 319.609 46.0444 319.606C46.0471 319.604 46.0498 319.601 46.0525 319.598C46.0552 319.595 46.0578 319.592 46.0605 319.589C46.0631 319.587 46.0658 319.584 46.0684 319.581C46.071 319.578 46.0737 319.576 46.0763 319.573C46.0789 319.57 46.0815 319.567 46.084 319.565C46.0866 319.562 46.0892 319.559 46.0917 319.556C46.0943 319.554 46.0968 319.551 46.0993 319.548C46.1019 319.546 46.1044 319.543 46.1069 319.54C46.1094 319.538 46.1118 319.535 46.1143 319.533C46.1168 319.53 46.1193 319.527 46.1217 319.525C46.1241 319.522 46.1266 319.52 46.129 319.517C46.1314 319.515 46.1338 319.512 46.1362 319.509C46.1386 319.507 46.141 319.504 46.1434 319.502C46.1457 319.499 46.1481 319.497 46.1504 319.494C46.1528 319.492 46.1551 319.49 46.1574 319.487C46.1598 319.485 46.1621 319.482 46.1644 319.48C46.1667 319.477 46.1689 319.475 46.1712 319.473C46.1735 319.47 46.1757 319.468 46.178 319.465C46.1802 319.463 46.1825 319.461 46.1847 319.458C46.1869 319.456 46.1891 319.454 46.1913 319.451C46.1935 319.449 46.1957 319.447 46.1979 319.444C46.2 319.442 46.2022 319.44 46.2043 319.438C46.2065 319.435 46.2086 319.433 46.2108 319.431C46.2129 319.429 46.215 319.426 46.2171 319.424C46.2192 319.422 46.2213 319.42 46.2234 319.418C46.2254 319.415 46.2275 319.413 46.2296 319.411C46.2316 319.409 46.2337 319.407 46.2357 319.404C46.2377 319.402 46.2397 319.4 46.2417 319.398C46.2437 319.396 46.2457 319.394 46.2477 319.392C46.2497 319.39 46.2517 319.388 46.2536 319.386C46.2556 319.383 46.2575 319.381 46.2595 319.379C46.2614 319.377 46.2634 319.375 46.2653 319.373C46.2672 319.371 46.2691 319.369 46.271 319.367C46.2729 319.365 46.2748 319.363 46.2766 319.361C46.2785 319.359 46.2803 319.357 46.2822 319.355C46.284 319.353 46.2859 319.352 46.2877 319.35C46.2895 319.348 46.2913 319.346 46.2932 319.344C46.295 319.342 46.2967 319.34 46.2985 319.338C46.3003 319.336 46.3021 319.334 46.3038 319.333C46.3056 319.331 46.3074 319.329 46.3091 319.327C46.3108 319.325 46.3126 319.323 46.3143 319.322C46.316 319.32 46.3177 319.318 46.3194 319.316C46.3211 319.314 46.3228 319.313 46.3244 319.311C46.3261 319.309 46.3278 319.307 46.3294 319.306C46.3311 319.304 46.3327 319.302 46.3344 319.3C46.336 319.299 46.3376 319.297 46.3392 319.295C46.3408 319.293 46.3424 319.292 46.344 319.29C46.3456 319.288 46.3472 319.287 46.3488 319.285C46.3503 319.283 46.3519 319.282 46.3534 319.28C46.355 319.279 46.3565 319.277 46.3581 319.275C46.3596 319.274 46.3611 319.272 46.3626 319.271C46.3641 319.269 46.3656 319.267 46.3671 319.266C46.3686 319.264 46.3701 319.263 46.3716 319.261C46.373 319.26 46.3745 319.258 46.3759 319.256C46.3774 319.255 46.3788 319.253 46.3802 319.252C46.3817 319.25 46.3831 319.249 46.3845 319.247C46.3859 319.246 46.3873 319.244 46.3887 319.243C46.3901 319.241 46.3915 319.24 46.3928 319.239C46.3942 319.237 46.3956 319.236 46.3969 319.234C46.3983 319.233 46.3996 319.231 46.401 319.23C46.4023 319.229 46.4036 319.227 46.4049 319.226C46.4062 319.224 46.4075 319.223 46.4088 319.222C46.4101 319.22 46.4114 319.219 46.4127 319.218C46.414 319.216 46.4152 319.215 46.4165 319.214C46.4178 319.212 46.419 319.211 46.4203 319.21C46.4215 319.208 46.4227 319.207 46.4239 319.206C46.4252 319.204 46.4264 319.203 46.4276 319.202C46.4288 319.201 46.43 319.199 46.4312 319.198C46.4324 319.197 46.4335 319.196 46.4347 319.194C46.4359 319.193 46.437 319.192 46.4382 319.191C46.4393 319.19 46.4405 319.188 46.4416 319.187C46.4427 319.186 46.4439 319.185 46.445 319.184C46.4461 319.182 46.4472 319.181 46.4483 319.18C46.4494 319.179 46.4505 319.178 46.4516 319.177C46.4527 319.175 46.4537 319.174 46.4548 319.173C46.4559 319.172 46.4569 319.171 46.458 319.17C46.459 319.169 46.46 319.168 46.4611 319.167C46.4621 319.165 46.4631 319.164 46.4641 319.163C46.4652 319.162 46.4662 319.161 46.4672 319.16C46.4682 319.159 46.4692 319.158 46.4701 319.157C46.4711 319.156 46.4721 319.155 46.4731 319.154C46.474 319.153 46.475 319.152 46.4759 319.151C46.4769 319.15 46.4778 319.149 46.4788 319.148C46.4797 319.147 46.4806 319.146 46.4815 319.145C46.4824 319.144 46.4834 319.143 46.4843 319.142C46.4852 319.141 46.4861 319.14 46.4869 319.139C46.4878 319.138 46.4887 319.137 46.4896 319.136C46.4905 319.136 46.4913 319.135 46.4922 319.134C46.493 319.133 46.4939 319.132 46.4947 319.131C46.4956 319.13 46.4964 319.129 46.4972 319.128C46.498 319.128 46.4989 319.127 46.4997 319.126C46.5005 319.125 46.5013 319.124 46.5021 319.123C46.5029 319.122 46.5037 319.122 46.5045 319.121C46.5052 319.12 46.506 319.119 46.5068 319.118C46.5076 319.118 46.5083 319.117 46.5091 319.116C46.5098 319.115 46.5106 319.114 46.5113 319.114C46.512 319.113 46.5128 319.112 46.5135 319.111C46.5142 319.11 46.5149 319.11 46.5157 319.109C46.5164 319.108 46.5171 319.107 46.5178 319.107C46.5185 319.106 46.5192 319.105 46.5198 319.105C46.5205 319.104 46.5212 319.103 46.5219 319.102C46.5225 319.102 46.5232 319.101 46.5239 319.1C46.5245 319.1 46.5252 319.099 46.5258 319.098C46.5265 319.098 46.5271 319.097 46.5277 319.096C46.5284 319.096 46.529 319.095 46.5296 319.094C46.5302 319.094 46.5308 319.093 46.5314 319.092C46.532 319.092 46.5326 319.091 46.5332 319.09C46.5338 319.09 46.5344 319.089 46.535 319.089C46.5356 319.088 46.5361 319.087 46.5367 319.087C46.5373 319.086 46.5378 319.086 46.5384 319.085C46.539 319.084 46.5395 319.084 46.54 319.083C46.5406 319.083 46.5411 319.082 46.5417 319.082C46.5422 319.081 46.5427 319.08 46.5432 319.08C46.5438 319.079 46.5443 319.079 46.5448 319.078C46.5453 319.078 46.5458 319.077 46.5463 319.077C46.5468 319.076 46.5473 319.076 46.5477 319.075C46.5482 319.075 46.5487 319.074 46.5492 319.074C46.5497 319.073 46.5501 319.073 46.5506 319.072C46.551 319.072 46.5515 319.071 46.552 319.071C46.5524 319.07 46.5529 319.07 46.5533 319.069C46.5537 319.069 46.5542 319.068 46.5546 319.068C46.555 319.067 46.5555 319.067 46.5559 319.067C46.5563 319.066 46.5567 319.066 46.5571 319.065C46.5575 319.065 46.5579 319.064 46.5583 319.064C46.5587 319.064 46.5591 319.063 46.5595 319.063C46.5599 319.062 46.5603 319.062 46.5606 319.061C46.561 319.061 46.5614 319.061 46.5618 319.06C46.5621 319.06 46.5625 319.06 46.5628 319.059C46.5632 319.059 46.5636 319.058 46.5639 319.058C46.5642 319.058 46.5646 319.057 46.5649 319.057C46.5653 319.057 46.5656 319.056 46.5659 319.056C46.5663 319.056 46.5666 319.055 46.5669 319.055C46.5672 319.055 46.5675 319.054 46.5678 319.054C46.5682 319.054 46.5685 319.053 46.5688 319.053C46.5691 319.053 46.5694 319.052 46.5697 319.052C46.5699 319.052 46.5702 319.051 46.5705 319.051C46.5708 319.051 46.5711 319.05 46.5714 319.05C46.5716 319.05 46.5719 319.05 46.5722 319.049C46.5724 319.049 46.5727 319.049 46.5729 319.048C46.5732 319.048 46.5735 319.048 46.5737 319.048C46.574 319.047 46.5742 319.047 46.5744 319.047C46.5747 319.047 46.5749 319.046 46.5752 319.046C46.5754 319.046 46.5756 319.046 46.5758 319.045C46.5761 319.045 46.5763 319.045 46.5765 319.045C46.5767 319.044 46.5769 319.044 46.5772 319.044C46.5774 319.044 46.5776 319.044 46.5778 319.043C46.578 319.043 46.5782 319.043 46.5784 319.043C46.5786 319.043 46.5788 319.042 46.5789 319.042C46.5791 319.042 46.5793 319.042 46.5795 319.042C46.5797 319.041 46.5799 319.041 46.58 319.041C46.5802 319.041 46.5804 319.041 46.5805 319.04C46.5807 319.04 46.5809 319.04 46.581 319.04C46.5812 319.04 46.5814 319.04 46.5815 319.039C46.5817 319.039 46.5818 319.039 46.582 319.039C46.5821 319.039 46.5823 319.039 46.5824 319.039C46.5825 319.038 46.5827 319.038 46.5828 319.038C46.583 319.038 46.5831 319.038 46.5832 319.038C46.5833 319.038 46.5835 319.037 46.5836 319.037C46.5837 319.037 46.5838 319.037 46.584 319.037C46.5841 319.037 46.5842 319.037 46.5843 319.036C46.5844 319.036 46.5845 319.036 46.5846 319.036C46.5847 319.036 46.5849 319.036 46.5849 319.036C46.5851 319.036 46.5852 319.036 46.5853 319.035C46.5853 319.035 46.5854 319.035 46.5855 319.035C46.5856 319.035 46.5857 319.035 46.5858 319.035C46.5859 319.035 46.586 319.035 46.5861 319.035C46.5861 319.035 46.5862 319.034 46.5863 319.034C46.5864 319.034 46.5864 319.034 46.5865 319.034C46.5866 319.034 46.5867 319.034 46.5867 319.034C46.5868 319.034 46.5869 319.034 46.5869 319.034C46.587 319.034 46.5871 319.034 46.5871 319.034C46.5872 319.033 46.5872 319.033 46.5873 319.033C46.5873 319.033 46.5874 319.033 46.5875 319.033C46.5875 319.033 46.5876 319.033 46.5876 319.033C46.5877 319.033 46.5877 319.033 46.5877 319.033C46.5878 319.033 46.5878 319.033 46.5879 319.033C46.5879 319.033 46.588 319.033 46.588 319.033C46.588 319.033 46.5881 319.033 46.5881 319.032C46.5882 319.032 46.5882 319.032 46.5882 319.032C46.5882 319.032 46.5883 319.032 46.5883 319.032C46.5883 319.032 46.5884 319.032 46.5884 319.032C46.5884 319.032 46.5884 319.032 46.5885 319.032C46.5885 319.032 46.5885 319.032 46.5885 319.032C46.5886 319.032 46.5886 319.032 46.5886 319.032C46.5886 319.032 46.5886 319.032 46.5887 319.032C46.5887 319.032 46.5887 319.032 46.5887 319.032C46.5887 319.032 46.5887 319.032 46.5887 319.032C46.5888 319.032 46.5888 319.032 46.5888 319.032C46.5888 319.032 46.5888 319.032 46.5888 319.032C46.5888 319.032 46.5888 319.032 46.5888 319.032C46.5888 319.032 46.5889 319.032 46.5889 319.032C46.5889 319.032 46.5889 319.032 46.5889 319.032C46.5889 319.032 46.5889 319.032 46.5889 319.032C46.5889 319.032 46.5889 319.032 46.5889 319.032C46.5889 319.032 46.5889 319.032 46.5889 319.032C46.5889 319.032 46.5889 319.032 46.5889 319.032H46.5889H46.5889L45.5 318Z" fill="#404040"/>
</svg>
