<svg width="116" height="128" viewBox="0 0 116 128" fill="none" xmlns="http://www.w3.org/2000/svg">
<g clip-path="url(#clip0_774_709)">
<path d="M76.3429 75.6201C75.1246 80.8071 72.3444 84.7755 67.9709 87.6503C67.6898 87.8377 67.4399 88.2752 67.3774 88.6502C67.2837 89.3689 67.3462 90.1188 67.3462 90.9625C69.814 91.6812 72.2819 92.3374 74.7185 93.0873C77.53 93.9622 80.4977 94.6184 83.0905 95.962C89.7444 99.4305 93.2431 105.117 93.4931 112.617C93.6493 116.991 93.5243 121.335 93.5243 125.709C93.5243 127.241 92.837 127.928 91.3063 127.928C69.0955 127.928 46.8847 127.928 24.6427 127.928C23.112 127.928 22.4247 127.241 22.4247 125.709C22.4247 121.304 22.3622 116.898 22.4559 112.492C22.6121 104.43 27.9852 97.1494 35.6387 94.7121C39.6061 93.4622 43.6046 92.3374 47.6344 91.2437C48.4154 91.025 48.6028 90.6812 48.6653 89.9001C48.7278 88.5877 48.3842 87.7753 47.1971 86.9628C43.1985 84.2443 40.7619 80.3697 39.6373 75.6201C39.0125 75.5263 38.3565 75.4638 37.7317 75.3388C32.4524 74.2139 30.1095 68.2457 33.1084 63.7774C33.4208 63.3399 33.6082 62.715 33.6082 62.1838C33.6394 57.9341 33.6082 53.6845 33.6394 49.4349C33.6707 38.8733 41.9177 30.624 52.5077 30.5928C56.6937 30.5928 60.8485 30.5928 65.0345 30.5928C69.6891 30.5928 73.0629 33.0613 74.4998 37.4672C74.6248 37.8421 75.0621 38.2796 75.437 38.4046C79.748 39.8107 82.2783 43.2167 82.2783 47.7788C82.2783 52.5596 82.2783 57.3717 82.3096 62.1525C82.3096 62.6212 82.4033 63.1837 82.6844 63.5586C84.3713 66.0272 84.7149 68.6207 83.3717 71.3079C82.0596 73.964 79.8105 75.3388 76.8428 75.4951C76.7178 75.5576 76.5616 75.5888 76.3429 75.6201ZM39.1687 60.5276C39.7935 58.9653 40.1371 58.7153 41.8865 58.7153C45.0729 58.7153 48.2905 58.7466 51.4768 58.7153C57.0686 58.6216 61.0984 56.028 63.5663 50.9972C64.5034 49.0599 65.7217 48.8099 67.2524 50.341C70.0952 53.1845 72.9379 55.9968 75.7494 58.8715C76.1867 59.3402 76.4991 59.9027 76.9677 60.5589C77.3426 60.6214 77.9049 60.7151 78.5609 60.8089C78.5609 56.3718 78.5921 52.0284 78.5609 47.6538C78.5609 44.4353 76.3742 42.123 73.1878 41.873C71.7508 41.748 71.2198 41.2168 71.0948 39.7482C70.8449 36.5922 68.5332 34.4049 65.4093 34.3737C60.9422 34.3424 56.4438 34.3112 51.9766 34.3737C44.1669 34.4987 37.5755 41.0919 37.4506 48.9037C37.3881 52.6533 37.4506 56.3718 37.4506 60.1214C37.4506 60.3402 37.5131 60.5589 37.5443 60.7776C38.1066 60.6839 38.6689 60.6214 39.1687 60.5276ZM43.2298 62.465C43.2298 66.4959 42.8861 70.4018 43.2922 74.1827C44.1045 81.3696 50.6958 86.8066 58.0057 86.7753C65.3156 86.7753 71.8758 81.3383 72.688 74.1202C73.1566 70.0268 72.9067 65.8709 72.9379 61.7463C72.9379 61.5276 72.8442 61.2776 72.7192 61.1213C70.5013 58.9028 68.2833 56.6842 66.0654 54.4657C65.9092 54.5907 65.8467 54.6219 65.7842 54.6844C62.1293 60.1214 56.9749 62.59 50.4772 62.4337C48.0405 62.4025 45.6039 62.465 43.2298 62.465ZM89.8069 124.147C89.8069 120.272 89.9318 116.491 89.7756 112.711C89.5257 106.305 86.4643 101.618 80.6539 98.868C79.092 98.1181 77.3426 97.8056 75.6869 97.2119C74.9684 96.9619 74.5623 97.1494 74.0625 97.6494C71.8133 99.9617 69.5016 102.243 67.19 104.524C66.8151 104.899 66.3153 105.336 65.8467 105.399C65.0657 105.461 64.5034 105.617 64.2847 106.43C64.0973 107.117 63.7224 107.836 63.7537 108.492C63.9411 111.336 64.2535 114.148 64.5659 116.991C64.8158 119.366 65.0657 121.772 65.3156 124.147C69.7828 124.147 74.125 124.147 78.5921 124.147C78.5921 121.022 78.5921 117.991 78.5921 114.929C79.9042 114.929 81.0912 114.929 82.3408 114.929C82.3408 118.054 82.3408 121.085 82.3408 124.147C84.8399 124.147 87.2453 124.147 89.8069 124.147ZM50.6959 124.147C51.2269 118.741 51.7892 113.492 52.289 108.211C52.414 106.992 51.3519 105.711 50.196 105.43C49.6962 105.305 49.2276 104.961 48.8528 104.586C47.1659 102.961 45.354 101.43 43.917 99.5867C42.1052 97.2432 40.2621 96.9932 37.5443 97.9619C31.2965 100.18 27.2042 104.274 26.4233 110.898C25.9234 115.21 26.2358 119.616 26.2046 123.96C26.2046 124.022 26.2983 124.085 26.3296 124.116C28.7349 124.116 31.1403 124.116 33.6707 124.116C33.6707 120.991 33.6707 117.96 33.6707 114.929C34.9827 114.929 36.1698 114.929 37.4193 114.929C37.4193 118.054 37.4193 121.085 37.4193 124.147C41.8865 124.147 46.2287 124.147 50.6959 124.147ZM61.5357 124.147C61.0359 119.147 60.5361 114.242 60.0363 109.305C58.6305 109.305 57.3185 109.305 55.944 109.305C55.4442 114.273 54.9443 119.179 54.4445 124.147C56.8187 124.147 59.0991 124.147 61.5357 124.147ZM61.7544 102.868C60.4736 101.587 59.1928 100.305 58.0057 99.0868C56.7874 100.305 55.5066 101.587 54.1321 102.93C54.9443 103.618 54.507 105.492 56.2251 105.461C58.4118 105.399 61.2858 106.586 61.7544 102.868ZM65.3469 100.524C66.94 98.9305 68.5957 97.3057 70.1264 95.7745C67.1587 94.0247 64.1598 94.3684 61.5045 96.6495C62.8165 98.0244 64.191 99.3992 65.3469 100.524ZM54.5695 96.712C51.7892 94.3059 48.759 94.1184 45.7601 95.8683C47.3533 97.4619 49.009 99.118 50.6021 100.712C51.8829 99.3992 53.2262 98.0556 54.5695 96.712ZM52.5077 89.7126C52.1953 90.7437 52.414 91.3687 53.4136 91.7749C54.9756 92.4311 56.5063 93.8372 58.037 93.8372C59.5677 93.8372 61.0671 92.4311 62.6603 91.7749C63.6912 91.3374 63.7849 90.6812 63.5038 89.7126C59.7864 90.8062 56.1314 90.775 52.5077 89.7126ZM39.2 71.7454C39.2 69.2144 39.2 66.8083 39.2 64.3711C37.0132 64.5585 35.545 66.0584 35.545 68.0895C35.545 70.0893 37.0445 71.5892 39.2 71.7454ZM76.749 71.7454C78.9045 71.6517 80.4665 70.0581 80.4352 67.9957C80.404 65.9959 78.8108 64.4335 76.749 64.4023C76.749 66.8396 76.749 69.3081 76.749 71.7454Z" fill="white"/>
<path d="M33.6706 39.842C33.6706 41.5294 32.1399 42.3418 30.6716 41.4982C28.3912 40.1545 26.1108 38.8421 23.8928 37.4048C22.8932 36.7486 22.1434 36.6861 21.0813 37.3735C18.9571 38.7796 16.6766 40.0295 14.4899 41.3732C13.6777 41.8731 12.8655 42.1543 11.9908 41.4982C11.1474 40.8732 11.1474 40.0295 11.366 39.0921C11.8659 36.7798 12.3344 34.4363 12.7405 32.124C12.803 31.6865 12.6156 31.0616 12.3032 30.7178C11.0224 29.3117 9.55418 28.0618 8.30463 26.6245C7.86729 26.1245 7.5549 25.2496 7.58614 24.5621C7.64861 23.6872 8.46082 23.3122 9.36675 23.156C11.6472 22.7185 13.9276 22.2186 16.2393 21.8124C17.0203 21.6874 17.4576 21.3749 17.7388 20.625C18.5822 18.3752 19.5194 16.1254 20.3941 13.9068C20.7689 12.9382 21.2063 12.0007 22.4558 12.0007C23.7054 12.032 24.1115 12.9694 24.4863 13.9381C25.3298 16.0941 26.267 18.2502 27.0479 20.4375C27.3603 21.3437 27.9226 21.6561 28.7973 21.8124C31.0465 22.2186 33.2957 22.6873 35.5449 23.156C37.4817 23.5622 37.9815 25.1558 36.6383 26.5932C35.3575 27.9368 34.0142 29.2805 32.6709 30.5616C32.1086 31.0928 31.9837 31.5615 32.1399 32.3115C32.6709 34.655 33.1083 37.0298 33.5769 39.4046C33.6081 39.5296 33.6393 39.7483 33.6706 39.842ZM13.1154 26.187C14.2088 27.2494 15.0835 28.1243 15.9581 28.968C16.7079 29.6867 16.9578 30.4679 16.7079 31.499C16.3643 32.9676 16.1143 34.4363 15.802 36.1861C17.6763 35.0612 19.3319 34.155 20.9251 33.1239C22.0185 32.4052 22.9556 32.4364 24.049 33.1239C25.6109 34.1238 27.2666 35.0612 29.1097 36.1549C28.7661 34.4363 28.5474 32.9364 28.1725 31.4678C27.9226 30.4366 28.1725 29.6554 28.9223 28.9367C29.8282 28.0931 30.7341 27.2494 31.89 26.187C29.797 25.7495 28.0476 25.3433 26.2982 25.0308C25.2048 24.8434 24.5801 24.2809 24.2052 23.281C23.7054 21.8749 23.0806 20.5 22.4246 18.8439C21.7373 20.5625 21.1438 21.9686 20.5815 23.406C20.2379 24.3434 19.6131 24.8434 18.6447 25.0308C16.9265 25.4058 15.1772 25.7808 13.1154 26.187Z" fill="white"/>
<path d="M104.77 39.842C104.77 41.5293 103.239 42.3417 101.771 41.4981C99.4595 40.1544 97.1166 38.7796 94.8674 37.3422C93.9303 36.7172 93.2118 36.7172 92.2746 37.3422C90.1191 38.7483 87.8699 39.9982 85.6832 41.3418C84.8398 41.873 83.9963 42.2167 83.0904 41.5293C82.2469 40.9044 82.2469 40.0607 82.4656 39.092C82.9654 36.7797 83.434 34.4362 83.8401 32.1239C83.9026 31.6864 83.7152 31.0615 83.4028 30.7178C82.122 29.3116 80.6538 28.0617 79.4042 26.6244C78.9669 26.1244 78.6545 25.2495 78.7169 24.5621C78.7794 23.6871 79.6229 23.3122 80.4976 23.1559C82.778 22.7185 85.0584 22.2185 87.3701 21.8123C88.1511 21.6873 88.5884 21.3748 88.8696 20.5936C89.6818 18.4063 90.5877 16.2503 91.4312 14.0942C91.8373 13.0631 92.1809 11.9694 93.5866 12.0007C94.8987 12.0319 95.2735 13.0631 95.6484 14.063C96.4918 16.1878 97.3978 18.3126 98.1787 20.4687C98.4911 21.3123 98.9597 21.6873 99.8032 21.8435C102.084 22.2498 104.395 22.7185 106.676 23.2184C108.613 23.6246 109.112 25.2182 107.738 26.6556C106.426 28.0305 105.02 29.3116 103.708 30.7178C103.396 31.0615 103.177 31.7489 103.271 32.2176C103.677 34.5924 104.177 36.936 104.676 39.3108C104.708 39.467 104.739 39.717 104.77 39.842ZM84.5586 26.1244C84.4649 26.2494 84.3712 26.3431 84.2775 26.4681C85.1521 27.2493 85.9956 28.0305 86.8703 28.8117C87.7762 29.5929 88.0886 30.499 87.7762 31.7177C87.4013 33.0926 87.2139 34.5299 86.9015 36.2173C88.401 35.3111 89.7443 34.7174 90.8376 33.8112C92.7119 32.2801 94.3988 32.3739 96.2732 33.8112C97.3978 34.6862 98.741 35.3111 100.209 36.186C99.8656 34.4362 99.647 32.9676 99.3033 31.5302C99.0222 30.4365 99.3033 29.6241 100.116 28.9054C101.021 28.093 101.927 27.2806 102.833 26.4369C102.771 26.3119 102.677 26.2182 102.615 26.0932C101.084 25.7807 99.5845 25.4057 98.0538 25.2182C96.5231 24.9995 95.6172 24.3121 95.1486 22.8122C94.7737 21.5623 94.1802 20.3437 93.5554 18.8751C92.8994 20.4687 92.3371 21.7498 91.8997 23.0622C91.4936 24.3121 90.6814 24.937 89.4006 25.1557C87.745 25.437 86.1518 25.8119 84.5586 26.1244Z" fill="white"/>
<path d="M26.1732 73.5891C26.142 75.214 24.6113 76.0264 23.2055 75.214C20.8314 73.8391 18.4572 72.4017 16.1143 70.9331C15.2709 70.4019 14.6773 70.3706 13.8026 70.9018C11.5535 72.3392 9.21054 73.6828 6.9301 75.089C6.14913 75.5577 5.36816 75.8077 4.52471 75.214C3.68126 74.6203 3.61879 73.7766 3.83746 72.8079C4.33728 70.4956 4.80586 68.1521 5.21197 65.8398C5.30568 65.3711 5.08701 64.6836 4.74338 64.3399C3.49383 62.965 2.11932 61.6526 0.807291 60.3403C0.182514 59.7153 -0.223591 59.0591 0.0575584 58.1529C0.338708 57.278 1.0572 56.9343 1.93189 56.7781C4.18109 56.3719 6.43028 55.8407 8.67948 55.4344C9.49169 55.2782 9.96027 54.997 10.2727 54.1845C11.0849 51.9972 11.9908 49.8412 12.8342 47.6851C13.2403 46.6852 13.584 45.654 14.896 45.6228C16.2705 45.6228 16.6454 46.6852 17.0515 47.7164C17.8949 49.8412 18.8009 51.966 19.5818 54.1221C19.8942 54.997 20.394 55.2782 21.2375 55.4344C23.5179 55.8407 25.8296 56.3094 28.11 56.8093C29.9844 57.2155 30.4842 58.8091 29.1722 60.184C27.8601 61.5589 26.4856 62.9025 25.1111 64.2462C24.6113 64.7149 24.4551 65.1836 24.6113 65.871C25.1423 68.2146 25.5797 70.5894 26.0483 72.9642C26.142 73.2141 26.1732 73.4329 26.1732 73.5891ZM14.9585 52.5597C14.3025 54.1533 13.7402 55.4344 13.3028 56.7468C12.8655 58.0592 12.0533 58.7154 10.71 58.9029C9.33549 59.1216 7.96099 59.4028 6.58648 59.6841C6.33657 59.7466 6.11789 59.8715 5.74303 60.0278C6.74267 60.9964 7.55488 61.8401 8.39833 62.6213C9.1793 63.34 9.46045 64.1524 9.21054 65.2461C8.86691 66.6835 8.617 68.1833 8.30461 69.9019C10.1477 68.8083 11.8034 67.9021 13.3341 66.8709C14.5211 66.0585 15.5208 66.1522 16.6454 66.8709C18.2073 67.8708 19.8005 68.777 21.6124 69.8707C21.3 68.1521 21.0813 66.7147 20.7064 65.2773C20.4253 64.1524 20.7064 63.3087 21.5499 62.5588C22.4558 61.7776 23.3305 60.9652 24.2364 60.1528C22.2684 59.4653 20.4878 59.0591 18.7071 58.7466C17.77 58.5904 17.1764 58.0905 16.8328 57.2155C16.2705 55.7469 15.677 54.3408 14.9585 52.5597Z" fill="white"/>
<path d="M116.017 58.9964C115.798 59.3402 115.548 59.9026 115.142 60.3401C113.861 61.6837 112.487 62.9648 111.206 64.3397C110.894 64.6834 110.675 65.3709 110.738 65.8396C111.144 68.2144 111.643 70.5892 112.143 72.9327C112.331 73.8701 112.237 74.6513 111.425 75.2138C110.644 75.745 109.894 75.5887 109.144 75.12C106.77 73.6827 104.396 72.3078 102.053 70.8392C101.335 70.4017 100.804 70.3392 100.054 70.8079C97.7421 72.2765 95.3992 73.6202 93.0563 75.0263C92.2441 75.5262 91.4319 75.8075 90.5572 75.1825C89.7138 74.5576 89.7138 73.7139 89.9324 72.7765C90.4323 70.4642 90.9008 68.1206 91.3069 65.8083C91.3694 65.3709 91.182 64.7459 90.8696 64.4022C89.5888 62.9961 88.1206 61.7462 86.871 60.3088C86.4337 59.8089 86.1213 58.9339 86.1525 58.2465C86.215 57.3716 87.0272 56.9966 87.9332 56.8404C90.1824 56.4029 92.4316 55.8717 94.6807 55.4967C95.6179 55.3405 96.0553 54.9343 96.3989 54.0594C97.2423 51.7783 98.2107 49.4973 99.1167 47.2162C99.4603 46.31 99.9913 45.6226 101.053 45.6539C102.116 45.6539 102.615 46.3725 102.959 47.2787C103.865 49.591 104.833 51.8721 105.708 54.2156C106.02 55.028 106.489 55.3405 107.301 55.4655C109.644 55.903 111.956 56.4029 114.267 56.8404C115.298 57.0279 115.923 57.6528 116.017 58.9964ZM107.707 69.8705C107.364 68.0894 107.114 66.5895 106.77 65.1209C106.551 64.1522 106.77 63.3711 107.489 62.6836C108.426 61.8399 109.363 60.965 110.519 59.9026C108.457 59.4651 106.801 59.0589 105.115 58.809C103.896 58.6215 103.178 57.9965 102.772 56.8404C102.303 55.4655 101.709 54.1531 101.053 52.5283C100.491 53.9656 99.9289 55.0593 99.6165 56.1842C99.1167 57.934 98.0233 58.7777 96.2114 58.9652C94.7745 59.0902 93.4 59.5276 91.7443 59.8714C92.8064 60.9025 93.6499 61.7774 94.5246 62.5899C95.3055 63.3086 95.5554 64.1522 95.3055 65.2146C94.9619 66.652 94.7432 68.1206 94.3996 69.8392C96.3052 68.7143 97.9608 67.7769 99.554 66.7458C100.616 66.0583 101.522 66.0583 102.584 66.7145C104.146 67.7769 105.802 68.7143 107.707 69.8705Z" fill="white"/>
</g>
<defs>
<clipPath id="clip0_774_709">
<rect width="116" height="128" fill="white"/>
</clipPath>
</defs>
</svg>
