<svg width="160" height="128" viewBox="0 0 160 128" fill="none" xmlns="http://www.w3.org/2000/svg">
<g clip-path="url(#clip0_774_709)">
<path d="M75.8683 75.6201C74.6575 80.8071 71.8945 84.7755 67.5483 87.6503C67.2689 87.8377 67.0205 88.2752 66.9584 88.6502C66.8653 89.3689 66.9274 90.1188 66.9274 90.9625C69.3799 91.6812 71.8324 92.3374 74.2539 93.0873C77.048 93.9622 79.9972 94.6184 82.5739 95.962C89.1865 99.4305 92.6635 105.117 92.9119 112.617C93.0671 116.991 92.9429 121.335 92.9429 125.709C92.9429 127.241 92.2599 127.928 90.7387 127.928C68.6659 127.928 46.593 127.928 24.4891 127.928C22.9679 127.928 22.2849 127.241 22.2849 125.709C22.2849 121.304 22.2228 116.898 22.316 112.492C22.4712 104.43 27.8109 97.1494 35.4169 94.7121C39.3596 93.4622 43.3333 92.3374 47.3381 91.2437C48.1142 91.025 48.3005 90.6812 48.3626 89.9001C48.4247 88.5877 48.0832 87.7753 46.9035 86.9628C42.9297 84.2443 40.5082 80.3697 39.3906 75.6201C38.7697 75.5263 38.1178 75.4638 37.4969 75.3388C32.2503 74.2139 29.9219 68.2457 32.9022 63.7774C33.2127 63.3399 33.399 62.715 33.399 62.1838C33.43 57.9341 33.399 53.6845 33.43 49.4349C33.4611 38.8733 41.6569 30.624 52.1811 30.5928C56.3411 30.5928 60.47 30.5928 64.63 30.5928C69.2557 30.5928 72.6086 33.0613 74.0366 37.4672C74.1608 37.8421 74.5954 38.2796 74.968 38.4046C79.2521 39.8107 81.7668 43.2167 81.7668 47.7788C81.7668 52.5596 81.7668 57.3717 81.7978 62.1525C81.7978 62.6212 81.891 63.1837 82.1704 63.5586C83.8468 66.0272 84.1883 68.6207 82.8533 71.3079C81.5495 73.964 79.3142 75.3388 76.365 75.4951C76.2408 75.5576 76.0856 75.5888 75.8683 75.6201ZM38.9249 60.5276C39.5458 58.9653 39.8873 58.7153 41.6258 58.7153C44.7924 58.7153 47.99 58.7466 51.1566 58.7153C56.7136 58.6216 60.7184 56.028 63.1709 50.9972C64.1023 49.0599 65.313 48.8099 66.8342 50.341C69.6593 53.1845 72.4844 55.9968 75.2784 58.8715C75.713 59.3402 76.0235 59.9027 76.4892 60.5589C76.8617 60.6214 77.4205 60.7151 78.0724 60.8089C78.0724 56.3718 78.1035 52.0284 78.0724 47.6538C78.0724 44.4353 75.8993 42.123 72.7327 41.873C71.3047 41.748 70.7769 41.2168 70.6527 39.7482C70.4044 36.5922 68.1071 34.4049 65.0026 34.3737C60.5632 34.3424 56.0927 34.3112 51.6533 34.3737C43.8921 34.4987 37.3417 41.0919 37.2175 48.9037C37.1554 52.6533 37.2175 56.3718 37.2175 60.1214C37.2175 60.3402 37.2796 60.5589 37.3106 60.7776C37.8694 60.6839 38.4282 60.6214 38.9249 60.5276ZM42.9608 62.465C42.9608 66.4959 42.6193 70.4018 43.0229 74.1827C43.83 81.3696 50.3805 86.8066 57.645 86.7753C64.9094 86.7753 71.4289 81.3383 72.236 74.1202C72.7017 70.0268 72.4533 65.8709 72.4844 61.7463C72.4844 61.5276 72.3912 61.2776 72.2671 61.1213C70.0629 58.9028 67.8587 56.6842 65.6545 54.4657C65.4993 54.5907 65.4372 54.6219 65.3751 54.6844C61.7429 60.1214 56.6205 62.59 50.1632 62.4337C47.7417 62.4025 45.3202 62.465 42.9608 62.465ZM89.2486 124.147C89.2486 120.272 89.3728 116.491 89.2175 112.711C88.9692 106.305 85.9268 101.618 80.1524 98.868C78.6002 98.1181 76.8617 97.8056 75.2163 97.2119C74.5023 96.9619 74.0987 97.1494 73.602 97.6494C71.3668 99.9617 69.0694 102.243 66.7721 104.524C66.3996 104.899 65.9029 105.336 65.4372 105.399C64.6611 105.461 64.1023 105.617 63.885 106.43C63.6987 107.117 63.3262 107.836 63.3572 108.492C63.5435 111.336 63.8539 114.148 64.1644 116.991C64.4127 119.366 64.6611 121.772 64.9094 124.147C69.3489 124.147 73.6641 124.147 78.1035 124.147C78.1035 121.022 78.1035 117.991 78.1035 114.929C79.4074 114.929 80.5871 114.929 81.8289 114.929C81.8289 118.054 81.8289 121.085 81.8289 124.147C84.3125 124.147 86.7029 124.147 89.2486 124.147ZM50.3805 124.147C50.9082 118.741 51.467 113.492 51.9638 108.211C52.0879 106.992 51.0324 105.711 49.8838 105.43C49.387 105.305 48.9214 104.961 48.5488 104.586C46.8724 102.961 45.0718 101.43 43.6438 99.5867C41.8432 97.2432 40.0115 96.9932 37.3106 97.9619C31.1016 100.18 27.0348 104.274 26.2587 110.898C25.7619 115.21 26.0724 119.616 26.0413 123.96C26.0413 124.022 26.1345 124.085 26.1655 124.116C28.556 124.116 30.9464 124.116 33.4611 124.116C33.4611 120.991 33.4611 117.96 33.4611 114.929C34.7649 114.929 35.9446 114.929 37.1864 114.929C37.1864 118.054 37.1864 121.085 37.1864 124.147C41.6258 124.147 45.9411 124.147 50.3805 124.147ZM61.153 124.147C60.6563 119.147 60.1596 114.242 59.6629 109.305C58.2659 109.305 56.962 109.305 55.596 109.305C55.0993 114.273 54.6026 119.179 54.1059 124.147C56.4653 124.147 58.7315 124.147 61.153 124.147ZM61.3703 102.868C60.0975 101.587 58.8247 100.305 57.645 99.0868C56.4342 100.305 55.1614 101.587 53.7954 102.93C54.6026 103.618 54.1679 105.492 55.8754 105.461C58.0485 105.399 60.9047 106.586 61.3703 102.868ZM64.9405 100.524C66.5238 98.9305 68.1691 97.3057 69.6903 95.7745C66.7411 94.0247 63.7608 94.3684 61.122 96.6495C62.4259 98.0244 63.7918 99.3992 64.9405 100.524ZM54.23 96.712C51.467 94.3059 48.4557 94.1184 45.4754 95.8683C47.0587 97.4619 48.7041 99.118 50.2873 100.712C51.5602 99.3992 52.8951 98.0556 54.23 96.712ZM52.1811 89.7126C51.8706 90.7437 52.0879 91.3687 53.0814 91.7749C54.6336 92.4311 56.1548 93.8372 57.676 93.8372C59.1972 93.8372 60.6874 92.4311 62.2706 91.7749C63.2951 91.3374 63.3882 90.6812 63.1088 89.7126C59.4145 90.8062 55.7823 90.775 52.1811 89.7126ZM38.956 71.7454C38.956 69.2144 38.956 66.8083 38.956 64.3711C36.7828 64.5585 35.3237 66.0584 35.3237 68.0895C35.3237 70.0893 36.8139 71.5892 38.956 71.7454ZM76.2718 71.7454C78.4139 71.6517 79.9662 70.0581 79.9351 67.9957C79.9041 65.9959 78.3208 64.4335 76.2718 64.4023C76.2718 66.8396 76.2718 69.3081 76.2718 71.7454Z" fill="white"/>
<path d="M33.4617 39.842C33.4617 41.5294 31.9405 42.3418 30.4814 41.4982C28.2151 40.1545 25.9488 38.8421 23.7446 37.4048C22.7512 36.7486 22.0061 36.6861 20.9506 37.3735C18.8396 38.7796 16.5733 40.0295 14.4002 41.3732C13.593 41.8731 12.7858 42.1543 11.9166 41.4982C11.0784 40.8732 11.0784 40.0295 11.2957 39.0921C11.7924 36.7798 12.2581 34.4363 12.6616 32.124C12.7237 31.6865 12.5375 31.0616 12.227 30.7178C10.9542 29.3117 9.49507 28.0618 8.25328 26.6245C7.81865 26.1245 7.5082 25.2496 7.53925 24.5621C7.60134 23.6872 8.4085 23.3122 9.3088 23.156C11.5751 22.7185 13.8413 22.2186 16.1387 21.8124C16.9148 21.6874 17.3494 21.3749 17.6288 20.625C18.467 18.3752 19.3984 16.1254 20.2676 13.9068C20.6402 12.9382 21.0748 12.0007 22.3166 12.0007C23.5584 12.032 23.962 12.9694 24.3345 13.9381C25.1727 16.0941 26.104 18.2502 26.8802 20.4375C27.1906 21.3437 27.7494 21.6561 28.6187 21.8124C30.8539 22.2186 33.0891 22.6873 35.3244 23.156C37.2491 23.5622 37.7458 25.1558 36.4109 26.5932C35.1381 27.9368 33.8032 29.2805 32.4682 30.5616C31.9094 31.0928 31.7852 31.5615 31.9405 32.3115C32.4682 34.655 32.9029 37.0298 33.3685 39.4046C33.3996 39.5296 33.4306 39.7483 33.4617 39.842ZM13.0342 26.187C14.1207 27.2494 14.99 28.1243 15.8593 28.968C16.6043 29.6867 16.8527 30.4679 16.6043 31.499C16.2628 32.9676 16.0145 34.4363 15.704 36.1861C17.5667 35.0612 19.2121 34.155 20.7954 33.1239C21.8819 32.4052 22.8133 32.4364 23.8999 33.1239C25.4521 34.1238 27.0975 35.0612 28.9291 36.1549C28.5876 34.4363 28.3703 32.9364 27.9978 31.4678C27.7494 30.4366 27.9978 29.6554 28.7429 28.9367C29.6432 28.0931 30.5435 27.2494 31.6921 26.187C29.6121 25.7495 27.8736 25.3433 26.1351 25.0308C25.0485 24.8434 24.4276 24.2809 24.0551 23.281C23.5584 21.8749 22.9375 20.5 22.2855 18.8439C21.6025 20.5625 21.0127 21.9686 20.4539 23.406C20.1124 24.3434 19.4915 24.8434 18.5291 25.0308C16.8216 25.4058 15.0831 25.7808 13.0342 26.187Z" fill="white"/>
<path d="M104.119 39.842C104.119 41.5293 102.598 42.3417 101.139 41.4981C98.8414 40.1544 96.513 38.7796 94.2778 37.3422C93.3465 36.7172 92.6324 36.7172 91.7011 37.3422C89.559 38.7483 87.3238 39.9982 85.1506 41.3418C84.3124 41.873 83.4742 42.2168 82.5739 41.5293C81.7357 40.9044 81.7357 40.0607 81.953 39.092C82.4497 36.7797 82.9154 34.4362 83.319 32.1239C83.3811 31.6864 83.1948 31.0615 82.8844 30.7178C81.6115 29.3116 80.1524 28.0617 78.9106 26.6244C78.476 26.1244 78.1655 25.2495 78.2276 24.5621C78.2897 23.6871 79.1279 23.3122 79.9972 23.1559C82.2635 22.7185 84.5297 22.2185 86.8271 21.8123C87.6032 21.6873 88.0378 21.3748 88.3172 20.5937C89.1244 18.4063 90.0247 16.2503 90.8629 14.0942C91.2665 13.0631 91.608 11.9694 93.005 12.0007C94.3089 12.0319 94.6814 13.0631 95.0539 14.063C95.8921 16.1878 96.7924 18.3126 97.5686 20.4687C97.879 21.3123 98.3447 21.6873 99.1829 21.8435C101.449 22.2498 103.746 22.7185 106.013 23.2184C107.938 23.6246 108.434 25.2182 107.068 26.6556C105.764 28.0305 104.367 29.3116 103.063 30.7178C102.753 31.0615 102.536 31.7489 102.629 32.2176C103.032 34.5924 103.529 36.936 104.026 39.3108C104.057 39.467 104.088 39.717 104.119 39.842ZM84.033 26.1244C83.9399 26.2494 83.8467 26.3431 83.7536 26.4681C84.6229 27.2493 85.4611 28.0305 86.3303 28.8117C87.2306 29.5929 87.5411 30.499 87.2306 31.7177C86.8581 33.0926 86.6718 34.5299 86.3614 36.2173C87.8515 35.3111 89.1865 34.7174 90.273 33.8112C92.1357 32.2801 93.8121 32.3739 95.6748 33.8112C96.7924 34.6862 98.1274 35.3111 99.5865 36.186C99.245 34.4362 99.0277 32.9676 98.6862 31.5302C98.4068 30.4365 98.6862 29.6241 99.4933 28.9054C100.394 28.093 101.294 27.2806 102.194 26.4369C102.132 26.3119 102.039 26.2182 101.977 26.0932C100.456 25.7807 98.9656 25.4057 97.4444 25.2182C95.9232 24.9995 95.0229 24.3121 94.5572 22.8122C94.1847 21.5623 93.5948 20.3437 92.9739 18.8751C92.322 20.4687 91.7632 21.7498 91.3286 23.0622C90.925 24.3121 90.1178 24.937 88.845 25.1557C87.1996 25.437 85.6163 25.8119 84.033 26.1244Z" fill="white"/>
<path d="M26.0105 73.5891C25.9794 75.214 24.4582 76.0264 23.0612 75.2139C20.7018 73.8391 18.3424 72.4017 16.014 70.9331C15.1758 70.4019 14.586 70.3706 13.7167 70.9018C11.4815 72.3392 9.15313 73.6828 6.88685 75.089C6.11073 75.5577 5.33461 75.8076 4.4964 75.2139C3.65819 74.6203 3.5961 73.7766 3.81342 72.8079C4.31013 70.4956 4.77581 68.1521 5.17939 65.8398C5.27252 65.3711 5.05521 64.6836 4.71372 64.3399C3.47192 62.965 2.10595 61.6526 0.80207 60.3403C0.181174 59.7153 -0.222409 59.0591 0.0569946 58.1529C0.336398 57.278 1.05043 56.9343 1.91968 56.7781C4.15491 56.3719 6.39014 55.8407 8.62536 55.4344C9.43253 55.2782 9.8982 54.997 10.2086 54.1845C11.0158 51.9972 11.9161 49.8412 12.7543 47.6851C13.1579 46.6852 13.4994 45.654 14.8033 45.6228C16.1693 45.6228 16.5418 46.6852 16.9454 47.7164C17.7836 49.8412 18.6839 51.966 19.46 54.1221C19.7705 54.997 20.2672 55.2782 21.1054 55.4344C23.3716 55.8407 25.669 56.3094 27.9352 56.8093C29.7979 57.2155 30.2946 58.8091 28.9908 60.184C27.6869 61.5589 26.3209 62.9025 24.9549 64.2462C24.4582 64.7149 24.303 65.1836 24.4582 65.871C24.986 68.2146 25.4206 70.5894 25.8863 72.9641C25.9794 73.2141 26.0105 73.4329 26.0105 73.5891ZM14.8654 52.5597C14.2134 54.1533 13.6546 55.4344 13.22 56.7468C12.7854 58.0592 11.9782 58.7154 10.6433 58.9029C9.2773 59.1216 7.91133 59.4028 6.54536 59.6841C6.297 59.7466 6.07969 59.8715 5.70715 60.0278C6.70058 60.9964 7.50775 61.8401 8.34596 62.6213C9.12208 63.34 9.40148 64.1524 9.15312 65.2461C8.81163 66.6835 8.56327 68.1833 8.25283 69.9019C10.0845 68.8083 11.7298 67.9021 13.251 66.8709C14.4307 66.0585 15.4242 66.1522 16.5418 66.8709C18.094 67.8708 19.6773 68.777 21.4779 69.8707C21.1675 68.1521 20.9502 66.7147 20.5776 65.2773C20.2982 64.1524 20.5776 63.3087 21.4158 62.5588C22.3161 61.7776 23.1854 60.9652 24.0857 60.1528C22.1299 59.4653 20.3603 59.0591 18.5907 58.7466C17.6594 58.5904 17.0696 58.0905 16.7281 57.2155C16.1693 55.7469 15.5794 54.3408 14.8654 52.5597Z" fill="white"/>
<path d="M115.296 58.9964C115.079 59.3402 114.831 59.9026 114.427 60.3401C113.154 61.6837 111.788 62.9648 110.515 64.3397C110.205 64.6834 109.988 65.3709 110.05 65.8396C110.453 68.2144 110.95 70.5892 111.447 72.9327C111.633 73.8701 111.54 74.6513 110.733 75.2138C109.957 75.745 109.211 75.5887 108.466 75.12C106.107 73.6827 103.748 72.3078 101.419 70.8392C100.705 70.4017 100.177 70.3392 99.4323 70.8079C97.135 72.2765 94.8066 73.6202 92.4783 75.0263C91.6711 75.5262 90.8639 75.8075 89.9947 75.1825C89.1565 74.5576 89.1565 73.7139 89.3738 72.7765C89.8705 70.4642 90.3362 68.1206 90.7398 65.8083C90.8019 65.3709 90.6156 64.7459 90.3051 64.4022C89.0323 62.9961 87.5732 61.7462 86.3314 60.3088C85.8968 59.8089 85.5863 58.9339 85.6174 58.2465C85.6795 57.3716 86.4866 56.9966 87.3869 56.8404C89.6222 56.4029 91.8574 55.8717 94.0926 55.4967C95.024 55.3405 95.4586 54.9343 95.8001 54.0594C96.6383 51.7783 97.6007 49.4973 98.501 47.2162C98.8425 46.31 99.3702 45.6226 100.426 45.6539C101.481 45.6539 101.978 46.3725 102.319 47.2787C103.22 49.591 104.182 51.8721 105.051 54.2156C105.362 55.028 105.828 55.3405 106.635 55.4655C108.963 55.903 111.26 56.4029 113.558 56.8404C114.582 57.0279 115.203 57.6528 115.296 58.9964ZM107.038 69.8705C106.697 68.0894 106.448 66.5895 106.107 65.1209C105.89 64.1522 106.107 63.3711 106.821 62.6836C107.752 61.8399 108.684 60.965 109.832 59.9026C107.783 59.4651 106.138 59.0589 104.462 58.809C103.251 58.6215 102.537 57.9965 102.133 56.8404C101.668 55.4655 101.078 54.1531 100.426 52.5283C99.8669 53.9656 99.3081 55.0593 98.9977 56.1842C98.501 57.934 97.4144 58.7777 95.6138 58.9652C94.1857 59.0902 92.8198 59.5276 91.1744 59.8714C92.2299 60.9025 93.0681 61.7774 93.9374 62.5899C94.7135 63.3086 94.9619 64.1522 94.7135 65.2146C94.372 66.652 94.1547 68.1206 93.8132 69.8392C95.7069 68.7143 97.3523 67.7769 98.9356 66.7458C99.9911 66.0583 100.891 66.0583 101.947 66.7145C103.499 67.7769 105.145 68.7143 107.038 69.8705Z" fill="white"/>
</g>
<defs>
<clipPath id="clip0_774_709">
<rect width="160" height="128" fill="white"/>
</clipPath>
</defs>
</svg>
