<svg width="160" height="128" viewBox="0 0 160 128" fill="none" xmlns="http://www.w3.org/2000/svg">
<path d="M49.1103 120.001C42.5888 122.943 37.5251 118.723 36.9114 113.495C34.2644 113.96 31.8093 113.495 29.7378 111.675C27.7046 109.894 26.7072 107.61 26.7456 104.938C18.9966 103.389 16.6182 99.0134 19.6871 91.8112C18.6897 91.0368 17.6539 90.2623 16.5415 89.3717C16.1195 90.03 15.7742 90.6495 15.3906 91.2304C14.585 92.4307 13.6644 92.7405 12.4368 92.0435C8.63903 89.9138 4.84126 87.7841 1.04348 85.6157C-0.0306367 84.9962 -0.145721 83.9894 0.122809 82.8665C2.8081 71.1338 5.45504 59.3624 8.14033 47.591C9.32953 42.3635 10.5187 37.1361 11.7079 31.9474C12.245 29.6628 13.626 29.1982 15.4674 30.6309C23.1396 36.6327 30.8119 42.6346 38.5225 48.5977C39.7117 49.4883 39.9419 50.5726 39.4048 52.1214C45.1207 51.6568 50.6447 51.2308 56.1688 50.6887C58.6239 50.4564 61.1174 50.0692 63.5725 49.682C65.7591 49.3335 67.8306 49.7981 69.9021 50.4951C70.4775 50.6887 71.3982 50.7274 71.8585 50.4177C75.4262 48.1718 79.0705 47.9782 82.9833 49.5271C85.4768 50.5338 88.0854 51.1147 90.6172 52.044C95.0288 53.709 99.2486 53.2056 103.468 50.9598C102.778 49.2947 103.775 48.3654 104.964 47.4361C112.406 41.6666 119.81 35.8583 127.214 30.05C129.477 28.2688 130.782 28.7335 131.434 31.5989C135.27 48.4429 139.068 65.2481 142.904 82.092C143.211 83.486 142.789 84.3766 141.561 85.0736C137.994 87.0484 134.464 89.1007 130.935 91.0755C129.286 92.0048 128.48 91.7725 127.483 90.1462C126.639 88.7909 125.833 87.4356 124.72 85.6544C123.378 87.1646 122.189 88.4811 120.961 89.8364C120.309 90.5334 119.657 91.2691 118.928 91.8886C117.355 93.2439 116.434 94.7153 116.243 96.9612C115.974 100.33 113.02 103.04 109.683 103.505C109.261 103.583 108.839 103.621 108.302 103.699C108.455 106.409 107.726 108.771 105.77 110.669C103.852 112.489 101.512 113.147 98.9417 112.837C98.4813 118.529 93.993 122.401 87.5483 120.349C87.4716 120.465 87.3949 120.581 87.3565 120.736C85.9755 126.854 80.5282 129.294 75.1193 126.196C72.4723 124.686 69.787 123.137 67.1785 121.549C66.3729 121.046 65.8358 121.124 65.1837 121.782C64.3014 122.672 63.3423 123.486 62.3833 124.26C57.7032 128.21 51.2201 126.351 49.3404 120.504C49.2637 120.465 49.187 120.272 49.1103 120.001ZM65.5289 53.8639C65.4906 53.7865 65.4522 53.709 65.4138 53.5928C65.1837 53.5928 64.9919 53.5541 64.7617 53.5928C55.8235 54.9868 46.8086 55.7613 37.7553 55.9936C36.7963 56.0323 36.451 56.497 36.029 57.194C30.4283 66.4097 24.8275 75.6255 19.1884 84.8413C18.9582 85.1898 18.7664 85.577 18.5363 86.0029C19.6104 86.8161 20.6461 87.5131 21.5668 88.365C22.3724 89.1007 22.9095 88.9458 23.6 88.2488C24.4823 87.3582 25.518 86.6225 26.362 85.7319C31.6558 80.3108 39.0979 83.2924 40.5173 89.2556C40.5173 89.2943 40.594 89.2943 40.6324 89.333C47.0004 86.1578 53.0998 90.4559 53.33 96.9225C58.2786 97.2322 61.5777 100.253 61.8846 105.596C68.2526 105.867 72.3189 111.83 69.0965 118.297C71.8202 119.884 74.5055 121.511 77.2675 123.06C79.3774 124.26 81.6407 123.718 82.7915 121.821C83.9424 119.923 83.4053 117.793 81.3338 116.322C78.4951 114.347 75.6563 112.372 72.8559 110.398C70.9762 109.081 69.0582 107.765 67.2168 106.371C66.1043 105.519 65.9125 104.434 66.603 103.466C67.2552 102.537 68.3677 102.421 69.5185 103.118C69.7487 103.273 70.0172 103.428 70.2474 103.583C74.9275 106.835 79.6075 110.127 84.2876 113.379C85.7837 114.425 87.2415 115.509 88.7759 116.516C90.0802 117.368 91.4996 117.368 92.8422 116.516C94.1465 115.741 94.7219 114.502 94.6836 112.992C94.6452 111.482 93.8012 110.514 92.6504 109.701C86.6277 105.403 80.6433 101.104 74.6589 96.7676C74.0835 96.3416 73.3546 95.7221 73.2396 95.1025C73.1245 94.4443 73.4697 93.2439 73.9684 93.0116C74.6973 92.7018 75.9249 92.7405 76.577 93.1665C80.9885 96.148 85.285 99.3232 89.5815 102.421C92.2668 104.357 94.9137 106.332 97.6374 108.229C99.3636 109.43 101.512 109.159 102.931 107.803C104.274 106.448 104.658 104.357 103.622 102.769C103.161 102.072 102.471 101.492 101.78 100.988C94.5301 95.6834 87.2798 90.4172 80.0679 85.1123C78.6869 84.1056 78.38 82.9826 79.1472 81.9372C79.9144 80.8917 80.9885 80.8529 82.4079 81.8597C83.7506 82.789 85.0932 83.7184 86.3975 84.6864C92.8806 89.4104 99.3253 94.1345 105.808 98.8198C108.455 100.756 111.985 99.3619 112.407 96.1868C112.675 94.4055 111.793 93.089 110.45 91.9661C100.898 84.1443 91.3461 76.3225 81.8709 68.4233C80.3364 67.1455 79.0705 66.4872 77.3059 67.8424C76.8839 68.1522 76.3468 68.2684 75.8481 68.462C69.0198 71.0563 62.3449 71.2887 55.7851 67.5714C54.0972 66.6421 53.0615 65.2481 53.0998 63.2733C53.0998 61.221 54.2123 59.8658 55.9769 58.9752C58.3554 57.7361 60.6954 56.4583 63.0738 55.1804C63.9177 54.7545 64.7233 54.2898 65.5289 53.8639ZM122.611 82.3244C116.971 73.0699 111.332 63.8154 105.693 54.5609C105.156 54.7545 104.811 54.8707 104.466 55.0643C99.2102 57.5812 93.9163 57.7361 88.469 55.6451C85.6686 54.5609 82.7532 53.7477 79.8761 52.8184C78.3416 52.315 76.8455 52.3925 75.4262 53.1282C69.5952 56.2259 63.7643 59.3624 57.9334 62.4601C56.7825 63.0797 56.8209 63.4669 57.9334 64.1252C60.9256 65.8676 64.1479 66.5646 67.5621 66.3323C71.4366 66.0225 75.0042 64.706 78.38 62.7699C79.5692 62.0729 80.5666 62.1503 81.6407 63.041C92.6504 72.1406 103.698 81.2014 114.708 90.2623C117.278 87.7067 119.887 85.0736 122.611 82.3244ZM35.1084 51.0759C28.3184 45.7711 21.7203 40.5824 14.9687 35.3162C14.47 37.5621 13.9713 39.5369 13.5493 41.5117C10.5187 54.9094 7.48819 68.3071 4.45764 81.7048C4.34256 82.1695 4.45764 82.9439 4.76453 83.1375C7.37311 84.7251 10.0584 86.1965 12.7821 87.7454C20.2242 75.4706 27.6279 63.3507 35.1084 51.0759ZM130.129 87.0097C132.738 85.5383 135.232 84.0668 137.725 82.7116C138.569 82.2469 138.684 81.7823 138.454 80.8917C135.5 67.9973 132.585 55.0643 129.669 42.1312C129.132 39.6918 128.518 37.2523 127.943 34.6192C121.115 39.9628 114.478 45.1515 107.803 50.3789C115.284 62.6537 122.687 74.7736 130.129 87.0097ZM35.0316 109.856C35.914 109.43 36.9114 109.12 37.6402 108.5C41.0544 105.557 44.4302 102.537 47.7676 99.5168C49.609 97.8518 49.724 95.5672 48.1896 93.7473C46.6551 91.8886 44.2 91.6176 42.3203 93.2052C38.8294 96.2255 35.4153 99.3232 32.0011 102.382C30.6584 103.583 30.3516 105.248 31.0037 106.874C31.6942 108.5 33.3437 109.662 35.0316 109.856ZM44.9672 117.174C45.7728 116.825 46.7319 116.632 47.384 116.09C50.5296 113.418 53.5985 110.669 56.6291 107.881C58.2019 106.409 58.2019 104.047 56.7825 102.382C55.4015 100.756 52.9848 100.407 51.3736 101.801C48.1896 104.512 45.0823 107.3 42.0134 110.127C40.7475 111.288 40.594 112.837 41.2078 114.386C41.8216 115.974 43.241 116.942 44.9672 117.174ZM21.9888 96.3416C22.2573 98.2777 23.1396 99.5555 24.6741 100.291C26.2085 101.027 27.6663 100.756 28.9705 99.633C31.0421 97.8131 33.0752 95.9931 35.1084 94.1732C37.0264 92.4695 37.295 90.1074 35.7989 88.2875C34.2261 86.3901 31.8093 86.2353 29.8145 87.9777C27.7046 89.7977 25.5948 91.6176 23.6 93.5537C22.8711 94.3281 22.5258 95.451 21.9888 96.3416ZM52.7546 118.181C52.9848 120.001 53.7136 121.24 55.133 122.014C56.5524 122.789 58.0485 122.711 59.3144 121.704C61.3475 120.039 63.3423 118.297 65.222 116.438C66.6798 115.006 66.6414 112.605 65.2604 111.056C63.841 109.468 61.4626 109.197 59.8514 110.591C57.9334 112.218 56.0537 113.844 54.289 115.586C53.6369 116.245 53.2533 117.29 52.7546 118.181Z" fill="white"/>
</svg>
