<svg width="160" height="128" viewBox="0 0 160 128" fill="none" xmlns="http://www.w3.org/2000/svg">
<path d="M49.4214 9C49.6697 9.06208 49.949 9.1552 50.1973 9.18624C52.0597 9.37247 53.3633 10.3657 54.0773 12.0729C54.636 13.3765 54.8532 15.0527 55.8154 15.9528C56.7466 16.8219 58.4848 16.853 59.7885 17.3806C61.9923 18.3118 64.134 19.3982 66.3067 20.3604C66.7413 20.5466 67.331 20.6087 67.7656 20.4535C68.883 20.081 69.9694 19.5223 71.0868 19.0878C72.825 18.4049 74.5011 18.5601 75.8669 19.8327C77.6982 21.5399 79.4985 23.3091 81.2056 25.1715C82.4782 26.5372 82.6334 28.2133 81.9506 29.9515C81.4229 31.2862 80.3986 32.6209 80.4296 33.8935C80.4607 35.1972 81.6402 36.4077 82.1989 37.7114C83.068 39.8221 83.844 41.9638 84.5579 44.1365C84.8372 45.0056 85.2407 45.5023 86.1098 45.7816C87.1031 46.092 88.0653 46.5266 89.0275 46.9301C90.6416 47.644 91.728 48.8545 91.8211 50.6237C91.9452 53.2931 91.9452 55.9625 91.8211 58.6319C91.728 60.4011 90.6416 61.6117 89.0275 62.2945C87.6928 62.8843 85.9857 63.1326 85.0855 64.0948C84.2164 65.026 84.2164 66.7642 83.6577 68.0678C82.7576 70.2096 81.7022 72.2582 80.7711 74.3999C80.5538 74.8965 80.4917 75.5794 80.6469 76.076C80.9883 77.1313 81.516 78.1556 81.9506 79.1799C82.6955 80.9802 82.5093 82.6874 81.1746 84.1462C79.6537 85.7913 78.0706 87.4053 76.4256 88.9263C75.8048 89.485 75.6806 89.8885 76.0221 90.6645C79.1881 97.8035 82.292 104.974 85.3959 112.144C86.6685 115.061 86.0788 117.886 83.875 119.717C82.6024 120.804 81.0815 121.145 79.4364 121.145C77.0463 121.145 74.6253 121.083 72.2353 121.176C71.5834 121.207 70.8074 121.518 70.3419 121.952C68.914 123.225 67.6414 124.622 66.2757 125.925C62.8924 129.246 58.0192 128.377 56.0327 124.063C53.053 117.576 50.1042 111.026 47.1555 104.539C46.9692 104.136 46.752 103.732 46.4726 103.111C46.1933 103.67 45.976 104.073 45.7897 104.477C42.81 111.026 39.8612 117.576 36.8815 124.125C35.4847 127.198 32.4739 128.688 29.4631 127.694C28.4698 127.384 27.5386 126.732 26.7316 126.018C25.2728 124.715 23.9381 123.225 22.5103 121.89C22.0757 121.487 21.3928 121.207 20.8031 121.176C18.351 121.083 15.9299 121.145 13.4778 121.145C8.2632 121.114 5.5007 116.831 7.58034 112.051C10.6843 104.912 13.7572 97.8035 16.8921 90.6955C17.2336 89.9195 17.0784 89.516 16.4886 88.9573C14.8746 87.4674 13.3537 85.8844 11.8327 84.2704C10.436 82.7805 10.0324 80.9492 11.0257 79.242C12.5466 76.6037 12.4846 74.3378 10.8395 71.6994C9.56685 69.6509 9.07023 67.1056 8.17008 64.8087C7.98385 64.3742 7.61138 63.9086 7.20787 63.6913C6.21461 63.1947 5.12823 62.8532 4.10393 62.4187C2.33469 61.7048 1.1552 60.4322 1.09312 58.5077C0.968961 55.9315 0.968961 53.3242 1.09312 50.7479C1.18624 48.8855 2.27261 47.4267 4.04185 46.9611C6.99059 46.1851 8.54256 44.54 9.22542 41.4982C9.75309 39.1702 11.2119 37.0906 12.1742 34.8558C12.3914 34.3591 12.4535 33.6763 12.2983 33.1796C11.9258 32.0312 11.3671 30.9758 10.9326 29.8584C10.2808 28.2133 10.467 26.5993 11.6465 25.2956C13.4157 23.4022 15.2471 21.5709 17.1404 19.8017C18.4441 18.5912 20.0581 18.467 21.7032 19.0878C22.8517 19.5223 23.9691 20.1121 25.1176 20.5156C25.5521 20.6708 26.1729 20.6397 26.5764 20.4225C29.6493 18.6843 32.8774 17.3185 36.2917 16.4184C36.7263 16.2942 37.1919 15.8597 37.4091 15.4562C37.8747 14.525 38.2162 13.5317 38.5886 12.5695C39.2715 10.4899 40.6372 9.31039 42.81 9.1552C42.9962 9.1552 43.1824 9.06208 43.3687 9C45.3862 9 47.4038 9 49.4214 9ZM19.965 22.6573C19.7478 22.7504 19.5305 22.8125 19.3753 22.9677C17.8233 24.4886 16.2713 25.9785 14.7815 27.5615C14.5642 27.8098 14.5642 28.4306 14.7194 28.8031C15.2781 30.2619 15.8989 31.6587 16.5197 33.0865C16.8921 33.9556 16.8301 34.7316 16.3334 35.5076C14.0986 38.984 12.5466 42.7708 11.6465 46.8059C11.4292 47.8302 10.8395 48.42 9.90829 48.7614C8.5736 49.258 7.26994 49.8478 5.93525 50.3444C5.22135 50.5927 4.84888 50.9962 4.87992 51.7722C4.91096 53.6656 4.87992 55.559 4.87992 57.4524C4.87992 58.1663 5.15927 58.5698 5.87317 58.8181C7.26994 59.3148 8.60464 59.9355 9.97037 60.4322C10.9326 60.8046 11.4913 61.4254 11.7086 62.4187C12.6087 66.4228 14.1607 70.1475 16.3645 73.6239C16.9232 74.493 16.9853 75.331 16.5507 76.2622C15.9299 77.628 15.3091 79.0247 14.8125 80.4215C14.6883 80.794 14.7504 81.4768 14.9987 81.7562C16.3955 83.2461 17.8544 84.7049 19.3442 86.1017C19.6236 86.35 20.2754 86.4431 20.6479 86.2879C22.0757 85.7603 23.4414 85.1395 24.8072 84.5187C25.7383 84.1152 26.5764 84.1152 27.4455 84.6739C30.9219 86.9087 34.7087 88.4607 38.7438 89.3608C39.675 89.5781 40.2647 90.0747 40.5751 90.9438C41.1339 92.3406 41.7236 93.7374 42.2513 95.1341C42.4996 95.817 42.841 96.1274 43.586 96.1274C45.5104 96.0964 47.4659 96.1584 49.3903 96.0653C49.8249 96.0343 50.4456 95.5997 50.6319 95.1962C51.2527 93.9236 51.7803 92.5889 52.2459 91.2232C52.6494 90.1368 53.3013 89.5471 54.4497 89.2677C58.3607 88.3986 62.0233 86.8777 65.4066 84.7049C66.3067 84.1152 67.1758 84.0841 68.1381 84.5187C69.4728 85.1084 70.8074 85.7292 72.2042 86.2259C72.6077 86.3811 73.3216 86.319 73.601 86.0396C75.0909 84.6739 76.5187 83.2461 77.8534 81.7872C78.1327 81.4768 78.2258 80.7629 78.0706 80.3594C77.543 78.9006 76.798 77.5348 76.3324 76.076C76.1152 75.3931 76.1152 74.3999 76.4566 73.8101C78.6604 70.2096 80.2745 66.3917 81.2056 62.2635C81.4229 61.3323 81.9506 60.8046 82.8197 60.4632C84.1854 59.9666 85.5511 59.3458 86.9169 58.8492C87.6308 58.6009 87.9722 58.1663 87.9722 57.3903C87.9412 55.4969 87.9412 53.6035 87.9722 51.7101C87.9722 50.9341 87.5997 50.5306 86.8858 50.2823C85.5822 49.8167 84.3096 49.227 83.0059 48.7614C81.9506 48.3889 81.3608 47.706 81.1125 46.6197C80.2434 42.6466 78.6914 38.953 76.5187 35.5386C75.96 34.6695 75.8979 33.8625 76.3324 32.9003C76.9532 31.5656 77.543 30.2309 78.0396 28.8341C78.1948 28.3996 78.1327 27.6236 77.8534 27.3132C76.5187 25.8544 75.1219 24.4576 73.6631 23.1229C73.3527 22.8435 72.6077 22.7504 72.1421 22.9056C70.7143 23.4022 69.3486 24.023 67.9829 24.6438C67.0827 25.0473 66.3067 24.9853 65.4687 24.4576C62.0233 22.2538 58.2986 20.6708 54.2945 19.8017C53.2392 19.5844 52.5874 18.9947 52.2459 18.0014C51.7493 16.6357 51.2216 15.2389 50.6008 13.9353C50.4146 13.5317 49.8559 13.0972 49.4524 13.0662C47.4348 12.973 45.4173 12.973 43.4308 13.0662C43.0272 13.0972 42.4685 13.5317 42.2823 13.9042C41.6615 15.1768 41.1339 16.5115 40.6683 17.8772C40.2648 19.0257 39.4888 19.4913 38.3403 19.8638C35.3605 20.9191 32.2566 21.6951 29.6803 23.2781C26.9489 24.9853 24.652 25.1405 22.0136 23.5264C21.4239 23.1539 20.6789 22.9367 19.965 22.6573ZM43.3376 100.1C40.6683 99.9763 39.1473 98.6726 38.3713 96.3757C38.092 95.5377 37.7816 94.6996 37.3471 93.9236C37.0987 93.4891 36.6331 93.0545 36.1676 92.8683C33.7775 91.9061 31.1392 91.3473 28.9664 90.0437C26.5143 88.5538 24.4037 88.4607 22.1067 89.9506C21.6412 90.261 21.0824 90.6645 20.8652 91.1611C17.606 98.5795 14.378 106.029 11.1499 113.478C10.1256 115.806 10.9947 117.141 13.5709 117.172C16.0851 117.172 18.5993 117.203 21.1135 117.172C22.6344 117.172 23.907 117.7 24.9624 118.755C26.3591 120.152 27.7559 121.549 29.1527 122.945C30.8288 124.59 32.3187 124.311 33.3119 122.169C35.1433 118.134 36.9746 114.068 38.8059 110.033C40.3268 106.774 41.8167 103.515 43.3376 100.1ZM49.5145 100.1C49.5765 100.318 49.5765 100.442 49.6386 100.566C52.9598 107.891 56.281 115.217 59.6333 122.511C60.4403 124.249 62.0233 124.497 63.389 123.163C64.8169 121.797 66.2136 120.4 67.5794 118.972C68.8209 117.669 70.2798 117.11 72.049 117.141C74.408 117.172 76.767 117.172 79.126 117.141C81.7643 117.141 82.6024 115.837 81.5471 113.416C78.7225 106.898 75.8979 100.38 73.0423 93.8615C71.4593 90.1989 71.4593 90.1989 67.7656 88.7711C67.331 88.6159 66.7413 88.678 66.3067 88.8642C63.7926 89.9506 61.4025 91.4094 58.7642 92.1233C56.3431 92.7751 55.0395 93.9546 54.3876 96.3136C53.7979 98.6416 52.1528 100.007 49.5145 100.1Z" fill="white"/>
<path d="M14.6583 54.659C14.6272 37.1839 28.8122 22.9058 46.2563 22.9058C63.8866 22.9058 78.1026 37.0597 78.1026 54.69C78.1026 72.1031 63.8866 86.2881 46.3804 86.3502C28.9984 86.4122 14.6893 72.1341 14.6583 54.659ZM74.1296 54.5969C74.2227 39.4808 61.8691 26.9719 46.7219 26.8478C31.2643 26.7236 18.7865 38.9531 18.6623 54.4107C18.5071 69.682 30.9849 82.284 46.2563 82.3771C61.5897 82.4392 74.0365 70.0545 74.1296 54.5969Z" fill="white"/>
<path d="M38.527 58.1043C40.079 56.5213 41.5999 54.9693 43.1208 53.4484C46.6904 49.8478 50.2599 46.2473 53.8915 42.7088C57.2437 39.4186 62.5515 40.6602 63.8862 45.0057C64.538 47.1785 64.1345 49.196 62.5515 50.8101C55.9401 57.4835 49.2977 64.157 42.5932 70.7683C40.2342 73.0963 36.7267 73.0032 34.3057 70.7373C33.002 69.4957 31.6984 68.1921 30.4568 66.8884C28.1599 64.5605 27.9426 61.3013 29.867 58.8803C31.7915 56.4592 35.1748 55.9626 37.9062 57.6697C38.0304 57.7629 38.1856 57.887 38.527 58.1043ZM60.5029 46.5577C60.0062 45.9679 59.6338 45.1609 59.0751 44.9747C58.4543 44.7574 57.4921 44.9126 56.9644 45.2851C55.878 46.0921 55.0089 47.1474 54.0467 48.1096C49.4529 52.7035 44.859 57.2973 40.2652 61.8911C38.9616 63.1947 37.9993 63.1947 36.6957 61.9221C36.5095 61.7359 36.3232 61.5497 36.1059 61.3634C35.1127 60.4012 33.9642 60.3391 33.1262 61.1772C32.2881 62.0153 32.3502 63.1637 33.3124 64.157C34.4609 65.3365 35.6404 66.516 36.8509 67.6954C37.9373 68.7818 38.9926 68.7818 40.079 67.6954C46.5352 61.2393 52.9913 54.7831 59.4475 48.3269C59.851 47.8613 60.0683 47.2716 60.5029 46.5577Z" fill="white"/>
</svg>
