<svg width="160" height="128" viewBox="0 0 160 128" fill="none" xmlns="http://www.w3.org/2000/svg">
<g clip-path="url(#clip0_804_17)">
<path d="M34.9382 61.7689C38.8483 61.5099 41.933 60.9486 44.1053 60.4737C45.1914 60.2146 46.1472 60.0851 47.103 59.9988C49.0581 59.8261 50.0574 59.9556 50.4049 59.9988C51.4476 60.1715 52.2731 60.4305 52.7945 60.6895C52.9248 59.2648 53.0551 57.84 53.142 56.4153C51.4042 56.1131 49.927 56.0699 48.754 56.1131C46.9727 56.1994 45.2783 56.5016 43.1929 56.9334C40.9337 57.4083 39.9779 57.7537 38.8917 57.7105C38.327 57.7105 38.0228 57.581 37.8056 57.581C35.2423 57.2356 32.7659 63.3664 29.8984 66.4317C32.0273 65.5683 33.852 63.9708 34.9382 61.7689Z" fill="white"/>
<path d="M160.064 65.5252C159.412 60.5601 157.457 56.1563 152.939 53.3932C150.853 52.0979 149.724 50.371 149.42 48.0827C149.202 46.4853 149.202 44.8446 149.289 43.2472C149.463 39.6637 149.984 36.0802 149.984 32.4968C149.984 29.7336 148.594 27.359 145.901 26.4092C143.468 25.5457 142.946 24.2504 143.12 21.919C143.337 19.1559 142.034 17.1698 139.644 16.5222C137.82 16.0473 135.821 15.9178 133.909 16.0473C131.954 16.1768 130.347 17.8606 130.781 19.674C131.52 23.0416 130.912 26.1933 130.13 29.3882C130.13 29.4314 130.13 29.4745 130.13 29.5609C130.217 31.2879 129.521 32.6694 128.088 33.5329C125.394 35.2167 122.7 36.9005 119.876 38.3685C117.965 39.3615 116.531 40.5704 115.532 42.1678C114.489 43.8516 115.271 45.4922 114.185 46.2262C113.273 46.8307 112.404 46.2262 110.666 46.3557C109.362 46.4421 107.842 46.9602 106.147 48.3418C105.279 48.7735 103.845 49.4211 102.064 50.2846C99.5437 51.4935 98.8485 51.8389 97.6321 52.3138C96.2852 52.8319 94.8515 53.1773 93.0268 53.6954C93.8957 52.3138 94.5474 51.4503 95.0253 50.5005C95.8073 49.0326 95.6335 47.6078 94.504 46.3126C93.3744 45.0173 91.9841 45.0173 90.5069 45.5786C89.2035 46.0535 87.9002 46.6148 86.5099 46.9602C84.3376 47.4783 83.7728 47.7805 83.0342 48.5145C82.4694 49.0757 82.1653 49.6802 81.9915 50.1119C82.7735 51.1049 83.599 52.0979 84.381 53.0909C86.5099 52.0116 88.6822 50.8891 90.811 49.8097C90.0725 50.9322 89.4642 51.7525 88.9429 52.7024C88.2912 53.9544 88.2477 55.077 88.7256 55.8973C89.3339 56.9335 90.6373 57.2357 91.5062 57.4084C95.1556 58.0992 98.7182 56.3722 100.413 55.3792C100.934 54.3862 103.628 49.5506 108.841 47.5646C111.361 46.6148 113.316 45.8808 115.488 46.5284C116.314 46.7875 117.313 47.3056 118.008 46.8307C118.703 46.3557 118.225 45.3196 118.877 44.2402C119.529 43.204 120.485 42.4269 121.745 41.7793C124.612 40.2681 127.393 38.6275 130.086 36.8574C132.563 35.2167 133.996 32.8421 133.953 29.7768C133.953 29.5177 133.909 29.2155 134.04 28.9564C135.3 26.0206 135.951 23.0416 134.257 19.8898C134.387 19.7603 134.561 19.674 134.691 19.5444C135.864 19.7171 137.081 19.7603 138.254 20.0625C138.688 20.192 139.036 20.8828 139.21 21.3578C139.384 21.7895 139.297 22.3076 139.253 22.7825C138.862 26.1069 139.948 28.4384 143.424 29.3882C145.249 29.9063 146.248 31.2879 146.205 33.1444C146.161 35.4326 145.727 37.764 145.683 40.0523C145.596 43.204 145.466 46.3989 145.814 49.5075C146.161 52.6592 148.116 54.9906 150.94 56.5881C153.33 57.9265 155.676 61.8553 155.502 64.8776C153.938 63.2369 152.2 61.7258 150.81 59.9125C149.507 58.2287 148.681 56.1563 147.421 54.4294C146.422 53.0478 145.249 51.7094 143.902 50.7595C142.121 49.5506 140.209 50.5437 139.731 52.6592C139.601 53.1773 139.557 53.7386 139.557 54.2567C139.514 57.2789 138.602 59.9989 137.385 62.762C135.604 66.7341 135.387 71.1379 135.865 75.4121C136.212 78.607 138.297 80.1613 141.599 80.1613C142.338 80.1613 143.12 80.1613 143.902 80.1613C144.988 83.313 146.248 86.4648 147.204 89.7028C148.638 94.5816 147.378 99.2876 146.074 103.994C146.031 104.209 145.901 104.382 145.814 104.598C145.596 104.555 145.336 104.512 145.118 104.425C144.988 103.389 144.641 102.353 144.727 101.317C145.118 96.3517 143.033 93.6749 138.037 93.0705C137.646 93.0273 137.298 92.8978 136.907 92.9409C135.082 93.0704 133.779 92.4228 132.519 90.9117C130.564 88.6235 127.784 88.7962 125.133 89.487C122.657 90.1346 121.875 92.1206 121.701 94.452C121.614 95.6177 121.527 96.8266 121.484 97.9923C121.44 98.9853 120.963 99.4171 119.963 99.7625C118.008 100.453 116.183 101.489 114.228 102.267C113.316 102.612 112.273 103.001 111.361 102.828C108.885 102.353 106.495 102.482 104.192 103.519C102.889 104.08 101.716 104.08 100.499 103.346C98.0665 101.792 95.5467 101.964 93.1137 103.303C91.9406 103.95 90.811 104.166 89.4208 104.037C88.2912 103.95 87.0312 104.468 85.9451 105.03C81.9915 107.102 77.8207 107.663 73.5196 106.843C70.9997 106.368 69.1315 104.9 67.8281 102.655C67.3068 101.705 66.742 100.799 66.1337 99.892C64.7869 97.9492 63.0056 96.7403 60.5292 97.0425C59.5734 97.1288 59.1389 96.7834 58.8348 95.9631C57.9659 93.7612 56.315 92.6819 53.9689 92.2501C52.3179 91.9479 50.667 91.2571 49.1898 90.4368C47.1479 89.3143 45.4535 89.4006 43.455 90.739C41.1958 92.2501 39.1973 93.8476 38.589 97.2584C37.1987 95.6177 36.156 94.3657 35.1568 93.0705C32.8976 90.0914 29.8564 88.494 26.2069 88.1917C23.3395 87.9759 20.8631 89.2711 19.4293 91.6025C17.6046 94.5816 16.2578 97.7765 14.8241 100.971C14.0855 102.612 13.6076 104.382 12.869 106.411C12.1304 105.505 11.4353 104.9 11.0877 104.209C8.82853 99.8057 6.5259 95.4019 4.44049 90.9117C3.48468 88.8394 4.22326 87.8895 6.48245 87.6736C11.1746 87.1987 12.9559 84.9537 12.3477 80.2477C12.087 78.0458 11.6091 75.887 11.4353 73.6851C11.1312 70.1017 11.4353 66.5614 12.8256 63.2369C13.7379 61.0782 14.7806 59.9125 15.5192 59.3081C15.7799 59.0922 16.084 58.8763 16.084 58.8763C16.3447 58.7036 16.5619 58.5741 16.8226 58.4446C16.1709 57.4084 15.4323 56.329 14.6937 55.077C11.7829 57.2789 10.3057 59.6103 9.52367 61.035C9.13265 61.8122 6.96036 67.7271 7.48171 73.9874C7.65549 76.2324 8.1334 78.4775 8.43752 80.6794C8.74164 83.054 8.30718 83.5721 6.00455 83.8311C1.31238 84.3924 -1.20748 87.7168 0.573802 91.9047C2.78955 97.0857 5.52664 102.051 8.22029 107.016C8.78509 108.095 9.87124 109.045 10.9139 109.736C12.8256 111.074 14.911 110.513 15.9971 108.527C16.5619 107.491 16.9095 106.368 17.3439 105.246C18.5604 102.18 19.5162 99.0285 20.9934 96.1358C23.3395 91.473 26.5979 90.9117 30.7253 94.193C31.1598 94.5384 31.5073 95.0565 31.8983 95.4882C33.2017 96.913 34.3313 98.5536 35.8085 99.8057C38.2849 101.921 40.8482 101.317 42.0647 98.2946C42.8033 96.5244 43.7591 95.186 45.41 94.1498C46.2789 93.6317 46.7569 93.7181 47.5823 94.1066C49.1898 94.8838 50.7973 95.7041 52.4917 96.0495C54.0558 96.3517 55.0116 96.913 55.6198 98.3809C56.3584 100.194 57.7052 101.36 59.7906 101.015C61.6154 100.712 62.6581 101.533 63.4401 103.001C63.8311 103.735 64.2656 104.382 64.6566 105.073C66.5248 108.052 69.1315 110.081 72.6072 110.729C77.951 111.722 83.0342 111.074 87.8567 108.441C88.2477 108.225 88.8125 107.879 89.1601 107.966C91.3324 108.527 93.2006 107.707 95.0253 106.714C96.1549 106.066 97.2845 106.023 98.4141 106.714C100.76 108.181 103.15 108.095 105.713 107.188C107.147 106.67 108.885 106.627 110.449 106.843C112.795 107.188 114.75 106.714 116.705 105.375C117.965 104.512 119.485 103.95 120.963 103.562C123.135 103.001 124.569 101.835 125.003 99.633C125.264 98.2514 125.22 96.8266 125.481 95.4882C125.655 94.6679 125.959 93.459 126.524 93.2863C127.74 92.8546 129.261 92.7682 130.173 94.1498C131.433 96.0927 133.214 96.9561 135.56 96.8266C136.299 96.7834 137.081 96.9561 137.82 97.0425C140.383 97.4311 140.904 98.3377 140.861 100.842C140.817 102.569 141.078 104.382 141.686 105.98C142.295 107.663 143.945 108.441 145.77 108.311C147.595 108.181 148.898 107.232 149.637 105.548C149.898 104.9 150.028 104.209 150.245 103.519C152.157 96.7403 152.374 90.0482 149.159 83.5289C148.681 82.5359 148.377 81.4134 148.073 80.334C146.813 75.9734 146.813 75.9734 142.338 76.3188C142.295 76.3188 142.251 76.3188 142.164 76.3188C140.166 76.4483 139.775 76.1461 139.601 74.1601C139.557 73.5124 139.514 72.8648 139.557 72.2172C139.948 68.5906 140.079 64.9639 142.077 61.6395C142.903 60.3011 142.903 58.4446 143.25 56.8039C143.337 56.4585 143.381 56.07 143.468 55.2928C144.206 56.5881 144.684 57.5379 145.292 58.4446C146.769 60.6033 148.116 62.9347 149.941 64.8344C151.462 66.4318 153.46 67.7702 155.459 68.6337C158.022 69.929 160.411 68.202 160.064 65.5252Z" fill="white"/>
<path d="M27.5973 67.986C28.4228 67.7702 29.2048 67.1657 29.9869 66.3454C28.9876 66.734 27.9449 66.9067 26.9022 66.8635C22.6011 66.6908 18.7778 62.8051 18.604 57.7969C18.1261 57.9264 17.4744 58.1423 16.7793 58.5308C22.1666 66.6908 25.4685 68.5041 27.5973 67.986Z" fill="white"/>
<path d="M26.7274 27.834C32.3319 27.834 36.9806 32.4105 36.9806 37.98C37.024 43.679 32.3753 48.2987 26.6405 48.2987C21.0359 48.2987 16.4307 43.679 16.4307 38.1095C16.4307 32.4105 21.0359 27.834 26.7274 27.834ZM26.7274 45.3628C30.7678 45.3628 34.0697 42.1247 34.1132 38.1527C34.1566 34.0511 30.8547 30.7698 26.7274 30.7698C22.7303 30.7698 19.4284 34.0511 19.4284 38.0231C19.385 42.0384 22.6434 45.3628 26.7274 45.3628Z" fill="white"/>
<path d="M8.78686 45.7512C9.482 47.5213 10.5247 49.8527 12.0453 53.1772C15.4775 59.5238 20.1697 64.8774 25.557 69.6698C26.4259 70.4469 27.0342 70.4469 27.9031 69.6698C33.3338 64.8342 38.026 59.4374 41.5451 53.0908C43.4133 49.1188 44.3256 46.3988 45.0642 44.2832C45.8028 41.2178 46.1504 38.1093 45.5856 34.9575C43.7174 24.682 34.7675 18.0763 24.3405 19.2421C14.1742 20.3214 6.44078 30.0357 7.74416 40.0521C8.00483 41.9518 8.39585 43.8515 8.78686 45.7512ZM25.4267 22.0484C33.5945 21.2281 41.2844 27.0998 42.6747 35.3461C43.4567 40.0953 42.2402 44.5423 40.3286 48.9029C38.5908 52.7886 36.2881 56.3289 33.5511 59.567C31.4656 62.0711 29.163 64.4025 26.9038 66.9066C23.7323 64.0139 20.9517 61.0781 18.6056 57.84C16.9113 55.4654 15.3038 53.0045 13.9135 50.4572C11.915 46.701 10.6116 42.6858 10.5681 38.3683C10.4813 29.8198 16.8244 22.8255 25.4267 22.0484Z" fill="white"/>
<path d="M115.576 53.4795C121.181 53.4795 125.786 58.0128 125.786 63.5823C125.83 69.2813 121.181 73.8578 115.49 73.8578C109.929 73.8578 105.323 69.2813 105.323 63.7118C105.323 58.0128 109.885 53.4795 115.576 53.4795ZM115.533 70.922C119.53 70.922 122.832 67.6839 122.875 63.755C122.919 59.6966 119.617 56.3722 115.533 56.4154C111.536 56.4154 108.278 59.6534 108.234 63.6687C108.234 67.6407 111.493 70.922 115.533 70.922Z" fill="white"/>
<path d="M97.6765 71.3105C98.3717 73.0375 99.4144 75.4121 100.935 78.6934C104.324 85.04 109.016 90.3505 114.403 95.0996C115.272 95.8336 115.88 95.8336 116.749 95.0996C122.18 90.3073 126.829 84.9105 130.348 78.5638C132.216 74.5918 133.085 71.8718 133.824 69.7994C134.562 66.7341 134.91 63.6687 134.345 60.5169C132.477 50.3278 123.57 43.7221 113.187 44.8446C103.064 45.924 95.3304 55.5951 96.6338 65.5683C96.8945 67.5112 97.2855 69.4109 97.6765 71.3105ZM114.273 47.6941C122.397 46.917 130.044 52.7455 131.434 60.9487C132.216 65.6979 131.043 70.1017 129.088 74.4191C127.35 78.3048 125.047 81.8019 122.354 85.04C120.268 87.5441 118.009 89.8755 115.75 92.3365C112.578 89.4438 109.798 86.5511 107.495 83.2699C105.801 80.8953 104.193 78.4343 102.847 75.887C100.848 72.1309 99.5882 68.1588 99.5447 63.8414C99.3709 55.4224 105.714 48.5145 114.273 47.6941Z" fill="white"/>
<path d="M69.7401 51.1914C75.3012 51.1914 79.9064 55.7247 79.9064 61.2079C79.9499 66.8637 75.3446 71.4402 69.6532 71.4402C64.1355 71.4402 59.5303 66.8637 59.5303 61.3806C59.5303 55.7247 64.0487 51.1914 69.7401 51.1914ZM69.6966 68.5475C73.6937 68.5475 76.9521 65.3526 76.9955 61.4237C77.039 57.3653 73.7371 54.0841 69.6966 54.1273C65.743 54.1273 62.4846 57.3653 62.4412 61.3374C62.3977 65.2663 65.6562 68.5043 69.6966 68.5475Z" fill="white"/>
<path d="M51.9281 68.8924C52.6233 70.6194 53.666 72.9508 55.1431 76.2321C58.5319 82.5356 63.1806 87.846 68.5245 92.552C69.3934 93.286 70.0016 93.286 70.8706 92.552C76.2579 87.7597 80.9066 82.406 84.3823 76.1458C86.2504 72.2169 87.1194 69.4969 87.8579 67.4245C88.5965 64.4023 88.9441 61.3369 88.3793 58.1852C86.5546 48.0392 77.6916 41.4767 67.3514 42.5992C57.3154 43.6786 49.6255 53.2633 50.8854 63.2366C51.1461 65.1363 51.5371 67.0359 51.9281 68.8924ZM68.3941 45.4487C76.4751 44.6716 84.0781 50.5001 85.4684 58.6169C86.2504 63.3229 85.0774 67.7267 83.1223 72.001C81.3845 75.8435 79.1253 79.3407 76.4316 82.5787C74.3462 85.0397 72.0871 87.3711 69.8713 89.832C66.6998 86.9825 63.9627 84.0898 61.66 80.8518C59.9656 78.5203 58.4016 76.0594 57.0113 73.5121C55.0128 69.7991 53.7529 65.8271 53.7094 61.5528C53.6225 53.1338 59.8787 46.2259 68.3941 45.4487Z" fill="white"/>
</g>
<defs>
<clipPath id="clip0_804_17">
<rect width="160" height="128" fill="white"/>
</clipPath>
</defs>
</svg>
