<svg width="159" height="98" viewBox="0 0 159 98" fill="none" xmlns="http://www.w3.org/2000/svg">
<g clip-path="url(#clip0_804_17)">
<path d="M34.7201 48.6837C38.6058 48.4247 41.6712 47.8634 43.8299 47.3885C44.9093 47.1294 45.8591 46.9999 46.809 46.9135C48.7518 46.7409 49.7448 46.8704 50.0902 46.9135C51.1264 47.0862 51.9467 47.3453 52.4648 47.6043C52.5944 46.1796 52.7239 44.7548 52.8102 43.3301C51.0833 43.0279 49.6153 42.9847 48.4496 43.0279C46.6795 43.1142 44.9957 43.4164 42.9233 43.8482C40.6782 44.3231 39.7284 44.6685 38.649 44.6253C38.0878 44.6253 37.7855 44.4958 37.5697 44.4958C35.0224 44.1504 32.5614 50.2812 29.7119 53.3465C31.8275 52.483 33.6408 50.8856 34.7201 48.6837Z" fill="white"/>
<path d="M159.063 52.44C158.416 47.4749 156.473 43.0711 151.983 40.308C149.911 39.0127 148.788 37.2858 148.486 34.9975C148.27 33.4001 148.27 31.7594 148.356 30.162C148.529 26.5785 149.047 22.995 149.047 19.4115C149.047 16.6484 147.665 14.2738 144.989 13.324C142.571 12.4605 142.053 11.1652 142.225 8.83382C142.441 6.07065 141.146 4.08463 138.772 3.43701C136.958 2.96209 134.972 2.83257 133.073 2.96209C131.13 3.09162 129.532 4.77542 129.964 6.58875C130.698 9.95635 130.093 13.1081 129.316 16.303C129.316 16.3462 129.316 16.3893 129.316 16.4757C129.403 18.2027 128.712 19.5842 127.287 20.4477C124.61 22.1315 121.933 23.8153 119.127 25.2833C117.227 26.2763 115.803 27.4852 114.81 29.0826C113.774 30.7664 114.551 32.407 113.471 33.141C112.565 33.7454 111.701 33.141 109.974 33.2705C108.679 33.3569 107.168 33.875 105.484 35.2566C104.621 35.6883 103.196 36.3359 101.426 37.1994C98.9215 38.4083 98.2307 38.7537 97.0219 39.2286C95.6835 39.7467 94.2587 40.0921 92.4454 40.6102C93.3089 39.2286 93.9565 38.3651 94.4314 37.4153C95.2085 35.9473 95.0358 34.5226 93.9133 33.2274C92.7908 31.9321 91.4092 31.9321 89.9413 32.4934C88.646 32.9683 87.3508 33.5296 85.9692 33.875C83.8105 34.3931 83.2492 34.6953 82.5153 35.4293C81.954 35.9905 81.6518 36.595 81.4791 37.0267C82.2562 38.0197 83.0765 39.0127 83.8537 40.0057C85.9692 38.9264 88.1279 37.8038 90.2435 36.7245C89.5095 37.847 88.9051 38.6673 88.387 39.6172C87.7394 40.8692 87.6962 41.9918 88.1711 42.8121C88.7755 43.8483 90.0708 44.1505 90.9343 44.3232C94.5609 45.014 98.1012 43.287 99.785 42.294C100.303 41.301 102.98 36.4654 108.161 34.4794C110.665 33.5296 112.608 32.7956 114.767 33.4432C115.587 33.7023 116.58 34.2204 117.271 33.7455C117.961 33.2705 117.487 32.2343 118.134 31.155C118.782 30.1188 119.732 29.3417 120.984 28.694C123.833 27.1829 126.596 25.5423 129.273 23.7722C131.734 22.1315 133.159 19.7569 133.116 16.6916C133.116 16.4325 133.072 16.1303 133.202 15.8712C134.454 12.9354 135.102 9.95635 133.418 6.80462C133.547 6.67509 133.72 6.58875 133.85 6.45922C135.015 6.63192 136.224 6.67509 137.39 6.97732C137.822 7.10684 138.167 7.79763 138.34 8.27255C138.512 8.70429 138.426 9.22238 138.383 9.6973C137.994 13.0217 139.074 15.3532 142.528 16.303C144.341 16.8211 145.334 18.2027 145.291 20.0592C145.248 22.3474 144.816 24.6788 144.773 26.9671C144.686 30.1188 144.557 33.3137 144.902 36.4223C145.248 39.574 147.191 41.9054 149.997 43.5029C152.371 44.8413 154.703 48.7701 154.53 51.7924C152.976 50.1517 151.249 48.6406 149.867 46.8273C148.572 45.1435 147.752 43.0711 146.5 41.3441C145.507 39.9626 144.341 38.6242 143.003 37.6743C141.232 36.4654 139.333 37.4584 138.858 39.574C138.728 40.0921 138.685 40.6534 138.685 41.1714C138.642 44.1937 137.735 46.9136 136.526 49.6768C134.756 53.6489 134.54 58.0526 135.015 62.3269C135.361 65.5218 137.433 67.0761 140.714 67.0761C141.448 67.0761 142.225 67.0761 143.003 67.0761C144.082 70.2278 145.334 73.3796 146.284 76.6176C147.709 81.4963 146.457 86.2024 145.161 90.9084C145.118 91.1242 144.989 91.2969 144.902 91.5128C144.686 91.4696 144.427 91.4265 144.211 91.3401C144.082 90.3039 143.737 89.2677 143.823 88.2316C144.211 83.2665 142.139 80.5897 137.174 79.9852C136.786 79.9421 136.44 79.8125 136.052 79.8557C134.238 79.9852 132.943 79.3376 131.691 77.8265C129.748 75.5383 126.985 75.711 124.351 76.4018C121.89 77.0494 121.113 79.0354 120.94 81.3668C120.854 82.5325 120.768 83.7414 120.725 84.9071C120.681 85.9001 120.207 86.3319 119.214 86.6773C117.271 87.3681 115.457 88.4043 113.514 89.1814C112.608 89.5268 111.572 89.9154 110.665 89.7427C108.204 89.2677 105.829 89.3973 103.541 90.4335C102.246 90.9947 101.08 90.9947 99.8714 90.2608C97.4536 88.7065 94.9495 88.8792 92.5317 90.2176C91.366 90.8652 90.2435 91.0811 88.8619 90.9515C87.7394 90.8652 86.4873 91.3833 85.4079 91.9446C81.4791 94.0169 77.3343 94.5782 73.0601 93.7579C70.5559 93.283 68.6994 91.815 67.4042 89.57C66.8861 88.6201 66.3248 87.7135 65.7204 86.8068C64.382 84.864 62.6119 83.6551 60.1509 83.9573C59.2011 84.0436 58.7693 83.6982 58.4671 82.8779C57.6036 80.676 55.963 79.5967 53.6316 79.1649C51.9909 78.8627 50.3503 78.1719 48.8824 77.3516C46.8532 76.2291 45.1694 76.3154 43.1834 77.6538C40.9383 79.1649 38.9523 80.7624 38.3478 84.1732C36.9663 82.5325 35.9301 81.2805 34.9371 79.9852C32.692 77.0062 29.6698 75.4088 26.0431 75.1065C23.1936 74.8907 20.7327 76.1859 19.3079 78.5173C17.4946 81.4964 16.1562 84.6913 14.7314 87.8862C13.9975 89.5268 13.5225 91.2969 12.7886 93.3261C12.0546 92.4195 11.3638 91.815 11.0184 91.1242C8.77335 86.7205 6.48511 82.3167 4.41274 77.8265C3.4629 75.7542 4.19687 74.8043 6.44194 74.5884C11.1048 74.1135 12.8749 71.8685 12.2705 67.1624C12.0114 64.9606 11.5365 62.8018 11.3638 60.5999C11.0616 57.0165 11.3638 53.4762 12.7454 50.1517C13.6521 47.993 14.6882 46.8273 15.4222 46.2229C15.6813 46.007 15.9835 45.7911 15.9835 45.7911C16.2425 45.6184 16.4584 45.4889 16.7174 45.3594C16.0698 44.3232 15.3359 43.2438 14.6019 41.9918C11.7092 44.1937 10.2413 46.5251 9.46414 47.9498C9.07558 48.727 6.91685 54.6419 7.43495 60.9022C7.60765 63.1472 8.08256 65.3923 8.38478 67.5942C8.68701 69.9688 8.25526 70.4869 5.96702 70.7459C1.30418 71.3072 -1.19994 74.6316 0.570215 78.8195C2.77211 84.0005 5.4921 88.9655 8.16891 93.9306C8.73018 95.0099 9.80954 95.9598 10.8457 96.6506C12.7454 97.989 14.8178 97.4277 15.8971 95.4417C16.4584 94.4055 16.8038 93.283 17.2355 92.1604C18.4444 89.095 19.3943 85.9433 20.8622 83.0506C23.1936 78.3878 26.4317 77.8265 30.5333 81.1078C30.965 81.4532 31.3104 81.9713 31.699 82.403C32.9942 83.8278 34.1167 85.4684 35.5847 86.7205C38.0456 88.836 40.5929 88.2316 41.8018 85.2094C42.5358 83.4392 43.4856 82.1008 45.1262 81.0646C45.9897 80.5465 46.4646 80.6329 47.2849 81.0214C48.8824 81.7986 50.4798 82.6189 52.1636 82.9643C53.7179 83.2665 54.6678 83.8278 55.2722 85.2957C56.0062 87.109 57.3446 88.2747 59.4169 87.9293C61.2303 87.6271 62.2665 88.4474 63.0436 89.9154C63.4322 90.6493 63.8639 91.2969 64.2525 91.9877C66.109 94.9668 68.6994 96.996 72.1534 97.6436C77.4639 98.6366 82.5153 97.989 87.3076 95.3553C87.6962 95.1395 88.2575 94.7941 88.6028 94.8804C90.7616 95.4417 92.6181 94.6214 94.4314 93.6284C95.5539 92.9807 96.6765 92.9376 97.799 93.6284C100.13 95.0963 102.505 95.0099 105.052 94.1033C106.477 93.5852 108.204 93.542 109.758 93.7579C112.09 94.1033 114.033 93.6284 115.975 92.29C117.227 91.4265 118.739 90.8652 120.207 90.4766C122.365 89.9154 123.79 88.7497 124.222 86.5478C124.481 85.1662 124.438 83.7414 124.697 82.403C124.869 81.5827 125.172 80.3738 125.733 80.2011C126.942 79.7694 128.453 79.683 129.359 81.0646C130.612 83.0075 132.382 83.8709 134.713 83.7414C135.447 83.6982 136.224 83.8709 136.958 83.9573C139.505 84.3459 140.024 85.2525 139.98 87.7566C139.937 89.4836 140.196 91.2969 140.801 92.8944C141.405 94.5782 143.046 95.3553 144.859 95.2258C146.672 95.0963 147.968 94.1465 148.702 92.4626C148.961 91.815 149.09 91.1242 149.306 90.4335C151.206 83.6551 151.422 76.963 148.227 70.4437C147.752 69.4507 147.45 68.3282 147.147 67.2488C145.895 62.8882 145.895 62.8882 141.448 63.2336C141.405 63.2336 141.362 63.2336 141.276 63.2336C139.29 63.3631 138.901 63.0609 138.728 61.0749C138.685 60.4272 138.642 59.7796 138.685 59.132C139.074 55.5054 139.203 51.8787 141.189 48.5543C142.01 47.2159 142.01 45.3594 142.355 43.7187C142.441 43.3733 142.485 42.9848 142.571 42.2076C143.305 43.5029 143.78 44.4527 144.384 45.3594C145.852 47.5181 147.191 49.8495 149.004 51.7492C150.515 53.3466 152.501 54.685 154.487 55.5485C157.034 56.8438 159.409 55.1168 159.063 52.44Z" fill="white"/>
<path d="M27.4252 54.9008C28.2455 54.685 29.0227 54.0805 29.7998 53.2602C28.8068 53.6488 27.7706 53.8215 26.7344 53.7783C22.4602 53.6056 18.6608 49.7199 18.4881 44.7117C18.0132 44.8412 17.3656 45.0571 16.6748 45.4456C22.0284 53.6056 25.3097 55.4189 27.4252 54.9008Z" fill="white"/>
<path d="M26.5605 14.7488C32.13 14.7488 36.7496 19.3253 36.7496 24.8948C36.7928 30.5938 32.1731 35.2135 26.4741 35.2135C20.9046 35.2135 16.3281 30.5938 16.3281 25.0243C16.3281 19.3253 20.9046 14.7488 26.5605 14.7488ZM26.5605 32.2776C30.5757 32.2776 33.8569 29.0395 33.9001 25.0675C33.9433 20.9659 30.662 17.6846 26.5605 17.6846C22.5884 17.6846 19.3072 20.9659 19.3072 24.9379C19.264 28.9532 22.5021 32.2776 26.5605 32.2776Z" fill="white"/>
<path d="M8.73159 32.6659C9.42238 34.4361 10.4586 36.7675 11.9697 40.0919C15.3805 46.4386 20.0433 51.7922 25.3969 56.5846C26.2604 57.3617 26.8648 57.3617 27.7283 56.5846C33.1251 51.749 37.788 46.3522 41.2851 40.0056C43.1416 36.0336 44.0483 33.3136 44.7822 31.198C45.5162 28.1326 45.8616 25.0241 45.3003 21.8723C43.4438 11.5968 34.5499 4.99114 24.188 6.15685C14.0852 7.23621 6.40018 16.9505 7.69541 26.9669C7.95445 28.8666 8.34302 30.7663 8.73159 32.6659ZM25.2674 8.96319C33.3842 8.14288 41.0261 14.0146 42.4076 22.2609C43.1848 27.0101 41.9759 31.4571 40.0762 35.8177C38.3492 39.7034 36.061 43.2437 33.341 46.4818C31.2686 48.9859 28.9804 51.3173 26.7353 53.8214C23.5836 50.9287 20.8204 47.9929 18.489 44.7548C16.8052 42.3802 15.2078 39.9192 13.8262 37.372C11.8402 33.6158 10.5449 29.6006 10.5017 25.2831C10.4154 16.7346 16.7189 9.74033 25.2674 8.96319Z" fill="white"/>
<path d="M114.854 40.3943C120.424 40.3943 125 44.9276 125 50.4971C125.043 56.1961 120.424 60.7726 114.768 60.7726C109.242 60.7726 104.665 56.1961 104.665 50.6266C104.665 44.9276 109.198 40.3943 114.854 40.3943ZM114.811 57.8367C118.783 57.8367 122.064 54.5987 122.107 50.6698C122.151 46.6114 118.869 43.287 114.811 43.3301C110.839 43.3301 107.601 46.5682 107.558 50.5834C107.558 54.5555 110.796 57.8367 114.811 57.8367Z" fill="white"/>
<path d="M97.0656 58.2253C97.7564 59.9523 98.7926 62.3269 100.304 65.6082C103.671 71.9548 108.334 77.2653 113.688 82.0144C114.551 82.7484 115.156 82.7484 116.019 82.0144C121.416 77.2221 126.036 71.8253 129.533 65.4786C131.389 61.5066 132.253 58.7866 132.987 56.7142C133.721 53.6488 134.066 50.5835 133.505 47.4317C131.648 37.2426 122.798 30.6369 112.479 31.7594C102.419 32.8388 94.7342 42.5098 96.0294 52.4831C96.2885 54.426 96.677 56.3257 97.0656 58.2253ZM113.558 34.6089C121.632 33.8318 129.231 39.6603 130.612 47.8635C131.389 52.6127 130.224 57.0165 128.281 61.3339C126.554 65.2196 124.265 68.7167 121.589 71.9548C119.516 74.4589 117.271 76.7903 115.026 79.2513C111.874 76.3586 109.111 73.4659 106.823 70.1847C105.139 67.8101 103.542 65.3491 102.203 62.8018C100.217 59.0456 98.9653 55.0736 98.9221 50.7562C98.7494 42.3372 105.053 35.4292 113.558 34.6089Z" fill="white"/>
<path d="M69.3042 38.1062C74.8305 38.1062 79.407 42.6395 79.407 48.1227C79.4502 53.7785 74.8737 58.355 69.2178 58.355C63.7347 58.355 59.1582 53.7785 59.1582 48.2954C59.1582 42.6395 63.6483 38.1062 69.3042 38.1062ZM69.261 55.4623C73.2331 55.4623 76.4711 52.2674 76.5143 48.3385C76.5575 44.2801 73.2762 40.9989 69.261 41.0421C65.3321 41.0421 62.0941 44.2801 62.0509 48.2522C62.0077 52.1811 65.2458 55.4191 69.261 55.4623Z" fill="white"/>
<path d="M51.6034 55.8072C52.2942 57.5342 53.3304 59.8656 54.7983 63.1469C58.1659 69.4504 62.7856 74.7608 68.096 79.4668C68.9595 80.2008 69.5639 80.2008 70.4274 79.4668C75.7811 74.6745 80.4007 69.3208 83.8547 63.0605C85.7112 59.1317 86.5747 56.4117 87.3086 54.3393C88.0426 51.3171 88.388 48.2517 87.8267 45.1C86.0134 34.954 77.2058 28.3915 66.9303 29.514C56.957 30.5934 49.3151 40.1781 50.5672 50.1514C50.8262 52.0511 51.2148 53.9507 51.6034 55.8072ZM67.9665 32.3635C75.9969 31.5864 83.5524 37.4149 84.934 45.5317C85.7112 50.2377 84.5455 54.6415 82.6026 58.9158C80.8756 62.7583 78.6306 66.2554 75.9537 69.4935C73.8814 71.9545 71.6363 74.2859 69.4344 76.7468C66.2827 73.8973 63.5627 71.0046 61.2744 67.7666C59.5906 65.4351 58.0364 62.9742 56.6548 60.4269C54.6688 56.7139 53.4167 52.7419 53.3735 48.4676C53.2872 40.0486 59.5043 33.1407 67.9665 32.3635Z" fill="white"/>
</g>
<defs>
<clipPath id="clip0_804_17">
<rect width="159" height="98" fill="white"/>
</clipPath>
</defs>
</svg>
