<svg width="44" height="39" viewBox="0 0 44 39" fill="none" xmlns="http://www.w3.org/2000/svg">
<g>
<path d="M42.8892 32.4403L25.9092 3.00031C25.5079 2.32026 24.9362 1.75663 24.2505 1.36508C23.5648 0.973522 22.7888 0.767578 21.9992 0.767578C21.2096 0.767578 20.4336 0.973522 19.7479 1.36508C19.0622 1.75663 18.4905 2.32026 18.0892 3.00031L1.08919 32.4003C0.692348 33.0896 0.483138 33.8709 0.482424 34.6663C0.48171 35.4617 0.689518 36.2434 1.08513 36.9335C1.48073 37.6235 2.05032 38.1978 2.73709 38.599C3.42386 39.0003 4.20382 39.2145 4.99919 39.2203H38.9992C39.7882 39.2101 40.5609 38.9944 41.2412 38.5946C41.9214 38.1947 42.4857 37.6245 42.8784 36.94C43.2711 36.2556 43.4786 35.4807 43.4805 34.6916C43.4824 33.9025 43.2786 33.1266 42.8892 32.4403V32.4403ZM40.2892 35.4403C40.1595 35.6732 39.9694 35.8668 39.7388 36.0006C39.5082 36.1343 39.2458 36.2034 38.9792 36.2003H4.99919C4.73172 36.2023 4.46853 36.1332 4.23653 36C4.00454 35.8669 3.81207 35.6745 3.67882 35.4426C3.54556 35.2107 3.4763 34.9475 3.47813 34.6801C3.47995 34.4126 3.55279 34.1504 3.68919 33.9203L20.6892 4.52031C20.8214 4.28968 21.0122 4.09804 21.2422 3.96476C21.4722 3.83149 21.7334 3.76131 21.9992 3.76131C22.265 3.76131 22.5262 3.83149 22.7562 3.96476C22.9862 4.09804 23.177 4.28968 23.3092 4.52031L40.3092 33.9203C40.4464 34.1545 40.5171 34.4217 40.5136 34.6931C40.5101 34.9645 40.4325 35.2298 40.2892 35.4603V35.4403Z" fill="#f66262"/>
<path d="M22 27.25C22.3978 27.25 22.7794 27.092 23.0607 26.8107C23.342 26.5294 23.5 26.1478 23.5 25.75V13.75C23.5 13.3522 23.342 12.9706 23.0607 12.6893C22.7794 12.408 22.3978 12.25 22 12.25C21.6022 12.25 21.2206 12.408 20.9393 12.6893C20.658 12.9706 20.5 13.3522 20.5 13.75V25.75C20.5 26.1478 20.658 26.5294 20.9393 26.8107C21.2206 27.092 21.6022 27.25 22 27.25Z" fill="#f66262"/>
<path d="M22.0002 29.3398C21.5785 29.3398 21.174 29.5074 20.8759 29.8055C20.5777 30.1037 20.4102 30.5081 20.4102 30.9298C20.4102 31.3515 20.5777 31.756 20.8759 32.0541C21.174 32.3523 21.5785 32.5198 22.0002 32.5198C22.4219 32.5198 22.8263 32.3523 23.1245 32.0541C23.4226 31.756 23.5902 31.3515 23.5902 30.9298C23.5902 30.5081 23.4226 30.1037 23.1245 29.8055C22.8263 29.5074 22.4219 29.3398 22.0002 29.3398V29.3398Z" fill="#f66262"/>
</g>
</svg>
