<svg width="95" height="90" viewBox="0 0 95 90" fill="none" xmlns="http://www.w3.org/2000/svg">
<path d="M46.5179 58.6044L46.6322 59.8276L58.3451 64.1816L56.3776 21.5735L55.8924 11.3108L5.91826 0.954851L16.0962 48.4766L25.6981 52.0458L19.2681 17.2218L43.2502 23.6163L46.5179 58.6044ZM45.9175 60.1266L42.562 24.1991L20.2083 18.2388L26.6624 53.1931L15.4564 49.0276C11.956 32.6852 8.4551 16.3428 4.95605 0C22.1724 3.56663 39.3887 7.13395 56.6046 10.703C57.466 28.8892 58.2966 47.0771 59.1359 65.2644L45.9392 60.3589L45.9175 60.1266Z" fill="white"/>
<path d="M70.946 20.372L60.7208 27.8171L68.6574 30.2357L75.7874 21.4678L70.946 20.372ZM56.7152 30.0235L56.3642 21.2928L61.8735 17.6745L61.8764 17.6716L68.9152 13.1963C75.7635 14.6144 82.6116 16.0342 89.4596 17.4536C79.0945 33.5783 69.499 49.1388 59.1357 65.2647C59.1272 65.0804 58.9268 64.8895 58.9174 64.7061C58.5544 57.6811 57.6898 51.173 57.3661 44.1205L61.5311 38.9989L57.0668 37.6384L56.7152 30.0235ZM43.8042 30.076L44.6838 39.4939C38.4105 44.0592 32.9345 48.6268 26.6622 53.1934L23.9111 42.3689C30.5351 38.0583 37.1222 33.7745 43.7472 29.4656L43.8042 30.076Z" fill="white"/>
<path d="M2.84901 88.4793H0.5V77.0604H10.0592V88.4793H7.72653V79.1647H2.84901V88.4793ZM14.9367 88.4793H12.5877V77.0604H17.5794C18.8083 77.0604 19.7761 77.3812 20.4831 78.0228C21.2008 78.6536 21.5597 79.4801 21.5597 80.5023C21.5597 81.5355 21.2008 82.3674 20.4831 82.9982C19.7761 83.6398 18.8083 83.9606 17.5794 83.9606H14.9367V88.4793ZM14.9367 79.1158V81.9542H17.4163C17.9818 81.9542 18.4222 81.8318 18.7376 81.5872C19.053 81.3424 19.2106 80.9917 19.2106 80.535C19.2106 80.0782 19.053 79.7275 18.7376 79.4828C18.4222 79.2381 17.9818 79.1158 17.4163 79.1158H14.9367ZM25.8499 85.4451C26.5242 86.1519 27.3669 86.5054 28.3784 86.5054C29.3789 86.5054 30.2163 86.1519 30.8905 85.4451C31.5648 84.7382 31.9019 83.8464 31.9019 82.7698C31.9019 81.6932 31.5648 80.8014 30.8905 80.0945C30.2163 79.3877 29.3789 79.0342 28.3784 79.0342C27.3669 79.0342 26.5242 79.3877 25.8499 80.0945C25.1865 80.7905 24.8548 81.6823 24.8548 82.7698C24.8548 83.8573 25.1865 84.7491 25.8499 85.4451ZM22.4568 82.7698C22.4568 81.095 23.0169 79.6921 24.1371 78.5611C25.2572 77.4084 26.6709 76.832 28.3784 76.832C30.0749 76.832 31.4832 77.4084 32.6033 78.5611C33.7344 79.7139 34.2999 81.1168 34.2999 82.7698C34.2999 84.4119 33.7344 85.8148 32.6033 86.9784C31.4832 88.1313 30.0749 88.7076 28.3784 88.7076C26.6709 88.7076 25.2572 88.1313 24.1371 86.9784C23.0169 85.8257 22.4568 84.4228 22.4568 82.7698ZM43.2555 89.0828H40.8902V87.8267C39.1285 87.7615 37.7691 87.245 36.8121 86.277C35.8551 85.3092 35.3766 84.1618 35.3766 82.8351C35.3766 81.4974 35.8551 80.3501 36.8121 79.3931C37.78 78.4252 39.1393 77.9087 40.8902 77.8434V76.7993H43.2555V77.8434C45.0065 77.9087 46.3659 78.4252 47.3337 79.3931C48.2907 80.3501 48.7693 81.4974 48.7693 82.8351C48.7693 84.1618 48.2907 85.3092 47.3337 86.277C46.3767 87.245 45.0174 87.7615 43.2555 87.8267V89.0828ZM40.8902 85.7061V79.964C39.9115 79.9749 39.1502 80.2386 38.6065 80.7552C38.0627 81.2718 37.7908 81.9651 37.7908 82.8351C37.7908 83.6942 38.0627 84.382 38.6065 84.8986C39.1502 85.4152 39.9115 85.6844 40.8902 85.7061ZM43.2555 79.964V85.7061C44.2344 85.6844 44.9956 85.4152 45.5394 84.8986C46.0831 84.382 46.355 83.6942 46.355 82.8351C46.355 81.9651 46.0831 81.2718 45.5394 80.7552C44.9956 80.2386 44.2344 79.9749 43.2555 79.964ZM51.1694 88.9686H48.7062L53.6 77.4845H55.8512L60.745 88.9686H58.2492L57.1236 86.3259H52.295L51.1694 88.9686ZM54.7093 80.4207L53.0291 84.3847H56.3732L54.7093 80.4207ZM68.0042 88.9686H62.2621V77.5497H67.629C68.6838 77.5497 69.5241 77.8 70.1492 78.3001C70.7744 78.8002 71.0872 79.5018 71.0872 80.4045C71.0872 80.9591 70.9511 81.4323 70.6794 81.8236C70.4077 82.215 70.065 82.4979 69.6517 82.6719C70.2716 82.8024 70.816 83.1393 71.283 83.6833C71.74 84.2156 71.9681 84.8959 71.9681 85.7224C71.9681 86.6902 71.6068 87.4707 70.8915 88.0714C70.1825 88.6666 69.2218 88.9686 68.0042 88.9686ZM64.6111 83.9606V86.9458H67.5638C68.151 86.9458 68.6079 86.8178 68.934 86.5625C69.26 86.3071 69.4234 85.9399 69.4234 85.4614C69.4234 84.9829 69.26 84.6129 68.934 84.3521C68.6079 84.0913 68.1506 83.9606 67.5638 83.9606H64.6111ZM64.6111 79.5072V82.0194H67.2537C67.7432 82.0194 68.1265 81.9107 68.4038 81.6932C68.6811 81.4757 68.8198 81.1711 68.8198 80.7796C68.8198 80.3772 68.6811 80.0645 68.4038 79.8416C68.1265 79.6188 67.7428 79.5072 67.2537 79.5072H64.6111ZM72.6859 79.6541V77.5497H82.2615V79.6541H78.6401V88.9686H76.2911V79.6541H72.6859ZM86.1601 85.9344C86.8339 86.641 87.6772 86.9947 88.6887 86.9947C89.6892 86.9947 90.5267 86.6411 91.2008 85.9344C91.8748 85.2277 92.2122 84.3358 92.2122 83.2591C92.2122 82.1825 91.875 81.2907 91.2008 80.5839C90.5266 79.877 89.6892 79.5236 88.6887 79.5236C87.6772 79.5236 86.8342 79.877 86.1601 80.5839C85.4969 81.2796 85.1651 82.1716 85.1651 83.2591C85.1651 84.3466 85.497 85.2389 86.1601 85.9344ZM82.7671 83.2591C82.7671 81.5844 83.3328 80.1866 84.4473 79.0505C85.5728 77.9032 86.9812 77.3214 88.6887 77.3214C90.3852 77.3214 91.7909 77.9007 92.9136 79.0505C94.0416 80.2058 94.6101 81.6061 94.6101 83.2591C94.6101 84.9013 94.0444 86.3042 92.9136 87.4678C91.7936 88.6203 90.3852 89.197 88.6887 89.197C86.9812 89.197 85.5673 88.6204 84.4473 87.4678C83.3274 86.3153 82.7671 84.9121 82.7671 83.2591Z" fill="white"/>
</svg>
