<svg width="641" height="500" viewBox="0 0 641 500" fill="none" xmlns="http://www.w3.org/2000/svg">
<path d="M536.674 -112H-105.674C-162.921 -112 -209.5 -62.6004 -209.5 -1.88646V389.886C-209.5 450.6 -162.921 500 -105.674 500H536.674C593.921 500 640.5 450.6 640.5 389.886V-1.87447C640.511 -62.6003 593.933 -112 536.674 -112ZM485.941 -40.1634L215.5 144.624L-54.9412 -40.1634H485.941ZM536.674 428.175H-105.674C-125.577 428.175 -141.766 410.994 -141.766 389.898V0.160896L194.604 229.559C195.056 229.858 195.541 230.062 196.004 230.337C196.489 230.625 196.986 230.9 197.483 231.163C200.09 232.588 202.777 233.738 205.52 234.492C205.803 234.576 206.085 234.612 206.367 234.683C209.381 235.438 212.429 235.905 215.477 235.905C215.489 235.905 215.5 235.905 215.5 235.905C215.523 235.905 215.534 235.905 215.545 235.905C218.593 235.905 221.641 235.45 224.655 234.683C224.938 234.612 225.22 234.576 225.502 234.492C228.245 233.738 230.921 232.588 233.54 231.163C234.037 230.9 234.533 230.625 235.019 230.337C235.482 230.062 235.967 229.858 236.419 229.559L572.788 0.160896V389.886C572.777 410.994 556.577 428.175 536.674 428.175Z" fill="#404040" fill-opacity="0.26"/>
</svg>
